%TF.GenerationSoftware,KiCad,Pcbnew,(5.1.10)-1*%
%TF.CreationDate,2021-12-03T15:52:50+05:30*%
%TF.ProjectId,Relay Board 2.0,52656c61-7920-4426-9f61-726420322e30,rev?*%
%TF.SameCoordinates,Original*%
%TF.FileFunction,Profile,NP*%
%FSLAX46Y46*%
G04 Gerber Fmt 4.6, Leading zero omitted, Abs format (unit mm)*
G04 Created by KiCad (PCBNEW (5.1.10)-1) date 2021-12-03 15:52:50*
%MOMM*%
%LPD*%
G01*
G04 APERTURE LIST*
%TA.AperFunction,Profile*%
%ADD10C,0.050000*%
%TD*%
G04 APERTURE END LIST*
D10*
X157509600Y-47010000D02*
X190000000Y-47000000D01*
X100000000Y-47000000D02*
X135009600Y-47010000D01*
X126940000Y-77720000D02*
X117940000Y-77720000D01*
X126940000Y-76720000D02*
X126940000Y-77720000D01*
X117940000Y-76720000D02*
X126940000Y-76720000D01*
X117940000Y-77720000D02*
X117940000Y-76720000D01*
X138320000Y-82300000D02*
X139320000Y-82300000D01*
X138320000Y-107500000D02*
X138320000Y-105500000D01*
X139320000Y-107500000D02*
X138320000Y-107500000D01*
X139320000Y-82300000D02*
X139320000Y-107500000D01*
X138320000Y-105500000D02*
X138320000Y-82300000D01*
X127810000Y-75770000D02*
X133810000Y-75770000D01*
X133810000Y-77770000D02*
X127810000Y-77770000D01*
X133810000Y-75770000D02*
X133810000Y-77770000D01*
X127810000Y-77770000D02*
X127810000Y-75770000D01*
X111030000Y-75750000D02*
X117030000Y-75750000D01*
X117030000Y-77750000D02*
X111030000Y-77750000D01*
X117030000Y-75750000D02*
X117030000Y-77750000D01*
X111030000Y-77750000D02*
X111030000Y-75750000D01*
X185250000Y-78010000D02*
X183250000Y-78010000D01*
X185260000Y-72430000D02*
X185250000Y-78010000D01*
X183260000Y-72430000D02*
X185260000Y-72430000D01*
X183250000Y-78010000D02*
X183260000Y-72430000D01*
X154970000Y-53810000D02*
X154969600Y-47000600D01*
X157509600Y-47010000D02*
X157509600Y-53810000D01*
X137549600Y-47000600D02*
X137549600Y-53800600D01*
X137549600Y-53800600D02*
X135009600Y-53800600D01*
X157509600Y-53810000D02*
X154970000Y-53810000D01*
X154969600Y-47000600D02*
X137549600Y-47000600D01*
X135009600Y-53800600D02*
X135009600Y-47010000D01*
X100000000Y-119000000D02*
X190000000Y-119000000D01*
X190000000Y-119000000D02*
X190000000Y-47000000D01*
X100000000Y-119000000D02*
X100000000Y-47000000D01*
M02*
