M48
; DRILL file {KiCad (5.1.10)-1} date 12/03/21 15:52:53
; FORMAT={-:-/ absolute / metric / decimal}
; #@! TF.CreationDate,2021-12-03T15:52:53+05:30
; #@! TF.GenerationSoftware,Kicad,Pcbnew,(5.1.10)-1
; #@! TF.FileFunction,Plated,1,2,PTH
FMAT,2
METRIC
T1C0.400
T2C0.800
T3C1.000
T4C1.290
T5C1.320
T6C1.600
T7C3.000
%
G90
G05
T1
X101.981Y-78.105
X103.453Y-75.717
X103.91Y-82.42
X103.91Y-85.17
X108.953Y-73.431
X115.227Y-72.085
X121.962Y-84.98
X122.2Y-83.25
X125.857Y-75.59
X126.568Y-67.869
X127.737Y-72.111
X128.981Y-59.131
X132.1Y-63.82
X133.87Y-53.36
X134.87Y-66.28
X135.8Y-59.2
X137.058Y-59.868
X138.08Y-63.97
X138.09Y-62.73
X138.11Y-65.16
X138.11Y-66.28
X138.15Y-67.4
X138.56Y-59.56
X139.1Y-64.0
X139.11Y-62.76
X139.13Y-65.19
X139.13Y-66.31
X139.17Y-67.43
X139.8Y-53.54
X140.11Y-64.02
X140.12Y-62.78
X140.14Y-65.21
X140.14Y-66.33
X140.18Y-67.45
X140.83Y-70.92
X141.16Y-81.559
X141.18Y-64.02
X141.19Y-62.78
X141.21Y-65.21
X141.21Y-66.33
X141.25Y-67.45
X141.95Y-73.14
X142.23Y-71.45
X142.24Y-64.04
X142.25Y-62.8
X142.27Y-65.23
X142.27Y-66.35
X142.31Y-67.47
X142.9Y-52.49
X143.27Y-64.07
X143.28Y-62.83
X143.3Y-65.26
X143.3Y-66.38
X143.34Y-67.5
X143.358Y-77.775
X143.459Y-83.985
X143.49Y-71.42
X144.66Y-54.29
X146.14Y-80.89
X146.863Y-59.334
X147.95Y-61.15
X148.234Y-86.487
X148.255Y-75.325
X148.27Y-55.18
X148.28Y-64.67
X148.48Y-71.24
X149.41Y-53.23
X150.88Y-76.18
X151.47Y-82.35
X152.79Y-52.53
X157.25Y-63.68
X159.82Y-51.02
X161.68Y-50.15
X164.93Y-72.44
X169.621Y-71.501
X171.196Y-79.985
X172.1Y-86.63
X174.386Y-66.982
X174.74Y-83.31
X178.041Y-63.525
X181.559Y-74.93
T2
X167.843Y-84.887
X177.42Y-58.09
X186.22Y-85.17
T3
X110.62Y-52.9
X110.62Y-55.44
X113.16Y-52.9
X113.16Y-55.44
X115.7Y-52.9
X115.7Y-55.44
X118.24Y-52.9
X118.24Y-55.44
X120.78Y-52.9
X120.78Y-55.44
X123.32Y-52.9
X123.32Y-55.44
X125.86Y-52.9
X125.86Y-55.44
X128.4Y-52.9
X128.4Y-55.44
X140.09Y-50.43
X142.63Y-50.43
X144.3Y-88.8
X144.3Y-91.34
X144.3Y-93.88
X144.3Y-96.42
X144.3Y-98.96
X144.3Y-101.5
X145.17Y-50.43
X147.71Y-50.43
X150.25Y-50.43
X152.79Y-50.43
X162.95Y-68.265
X163.44Y-52.9
X163.44Y-55.44
X165.49Y-68.265
X165.98Y-52.9
X165.98Y-55.44
X168.03Y-68.265
X168.52Y-52.9
X168.52Y-55.44
X168.7Y-88.8
X168.7Y-91.34
X168.7Y-93.88
X168.7Y-96.42
X168.7Y-98.96
X168.7Y-101.5
X171.06Y-52.9
X171.06Y-55.44
X173.6Y-52.9
X173.6Y-55.44
T4
X112.6Y-88.82
X129.36Y-88.8
X154.2Y-88.9
X178.6Y-88.71
T5
X106.6Y-90.82
X106.6Y-103.02
X118.6Y-90.82
X118.6Y-103.02
X123.36Y-90.8
X123.36Y-103.0
X135.36Y-90.8
X135.36Y-103.0
X148.2Y-90.9
X148.2Y-103.1
X160.2Y-90.9
X160.2Y-103.1
X172.6Y-90.71
X172.6Y-102.91
X184.6Y-90.71
X184.6Y-102.91
T6
X105.38Y-62.789
X105.38Y-67.869
X108.4Y-112.6
X113.48Y-112.6
X118.56Y-112.6
X125.95Y-112.6
X131.03Y-112.6
X136.11Y-112.6
X143.5Y-112.6
X148.58Y-112.6
X153.66Y-112.6
X158.74Y-112.6
X166.3Y-112.62
X171.38Y-112.62
X176.46Y-112.62
X181.54Y-112.62
X184.21Y-55.41
X184.21Y-60.49
T7
X102.44Y-116.57
X102.49Y-49.42
X187.46Y-49.43
X187.52Y-116.53
T0
M30
