%TF.GenerationSoftware,KiCad,Pcbnew,(5.1.10)-1*%
%TF.CreationDate,2021-12-03T15:52:50+05:30*%
%TF.ProjectId,Relay Board 2.0,52656c61-7920-4426-9f61-726420322e30,rev?*%
%TF.SameCoordinates,Original*%
%TF.FileFunction,Other,Fab,Top*%
%FSLAX46Y46*%
G04 Gerber Fmt 4.6, Leading zero omitted, Abs format (unit mm)*
G04 Created by KiCad (PCBNEW (5.1.10)-1) date 2021-12-03 15:52:50*
%MOMM*%
%LPD*%
G01*
G04 APERTURE LIST*
%ADD10C,0.100000*%
%ADD11C,0.127000*%
%ADD12C,0.200000*%
%ADD13C,0.150000*%
%ADD14C,0.130000*%
%ADD15C,0.080000*%
%ADD16C,0.060000*%
%ADD17C,0.254000*%
%ADD18C,0.098425*%
%ADD19C,0.075000*%
%ADD20C,0.120000*%
G04 APERTURE END LIST*
D10*
%TO.C,D22*%
X178041300Y-64062800D02*
X178041300Y-63562800D01*
X178441300Y-64062800D02*
X178041300Y-64662800D01*
X177641300Y-64062800D02*
X178441300Y-64062800D01*
X178041300Y-64662800D02*
X177641300Y-64062800D01*
X178041300Y-64662800D02*
X178591300Y-64662800D01*
X178041300Y-64662800D02*
X177491300Y-64662800D01*
X178041300Y-65062800D02*
X178041300Y-64662800D01*
X178941300Y-65712800D02*
X177141300Y-65712800D01*
X178941300Y-62912800D02*
X178941300Y-65712800D01*
X177141300Y-62912800D02*
X178941300Y-62912800D01*
X177141300Y-65712800D02*
X177141300Y-62912800D01*
%TO.C,C17*%
X103138500Y-79505000D02*
X105938500Y-79505000D01*
X105938500Y-79505000D02*
X106638500Y-78805000D01*
X106638500Y-78805000D02*
X106638500Y-76705000D01*
X106638500Y-76705000D02*
X103138500Y-76705000D01*
X103138500Y-76705000D02*
X103138500Y-79505000D01*
%TO.C,D8*%
X131949700Y-82654700D02*
X131949700Y-81454700D01*
X129949700Y-82654700D02*
X131949700Y-82654700D01*
X129949700Y-81754700D02*
X129949700Y-82654700D01*
X130249700Y-81454700D02*
X129949700Y-81754700D01*
X131949700Y-81454700D02*
X130249700Y-81454700D01*
%TO.C,R13*%
X175342800Y-78549400D02*
X175342800Y-76949400D01*
X176167800Y-78549400D02*
X175342800Y-78549400D01*
X176167800Y-76949400D02*
X176167800Y-78549400D01*
X175342800Y-76949400D02*
X176167800Y-76949400D01*
%TO.C,C12*%
X171570000Y-72385000D02*
X171570000Y-73635000D01*
X171570000Y-73635000D02*
X169570000Y-73635000D01*
X169570000Y-73635000D02*
X169570000Y-72385000D01*
X169570000Y-72385000D02*
X171570000Y-72385000D01*
%TO.C,C8*%
X176094900Y-65364200D02*
X176094900Y-66614200D01*
X176094900Y-66614200D02*
X174094900Y-66614200D01*
X174094900Y-66614200D02*
X174094900Y-65364200D01*
X174094900Y-65364200D02*
X176094900Y-65364200D01*
%TO.C,C7*%
X176107600Y-67396200D02*
X176107600Y-68646200D01*
X176107600Y-68646200D02*
X174107600Y-68646200D01*
X174107600Y-68646200D02*
X174107600Y-67396200D01*
X174107600Y-67396200D02*
X176107600Y-67396200D01*
D11*
%TO.C,K3*%
X121610000Y-106450000D02*
X121610000Y-87350000D01*
X137110000Y-106450000D02*
X121610000Y-106450000D01*
X137110000Y-87350000D02*
X137110000Y-106450000D01*
X121610000Y-87350000D02*
X137110000Y-87350000D01*
D10*
%TO.C,J11*%
X166470000Y-50920000D02*
X166470000Y-49720000D01*
X166470000Y-50920000D02*
X166470000Y-50920000D01*
X159530000Y-50920000D02*
X166470000Y-50920000D01*
X159530000Y-57420000D02*
X159530000Y-50920000D01*
X177510000Y-57420000D02*
X159530000Y-57420000D01*
X177510000Y-50920000D02*
X177510000Y-57420000D01*
X170570000Y-50920000D02*
X177510000Y-50920000D01*
X170570000Y-49720000D02*
X170570000Y-50920000D01*
X158340000Y-49720000D02*
X177700000Y-49720000D01*
X158340000Y-58620000D02*
X158340000Y-49720000D01*
X178700000Y-58620000D02*
X158340000Y-58620000D01*
X178700000Y-50720000D02*
X178700000Y-58620000D01*
X177700000Y-49720000D02*
X178700000Y-50720000D01*
%TO.C,C14*%
X141070000Y-72960000D02*
X139470000Y-72960000D01*
X141070000Y-72160000D02*
X141070000Y-72960000D01*
X139470000Y-72160000D02*
X141070000Y-72160000D01*
X139470000Y-72960000D02*
X139470000Y-72160000D01*
%TO.C,J10*%
X139454600Y-51700000D02*
X138819600Y-51065000D01*
X154059600Y-51700000D02*
X139454600Y-51700000D01*
X154059600Y-49160000D02*
X154059600Y-51700000D01*
X138819600Y-49160000D02*
X154059600Y-49160000D01*
X138819600Y-51065000D02*
X138819600Y-49160000D01*
%TO.C,J5*%
X105860000Y-116400000D02*
X105860000Y-107900000D01*
X121100000Y-116400000D02*
X105860000Y-116400000D01*
X121100000Y-107900000D02*
X121100000Y-116400000D01*
X105860000Y-107900000D02*
X121100000Y-107900000D01*
%TO.C,J4*%
X123410000Y-116400000D02*
X123410000Y-107900000D01*
X138650000Y-116400000D02*
X123410000Y-116400000D01*
X138650000Y-107900000D02*
X138650000Y-116400000D01*
X123410000Y-107900000D02*
X138650000Y-107900000D01*
D12*
%TO.C,Y1*%
X150820000Y-68780000D02*
X155520000Y-68780000D01*
X150820000Y-57380000D02*
X150820000Y-68780000D01*
X155520000Y-57380000D02*
X150820000Y-57380000D01*
X155520000Y-68780000D02*
X155520000Y-57380000D01*
D10*
%TO.C,U3*%
X186040000Y-74820000D02*
X183500000Y-77360000D01*
X186040000Y-72960000D02*
X186040000Y-77360000D01*
X182440000Y-72960000D02*
X186040000Y-72960000D01*
X182440000Y-77360000D02*
X182440000Y-72960000D01*
X186040000Y-77360000D02*
X182440000Y-77360000D01*
%TO.C,U2*%
X113580000Y-75150000D02*
X116120000Y-77690000D01*
X111720000Y-75150000D02*
X116120000Y-75150000D01*
X111720000Y-78750000D02*
X111720000Y-75150000D01*
X116120000Y-78750000D02*
X111720000Y-78750000D01*
X116120000Y-75150000D02*
X116120000Y-78750000D01*
%TO.C,U1*%
X130480000Y-74971500D02*
X133020000Y-77511500D01*
X128620000Y-74971500D02*
X133020000Y-74971500D01*
X128620000Y-78571500D02*
X128620000Y-74971500D01*
X133020000Y-78571500D02*
X128620000Y-78571500D01*
X133020000Y-74971500D02*
X133020000Y-78571500D01*
D11*
%TO.C,RT1*%
X176510000Y-60890000D02*
X176510000Y-59450000D01*
X178710000Y-60890000D02*
X178710000Y-59450000D01*
X178710000Y-59450000D02*
X176510000Y-59450000D01*
X178710000Y-60890000D02*
X176510000Y-60890000D01*
D10*
%TO.C,R16*%
X137070000Y-72972500D02*
X135470000Y-72972500D01*
X137070000Y-72147500D02*
X137070000Y-72972500D01*
X135470000Y-72147500D02*
X137070000Y-72147500D01*
X135470000Y-72972500D02*
X135470000Y-72147500D01*
%TO.C,R15*%
X149890000Y-76582500D02*
X148290000Y-76582500D01*
X149890000Y-75757500D02*
X149890000Y-76582500D01*
X148290000Y-75757500D02*
X149890000Y-75757500D01*
X148290000Y-76582500D02*
X148290000Y-75757500D01*
%TO.C,R14*%
X148280000Y-74137500D02*
X149880000Y-74137500D01*
X148280000Y-74962500D02*
X148280000Y-74137500D01*
X149880000Y-74962500D02*
X148280000Y-74962500D01*
X149880000Y-74137500D02*
X149880000Y-74962500D01*
%TO.C,R12*%
X119830000Y-82922500D02*
X118230000Y-82922500D01*
X119830000Y-82097500D02*
X119830000Y-82922500D01*
X118230000Y-82097500D02*
X119830000Y-82097500D01*
X118230000Y-82922500D02*
X118230000Y-82097500D01*
%TO.C,R11*%
X134988200Y-82454500D02*
X133388200Y-82454500D01*
X134988200Y-81629500D02*
X134988200Y-82454500D01*
X133388200Y-81629500D02*
X134988200Y-81629500D01*
X133388200Y-82454500D02*
X133388200Y-81629500D01*
%TO.C,R10*%
X110722500Y-80454600D02*
X110722500Y-82054600D01*
X109897500Y-80454600D02*
X110722500Y-80454600D01*
X109897500Y-82054600D02*
X109897500Y-80454600D01*
X110722500Y-82054600D02*
X109897500Y-82054600D01*
%TO.C,R9*%
X127792500Y-80320000D02*
X127792500Y-81920000D01*
X126967500Y-80320000D02*
X127792500Y-80320000D01*
X126967500Y-81920000D02*
X126967500Y-80320000D01*
X127792500Y-81920000D02*
X126967500Y-81920000D01*
%TO.C,R8*%
X181940000Y-64427500D02*
X183540000Y-64427500D01*
X181940000Y-65252500D02*
X181940000Y-64427500D01*
X183540000Y-65252500D02*
X181940000Y-65252500D01*
X183540000Y-64427500D02*
X183540000Y-65252500D01*
%TO.C,R7*%
X187870000Y-65262500D02*
X186270000Y-65262500D01*
X187870000Y-64437500D02*
X187870000Y-65262500D01*
X186270000Y-64437500D02*
X187870000Y-64437500D01*
X186270000Y-65262500D02*
X186270000Y-64437500D01*
%TO.C,R6*%
X185570000Y-82372500D02*
X183970000Y-82372500D01*
X185570000Y-81547500D02*
X185570000Y-82372500D01*
X183970000Y-81547500D02*
X185570000Y-81547500D01*
X183970000Y-82372500D02*
X183970000Y-81547500D01*
%TO.C,R5*%
X160760000Y-82372500D02*
X159160000Y-82372500D01*
X160760000Y-81547500D02*
X160760000Y-82372500D01*
X159160000Y-81547500D02*
X160760000Y-81547500D01*
X159160000Y-82372500D02*
X159160000Y-81547500D01*
%TO.C,R4*%
X172800000Y-81352500D02*
X171200000Y-81352500D01*
X172800000Y-80527500D02*
X172800000Y-81352500D01*
X171200000Y-80527500D02*
X172800000Y-80527500D01*
X171200000Y-81352500D02*
X171200000Y-80527500D01*
%TO.C,R3*%
X148880000Y-81262500D02*
X147280000Y-81262500D01*
X148880000Y-80437500D02*
X148880000Y-81262500D01*
X147280000Y-80437500D02*
X148880000Y-80437500D01*
X147280000Y-81262500D02*
X147280000Y-80437500D01*
%TO.C,R2*%
X110629600Y-74669400D02*
X109029600Y-74669400D01*
X110629600Y-73844400D02*
X110629600Y-74669400D01*
X109029600Y-73844400D02*
X110629600Y-73844400D01*
X109029600Y-74669400D02*
X109029600Y-73844400D01*
%TO.C,R1*%
X127507900Y-74415400D02*
X125907900Y-74415400D01*
X127507900Y-73590400D02*
X127507900Y-74415400D01*
X125907900Y-73590400D02*
X127507900Y-73590400D01*
X125907900Y-74415400D02*
X125907900Y-73590400D01*
%TO.C,Q4*%
X105590000Y-83054000D02*
X106990000Y-83054000D01*
X106990000Y-80014000D02*
X106990000Y-83054000D01*
X105590000Y-80584000D02*
X106140000Y-80014000D01*
X106140000Y-80014000D02*
X106990000Y-80014000D01*
X105590000Y-80584000D02*
X105590000Y-83034000D01*
%TO.C,Q3*%
X122500000Y-82830000D02*
X123900000Y-82830000D01*
X123900000Y-79790000D02*
X123900000Y-82830000D01*
X122500000Y-80360000D02*
X123050000Y-79790000D01*
X123050000Y-79790000D02*
X123900000Y-79790000D01*
X122500000Y-80360000D02*
X122500000Y-82810000D01*
%TO.C,Q2*%
X175010000Y-82980000D02*
X176410000Y-82980000D01*
X176410000Y-79940000D02*
X176410000Y-82980000D01*
X175010000Y-80510000D02*
X175560000Y-79940000D01*
X175560000Y-79940000D02*
X176410000Y-79940000D01*
X175010000Y-80510000D02*
X175010000Y-82960000D01*
%TO.C,Q1*%
X150970000Y-82910000D02*
X152370000Y-82910000D01*
X152370000Y-79870000D02*
X152370000Y-82910000D01*
X150970000Y-80440000D02*
X151520000Y-79870000D01*
X151520000Y-79870000D02*
X152370000Y-79870000D01*
X150970000Y-80440000D02*
X150970000Y-82890000D01*
D12*
%TO.C,PS1*%
X171290000Y-61765000D02*
X171290000Y-70265000D01*
X159690000Y-61765000D02*
X171290000Y-61765000D01*
X159690000Y-70265000D02*
X159690000Y-61765000D01*
X171290000Y-70265000D02*
X159690000Y-70265000D01*
D10*
%TO.C,L2*%
X132130600Y-61560000D02*
X128930600Y-61560000D01*
X132130600Y-59960000D02*
X132130600Y-61560000D01*
X128930600Y-59960000D02*
X132130600Y-59960000D01*
X128930600Y-61560000D02*
X128930600Y-59960000D01*
D11*
%TO.C,L1*%
X179156600Y-69788800D02*
X179156600Y-75511300D01*
X173447300Y-75511300D02*
X173447300Y-69788800D01*
X178213700Y-72656700D02*
X174363700Y-72656700D01*
%TO.C,K4*%
X104850000Y-106470000D02*
X104850000Y-87370000D01*
X120350000Y-106470000D02*
X104850000Y-106470000D01*
X120350000Y-87370000D02*
X120350000Y-106470000D01*
X104850000Y-87370000D02*
X120350000Y-87370000D01*
%TO.C,K2*%
X170850000Y-106360000D02*
X170850000Y-87260000D01*
X186350000Y-106360000D02*
X170850000Y-106360000D01*
X186350000Y-87260000D02*
X186350000Y-106360000D01*
X170850000Y-87260000D02*
X186350000Y-87260000D01*
%TO.C,K1*%
X146450000Y-106550000D02*
X146450000Y-87450000D01*
X161950000Y-106550000D02*
X146450000Y-106550000D01*
X161950000Y-87450000D02*
X161950000Y-106550000D01*
X146450000Y-87450000D02*
X161950000Y-87450000D01*
D10*
%TO.C,J9*%
X169970000Y-102135000D02*
X169335000Y-102770000D01*
X169970000Y-87530000D02*
X169970000Y-102135000D01*
X167430000Y-87530000D02*
X169970000Y-87530000D01*
X167430000Y-102770000D02*
X167430000Y-87530000D01*
X169335000Y-102770000D02*
X167430000Y-102770000D01*
%TO.C,J8*%
X145570000Y-102135000D02*
X144935000Y-102770000D01*
X145570000Y-87530000D02*
X145570000Y-102135000D01*
X143030000Y-87530000D02*
X145570000Y-87530000D01*
X143030000Y-102770000D02*
X143030000Y-87530000D01*
X144935000Y-102770000D02*
X143030000Y-102770000D01*
%TO.C,J7*%
X117460000Y-50920000D02*
X117460000Y-49720000D01*
X117460000Y-50920000D02*
X117460000Y-50920000D01*
X106710000Y-50920000D02*
X117460000Y-50920000D01*
X106710000Y-57420000D02*
X106710000Y-50920000D01*
X132310000Y-57420000D02*
X106710000Y-57420000D01*
X132310000Y-50920000D02*
X132310000Y-57420000D01*
X121560000Y-50920000D02*
X132310000Y-50920000D01*
X121560000Y-49720000D02*
X121560000Y-50920000D01*
X105520000Y-49720000D02*
X132500000Y-49720000D01*
X105520000Y-58620000D02*
X105520000Y-49720000D01*
X133500000Y-58620000D02*
X105520000Y-58620000D01*
X133500000Y-50720000D02*
X133500000Y-58620000D01*
X132500000Y-49720000D02*
X133500000Y-50720000D01*
D12*
%TO.C,J6*%
X101580000Y-60248800D02*
X110080000Y-60248800D01*
X101580000Y-70408800D02*
X101580000Y-60248800D01*
X110080000Y-70408800D02*
X101580000Y-70408800D01*
X110080000Y-60248800D02*
X110080000Y-70408800D01*
%TO.C,J3*%
X163760000Y-116420000D02*
X163760000Y-107920000D01*
X184080000Y-116420000D02*
X163760000Y-116420000D01*
X184080000Y-107920000D02*
X184080000Y-116420000D01*
X163760000Y-107920000D02*
X184080000Y-107920000D01*
%TO.C,J2*%
X140960000Y-116400000D02*
X140960000Y-107900000D01*
X161280000Y-116400000D02*
X140960000Y-116400000D01*
X161280000Y-107900000D02*
X161280000Y-116400000D01*
X140960000Y-107900000D02*
X161280000Y-107900000D01*
%TO.C,J1*%
X180410000Y-52870000D02*
X188910000Y-52870000D01*
X180410000Y-63030000D02*
X180410000Y-52870000D01*
X188910000Y-63030000D02*
X180410000Y-63030000D01*
X188910000Y-52870000D02*
X188910000Y-63030000D01*
D10*
%TO.C,IC1*%
X144200000Y-67800000D02*
X143400000Y-68600000D01*
X144200000Y-61600000D02*
X144200000Y-68600000D01*
X137200000Y-61600000D02*
X144200000Y-61600000D01*
X137200000Y-68600000D02*
X137200000Y-61600000D01*
X144200000Y-68600000D02*
X137200000Y-68600000D01*
%TO.C,D21*%
X140458200Y-78692000D02*
X141058200Y-78092000D01*
X140458200Y-79642000D02*
X140458200Y-78092000D01*
X143158200Y-79642000D02*
X140458200Y-79642000D01*
X143158200Y-78092000D02*
X143158200Y-79642000D01*
X140458200Y-78092000D02*
X143158200Y-78092000D01*
D12*
%TO.C,D20*%
X136800000Y-75900000D02*
X136800000Y-74500000D01*
X140200000Y-75900000D02*
X136800000Y-75900000D01*
X140200000Y-74500000D02*
X140200000Y-75900000D01*
X136800000Y-74500000D02*
X140200000Y-74500000D01*
D10*
%TO.C,D19*%
X173805000Y-63122800D02*
X173280000Y-62597800D01*
X174880000Y-63122800D02*
X173280000Y-63122800D01*
X174880000Y-60422800D02*
X174880000Y-63122800D01*
X173280000Y-60422800D02*
X174880000Y-60422800D01*
X173280000Y-63122800D02*
X173280000Y-60422800D01*
%TO.C,D18*%
X105718600Y-73427000D02*
X105193600Y-73952000D01*
X105718600Y-72352000D02*
X105718600Y-73952000D01*
X103018600Y-72352000D02*
X105718600Y-72352000D01*
X103018600Y-73952000D02*
X103018600Y-72352000D01*
X105718600Y-73952000D02*
X103018600Y-73952000D01*
%TO.C,D17*%
X168330000Y-105375000D02*
X167805000Y-105900000D01*
X168330000Y-104300000D02*
X168330000Y-105900000D01*
X165630000Y-104300000D02*
X168330000Y-104300000D01*
X165630000Y-105900000D02*
X165630000Y-104300000D01*
X168330000Y-105900000D02*
X165630000Y-105900000D01*
%TO.C,D16*%
X143940000Y-105355000D02*
X143415000Y-105880000D01*
X143940000Y-104280000D02*
X143940000Y-105880000D01*
X141240000Y-104280000D02*
X143940000Y-104280000D01*
X141240000Y-105880000D02*
X141240000Y-104280000D01*
X143940000Y-105880000D02*
X141240000Y-105880000D01*
%TO.C,D15*%
X177193700Y-77682800D02*
X177193700Y-78882800D01*
X179193700Y-77682800D02*
X177193700Y-77682800D01*
X179193700Y-78582800D02*
X179193700Y-77682800D01*
X178893700Y-78882800D02*
X179193700Y-78582800D01*
X177193700Y-78882800D02*
X178893700Y-78882800D01*
D12*
%TO.C,D14*%
X109548400Y-84491600D02*
X109548400Y-85891600D01*
X106148400Y-84491600D02*
X109548400Y-84491600D01*
X106148400Y-85891600D02*
X106148400Y-84491600D01*
X109548400Y-85891600D02*
X106148400Y-85891600D01*
%TO.C,D13*%
X118540000Y-84450000D02*
X118540000Y-85850000D01*
X115140000Y-84450000D02*
X118540000Y-84450000D01*
X115140000Y-85850000D02*
X115140000Y-84450000D01*
X118540000Y-85850000D02*
X115140000Y-85850000D01*
%TO.C,D12*%
X126400000Y-84280000D02*
X126400000Y-85680000D01*
X123000000Y-84280000D02*
X126400000Y-84280000D01*
X123000000Y-85680000D02*
X123000000Y-84280000D01*
X126400000Y-85680000D02*
X123000000Y-85680000D01*
%TO.C,D11*%
X135460000Y-84270000D02*
X135460000Y-85670000D01*
X132060000Y-84270000D02*
X135460000Y-84270000D01*
X132060000Y-85670000D02*
X132060000Y-84270000D01*
X135460000Y-85670000D02*
X132060000Y-85670000D01*
D10*
%TO.C,D10*%
X185100000Y-69760000D02*
X185100000Y-70960000D01*
X187100000Y-69760000D02*
X185100000Y-69760000D01*
X187100000Y-70660000D02*
X187100000Y-69760000D01*
X186800000Y-70960000D02*
X187100000Y-70660000D01*
X185100000Y-70960000D02*
X186800000Y-70960000D01*
%TO.C,D9*%
X116280000Y-82850000D02*
X116280000Y-81650000D01*
X114280000Y-82850000D02*
X116280000Y-82850000D01*
X114280000Y-81950000D02*
X114280000Y-82850000D01*
X114580000Y-81650000D02*
X114280000Y-81950000D01*
X116280000Y-81650000D02*
X114580000Y-81650000D01*
D12*
%TO.C,D7*%
X175430000Y-84430000D02*
X175430000Y-85830000D01*
X172030000Y-84430000D02*
X175430000Y-84430000D01*
X172030000Y-85830000D02*
X172030000Y-84430000D01*
X175430000Y-85830000D02*
X172030000Y-85830000D01*
%TO.C,D6*%
X184390000Y-84370000D02*
X184390000Y-85770000D01*
X180990000Y-84370000D02*
X184390000Y-84370000D01*
X180990000Y-85770000D02*
X180990000Y-84370000D01*
X184390000Y-85770000D02*
X180990000Y-85770000D01*
%TO.C,D5*%
X151580000Y-84360000D02*
X151580000Y-85760000D01*
X148180000Y-84360000D02*
X151580000Y-84360000D01*
X148180000Y-85760000D02*
X148180000Y-84360000D01*
X151580000Y-85760000D02*
X148180000Y-85760000D01*
%TO.C,D4*%
X159690000Y-84150000D02*
X159690000Y-85550000D01*
X156290000Y-84150000D02*
X159690000Y-84150000D01*
X156290000Y-85550000D02*
X156290000Y-84150000D01*
X159690000Y-85550000D02*
X156290000Y-85550000D01*
%TO.C,D3*%
X185750000Y-66800000D02*
X185750000Y-68200000D01*
X182350000Y-66800000D02*
X185750000Y-66800000D01*
X182350000Y-68200000D02*
X182350000Y-66800000D01*
X185750000Y-68200000D02*
X182350000Y-68200000D01*
D10*
%TO.C,D2*%
X182250000Y-82580000D02*
X182250000Y-81380000D01*
X180250000Y-82580000D02*
X182250000Y-82580000D01*
X180250000Y-81680000D02*
X180250000Y-82580000D01*
X180550000Y-81380000D02*
X180250000Y-81680000D01*
X182250000Y-81380000D02*
X180550000Y-81380000D01*
%TO.C,D1*%
X157400000Y-82500000D02*
X157400000Y-81300000D01*
X155400000Y-82500000D02*
X157400000Y-82500000D01*
X155400000Y-81600000D02*
X155400000Y-82500000D01*
X155700000Y-81300000D02*
X155400000Y-81600000D01*
X157400000Y-81300000D02*
X155700000Y-81300000D01*
%TO.C,C16*%
X132065000Y-62630000D02*
X133665000Y-62630000D01*
X132065000Y-63430000D02*
X132065000Y-62630000D01*
X133665000Y-63430000D02*
X132065000Y-63430000D01*
X133665000Y-62630000D02*
X133665000Y-63430000D01*
%TO.C,C15*%
X133665000Y-65000000D02*
X132065000Y-65000000D01*
X133665000Y-64200000D02*
X133665000Y-65000000D01*
X132065000Y-64200000D02*
X133665000Y-64200000D01*
X132065000Y-65000000D02*
X132065000Y-64200000D01*
%TO.C,C13*%
X147630000Y-68580000D02*
X147630000Y-65380000D01*
X149230000Y-68580000D02*
X147630000Y-68580000D01*
X149230000Y-65380000D02*
X149230000Y-68580000D01*
X147630000Y-65380000D02*
X149230000Y-65380000D01*
%TO.C,C11*%
X148910000Y-70510000D02*
X147310000Y-70510000D01*
X148910000Y-69710000D02*
X148910000Y-70510000D01*
X147310000Y-69710000D02*
X148910000Y-69710000D01*
X147310000Y-70510000D02*
X147310000Y-69710000D01*
%TO.C,C10*%
X156890000Y-61540000D02*
X156890000Y-59940000D01*
X157690000Y-61540000D02*
X156890000Y-61540000D01*
X157690000Y-59940000D02*
X157690000Y-61540000D01*
X156890000Y-59940000D02*
X157690000Y-59940000D01*
%TO.C,C9*%
X157680000Y-65820000D02*
X157680000Y-67420000D01*
X156880000Y-65820000D02*
X157680000Y-65820000D01*
X156880000Y-67420000D02*
X156880000Y-65820000D01*
X157680000Y-67420000D02*
X156880000Y-67420000D01*
%TO.C,C6*%
X104635400Y-75266600D02*
X106235400Y-75266600D01*
X104635400Y-76066600D02*
X104635400Y-75266600D01*
X106235400Y-76066600D02*
X104635400Y-76066600D01*
X106235400Y-75266600D02*
X106235400Y-76066600D01*
%TO.C,C5*%
X181500000Y-69760000D02*
X183100000Y-69760000D01*
X181500000Y-70560000D02*
X181500000Y-69760000D01*
X183100000Y-70560000D02*
X181500000Y-70560000D01*
X183100000Y-69760000D02*
X183100000Y-70560000D01*
%TO.C,C4*%
X108388200Y-82054600D02*
X108388200Y-80454600D01*
X109188200Y-82054600D02*
X108388200Y-82054600D01*
X109188200Y-80454600D02*
X109188200Y-82054600D01*
X108388200Y-80454600D02*
X109188200Y-80454600D01*
%TO.C,C3*%
X125420000Y-81920000D02*
X125420000Y-80320000D01*
X126220000Y-81920000D02*
X125420000Y-81920000D01*
X126220000Y-80320000D02*
X126220000Y-81920000D01*
X125420000Y-80320000D02*
X126220000Y-80320000D01*
%TO.C,C2*%
X172808800Y-82873800D02*
X171208800Y-82873800D01*
X172808800Y-82073800D02*
X172808800Y-82873800D01*
X171208800Y-82073800D02*
X172808800Y-82073800D01*
X171208800Y-82873800D02*
X171208800Y-82073800D01*
%TO.C,C1*%
X147290000Y-82020000D02*
X148890000Y-82020000D01*
X147290000Y-82820000D02*
X147290000Y-82020000D01*
X148890000Y-82820000D02*
X147290000Y-82820000D01*
X148890000Y-82020000D02*
X148890000Y-82820000D01*
%TD*%
%TO.C,D22*%
D13*
X180593680Y-66241371D02*
X179593680Y-66241371D01*
X179593680Y-66003276D01*
X179641300Y-65860419D01*
X179736538Y-65765180D01*
X179831776Y-65717561D01*
X180022252Y-65669942D01*
X180165109Y-65669942D01*
X180355585Y-65717561D01*
X180450823Y-65765180D01*
X180546061Y-65860419D01*
X180593680Y-66003276D01*
X180593680Y-66241371D01*
X180688919Y-65479466D02*
X180688919Y-64717561D01*
X179593680Y-64622323D02*
X179593680Y-64050895D01*
X180593680Y-64336609D02*
X179593680Y-64336609D01*
X179593680Y-63860419D02*
X180593680Y-63527085D01*
X179593680Y-63193752D01*
X180546061Y-62908038D02*
X180593680Y-62765180D01*
X180593680Y-62527085D01*
X180546061Y-62431847D01*
X180498442Y-62384228D01*
X180403204Y-62336609D01*
X180307966Y-62336609D01*
X180212728Y-62384228D01*
X180165109Y-62431847D01*
X180117490Y-62527085D01*
X180069871Y-62717561D01*
X180022252Y-62812800D01*
X179974633Y-62860419D01*
X179879395Y-62908038D01*
X179784157Y-62908038D01*
X179688919Y-62860419D01*
X179641300Y-62812800D01*
X179593680Y-62717561D01*
X179593680Y-62479466D01*
X179641300Y-62336609D01*
X176493680Y-65527085D02*
X175493680Y-65527085D01*
X175493680Y-65288990D01*
X175541300Y-65146133D01*
X175636538Y-65050895D01*
X175731776Y-65003276D01*
X175922252Y-64955657D01*
X176065109Y-64955657D01*
X176255585Y-65003276D01*
X176350823Y-65050895D01*
X176446061Y-65146133D01*
X176493680Y-65288990D01*
X176493680Y-65527085D01*
X175588919Y-64574704D02*
X175541300Y-64527085D01*
X175493680Y-64431847D01*
X175493680Y-64193752D01*
X175541300Y-64098514D01*
X175588919Y-64050895D01*
X175684157Y-64003276D01*
X175779395Y-64003276D01*
X175922252Y-64050895D01*
X176493680Y-64622323D01*
X176493680Y-64003276D01*
X175588919Y-63622323D02*
X175541300Y-63574704D01*
X175493680Y-63479466D01*
X175493680Y-63241371D01*
X175541300Y-63146133D01*
X175588919Y-63098514D01*
X175684157Y-63050895D01*
X175779395Y-63050895D01*
X175922252Y-63098514D01*
X176493680Y-63669942D01*
X176493680Y-63050895D01*
%TO.C,C17*%
X103817071Y-76207380D02*
X103245642Y-76207380D01*
X103531357Y-76207380D02*
X103531357Y-75207380D01*
X103436119Y-75350238D01*
X103340880Y-75445476D01*
X103245642Y-75493095D01*
X104436119Y-75207380D02*
X104531357Y-75207380D01*
X104626595Y-75255000D01*
X104674214Y-75302619D01*
X104721833Y-75397857D01*
X104769452Y-75588333D01*
X104769452Y-75826428D01*
X104721833Y-76016904D01*
X104674214Y-76112142D01*
X104626595Y-76159761D01*
X104531357Y-76207380D01*
X104436119Y-76207380D01*
X104340880Y-76159761D01*
X104293261Y-76112142D01*
X104245642Y-76016904D01*
X104198023Y-75826428D01*
X104198023Y-75588333D01*
X104245642Y-75397857D01*
X104293261Y-75302619D01*
X104340880Y-75255000D01*
X104436119Y-75207380D01*
X105626595Y-75540714D02*
X105626595Y-76207380D01*
X105198023Y-75540714D02*
X105198023Y-76064523D01*
X105245642Y-76159761D01*
X105340880Y-76207380D01*
X105483738Y-76207380D01*
X105578976Y-76159761D01*
X105626595Y-76112142D01*
X106436119Y-75683571D02*
X106102785Y-75683571D01*
X106102785Y-76207380D02*
X106102785Y-75207380D01*
X106578976Y-75207380D01*
D14*
X104322785Y-78419285D02*
X104280880Y-78461190D01*
X104155166Y-78503095D01*
X104071357Y-78503095D01*
X103945642Y-78461190D01*
X103861833Y-78377380D01*
X103819928Y-78293571D01*
X103778023Y-78125952D01*
X103778023Y-78000238D01*
X103819928Y-77832619D01*
X103861833Y-77748809D01*
X103945642Y-77665000D01*
X104071357Y-77623095D01*
X104155166Y-77623095D01*
X104280880Y-77665000D01*
X104322785Y-77706904D01*
X105160880Y-78503095D02*
X104658023Y-78503095D01*
X104909452Y-78503095D02*
X104909452Y-77623095D01*
X104825642Y-77748809D01*
X104741833Y-77832619D01*
X104658023Y-77874523D01*
X105454214Y-77623095D02*
X106040880Y-77623095D01*
X105663738Y-78503095D01*
%TO.C,D8*%
D13*
X130306842Y-84157080D02*
X129830652Y-84157080D01*
X129830652Y-83157080D01*
X130640176Y-83633271D02*
X130973509Y-83633271D01*
X131116366Y-84157080D02*
X130640176Y-84157080D01*
X130640176Y-83157080D01*
X131116366Y-83157080D01*
X131544938Y-84157080D02*
X131544938Y-83157080D01*
X131783033Y-83157080D01*
X131925890Y-83204700D01*
X132021128Y-83299938D01*
X132068747Y-83395176D01*
X132116366Y-83585652D01*
X132116366Y-83728509D01*
X132068747Y-83918985D01*
X132021128Y-84014223D01*
X131925890Y-84109461D01*
X131783033Y-84157080D01*
X131544938Y-84157080D01*
D15*
X130580652Y-82280890D02*
X130580652Y-81780890D01*
X130699700Y-81780890D01*
X130771128Y-81804700D01*
X130818747Y-81852319D01*
X130842557Y-81899938D01*
X130866366Y-81995176D01*
X130866366Y-82066604D01*
X130842557Y-82161842D01*
X130818747Y-82209461D01*
X130771128Y-82257080D01*
X130699700Y-82280890D01*
X130580652Y-82280890D01*
X131152080Y-81995176D02*
X131104461Y-81971366D01*
X131080652Y-81947557D01*
X131056842Y-81899938D01*
X131056842Y-81876128D01*
X131080652Y-81828509D01*
X131104461Y-81804700D01*
X131152080Y-81780890D01*
X131247319Y-81780890D01*
X131294938Y-81804700D01*
X131318747Y-81828509D01*
X131342557Y-81876128D01*
X131342557Y-81899938D01*
X131318747Y-81947557D01*
X131294938Y-81971366D01*
X131247319Y-81995176D01*
X131152080Y-81995176D01*
X131104461Y-82018985D01*
X131080652Y-82042795D01*
X131056842Y-82090414D01*
X131056842Y-82185652D01*
X131080652Y-82233271D01*
X131104461Y-82257080D01*
X131152080Y-82280890D01*
X131247319Y-82280890D01*
X131294938Y-82257080D01*
X131318747Y-82233271D01*
X131342557Y-82185652D01*
X131342557Y-82090414D01*
X131318747Y-82042795D01*
X131294938Y-82018985D01*
X131247319Y-81995176D01*
%TO.C,R13*%
D13*
X173872919Y-78535114D02*
X173825300Y-78487495D01*
X173777680Y-78392257D01*
X173777680Y-78154161D01*
X173825300Y-78058923D01*
X173872919Y-78011304D01*
X173968157Y-77963685D01*
X174063395Y-77963685D01*
X174206252Y-78011304D01*
X174777680Y-78582733D01*
X174777680Y-77963685D01*
X174777680Y-77535114D02*
X173777680Y-77535114D01*
X174777680Y-76963685D02*
X174206252Y-77392257D01*
X173777680Y-76963685D02*
X174349109Y-77535114D01*
D16*
X175936252Y-78006542D02*
X175745776Y-78139876D01*
X175936252Y-78235114D02*
X175536252Y-78235114D01*
X175536252Y-78082733D01*
X175555300Y-78044638D01*
X175574347Y-78025590D01*
X175612442Y-78006542D01*
X175669585Y-78006542D01*
X175707680Y-78025590D01*
X175726728Y-78044638D01*
X175745776Y-78082733D01*
X175745776Y-78235114D01*
X175936252Y-77625590D02*
X175936252Y-77854161D01*
X175936252Y-77739876D02*
X175536252Y-77739876D01*
X175593395Y-77777971D01*
X175631490Y-77816066D01*
X175650538Y-77854161D01*
X175536252Y-77492257D02*
X175536252Y-77244638D01*
X175688633Y-77377971D01*
X175688633Y-77320828D01*
X175707680Y-77282733D01*
X175726728Y-77263685D01*
X175764823Y-77244638D01*
X175860061Y-77244638D01*
X175898157Y-77263685D01*
X175917204Y-77282733D01*
X175936252Y-77320828D01*
X175936252Y-77435114D01*
X175917204Y-77473209D01*
X175898157Y-77492257D01*
%TO.C,H4*%
D13*
X97654285Y-119772380D02*
X97654285Y-118772380D01*
X97987619Y-119486666D01*
X98320952Y-118772380D01*
X98320952Y-119772380D01*
X98940000Y-119772380D02*
X98844761Y-119724761D01*
X98797142Y-119677142D01*
X98749523Y-119581904D01*
X98749523Y-119296190D01*
X98797142Y-119200952D01*
X98844761Y-119153333D01*
X98940000Y-119105714D01*
X99082857Y-119105714D01*
X99178095Y-119153333D01*
X99225714Y-119200952D01*
X99273333Y-119296190D01*
X99273333Y-119581904D01*
X99225714Y-119677142D01*
X99178095Y-119724761D01*
X99082857Y-119772380D01*
X98940000Y-119772380D01*
X100130476Y-119105714D02*
X100130476Y-119772380D01*
X99701904Y-119105714D02*
X99701904Y-119629523D01*
X99749523Y-119724761D01*
X99844761Y-119772380D01*
X99987619Y-119772380D01*
X100082857Y-119724761D01*
X100130476Y-119677142D01*
X100606666Y-119105714D02*
X100606666Y-119772380D01*
X100606666Y-119200952D02*
X100654285Y-119153333D01*
X100749523Y-119105714D01*
X100892380Y-119105714D01*
X100987619Y-119153333D01*
X101035238Y-119248571D01*
X101035238Y-119772380D01*
X101368571Y-119105714D02*
X101749523Y-119105714D01*
X101511428Y-118772380D02*
X101511428Y-119629523D01*
X101559047Y-119724761D01*
X101654285Y-119772380D01*
X101749523Y-119772380D01*
X102082857Y-119772380D02*
X102082857Y-119105714D01*
X102082857Y-118772380D02*
X102035238Y-118820000D01*
X102082857Y-118867619D01*
X102130476Y-118820000D01*
X102082857Y-118772380D01*
X102082857Y-118867619D01*
X102559047Y-119105714D02*
X102559047Y-119772380D01*
X102559047Y-119200952D02*
X102606666Y-119153333D01*
X102701904Y-119105714D01*
X102844761Y-119105714D01*
X102940000Y-119153333D01*
X102987619Y-119248571D01*
X102987619Y-119772380D01*
X103892380Y-119105714D02*
X103892380Y-119915238D01*
X103844761Y-120010476D01*
X103797142Y-120058095D01*
X103701904Y-120105714D01*
X103559047Y-120105714D01*
X103463809Y-120058095D01*
X103892380Y-119724761D02*
X103797142Y-119772380D01*
X103606666Y-119772380D01*
X103511428Y-119724761D01*
X103463809Y-119677142D01*
X103416190Y-119581904D01*
X103416190Y-119296190D01*
X103463809Y-119200952D01*
X103511428Y-119153333D01*
X103606666Y-119105714D01*
X103797142Y-119105714D01*
X103892380Y-119153333D01*
X104368571Y-119772380D02*
X104368571Y-118772380D01*
X104368571Y-119248571D02*
X104940000Y-119248571D01*
X104940000Y-119772380D02*
X104940000Y-118772380D01*
X105559047Y-119772380D02*
X105463809Y-119724761D01*
X105416190Y-119677142D01*
X105368571Y-119581904D01*
X105368571Y-119296190D01*
X105416190Y-119200952D01*
X105463809Y-119153333D01*
X105559047Y-119105714D01*
X105701904Y-119105714D01*
X105797142Y-119153333D01*
X105844761Y-119200952D01*
X105892380Y-119296190D01*
X105892380Y-119581904D01*
X105844761Y-119677142D01*
X105797142Y-119724761D01*
X105701904Y-119772380D01*
X105559047Y-119772380D01*
X106463809Y-119772380D02*
X106368571Y-119724761D01*
X106320952Y-119629523D01*
X106320952Y-118772380D01*
X107225714Y-119724761D02*
X107130476Y-119772380D01*
X106940000Y-119772380D01*
X106844761Y-119724761D01*
X106797142Y-119629523D01*
X106797142Y-119248571D01*
X106844761Y-119153333D01*
X106940000Y-119105714D01*
X107130476Y-119105714D01*
X107225714Y-119153333D01*
X107273333Y-119248571D01*
X107273333Y-119343809D01*
X106797142Y-119439047D01*
X101978095Y-117022380D02*
X101978095Y-116022380D01*
X101978095Y-116498571D02*
X102549523Y-116498571D01*
X102549523Y-117022380D02*
X102549523Y-116022380D01*
X103454285Y-116355714D02*
X103454285Y-117022380D01*
X103216190Y-115974761D02*
X102978095Y-116689047D01*
X103597142Y-116689047D01*
%TO.C,H3*%
X182734285Y-119732380D02*
X182734285Y-118732380D01*
X183067619Y-119446666D01*
X183400952Y-118732380D01*
X183400952Y-119732380D01*
X184020000Y-119732380D02*
X183924761Y-119684761D01*
X183877142Y-119637142D01*
X183829523Y-119541904D01*
X183829523Y-119256190D01*
X183877142Y-119160952D01*
X183924761Y-119113333D01*
X184020000Y-119065714D01*
X184162857Y-119065714D01*
X184258095Y-119113333D01*
X184305714Y-119160952D01*
X184353333Y-119256190D01*
X184353333Y-119541904D01*
X184305714Y-119637142D01*
X184258095Y-119684761D01*
X184162857Y-119732380D01*
X184020000Y-119732380D01*
X185210476Y-119065714D02*
X185210476Y-119732380D01*
X184781904Y-119065714D02*
X184781904Y-119589523D01*
X184829523Y-119684761D01*
X184924761Y-119732380D01*
X185067619Y-119732380D01*
X185162857Y-119684761D01*
X185210476Y-119637142D01*
X185686666Y-119065714D02*
X185686666Y-119732380D01*
X185686666Y-119160952D02*
X185734285Y-119113333D01*
X185829523Y-119065714D01*
X185972380Y-119065714D01*
X186067619Y-119113333D01*
X186115238Y-119208571D01*
X186115238Y-119732380D01*
X186448571Y-119065714D02*
X186829523Y-119065714D01*
X186591428Y-118732380D02*
X186591428Y-119589523D01*
X186639047Y-119684761D01*
X186734285Y-119732380D01*
X186829523Y-119732380D01*
X187162857Y-119732380D02*
X187162857Y-119065714D01*
X187162857Y-118732380D02*
X187115238Y-118780000D01*
X187162857Y-118827619D01*
X187210476Y-118780000D01*
X187162857Y-118732380D01*
X187162857Y-118827619D01*
X187639047Y-119065714D02*
X187639047Y-119732380D01*
X187639047Y-119160952D02*
X187686666Y-119113333D01*
X187781904Y-119065714D01*
X187924761Y-119065714D01*
X188020000Y-119113333D01*
X188067619Y-119208571D01*
X188067619Y-119732380D01*
X188972380Y-119065714D02*
X188972380Y-119875238D01*
X188924761Y-119970476D01*
X188877142Y-120018095D01*
X188781904Y-120065714D01*
X188639047Y-120065714D01*
X188543809Y-120018095D01*
X188972380Y-119684761D02*
X188877142Y-119732380D01*
X188686666Y-119732380D01*
X188591428Y-119684761D01*
X188543809Y-119637142D01*
X188496190Y-119541904D01*
X188496190Y-119256190D01*
X188543809Y-119160952D01*
X188591428Y-119113333D01*
X188686666Y-119065714D01*
X188877142Y-119065714D01*
X188972380Y-119113333D01*
X189448571Y-119732380D02*
X189448571Y-118732380D01*
X189448571Y-119208571D02*
X190020000Y-119208571D01*
X190020000Y-119732380D02*
X190020000Y-118732380D01*
X190639047Y-119732380D02*
X190543809Y-119684761D01*
X190496190Y-119637142D01*
X190448571Y-119541904D01*
X190448571Y-119256190D01*
X190496190Y-119160952D01*
X190543809Y-119113333D01*
X190639047Y-119065714D01*
X190781904Y-119065714D01*
X190877142Y-119113333D01*
X190924761Y-119160952D01*
X190972380Y-119256190D01*
X190972380Y-119541904D01*
X190924761Y-119637142D01*
X190877142Y-119684761D01*
X190781904Y-119732380D01*
X190639047Y-119732380D01*
X191543809Y-119732380D02*
X191448571Y-119684761D01*
X191400952Y-119589523D01*
X191400952Y-118732380D01*
X192305714Y-119684761D02*
X192210476Y-119732380D01*
X192020000Y-119732380D01*
X191924761Y-119684761D01*
X191877142Y-119589523D01*
X191877142Y-119208571D01*
X191924761Y-119113333D01*
X192020000Y-119065714D01*
X192210476Y-119065714D01*
X192305714Y-119113333D01*
X192353333Y-119208571D01*
X192353333Y-119303809D01*
X191877142Y-119399047D01*
X187058095Y-116982380D02*
X187058095Y-115982380D01*
X187058095Y-116458571D02*
X187629523Y-116458571D01*
X187629523Y-116982380D02*
X187629523Y-115982380D01*
X188010476Y-115982380D02*
X188629523Y-115982380D01*
X188296190Y-116363333D01*
X188439047Y-116363333D01*
X188534285Y-116410952D01*
X188581904Y-116458571D01*
X188629523Y-116553809D01*
X188629523Y-116791904D01*
X188581904Y-116887142D01*
X188534285Y-116934761D01*
X188439047Y-116982380D01*
X188153333Y-116982380D01*
X188058095Y-116934761D01*
X188010476Y-116887142D01*
%TO.C,H2*%
X182674285Y-52632380D02*
X182674285Y-51632380D01*
X183007619Y-52346666D01*
X183340952Y-51632380D01*
X183340952Y-52632380D01*
X183960000Y-52632380D02*
X183864761Y-52584761D01*
X183817142Y-52537142D01*
X183769523Y-52441904D01*
X183769523Y-52156190D01*
X183817142Y-52060952D01*
X183864761Y-52013333D01*
X183960000Y-51965714D01*
X184102857Y-51965714D01*
X184198095Y-52013333D01*
X184245714Y-52060952D01*
X184293333Y-52156190D01*
X184293333Y-52441904D01*
X184245714Y-52537142D01*
X184198095Y-52584761D01*
X184102857Y-52632380D01*
X183960000Y-52632380D01*
X185150476Y-51965714D02*
X185150476Y-52632380D01*
X184721904Y-51965714D02*
X184721904Y-52489523D01*
X184769523Y-52584761D01*
X184864761Y-52632380D01*
X185007619Y-52632380D01*
X185102857Y-52584761D01*
X185150476Y-52537142D01*
X185626666Y-51965714D02*
X185626666Y-52632380D01*
X185626666Y-52060952D02*
X185674285Y-52013333D01*
X185769523Y-51965714D01*
X185912380Y-51965714D01*
X186007619Y-52013333D01*
X186055238Y-52108571D01*
X186055238Y-52632380D01*
X186388571Y-51965714D02*
X186769523Y-51965714D01*
X186531428Y-51632380D02*
X186531428Y-52489523D01*
X186579047Y-52584761D01*
X186674285Y-52632380D01*
X186769523Y-52632380D01*
X187102857Y-52632380D02*
X187102857Y-51965714D01*
X187102857Y-51632380D02*
X187055238Y-51680000D01*
X187102857Y-51727619D01*
X187150476Y-51680000D01*
X187102857Y-51632380D01*
X187102857Y-51727619D01*
X187579047Y-51965714D02*
X187579047Y-52632380D01*
X187579047Y-52060952D02*
X187626666Y-52013333D01*
X187721904Y-51965714D01*
X187864761Y-51965714D01*
X187960000Y-52013333D01*
X188007619Y-52108571D01*
X188007619Y-52632380D01*
X188912380Y-51965714D02*
X188912380Y-52775238D01*
X188864761Y-52870476D01*
X188817142Y-52918095D01*
X188721904Y-52965714D01*
X188579047Y-52965714D01*
X188483809Y-52918095D01*
X188912380Y-52584761D02*
X188817142Y-52632380D01*
X188626666Y-52632380D01*
X188531428Y-52584761D01*
X188483809Y-52537142D01*
X188436190Y-52441904D01*
X188436190Y-52156190D01*
X188483809Y-52060952D01*
X188531428Y-52013333D01*
X188626666Y-51965714D01*
X188817142Y-51965714D01*
X188912380Y-52013333D01*
X189388571Y-52632380D02*
X189388571Y-51632380D01*
X189388571Y-52108571D02*
X189960000Y-52108571D01*
X189960000Y-52632380D02*
X189960000Y-51632380D01*
X190579047Y-52632380D02*
X190483809Y-52584761D01*
X190436190Y-52537142D01*
X190388571Y-52441904D01*
X190388571Y-52156190D01*
X190436190Y-52060952D01*
X190483809Y-52013333D01*
X190579047Y-51965714D01*
X190721904Y-51965714D01*
X190817142Y-52013333D01*
X190864761Y-52060952D01*
X190912380Y-52156190D01*
X190912380Y-52441904D01*
X190864761Y-52537142D01*
X190817142Y-52584761D01*
X190721904Y-52632380D01*
X190579047Y-52632380D01*
X191483809Y-52632380D02*
X191388571Y-52584761D01*
X191340952Y-52489523D01*
X191340952Y-51632380D01*
X192245714Y-52584761D02*
X192150476Y-52632380D01*
X191960000Y-52632380D01*
X191864761Y-52584761D01*
X191817142Y-52489523D01*
X191817142Y-52108571D01*
X191864761Y-52013333D01*
X191960000Y-51965714D01*
X192150476Y-51965714D01*
X192245714Y-52013333D01*
X192293333Y-52108571D01*
X192293333Y-52203809D01*
X191817142Y-52299047D01*
X186998095Y-49882380D02*
X186998095Y-48882380D01*
X186998095Y-49358571D02*
X187569523Y-49358571D01*
X187569523Y-49882380D02*
X187569523Y-48882380D01*
X187998095Y-48977619D02*
X188045714Y-48930000D01*
X188140952Y-48882380D01*
X188379047Y-48882380D01*
X188474285Y-48930000D01*
X188521904Y-48977619D01*
X188569523Y-49072857D01*
X188569523Y-49168095D01*
X188521904Y-49310952D01*
X187950476Y-49882380D01*
X188569523Y-49882380D01*
%TO.C,H1*%
X97704285Y-52622380D02*
X97704285Y-51622380D01*
X98037619Y-52336666D01*
X98370952Y-51622380D01*
X98370952Y-52622380D01*
X98990000Y-52622380D02*
X98894761Y-52574761D01*
X98847142Y-52527142D01*
X98799523Y-52431904D01*
X98799523Y-52146190D01*
X98847142Y-52050952D01*
X98894761Y-52003333D01*
X98990000Y-51955714D01*
X99132857Y-51955714D01*
X99228095Y-52003333D01*
X99275714Y-52050952D01*
X99323333Y-52146190D01*
X99323333Y-52431904D01*
X99275714Y-52527142D01*
X99228095Y-52574761D01*
X99132857Y-52622380D01*
X98990000Y-52622380D01*
X100180476Y-51955714D02*
X100180476Y-52622380D01*
X99751904Y-51955714D02*
X99751904Y-52479523D01*
X99799523Y-52574761D01*
X99894761Y-52622380D01*
X100037619Y-52622380D01*
X100132857Y-52574761D01*
X100180476Y-52527142D01*
X100656666Y-51955714D02*
X100656666Y-52622380D01*
X100656666Y-52050952D02*
X100704285Y-52003333D01*
X100799523Y-51955714D01*
X100942380Y-51955714D01*
X101037619Y-52003333D01*
X101085238Y-52098571D01*
X101085238Y-52622380D01*
X101418571Y-51955714D02*
X101799523Y-51955714D01*
X101561428Y-51622380D02*
X101561428Y-52479523D01*
X101609047Y-52574761D01*
X101704285Y-52622380D01*
X101799523Y-52622380D01*
X102132857Y-52622380D02*
X102132857Y-51955714D01*
X102132857Y-51622380D02*
X102085238Y-51670000D01*
X102132857Y-51717619D01*
X102180476Y-51670000D01*
X102132857Y-51622380D01*
X102132857Y-51717619D01*
X102609047Y-51955714D02*
X102609047Y-52622380D01*
X102609047Y-52050952D02*
X102656666Y-52003333D01*
X102751904Y-51955714D01*
X102894761Y-51955714D01*
X102990000Y-52003333D01*
X103037619Y-52098571D01*
X103037619Y-52622380D01*
X103942380Y-51955714D02*
X103942380Y-52765238D01*
X103894761Y-52860476D01*
X103847142Y-52908095D01*
X103751904Y-52955714D01*
X103609047Y-52955714D01*
X103513809Y-52908095D01*
X103942380Y-52574761D02*
X103847142Y-52622380D01*
X103656666Y-52622380D01*
X103561428Y-52574761D01*
X103513809Y-52527142D01*
X103466190Y-52431904D01*
X103466190Y-52146190D01*
X103513809Y-52050952D01*
X103561428Y-52003333D01*
X103656666Y-51955714D01*
X103847142Y-51955714D01*
X103942380Y-52003333D01*
X104418571Y-52622380D02*
X104418571Y-51622380D01*
X104418571Y-52098571D02*
X104990000Y-52098571D01*
X104990000Y-52622380D02*
X104990000Y-51622380D01*
X105609047Y-52622380D02*
X105513809Y-52574761D01*
X105466190Y-52527142D01*
X105418571Y-52431904D01*
X105418571Y-52146190D01*
X105466190Y-52050952D01*
X105513809Y-52003333D01*
X105609047Y-51955714D01*
X105751904Y-51955714D01*
X105847142Y-52003333D01*
X105894761Y-52050952D01*
X105942380Y-52146190D01*
X105942380Y-52431904D01*
X105894761Y-52527142D01*
X105847142Y-52574761D01*
X105751904Y-52622380D01*
X105609047Y-52622380D01*
X106513809Y-52622380D02*
X106418571Y-52574761D01*
X106370952Y-52479523D01*
X106370952Y-51622380D01*
X107275714Y-52574761D02*
X107180476Y-52622380D01*
X106990000Y-52622380D01*
X106894761Y-52574761D01*
X106847142Y-52479523D01*
X106847142Y-52098571D01*
X106894761Y-52003333D01*
X106990000Y-51955714D01*
X107180476Y-51955714D01*
X107275714Y-52003333D01*
X107323333Y-52098571D01*
X107323333Y-52193809D01*
X106847142Y-52289047D01*
X102028095Y-49872380D02*
X102028095Y-48872380D01*
X102028095Y-49348571D02*
X102599523Y-49348571D01*
X102599523Y-49872380D02*
X102599523Y-48872380D01*
X103599523Y-49872380D02*
X103028095Y-49872380D01*
X103313809Y-49872380D02*
X103313809Y-48872380D01*
X103218571Y-49015238D01*
X103123333Y-49110476D01*
X103028095Y-49158095D01*
%TO.C,C12*%
X169498571Y-71782380D02*
X168927142Y-71782380D01*
X169212857Y-71782380D02*
X169212857Y-70782380D01*
X169117619Y-70925238D01*
X169022380Y-71020476D01*
X168927142Y-71068095D01*
X170117619Y-70782380D02*
X170212857Y-70782380D01*
X170308095Y-70830000D01*
X170355714Y-70877619D01*
X170403333Y-70972857D01*
X170450952Y-71163333D01*
X170450952Y-71401428D01*
X170403333Y-71591904D01*
X170355714Y-71687142D01*
X170308095Y-71734761D01*
X170212857Y-71782380D01*
X170117619Y-71782380D01*
X170022380Y-71734761D01*
X169974761Y-71687142D01*
X169927142Y-71591904D01*
X169879523Y-71401428D01*
X169879523Y-71163333D01*
X169927142Y-70972857D01*
X169974761Y-70877619D01*
X170022380Y-70830000D01*
X170117619Y-70782380D01*
X171308095Y-71115714D02*
X171308095Y-71782380D01*
X170879523Y-71115714D02*
X170879523Y-71639523D01*
X170927142Y-71734761D01*
X171022380Y-71782380D01*
X171165238Y-71782380D01*
X171260476Y-71734761D01*
X171308095Y-71687142D01*
X172117619Y-71258571D02*
X171784285Y-71258571D01*
X171784285Y-71782380D02*
X171784285Y-70782380D01*
X172260476Y-70782380D01*
D15*
X170248571Y-73188571D02*
X170224761Y-73212380D01*
X170153333Y-73236190D01*
X170105714Y-73236190D01*
X170034285Y-73212380D01*
X169986666Y-73164761D01*
X169962857Y-73117142D01*
X169939047Y-73021904D01*
X169939047Y-72950476D01*
X169962857Y-72855238D01*
X169986666Y-72807619D01*
X170034285Y-72760000D01*
X170105714Y-72736190D01*
X170153333Y-72736190D01*
X170224761Y-72760000D01*
X170248571Y-72783809D01*
X170724761Y-73236190D02*
X170439047Y-73236190D01*
X170581904Y-73236190D02*
X170581904Y-72736190D01*
X170534285Y-72807619D01*
X170486666Y-72855238D01*
X170439047Y-72879047D01*
X170915238Y-72783809D02*
X170939047Y-72760000D01*
X170986666Y-72736190D01*
X171105714Y-72736190D01*
X171153333Y-72760000D01*
X171177142Y-72783809D01*
X171200952Y-72831428D01*
X171200952Y-72879047D01*
X171177142Y-72950476D01*
X170891428Y-73236190D01*
X171200952Y-73236190D01*
%TO.C,C8*%
D13*
X174023471Y-64761580D02*
X173452042Y-64761580D01*
X173737757Y-64761580D02*
X173737757Y-63761580D01*
X173642519Y-63904438D01*
X173547280Y-63999676D01*
X173452042Y-64047295D01*
X174642519Y-63761580D02*
X174737757Y-63761580D01*
X174832995Y-63809200D01*
X174880614Y-63856819D01*
X174928233Y-63952057D01*
X174975852Y-64142533D01*
X174975852Y-64380628D01*
X174928233Y-64571104D01*
X174880614Y-64666342D01*
X174832995Y-64713961D01*
X174737757Y-64761580D01*
X174642519Y-64761580D01*
X174547280Y-64713961D01*
X174499661Y-64666342D01*
X174452042Y-64571104D01*
X174404423Y-64380628D01*
X174404423Y-64142533D01*
X174452042Y-63952057D01*
X174499661Y-63856819D01*
X174547280Y-63809200D01*
X174642519Y-63761580D01*
X175832995Y-64094914D02*
X175832995Y-64761580D01*
X175404423Y-64094914D02*
X175404423Y-64618723D01*
X175452042Y-64713961D01*
X175547280Y-64761580D01*
X175690138Y-64761580D01*
X175785376Y-64713961D01*
X175832995Y-64666342D01*
X176642519Y-64237771D02*
X176309185Y-64237771D01*
X176309185Y-64761580D02*
X176309185Y-63761580D01*
X176785376Y-63761580D01*
D15*
X175011566Y-66167771D02*
X174987757Y-66191580D01*
X174916328Y-66215390D01*
X174868709Y-66215390D01*
X174797280Y-66191580D01*
X174749661Y-66143961D01*
X174725852Y-66096342D01*
X174702042Y-66001104D01*
X174702042Y-65929676D01*
X174725852Y-65834438D01*
X174749661Y-65786819D01*
X174797280Y-65739200D01*
X174868709Y-65715390D01*
X174916328Y-65715390D01*
X174987757Y-65739200D01*
X175011566Y-65763009D01*
X175297280Y-65929676D02*
X175249661Y-65905866D01*
X175225852Y-65882057D01*
X175202042Y-65834438D01*
X175202042Y-65810628D01*
X175225852Y-65763009D01*
X175249661Y-65739200D01*
X175297280Y-65715390D01*
X175392519Y-65715390D01*
X175440138Y-65739200D01*
X175463947Y-65763009D01*
X175487757Y-65810628D01*
X175487757Y-65834438D01*
X175463947Y-65882057D01*
X175440138Y-65905866D01*
X175392519Y-65929676D01*
X175297280Y-65929676D01*
X175249661Y-65953485D01*
X175225852Y-65977295D01*
X175202042Y-66024914D01*
X175202042Y-66120152D01*
X175225852Y-66167771D01*
X175249661Y-66191580D01*
X175297280Y-66215390D01*
X175392519Y-66215390D01*
X175440138Y-66191580D01*
X175463947Y-66167771D01*
X175487757Y-66120152D01*
X175487757Y-66024914D01*
X175463947Y-65977295D01*
X175440138Y-65953485D01*
X175392519Y-65929676D01*
%TO.C,C7*%
D13*
X174036171Y-66793580D02*
X173464742Y-66793580D01*
X173750457Y-66793580D02*
X173750457Y-65793580D01*
X173655219Y-65936438D01*
X173559980Y-66031676D01*
X173464742Y-66079295D01*
X174655219Y-65793580D02*
X174750457Y-65793580D01*
X174845695Y-65841200D01*
X174893314Y-65888819D01*
X174940933Y-65984057D01*
X174988552Y-66174533D01*
X174988552Y-66412628D01*
X174940933Y-66603104D01*
X174893314Y-66698342D01*
X174845695Y-66745961D01*
X174750457Y-66793580D01*
X174655219Y-66793580D01*
X174559980Y-66745961D01*
X174512361Y-66698342D01*
X174464742Y-66603104D01*
X174417123Y-66412628D01*
X174417123Y-66174533D01*
X174464742Y-65984057D01*
X174512361Y-65888819D01*
X174559980Y-65841200D01*
X174655219Y-65793580D01*
X175845695Y-66126914D02*
X175845695Y-66793580D01*
X175417123Y-66126914D02*
X175417123Y-66650723D01*
X175464742Y-66745961D01*
X175559980Y-66793580D01*
X175702838Y-66793580D01*
X175798076Y-66745961D01*
X175845695Y-66698342D01*
X176655219Y-66269771D02*
X176321885Y-66269771D01*
X176321885Y-66793580D02*
X176321885Y-65793580D01*
X176798076Y-65793580D01*
D15*
X175024266Y-68199771D02*
X175000457Y-68223580D01*
X174929028Y-68247390D01*
X174881409Y-68247390D01*
X174809980Y-68223580D01*
X174762361Y-68175961D01*
X174738552Y-68128342D01*
X174714742Y-68033104D01*
X174714742Y-67961676D01*
X174738552Y-67866438D01*
X174762361Y-67818819D01*
X174809980Y-67771200D01*
X174881409Y-67747390D01*
X174929028Y-67747390D01*
X175000457Y-67771200D01*
X175024266Y-67795009D01*
X175190933Y-67747390D02*
X175524266Y-67747390D01*
X175309980Y-68247390D01*
%TO.C,K3*%
D13*
X121097191Y-106707741D02*
X121144824Y-106564840D01*
X121144824Y-106326672D01*
X121097191Y-106231405D01*
X121049557Y-106183771D01*
X120954290Y-106136137D01*
X120859022Y-106136137D01*
X120763755Y-106183771D01*
X120716121Y-106231405D01*
X120668488Y-106326672D01*
X120620854Y-106517207D01*
X120573220Y-106612474D01*
X120525587Y-106660108D01*
X120430319Y-106707741D01*
X120335052Y-106707741D01*
X120239785Y-106660108D01*
X120192151Y-106612474D01*
X120144517Y-106517207D01*
X120144517Y-106279038D01*
X120192151Y-106136137D01*
X121144824Y-105135830D02*
X120668488Y-105469266D01*
X121144824Y-105707434D02*
X120144517Y-105707434D01*
X120144517Y-105326365D01*
X120192151Y-105231098D01*
X120239785Y-105183464D01*
X120335052Y-105135830D01*
X120477953Y-105135830D01*
X120573220Y-105183464D01*
X120620854Y-105231098D01*
X120668488Y-105326365D01*
X120668488Y-105707434D01*
X121144824Y-104707127D02*
X120144517Y-104707127D01*
X120144517Y-104468959D01*
X120192151Y-104326058D01*
X120287418Y-104230791D01*
X120382686Y-104183157D01*
X120573220Y-104135523D01*
X120716121Y-104135523D01*
X120906656Y-104183157D01*
X121001923Y-104230791D01*
X121097191Y-104326058D01*
X121144824Y-104468959D01*
X121144824Y-104707127D01*
X120763755Y-103706820D02*
X120763755Y-102944682D01*
X120144517Y-102277810D02*
X120144517Y-102182543D01*
X120192151Y-102087276D01*
X120239785Y-102039642D01*
X120335052Y-101992008D01*
X120525587Y-101944375D01*
X120763755Y-101944375D01*
X120954290Y-101992008D01*
X121049557Y-102039642D01*
X121097191Y-102087276D01*
X121144824Y-102182543D01*
X121144824Y-102277810D01*
X121097191Y-102373078D01*
X121049557Y-102420711D01*
X120954290Y-102468345D01*
X120763755Y-102515979D01*
X120525587Y-102515979D01*
X120335052Y-102468345D01*
X120239785Y-102420711D01*
X120192151Y-102373078D01*
X120144517Y-102277810D01*
X120144517Y-101039335D02*
X120144517Y-101515672D01*
X120620854Y-101563305D01*
X120573220Y-101515672D01*
X120525587Y-101420404D01*
X120525587Y-101182236D01*
X120573220Y-101086969D01*
X120620854Y-101039335D01*
X120716121Y-100991701D01*
X120954290Y-100991701D01*
X121049557Y-101039335D01*
X121097191Y-101086969D01*
X121144824Y-101182236D01*
X121144824Y-101420404D01*
X121097191Y-101515672D01*
X121049557Y-101563305D01*
X120144517Y-100705899D02*
X121144824Y-100372464D01*
X120144517Y-100039028D01*
X121144824Y-99705592D02*
X120144517Y-99705592D01*
X120144517Y-99467424D01*
X120192151Y-99324523D01*
X120287418Y-99229256D01*
X120382686Y-99181622D01*
X120573220Y-99133988D01*
X120716121Y-99133988D01*
X120906656Y-99181622D01*
X121001923Y-99229256D01*
X121097191Y-99324523D01*
X121144824Y-99467424D01*
X121144824Y-99705592D01*
X121049557Y-98133681D02*
X121097191Y-98181315D01*
X121144824Y-98324216D01*
X121144824Y-98419483D01*
X121097191Y-98562384D01*
X121001923Y-98657652D01*
X120906656Y-98705285D01*
X120716121Y-98752919D01*
X120573220Y-98752919D01*
X120382686Y-98705285D01*
X120287418Y-98657652D01*
X120192151Y-98562384D01*
X120144517Y-98419483D01*
X120144517Y-98324216D01*
X120192151Y-98181315D01*
X120239785Y-98133681D01*
X120763755Y-97704978D02*
X120763755Y-96942840D01*
X121097191Y-96514137D02*
X121144824Y-96371236D01*
X121144824Y-96133067D01*
X121097191Y-96037800D01*
X121049557Y-95990166D01*
X120954290Y-95942533D01*
X120859022Y-95942533D01*
X120763755Y-95990166D01*
X120716121Y-96037800D01*
X120668488Y-96133067D01*
X120620854Y-96323602D01*
X120573220Y-96418869D01*
X120525587Y-96466503D01*
X120430319Y-96514137D01*
X120335052Y-96514137D01*
X120239785Y-96466503D01*
X120192151Y-96418869D01*
X120144517Y-96323602D01*
X120144517Y-96085434D01*
X120192151Y-95942533D01*
X121144824Y-95037493D02*
X121144824Y-95513830D01*
X120144517Y-95513830D01*
X120763755Y-94704057D02*
X120763755Y-93941919D01*
X121049557Y-92893978D02*
X121097191Y-92941612D01*
X121144824Y-93084513D01*
X121144824Y-93179780D01*
X121097191Y-93322681D01*
X121001923Y-93417948D01*
X120906656Y-93465582D01*
X120716121Y-93513216D01*
X120573220Y-93513216D01*
X120382686Y-93465582D01*
X120287418Y-93417948D01*
X120192151Y-93322681D01*
X120144517Y-93179780D01*
X120144517Y-93084513D01*
X120192151Y-92941612D01*
X120239785Y-92893978D01*
%TO.C,J11*%
X157697142Y-61812857D02*
X157744761Y-61860476D01*
X157792380Y-62003333D01*
X157792380Y-62098571D01*
X157744761Y-62241428D01*
X157649523Y-62336666D01*
X157554285Y-62384285D01*
X157363809Y-62431904D01*
X157220952Y-62431904D01*
X157030476Y-62384285D01*
X156935238Y-62336666D01*
X156840000Y-62241428D01*
X156792380Y-62098571D01*
X156792380Y-62003333D01*
X156840000Y-61860476D01*
X156887619Y-61812857D01*
X157792380Y-61241428D02*
X157744761Y-61336666D01*
X157697142Y-61384285D01*
X157601904Y-61431904D01*
X157316190Y-61431904D01*
X157220952Y-61384285D01*
X157173333Y-61336666D01*
X157125714Y-61241428D01*
X157125714Y-61098571D01*
X157173333Y-61003333D01*
X157220952Y-60955714D01*
X157316190Y-60908095D01*
X157601904Y-60908095D01*
X157697142Y-60955714D01*
X157744761Y-61003333D01*
X157792380Y-61098571D01*
X157792380Y-61241428D01*
X157125714Y-60479523D02*
X157792380Y-60479523D01*
X157220952Y-60479523D02*
X157173333Y-60431904D01*
X157125714Y-60336666D01*
X157125714Y-60193809D01*
X157173333Y-60098571D01*
X157268571Y-60050952D01*
X157792380Y-60050952D01*
X157125714Y-59574761D02*
X157792380Y-59574761D01*
X157220952Y-59574761D02*
X157173333Y-59527142D01*
X157125714Y-59431904D01*
X157125714Y-59289047D01*
X157173333Y-59193809D01*
X157268571Y-59146190D01*
X157792380Y-59146190D01*
X157887619Y-58908095D02*
X157887619Y-58146190D01*
X156792380Y-57717619D02*
X156792380Y-57622380D01*
X156840000Y-57527142D01*
X156887619Y-57479523D01*
X156982857Y-57431904D01*
X157173333Y-57384285D01*
X157411428Y-57384285D01*
X157601904Y-57431904D01*
X157697142Y-57479523D01*
X157744761Y-57527142D01*
X157792380Y-57622380D01*
X157792380Y-57717619D01*
X157744761Y-57812857D01*
X157697142Y-57860476D01*
X157601904Y-57908095D01*
X157411428Y-57955714D01*
X157173333Y-57955714D01*
X156982857Y-57908095D01*
X156887619Y-57860476D01*
X156840000Y-57812857D01*
X156792380Y-57717619D01*
X156887619Y-57003333D02*
X156840000Y-56955714D01*
X156792380Y-56860476D01*
X156792380Y-56622380D01*
X156840000Y-56527142D01*
X156887619Y-56479523D01*
X156982857Y-56431904D01*
X157078095Y-56431904D01*
X157220952Y-56479523D01*
X157792380Y-57050952D01*
X157792380Y-56431904D01*
X157792380Y-56098571D02*
X157125714Y-55574761D01*
X157125714Y-56098571D02*
X157792380Y-55574761D01*
X156792380Y-55003333D02*
X156792380Y-54908095D01*
X156840000Y-54812857D01*
X156887619Y-54765238D01*
X156982857Y-54717619D01*
X157173333Y-54670000D01*
X157411428Y-54670000D01*
X157601904Y-54717619D01*
X157697142Y-54765238D01*
X157744761Y-54812857D01*
X157792380Y-54908095D01*
X157792380Y-55003333D01*
X157744761Y-55098571D01*
X157697142Y-55146190D01*
X157601904Y-55193809D01*
X157411428Y-55241428D01*
X157173333Y-55241428D01*
X156982857Y-55193809D01*
X156887619Y-55146190D01*
X156840000Y-55098571D01*
X156792380Y-55003333D01*
X156792380Y-53765238D02*
X156792380Y-54241428D01*
X157268571Y-54289047D01*
X157220952Y-54241428D01*
X157173333Y-54146190D01*
X157173333Y-53908095D01*
X157220952Y-53812857D01*
X157268571Y-53765238D01*
X157363809Y-53717619D01*
X157601904Y-53717619D01*
X157697142Y-53765238D01*
X157744761Y-53812857D01*
X157792380Y-53908095D01*
X157792380Y-54146190D01*
X157744761Y-54241428D01*
X157697142Y-54289047D01*
X157887619Y-53527142D02*
X157887619Y-52765238D01*
X156792380Y-52336666D02*
X156792380Y-52146190D01*
X156840000Y-52050952D01*
X156935238Y-51955714D01*
X157125714Y-51908095D01*
X157459047Y-51908095D01*
X157649523Y-51955714D01*
X157744761Y-52050952D01*
X157792380Y-52146190D01*
X157792380Y-52336666D01*
X157744761Y-52431904D01*
X157649523Y-52527142D01*
X157459047Y-52574761D01*
X157125714Y-52574761D01*
X156935238Y-52527142D01*
X156840000Y-52431904D01*
X156792380Y-52336666D01*
X157792380Y-51050952D02*
X156792380Y-51050952D01*
X157744761Y-51050952D02*
X157792380Y-51146190D01*
X157792380Y-51336666D01*
X157744761Y-51431904D01*
X157697142Y-51479523D01*
X157601904Y-51527142D01*
X157316190Y-51527142D01*
X157220952Y-51479523D01*
X157173333Y-51431904D01*
X157125714Y-51336666D01*
X157125714Y-51146190D01*
X157173333Y-51050952D01*
X157792380Y-50146190D02*
X156792380Y-50146190D01*
X157744761Y-50146190D02*
X157792380Y-50241428D01*
X157792380Y-50431904D01*
X157744761Y-50527142D01*
X157697142Y-50574761D01*
X157601904Y-50622380D01*
X157316190Y-50622380D01*
X157220952Y-50574761D01*
X157173333Y-50527142D01*
X157125714Y-50431904D01*
X157125714Y-50241428D01*
X157173333Y-50146190D01*
X157887619Y-49908095D02*
X157887619Y-49146190D01*
X157268571Y-48908095D02*
X157268571Y-48574761D01*
X157792380Y-48431904D02*
X157792380Y-48908095D01*
X156792380Y-48908095D01*
X156792380Y-48431904D01*
X157125714Y-48098571D02*
X157792380Y-47860476D01*
X157125714Y-47622380D01*
X157744761Y-46860476D02*
X157792380Y-46955714D01*
X157792380Y-47146190D01*
X157744761Y-47241428D01*
X157649523Y-47289047D01*
X157268571Y-47289047D01*
X157173333Y-47241428D01*
X157125714Y-47146190D01*
X157125714Y-46955714D01*
X157173333Y-46860476D01*
X157268571Y-46812857D01*
X157363809Y-46812857D01*
X157459047Y-47289047D01*
X157125714Y-46384285D02*
X157792380Y-46384285D01*
X157220952Y-46384285D02*
X157173333Y-46336666D01*
X157125714Y-46241428D01*
X157125714Y-46098571D01*
X157173333Y-46003333D01*
X157268571Y-45955714D01*
X157792380Y-45955714D01*
X167710476Y-53622380D02*
X167710476Y-54336666D01*
X167662857Y-54479523D01*
X167567619Y-54574761D01*
X167424761Y-54622380D01*
X167329523Y-54622380D01*
X168710476Y-54622380D02*
X168139047Y-54622380D01*
X168424761Y-54622380D02*
X168424761Y-53622380D01*
X168329523Y-53765238D01*
X168234285Y-53860476D01*
X168139047Y-53908095D01*
X169662857Y-54622380D02*
X169091428Y-54622380D01*
X169377142Y-54622380D02*
X169377142Y-53622380D01*
X169281904Y-53765238D01*
X169186666Y-53860476D01*
X169091428Y-53908095D01*
%TO.C,C14*%
X139674761Y-74442380D02*
X139103333Y-74442380D01*
X139389047Y-74442380D02*
X139389047Y-73442380D01*
X139293809Y-73585238D01*
X139198571Y-73680476D01*
X139103333Y-73728095D01*
X140531904Y-73775714D02*
X140531904Y-74442380D01*
X140103333Y-73775714D02*
X140103333Y-74299523D01*
X140150952Y-74394761D01*
X140246190Y-74442380D01*
X140389047Y-74442380D01*
X140484285Y-74394761D01*
X140531904Y-74347142D01*
X141341428Y-73918571D02*
X141008095Y-73918571D01*
X141008095Y-74442380D02*
X141008095Y-73442380D01*
X141484285Y-73442380D01*
D16*
X140012857Y-72702857D02*
X139993809Y-72721904D01*
X139936666Y-72740952D01*
X139898571Y-72740952D01*
X139841428Y-72721904D01*
X139803333Y-72683809D01*
X139784285Y-72645714D01*
X139765238Y-72569523D01*
X139765238Y-72512380D01*
X139784285Y-72436190D01*
X139803333Y-72398095D01*
X139841428Y-72360000D01*
X139898571Y-72340952D01*
X139936666Y-72340952D01*
X139993809Y-72360000D01*
X140012857Y-72379047D01*
X140393809Y-72740952D02*
X140165238Y-72740952D01*
X140279523Y-72740952D02*
X140279523Y-72340952D01*
X140241428Y-72398095D01*
X140203333Y-72436190D01*
X140165238Y-72455238D01*
X140736666Y-72474285D02*
X140736666Y-72740952D01*
X140641428Y-72321904D02*
X140546190Y-72607619D01*
X140793809Y-72607619D01*
%TO.C,J10*%
D13*
X155476742Y-56263333D02*
X155524361Y-56310952D01*
X155571980Y-56453809D01*
X155571980Y-56549047D01*
X155524361Y-56691904D01*
X155429123Y-56787142D01*
X155333885Y-56834761D01*
X155143409Y-56882380D01*
X155000552Y-56882380D01*
X154810076Y-56834761D01*
X154714838Y-56787142D01*
X154619600Y-56691904D01*
X154571980Y-56549047D01*
X154571980Y-56453809D01*
X154619600Y-56310952D01*
X154667219Y-56263333D01*
X155571980Y-55691904D02*
X155524361Y-55787142D01*
X155476742Y-55834761D01*
X155381504Y-55882380D01*
X155095790Y-55882380D01*
X155000552Y-55834761D01*
X154952933Y-55787142D01*
X154905314Y-55691904D01*
X154905314Y-55549047D01*
X154952933Y-55453809D01*
X155000552Y-55406190D01*
X155095790Y-55358571D01*
X155381504Y-55358571D01*
X155476742Y-55406190D01*
X155524361Y-55453809D01*
X155571980Y-55549047D01*
X155571980Y-55691904D01*
X154905314Y-54930000D02*
X155571980Y-54930000D01*
X155000552Y-54930000D02*
X154952933Y-54882380D01*
X154905314Y-54787142D01*
X154905314Y-54644285D01*
X154952933Y-54549047D01*
X155048171Y-54501428D01*
X155571980Y-54501428D01*
X154905314Y-54025238D02*
X155571980Y-54025238D01*
X155000552Y-54025238D02*
X154952933Y-53977619D01*
X154905314Y-53882380D01*
X154905314Y-53739523D01*
X154952933Y-53644285D01*
X155048171Y-53596666D01*
X155571980Y-53596666D01*
X155667219Y-53358571D02*
X155667219Y-52596666D01*
X154571980Y-52168095D02*
X154571980Y-52072857D01*
X154619600Y-51977619D01*
X154667219Y-51930000D01*
X154762457Y-51882380D01*
X154952933Y-51834761D01*
X155191028Y-51834761D01*
X155381504Y-51882380D01*
X155476742Y-51930000D01*
X155524361Y-51977619D01*
X155571980Y-52072857D01*
X155571980Y-52168095D01*
X155524361Y-52263333D01*
X155476742Y-52310952D01*
X155381504Y-52358571D01*
X155191028Y-52406190D01*
X154952933Y-52406190D01*
X154762457Y-52358571D01*
X154667219Y-52310952D01*
X154619600Y-52263333D01*
X154571980Y-52168095D01*
X155571980Y-50882380D02*
X155571980Y-51453809D01*
X155571980Y-51168095D02*
X154571980Y-51168095D01*
X154714838Y-51263333D01*
X154810076Y-51358571D01*
X154857695Y-51453809D01*
X155571980Y-50549047D02*
X154905314Y-50025238D01*
X154905314Y-50549047D02*
X155571980Y-50025238D01*
X154571980Y-49453809D02*
X154571980Y-49358571D01*
X154619600Y-49263333D01*
X154667219Y-49215714D01*
X154762457Y-49168095D01*
X154952933Y-49120476D01*
X155191028Y-49120476D01*
X155381504Y-49168095D01*
X155476742Y-49215714D01*
X155524361Y-49263333D01*
X155571980Y-49358571D01*
X155571980Y-49453809D01*
X155524361Y-49549047D01*
X155476742Y-49596666D01*
X155381504Y-49644285D01*
X155191028Y-49691904D01*
X154952933Y-49691904D01*
X154762457Y-49644285D01*
X154667219Y-49596666D01*
X154619600Y-49549047D01*
X154571980Y-49453809D01*
X154571980Y-48263333D02*
X154571980Y-48453809D01*
X154619600Y-48549047D01*
X154667219Y-48596666D01*
X154810076Y-48691904D01*
X155000552Y-48739523D01*
X155381504Y-48739523D01*
X155476742Y-48691904D01*
X155524361Y-48644285D01*
X155571980Y-48549047D01*
X155571980Y-48358571D01*
X155524361Y-48263333D01*
X155476742Y-48215714D01*
X155381504Y-48168095D01*
X155143409Y-48168095D01*
X155048171Y-48215714D01*
X155000552Y-48263333D01*
X154952933Y-48358571D01*
X154952933Y-48549047D01*
X155000552Y-48644285D01*
X155048171Y-48691904D01*
X155143409Y-48739523D01*
X155667219Y-47977619D02*
X155667219Y-47215714D01*
X155571980Y-46977619D02*
X154571980Y-46977619D01*
X155286266Y-46644285D01*
X154571980Y-46310952D01*
X155571980Y-46310952D01*
X155571980Y-45406190D02*
X155048171Y-45406190D01*
X154952933Y-45453809D01*
X154905314Y-45549047D01*
X154905314Y-45739523D01*
X154952933Y-45834761D01*
X155524361Y-45406190D02*
X155571980Y-45501428D01*
X155571980Y-45739523D01*
X155524361Y-45834761D01*
X155429123Y-45882380D01*
X155333885Y-45882380D01*
X155238647Y-45834761D01*
X155191028Y-45739523D01*
X155191028Y-45501428D01*
X155143409Y-45406190D01*
X155571980Y-44787142D02*
X155524361Y-44882380D01*
X155429123Y-44930000D01*
X154571980Y-44930000D01*
X155524361Y-44025238D02*
X155571980Y-44120476D01*
X155571980Y-44310952D01*
X155524361Y-44406190D01*
X155429123Y-44453809D01*
X155048171Y-44453809D01*
X154952933Y-44406190D01*
X154905314Y-44310952D01*
X154905314Y-44120476D01*
X154952933Y-44025238D01*
X155048171Y-43977619D01*
X155143409Y-43977619D01*
X155238647Y-44453809D01*
X145630076Y-49882380D02*
X145630076Y-50596666D01*
X145582457Y-50739523D01*
X145487219Y-50834761D01*
X145344361Y-50882380D01*
X145249123Y-50882380D01*
X146630076Y-50882380D02*
X146058647Y-50882380D01*
X146344361Y-50882380D02*
X146344361Y-49882380D01*
X146249123Y-50025238D01*
X146153885Y-50120476D01*
X146058647Y-50168095D01*
X147249123Y-49882380D02*
X147344361Y-49882380D01*
X147439600Y-49930000D01*
X147487219Y-49977619D01*
X147534838Y-50072857D01*
X147582457Y-50263333D01*
X147582457Y-50501428D01*
X147534838Y-50691904D01*
X147487219Y-50787142D01*
X147439600Y-50834761D01*
X147344361Y-50882380D01*
X147249123Y-50882380D01*
X147153885Y-50834761D01*
X147106266Y-50787142D01*
X147058647Y-50691904D01*
X147011028Y-50501428D01*
X147011028Y-50263333D01*
X147058647Y-50072857D01*
X147106266Y-49977619D01*
X147153885Y-49930000D01*
X147249123Y-49882380D01*
%TO.C,J5*%
D17*
X113056666Y-111454523D02*
X113056666Y-112361666D01*
X112996190Y-112543095D01*
X112875238Y-112664047D01*
X112693809Y-112724523D01*
X112572857Y-112724523D01*
X114266190Y-111454523D02*
X113661428Y-111454523D01*
X113600952Y-112059285D01*
X113661428Y-111998809D01*
X113782380Y-111938333D01*
X114084761Y-111938333D01*
X114205714Y-111998809D01*
X114266190Y-112059285D01*
X114326666Y-112180238D01*
X114326666Y-112482619D01*
X114266190Y-112603571D01*
X114205714Y-112664047D01*
X114084761Y-112724523D01*
X113782380Y-112724523D01*
X113661428Y-112664047D01*
X113600952Y-112603571D01*
%TO.C,J4*%
X130606666Y-111454523D02*
X130606666Y-112361666D01*
X130546190Y-112543095D01*
X130425238Y-112664047D01*
X130243809Y-112724523D01*
X130122857Y-112724523D01*
X131755714Y-111877857D02*
X131755714Y-112724523D01*
X131453333Y-111394047D02*
X131150952Y-112301190D01*
X131937142Y-112301190D01*
%TO.C,Y1*%
X153139761Y-64509761D02*
X153744523Y-64509761D01*
X152474523Y-64933095D02*
X153139761Y-64509761D01*
X152474523Y-64086428D01*
X153744523Y-62997857D02*
X153744523Y-63723571D01*
X153744523Y-63360714D02*
X152474523Y-63360714D01*
X152655952Y-63481666D01*
X152776904Y-63602619D01*
X152837380Y-63723571D01*
%TO.C,U3*%
X183272380Y-74464523D02*
X183272380Y-75492619D01*
X183332857Y-75613571D01*
X183393333Y-75674047D01*
X183514285Y-75734523D01*
X183756190Y-75734523D01*
X183877142Y-75674047D01*
X183937619Y-75613571D01*
X183998095Y-75492619D01*
X183998095Y-74464523D01*
X184481904Y-74464523D02*
X185268095Y-74464523D01*
X184844761Y-74948333D01*
X185026190Y-74948333D01*
X185147142Y-75008809D01*
X185207619Y-75069285D01*
X185268095Y-75190238D01*
X185268095Y-75492619D01*
X185207619Y-75613571D01*
X185147142Y-75674047D01*
X185026190Y-75734523D01*
X184663333Y-75734523D01*
X184542380Y-75674047D01*
X184481904Y-75613571D01*
%TO.C,U2*%
X113224523Y-77917619D02*
X114252619Y-77917619D01*
X114373571Y-77857142D01*
X114434047Y-77796666D01*
X114494523Y-77675714D01*
X114494523Y-77433809D01*
X114434047Y-77312857D01*
X114373571Y-77252380D01*
X114252619Y-77191904D01*
X113224523Y-77191904D01*
X113345476Y-76647619D02*
X113285000Y-76587142D01*
X113224523Y-76466190D01*
X113224523Y-76163809D01*
X113285000Y-76042857D01*
X113345476Y-75982380D01*
X113466428Y-75921904D01*
X113587380Y-75921904D01*
X113768809Y-75982380D01*
X114494523Y-76708095D01*
X114494523Y-75921904D01*
%TO.C,U1*%
X130124523Y-77739119D02*
X131152619Y-77739119D01*
X131273571Y-77678642D01*
X131334047Y-77618166D01*
X131394523Y-77497214D01*
X131394523Y-77255309D01*
X131334047Y-77134357D01*
X131273571Y-77073880D01*
X131152619Y-77013404D01*
X130124523Y-77013404D01*
X131394523Y-75743404D02*
X131394523Y-76469119D01*
X131394523Y-76106261D02*
X130124523Y-76106261D01*
X130305952Y-76227214D01*
X130426904Y-76348166D01*
X130487380Y-76469119D01*
%TO.C,RT1*%
D18*
X176559728Y-61668102D02*
X176559728Y-61274401D01*
X176709709Y-61274401D01*
X176747205Y-61293149D01*
X176765952Y-61311897D01*
X176784700Y-61349392D01*
X176784700Y-61405635D01*
X176765952Y-61443130D01*
X176747205Y-61461878D01*
X176709709Y-61480626D01*
X176559728Y-61480626D01*
X177178401Y-61668102D02*
X177047167Y-61480626D01*
X176953429Y-61668102D02*
X176953429Y-61274401D01*
X177103410Y-61274401D01*
X177140906Y-61293149D01*
X177159653Y-61311897D01*
X177178401Y-61349392D01*
X177178401Y-61405635D01*
X177159653Y-61443130D01*
X177140906Y-61461878D01*
X177103410Y-61480626D01*
X176953429Y-61480626D01*
X177553354Y-61293149D02*
X177515859Y-61274401D01*
X177459616Y-61274401D01*
X177403373Y-61293149D01*
X177365878Y-61330644D01*
X177347130Y-61368140D01*
X177328382Y-61443130D01*
X177328382Y-61499373D01*
X177347130Y-61574364D01*
X177365878Y-61611859D01*
X177403373Y-61649355D01*
X177459616Y-61668102D01*
X177497111Y-61668102D01*
X177553354Y-61649355D01*
X177572102Y-61630607D01*
X177572102Y-61499373D01*
X177497111Y-61499373D01*
X177722083Y-61311897D02*
X177740831Y-61293149D01*
X177778326Y-61274401D01*
X177872065Y-61274401D01*
X177909560Y-61293149D01*
X177928308Y-61311897D01*
X177947055Y-61349392D01*
X177947055Y-61386887D01*
X177928308Y-61443130D01*
X177703336Y-61668102D01*
X177947055Y-61668102D01*
X178322009Y-61668102D02*
X178097037Y-61668102D01*
X178209523Y-61668102D02*
X178209523Y-61274401D01*
X178172027Y-61330644D01*
X178134532Y-61368140D01*
X178097037Y-61386887D01*
X178621971Y-61461878D02*
X178678214Y-61480626D01*
X178696962Y-61499373D01*
X178715710Y-61536869D01*
X178715710Y-61593112D01*
X178696962Y-61630607D01*
X178678214Y-61649355D01*
X178640719Y-61668102D01*
X178490738Y-61668102D01*
X178490738Y-61274401D01*
X178621971Y-61274401D01*
X178659467Y-61293149D01*
X178678214Y-61311897D01*
X178696962Y-61349392D01*
X178696962Y-61386887D01*
X178678214Y-61424383D01*
X178659467Y-61443130D01*
X178621971Y-61461878D01*
X178490738Y-61461878D01*
X179109411Y-61630607D02*
X179090663Y-61649355D01*
X179034420Y-61668102D01*
X178996925Y-61668102D01*
X178940682Y-61649355D01*
X178903186Y-61611859D01*
X178884439Y-61574364D01*
X178865691Y-61499373D01*
X178865691Y-61443130D01*
X178884439Y-61368140D01*
X178903186Y-61330644D01*
X178940682Y-61293149D01*
X178996925Y-61274401D01*
X179034420Y-61274401D01*
X179090663Y-61293149D01*
X179109411Y-61311897D01*
X179446869Y-61405635D02*
X179446869Y-61668102D01*
X179353130Y-61255654D02*
X179259392Y-61536869D01*
X179503112Y-61536869D01*
X179878065Y-61668102D02*
X179746831Y-61480626D01*
X179653093Y-61668102D02*
X179653093Y-61274401D01*
X179803074Y-61274401D01*
X179840570Y-61293149D01*
X179859317Y-61311897D01*
X179878065Y-61349392D01*
X179878065Y-61405635D01*
X179859317Y-61443130D01*
X179840570Y-61461878D01*
X179803074Y-61480626D01*
X179653093Y-61480626D01*
X180009299Y-61274401D02*
X180271766Y-61274401D01*
X180103037Y-61668102D01*
X180421747Y-61668102D02*
X180421747Y-61274401D01*
X180552981Y-61555616D01*
X180684215Y-61274401D01*
X180684215Y-61668102D01*
X180871691Y-61668102D02*
X180871691Y-61274401D01*
X181002925Y-61555616D01*
X181134159Y-61274401D01*
X181134159Y-61668102D01*
X181527860Y-61668102D02*
X181302888Y-61668102D01*
X181415374Y-61668102D02*
X181415374Y-61274401D01*
X181377878Y-61330644D01*
X181340383Y-61368140D01*
X181302888Y-61386887D01*
X181921561Y-61668102D02*
X181790327Y-61480626D01*
X181696589Y-61668102D02*
X181696589Y-61274401D01*
X181846570Y-61274401D01*
X181884065Y-61293149D01*
X181902813Y-61311897D01*
X181921561Y-61349392D01*
X181921561Y-61405635D01*
X181902813Y-61443130D01*
X181884065Y-61461878D01*
X181846570Y-61480626D01*
X181696589Y-61480626D01*
X182071542Y-61555616D02*
X182259019Y-61555616D01*
X182034047Y-61668102D02*
X182165280Y-61274401D01*
X182296514Y-61668102D01*
D13*
%TO.C,R16*%
X135484285Y-73775714D02*
X135484285Y-74442380D01*
X135246190Y-73394761D02*
X135008095Y-74109047D01*
X135627142Y-74109047D01*
X136008095Y-74442380D02*
X136008095Y-73442380D01*
X136579523Y-74442380D02*
X136150952Y-73870952D01*
X136579523Y-73442380D02*
X136008095Y-74013809D01*
X136912857Y-73442380D02*
X137579523Y-73442380D01*
X137150952Y-74442380D01*
D16*
X136012857Y-72740952D02*
X135879523Y-72550476D01*
X135784285Y-72740952D02*
X135784285Y-72340952D01*
X135936666Y-72340952D01*
X135974761Y-72360000D01*
X135993809Y-72379047D01*
X136012857Y-72417142D01*
X136012857Y-72474285D01*
X135993809Y-72512380D01*
X135974761Y-72531428D01*
X135936666Y-72550476D01*
X135784285Y-72550476D01*
X136393809Y-72740952D02*
X136165238Y-72740952D01*
X136279523Y-72740952D02*
X136279523Y-72340952D01*
X136241428Y-72398095D01*
X136203333Y-72436190D01*
X136165238Y-72455238D01*
X136736666Y-72340952D02*
X136660476Y-72340952D01*
X136622380Y-72360000D01*
X136603333Y-72379047D01*
X136565238Y-72436190D01*
X136546190Y-72512380D01*
X136546190Y-72664761D01*
X136565238Y-72702857D01*
X136584285Y-72721904D01*
X136622380Y-72740952D01*
X136698571Y-72740952D01*
X136736666Y-72721904D01*
X136755714Y-72702857D01*
X136774761Y-72664761D01*
X136774761Y-72569523D01*
X136755714Y-72531428D01*
X136736666Y-72512380D01*
X136698571Y-72493333D01*
X136622380Y-72493333D01*
X136584285Y-72512380D01*
X136565238Y-72531428D01*
X136546190Y-72569523D01*
%TO.C,R15*%
D13*
X148304285Y-77385714D02*
X148304285Y-78052380D01*
X148066190Y-77004761D02*
X147828095Y-77719047D01*
X148447142Y-77719047D01*
X148828095Y-78052380D02*
X148828095Y-77052380D01*
X149399523Y-78052380D02*
X148970952Y-77480952D01*
X149399523Y-77052380D02*
X148828095Y-77623809D01*
X149732857Y-77052380D02*
X150399523Y-77052380D01*
X149970952Y-78052380D01*
D16*
X148832857Y-76350952D02*
X148699523Y-76160476D01*
X148604285Y-76350952D02*
X148604285Y-75950952D01*
X148756666Y-75950952D01*
X148794761Y-75970000D01*
X148813809Y-75989047D01*
X148832857Y-76027142D01*
X148832857Y-76084285D01*
X148813809Y-76122380D01*
X148794761Y-76141428D01*
X148756666Y-76160476D01*
X148604285Y-76160476D01*
X149213809Y-76350952D02*
X148985238Y-76350952D01*
X149099523Y-76350952D02*
X149099523Y-75950952D01*
X149061428Y-76008095D01*
X149023333Y-76046190D01*
X148985238Y-76065238D01*
X149575714Y-75950952D02*
X149385238Y-75950952D01*
X149366190Y-76141428D01*
X149385238Y-76122380D01*
X149423333Y-76103333D01*
X149518571Y-76103333D01*
X149556666Y-76122380D01*
X149575714Y-76141428D01*
X149594761Y-76179523D01*
X149594761Y-76274761D01*
X149575714Y-76312857D01*
X149556666Y-76331904D01*
X149518571Y-76350952D01*
X149423333Y-76350952D01*
X149385238Y-76331904D01*
X149366190Y-76312857D01*
%TO.C,R14*%
D13*
X147913333Y-73572380D02*
X147341904Y-73572380D01*
X147627619Y-73572380D02*
X147627619Y-72572380D01*
X147532380Y-72715238D01*
X147437142Y-72810476D01*
X147341904Y-72858095D01*
X148532380Y-72572380D02*
X148627619Y-72572380D01*
X148722857Y-72620000D01*
X148770476Y-72667619D01*
X148818095Y-72762857D01*
X148865714Y-72953333D01*
X148865714Y-73191428D01*
X148818095Y-73381904D01*
X148770476Y-73477142D01*
X148722857Y-73524761D01*
X148627619Y-73572380D01*
X148532380Y-73572380D01*
X148437142Y-73524761D01*
X148389523Y-73477142D01*
X148341904Y-73381904D01*
X148294285Y-73191428D01*
X148294285Y-72953333D01*
X148341904Y-72762857D01*
X148389523Y-72667619D01*
X148437142Y-72620000D01*
X148532380Y-72572380D01*
X149484761Y-72572380D02*
X149580000Y-72572380D01*
X149675238Y-72620000D01*
X149722857Y-72667619D01*
X149770476Y-72762857D01*
X149818095Y-72953333D01*
X149818095Y-73191428D01*
X149770476Y-73381904D01*
X149722857Y-73477142D01*
X149675238Y-73524761D01*
X149580000Y-73572380D01*
X149484761Y-73572380D01*
X149389523Y-73524761D01*
X149341904Y-73477142D01*
X149294285Y-73381904D01*
X149246666Y-73191428D01*
X149246666Y-72953333D01*
X149294285Y-72762857D01*
X149341904Y-72667619D01*
X149389523Y-72620000D01*
X149484761Y-72572380D01*
X150246666Y-73572380D02*
X150246666Y-72572380D01*
X150818095Y-73572380D02*
X150389523Y-73000952D01*
X150818095Y-72572380D02*
X150246666Y-73143809D01*
D16*
X148822857Y-74730952D02*
X148689523Y-74540476D01*
X148594285Y-74730952D02*
X148594285Y-74330952D01*
X148746666Y-74330952D01*
X148784761Y-74350000D01*
X148803809Y-74369047D01*
X148822857Y-74407142D01*
X148822857Y-74464285D01*
X148803809Y-74502380D01*
X148784761Y-74521428D01*
X148746666Y-74540476D01*
X148594285Y-74540476D01*
X149203809Y-74730952D02*
X148975238Y-74730952D01*
X149089523Y-74730952D02*
X149089523Y-74330952D01*
X149051428Y-74388095D01*
X149013333Y-74426190D01*
X148975238Y-74445238D01*
X149546666Y-74464285D02*
X149546666Y-74730952D01*
X149451428Y-74311904D02*
X149356190Y-74597619D01*
X149603809Y-74597619D01*
%TO.C,R12*%
D13*
X118053809Y-83392380D02*
X117577619Y-83392380D01*
X117530000Y-83868571D01*
X117577619Y-83820952D01*
X117672857Y-83773333D01*
X117910952Y-83773333D01*
X118006190Y-83820952D01*
X118053809Y-83868571D01*
X118101428Y-83963809D01*
X118101428Y-84201904D01*
X118053809Y-84297142D01*
X118006190Y-84344761D01*
X117910952Y-84392380D01*
X117672857Y-84392380D01*
X117577619Y-84344761D01*
X117530000Y-84297142D01*
X118530000Y-84297142D02*
X118577619Y-84344761D01*
X118530000Y-84392380D01*
X118482380Y-84344761D01*
X118530000Y-84297142D01*
X118530000Y-84392380D01*
X119530000Y-84392380D02*
X118958571Y-84392380D01*
X119244285Y-84392380D02*
X119244285Y-83392380D01*
X119149047Y-83535238D01*
X119053809Y-83630476D01*
X118958571Y-83678095D01*
X119958571Y-84392380D02*
X119958571Y-83392380D01*
X120530000Y-84392380D02*
X120101428Y-83820952D01*
X120530000Y-83392380D02*
X119958571Y-83963809D01*
D16*
X118772857Y-82690952D02*
X118639523Y-82500476D01*
X118544285Y-82690952D02*
X118544285Y-82290952D01*
X118696666Y-82290952D01*
X118734761Y-82310000D01*
X118753809Y-82329047D01*
X118772857Y-82367142D01*
X118772857Y-82424285D01*
X118753809Y-82462380D01*
X118734761Y-82481428D01*
X118696666Y-82500476D01*
X118544285Y-82500476D01*
X119153809Y-82690952D02*
X118925238Y-82690952D01*
X119039523Y-82690952D02*
X119039523Y-82290952D01*
X119001428Y-82348095D01*
X118963333Y-82386190D01*
X118925238Y-82405238D01*
X119306190Y-82329047D02*
X119325238Y-82310000D01*
X119363333Y-82290952D01*
X119458571Y-82290952D01*
X119496666Y-82310000D01*
X119515714Y-82329047D01*
X119534761Y-82367142D01*
X119534761Y-82405238D01*
X119515714Y-82462380D01*
X119287142Y-82690952D01*
X119534761Y-82690952D01*
%TO.C,R11*%
D13*
X133212009Y-82924380D02*
X132735819Y-82924380D01*
X132688200Y-83400571D01*
X132735819Y-83352952D01*
X132831057Y-83305333D01*
X133069152Y-83305333D01*
X133164390Y-83352952D01*
X133212009Y-83400571D01*
X133259628Y-83495809D01*
X133259628Y-83733904D01*
X133212009Y-83829142D01*
X133164390Y-83876761D01*
X133069152Y-83924380D01*
X132831057Y-83924380D01*
X132735819Y-83876761D01*
X132688200Y-83829142D01*
X133688200Y-83829142D02*
X133735819Y-83876761D01*
X133688200Y-83924380D01*
X133640580Y-83876761D01*
X133688200Y-83829142D01*
X133688200Y-83924380D01*
X134688200Y-83924380D02*
X134116771Y-83924380D01*
X134402485Y-83924380D02*
X134402485Y-82924380D01*
X134307247Y-83067238D01*
X134212009Y-83162476D01*
X134116771Y-83210095D01*
X135116771Y-83924380D02*
X135116771Y-82924380D01*
X135688200Y-83924380D02*
X135259628Y-83352952D01*
X135688200Y-82924380D02*
X135116771Y-83495809D01*
D16*
X133931057Y-82222952D02*
X133797723Y-82032476D01*
X133702485Y-82222952D02*
X133702485Y-81822952D01*
X133854866Y-81822952D01*
X133892961Y-81842000D01*
X133912009Y-81861047D01*
X133931057Y-81899142D01*
X133931057Y-81956285D01*
X133912009Y-81994380D01*
X133892961Y-82013428D01*
X133854866Y-82032476D01*
X133702485Y-82032476D01*
X134312009Y-82222952D02*
X134083438Y-82222952D01*
X134197723Y-82222952D02*
X134197723Y-81822952D01*
X134159628Y-81880095D01*
X134121533Y-81918190D01*
X134083438Y-81937238D01*
X134692961Y-82222952D02*
X134464390Y-82222952D01*
X134578676Y-82222952D02*
X134578676Y-81822952D01*
X134540580Y-81880095D01*
X134502485Y-81918190D01*
X134464390Y-81937238D01*
%TO.C,R10*%
D13*
X112192380Y-81945076D02*
X112192380Y-82516504D01*
X112192380Y-82230790D02*
X111192380Y-82230790D01*
X111335238Y-82326028D01*
X111430476Y-82421266D01*
X111478095Y-82516504D01*
X111192380Y-81326028D02*
X111192380Y-81230790D01*
X111240000Y-81135552D01*
X111287619Y-81087933D01*
X111382857Y-81040314D01*
X111573333Y-80992695D01*
X111811428Y-80992695D01*
X112001904Y-81040314D01*
X112097142Y-81087933D01*
X112144761Y-81135552D01*
X112192380Y-81230790D01*
X112192380Y-81326028D01*
X112144761Y-81421266D01*
X112097142Y-81468885D01*
X112001904Y-81516504D01*
X111811428Y-81564123D01*
X111573333Y-81564123D01*
X111382857Y-81516504D01*
X111287619Y-81468885D01*
X111240000Y-81421266D01*
X111192380Y-81326028D01*
X112192380Y-80564123D02*
X111192380Y-80564123D01*
X112192380Y-79992695D02*
X111620952Y-80421266D01*
X111192380Y-79992695D02*
X111763809Y-80564123D01*
D16*
X110490952Y-81511742D02*
X110300476Y-81645076D01*
X110490952Y-81740314D02*
X110090952Y-81740314D01*
X110090952Y-81587933D01*
X110110000Y-81549838D01*
X110129047Y-81530790D01*
X110167142Y-81511742D01*
X110224285Y-81511742D01*
X110262380Y-81530790D01*
X110281428Y-81549838D01*
X110300476Y-81587933D01*
X110300476Y-81740314D01*
X110490952Y-81130790D02*
X110490952Y-81359361D01*
X110490952Y-81245076D02*
X110090952Y-81245076D01*
X110148095Y-81283171D01*
X110186190Y-81321266D01*
X110205238Y-81359361D01*
X110090952Y-80883171D02*
X110090952Y-80845076D01*
X110110000Y-80806980D01*
X110129047Y-80787933D01*
X110167142Y-80768885D01*
X110243333Y-80749838D01*
X110338571Y-80749838D01*
X110414761Y-80768885D01*
X110452857Y-80787933D01*
X110471904Y-80806980D01*
X110490952Y-80845076D01*
X110490952Y-80883171D01*
X110471904Y-80921266D01*
X110452857Y-80940314D01*
X110414761Y-80959361D01*
X110338571Y-80978409D01*
X110243333Y-80978409D01*
X110167142Y-80959361D01*
X110129047Y-80940314D01*
X110110000Y-80921266D01*
X110090952Y-80883171D01*
%TO.C,R9*%
D13*
X129262380Y-81810476D02*
X129262380Y-82381904D01*
X129262380Y-82096190D02*
X128262380Y-82096190D01*
X128405238Y-82191428D01*
X128500476Y-82286666D01*
X128548095Y-82381904D01*
X128262380Y-81191428D02*
X128262380Y-81096190D01*
X128310000Y-81000952D01*
X128357619Y-80953333D01*
X128452857Y-80905714D01*
X128643333Y-80858095D01*
X128881428Y-80858095D01*
X129071904Y-80905714D01*
X129167142Y-80953333D01*
X129214761Y-81000952D01*
X129262380Y-81096190D01*
X129262380Y-81191428D01*
X129214761Y-81286666D01*
X129167142Y-81334285D01*
X129071904Y-81381904D01*
X128881428Y-81429523D01*
X128643333Y-81429523D01*
X128452857Y-81381904D01*
X128357619Y-81334285D01*
X128310000Y-81286666D01*
X128262380Y-81191428D01*
X129262380Y-80429523D02*
X128262380Y-80429523D01*
X129262380Y-79858095D02*
X128690952Y-80286666D01*
X128262380Y-79858095D02*
X128833809Y-80429523D01*
D16*
X127560952Y-81186666D02*
X127370476Y-81320000D01*
X127560952Y-81415238D02*
X127160952Y-81415238D01*
X127160952Y-81262857D01*
X127180000Y-81224761D01*
X127199047Y-81205714D01*
X127237142Y-81186666D01*
X127294285Y-81186666D01*
X127332380Y-81205714D01*
X127351428Y-81224761D01*
X127370476Y-81262857D01*
X127370476Y-81415238D01*
X127560952Y-80996190D02*
X127560952Y-80920000D01*
X127541904Y-80881904D01*
X127522857Y-80862857D01*
X127465714Y-80824761D01*
X127389523Y-80805714D01*
X127237142Y-80805714D01*
X127199047Y-80824761D01*
X127180000Y-80843809D01*
X127160952Y-80881904D01*
X127160952Y-80958095D01*
X127180000Y-80996190D01*
X127199047Y-81015238D01*
X127237142Y-81034285D01*
X127332380Y-81034285D01*
X127370476Y-81015238D01*
X127389523Y-80996190D01*
X127408571Y-80958095D01*
X127408571Y-80881904D01*
X127389523Y-80843809D01*
X127370476Y-80824761D01*
X127332380Y-80805714D01*
%TO.C,R8*%
D13*
X181573333Y-63862380D02*
X181001904Y-63862380D01*
X181287619Y-63862380D02*
X181287619Y-62862380D01*
X181192380Y-63005238D01*
X181097142Y-63100476D01*
X181001904Y-63148095D01*
X182192380Y-62862380D02*
X182287619Y-62862380D01*
X182382857Y-62910000D01*
X182430476Y-62957619D01*
X182478095Y-63052857D01*
X182525714Y-63243333D01*
X182525714Y-63481428D01*
X182478095Y-63671904D01*
X182430476Y-63767142D01*
X182382857Y-63814761D01*
X182287619Y-63862380D01*
X182192380Y-63862380D01*
X182097142Y-63814761D01*
X182049523Y-63767142D01*
X182001904Y-63671904D01*
X181954285Y-63481428D01*
X181954285Y-63243333D01*
X182001904Y-63052857D01*
X182049523Y-62957619D01*
X182097142Y-62910000D01*
X182192380Y-62862380D01*
X183144761Y-62862380D02*
X183240000Y-62862380D01*
X183335238Y-62910000D01*
X183382857Y-62957619D01*
X183430476Y-63052857D01*
X183478095Y-63243333D01*
X183478095Y-63481428D01*
X183430476Y-63671904D01*
X183382857Y-63767142D01*
X183335238Y-63814761D01*
X183240000Y-63862380D01*
X183144761Y-63862380D01*
X183049523Y-63814761D01*
X183001904Y-63767142D01*
X182954285Y-63671904D01*
X182906666Y-63481428D01*
X182906666Y-63243333D01*
X182954285Y-63052857D01*
X183001904Y-62957619D01*
X183049523Y-62910000D01*
X183144761Y-62862380D01*
X183906666Y-63862380D02*
X183906666Y-62862380D01*
X184478095Y-63862380D02*
X184049523Y-63290952D01*
X184478095Y-62862380D02*
X183906666Y-63433809D01*
D16*
X182673333Y-65020952D02*
X182540000Y-64830476D01*
X182444761Y-65020952D02*
X182444761Y-64620952D01*
X182597142Y-64620952D01*
X182635238Y-64640000D01*
X182654285Y-64659047D01*
X182673333Y-64697142D01*
X182673333Y-64754285D01*
X182654285Y-64792380D01*
X182635238Y-64811428D01*
X182597142Y-64830476D01*
X182444761Y-64830476D01*
X182901904Y-64792380D02*
X182863809Y-64773333D01*
X182844761Y-64754285D01*
X182825714Y-64716190D01*
X182825714Y-64697142D01*
X182844761Y-64659047D01*
X182863809Y-64640000D01*
X182901904Y-64620952D01*
X182978095Y-64620952D01*
X183016190Y-64640000D01*
X183035238Y-64659047D01*
X183054285Y-64697142D01*
X183054285Y-64716190D01*
X183035238Y-64754285D01*
X183016190Y-64773333D01*
X182978095Y-64792380D01*
X182901904Y-64792380D01*
X182863809Y-64811428D01*
X182844761Y-64830476D01*
X182825714Y-64868571D01*
X182825714Y-64944761D01*
X182844761Y-64982857D01*
X182863809Y-65001904D01*
X182901904Y-65020952D01*
X182978095Y-65020952D01*
X183016190Y-65001904D01*
X183035238Y-64982857D01*
X183054285Y-64944761D01*
X183054285Y-64868571D01*
X183035238Y-64830476D01*
X183016190Y-64811428D01*
X182978095Y-64792380D01*
%TO.C,R7*%
D13*
X186046190Y-66065714D02*
X186046190Y-66732380D01*
X185808095Y-65684761D02*
X185570000Y-66399047D01*
X186189047Y-66399047D01*
X186570000Y-66637142D02*
X186617619Y-66684761D01*
X186570000Y-66732380D01*
X186522380Y-66684761D01*
X186570000Y-66637142D01*
X186570000Y-66732380D01*
X186950952Y-65732380D02*
X187617619Y-65732380D01*
X187189047Y-66732380D01*
X187998571Y-66732380D02*
X187998571Y-65732380D01*
X188570000Y-66732380D02*
X188141428Y-66160952D01*
X188570000Y-65732380D02*
X187998571Y-66303809D01*
D16*
X187003333Y-65030952D02*
X186870000Y-64840476D01*
X186774761Y-65030952D02*
X186774761Y-64630952D01*
X186927142Y-64630952D01*
X186965238Y-64650000D01*
X186984285Y-64669047D01*
X187003333Y-64707142D01*
X187003333Y-64764285D01*
X186984285Y-64802380D01*
X186965238Y-64821428D01*
X186927142Y-64840476D01*
X186774761Y-64840476D01*
X187136666Y-64630952D02*
X187403333Y-64630952D01*
X187231904Y-65030952D01*
%TO.C,R6*%
D13*
X183793809Y-82842380D02*
X183317619Y-82842380D01*
X183270000Y-83318571D01*
X183317619Y-83270952D01*
X183412857Y-83223333D01*
X183650952Y-83223333D01*
X183746190Y-83270952D01*
X183793809Y-83318571D01*
X183841428Y-83413809D01*
X183841428Y-83651904D01*
X183793809Y-83747142D01*
X183746190Y-83794761D01*
X183650952Y-83842380D01*
X183412857Y-83842380D01*
X183317619Y-83794761D01*
X183270000Y-83747142D01*
X184270000Y-83747142D02*
X184317619Y-83794761D01*
X184270000Y-83842380D01*
X184222380Y-83794761D01*
X184270000Y-83747142D01*
X184270000Y-83842380D01*
X185270000Y-83842380D02*
X184698571Y-83842380D01*
X184984285Y-83842380D02*
X184984285Y-82842380D01*
X184889047Y-82985238D01*
X184793809Y-83080476D01*
X184698571Y-83128095D01*
X185698571Y-83842380D02*
X185698571Y-82842380D01*
X186270000Y-83842380D02*
X185841428Y-83270952D01*
X186270000Y-82842380D02*
X185698571Y-83413809D01*
D16*
X184703333Y-82140952D02*
X184570000Y-81950476D01*
X184474761Y-82140952D02*
X184474761Y-81740952D01*
X184627142Y-81740952D01*
X184665238Y-81760000D01*
X184684285Y-81779047D01*
X184703333Y-81817142D01*
X184703333Y-81874285D01*
X184684285Y-81912380D01*
X184665238Y-81931428D01*
X184627142Y-81950476D01*
X184474761Y-81950476D01*
X185046190Y-81740952D02*
X184970000Y-81740952D01*
X184931904Y-81760000D01*
X184912857Y-81779047D01*
X184874761Y-81836190D01*
X184855714Y-81912380D01*
X184855714Y-82064761D01*
X184874761Y-82102857D01*
X184893809Y-82121904D01*
X184931904Y-82140952D01*
X185008095Y-82140952D01*
X185046190Y-82121904D01*
X185065238Y-82102857D01*
X185084285Y-82064761D01*
X185084285Y-81969523D01*
X185065238Y-81931428D01*
X185046190Y-81912380D01*
X185008095Y-81893333D01*
X184931904Y-81893333D01*
X184893809Y-81912380D01*
X184874761Y-81931428D01*
X184855714Y-81969523D01*
%TO.C,R5*%
D13*
X158983809Y-82842380D02*
X158507619Y-82842380D01*
X158460000Y-83318571D01*
X158507619Y-83270952D01*
X158602857Y-83223333D01*
X158840952Y-83223333D01*
X158936190Y-83270952D01*
X158983809Y-83318571D01*
X159031428Y-83413809D01*
X159031428Y-83651904D01*
X158983809Y-83747142D01*
X158936190Y-83794761D01*
X158840952Y-83842380D01*
X158602857Y-83842380D01*
X158507619Y-83794761D01*
X158460000Y-83747142D01*
X159460000Y-83747142D02*
X159507619Y-83794761D01*
X159460000Y-83842380D01*
X159412380Y-83794761D01*
X159460000Y-83747142D01*
X159460000Y-83842380D01*
X160460000Y-83842380D02*
X159888571Y-83842380D01*
X160174285Y-83842380D02*
X160174285Y-82842380D01*
X160079047Y-82985238D01*
X159983809Y-83080476D01*
X159888571Y-83128095D01*
X160888571Y-83842380D02*
X160888571Y-82842380D01*
X161460000Y-83842380D02*
X161031428Y-83270952D01*
X161460000Y-82842380D02*
X160888571Y-83413809D01*
D16*
X159893333Y-82140952D02*
X159760000Y-81950476D01*
X159664761Y-82140952D02*
X159664761Y-81740952D01*
X159817142Y-81740952D01*
X159855238Y-81760000D01*
X159874285Y-81779047D01*
X159893333Y-81817142D01*
X159893333Y-81874285D01*
X159874285Y-81912380D01*
X159855238Y-81931428D01*
X159817142Y-81950476D01*
X159664761Y-81950476D01*
X160255238Y-81740952D02*
X160064761Y-81740952D01*
X160045714Y-81931428D01*
X160064761Y-81912380D01*
X160102857Y-81893333D01*
X160198095Y-81893333D01*
X160236190Y-81912380D01*
X160255238Y-81931428D01*
X160274285Y-81969523D01*
X160274285Y-82064761D01*
X160255238Y-82102857D01*
X160236190Y-82121904D01*
X160198095Y-82140952D01*
X160102857Y-82140952D01*
X160064761Y-82121904D01*
X160045714Y-82102857D01*
%TO.C,R4*%
D13*
X171309523Y-82822380D02*
X170738095Y-82822380D01*
X171023809Y-82822380D02*
X171023809Y-81822380D01*
X170928571Y-81965238D01*
X170833333Y-82060476D01*
X170738095Y-82108095D01*
X171928571Y-81822380D02*
X172023809Y-81822380D01*
X172119047Y-81870000D01*
X172166666Y-81917619D01*
X172214285Y-82012857D01*
X172261904Y-82203333D01*
X172261904Y-82441428D01*
X172214285Y-82631904D01*
X172166666Y-82727142D01*
X172119047Y-82774761D01*
X172023809Y-82822380D01*
X171928571Y-82822380D01*
X171833333Y-82774761D01*
X171785714Y-82727142D01*
X171738095Y-82631904D01*
X171690476Y-82441428D01*
X171690476Y-82203333D01*
X171738095Y-82012857D01*
X171785714Y-81917619D01*
X171833333Y-81870000D01*
X171928571Y-81822380D01*
X172690476Y-82822380D02*
X172690476Y-81822380D01*
X173261904Y-82822380D02*
X172833333Y-82250952D01*
X173261904Y-81822380D02*
X172690476Y-82393809D01*
D16*
X171933333Y-81120952D02*
X171800000Y-80930476D01*
X171704761Y-81120952D02*
X171704761Y-80720952D01*
X171857142Y-80720952D01*
X171895238Y-80740000D01*
X171914285Y-80759047D01*
X171933333Y-80797142D01*
X171933333Y-80854285D01*
X171914285Y-80892380D01*
X171895238Y-80911428D01*
X171857142Y-80930476D01*
X171704761Y-80930476D01*
X172276190Y-80854285D02*
X172276190Y-81120952D01*
X172180952Y-80701904D02*
X172085714Y-80987619D01*
X172333333Y-80987619D01*
%TO.C,R3*%
D13*
X147389523Y-82732380D02*
X146818095Y-82732380D01*
X147103809Y-82732380D02*
X147103809Y-81732380D01*
X147008571Y-81875238D01*
X146913333Y-81970476D01*
X146818095Y-82018095D01*
X148008571Y-81732380D02*
X148103809Y-81732380D01*
X148199047Y-81780000D01*
X148246666Y-81827619D01*
X148294285Y-81922857D01*
X148341904Y-82113333D01*
X148341904Y-82351428D01*
X148294285Y-82541904D01*
X148246666Y-82637142D01*
X148199047Y-82684761D01*
X148103809Y-82732380D01*
X148008571Y-82732380D01*
X147913333Y-82684761D01*
X147865714Y-82637142D01*
X147818095Y-82541904D01*
X147770476Y-82351428D01*
X147770476Y-82113333D01*
X147818095Y-81922857D01*
X147865714Y-81827619D01*
X147913333Y-81780000D01*
X148008571Y-81732380D01*
X148770476Y-82732380D02*
X148770476Y-81732380D01*
X149341904Y-82732380D02*
X148913333Y-82160952D01*
X149341904Y-81732380D02*
X148770476Y-82303809D01*
D16*
X148013333Y-81030952D02*
X147880000Y-80840476D01*
X147784761Y-81030952D02*
X147784761Y-80630952D01*
X147937142Y-80630952D01*
X147975238Y-80650000D01*
X147994285Y-80669047D01*
X148013333Y-80707142D01*
X148013333Y-80764285D01*
X147994285Y-80802380D01*
X147975238Y-80821428D01*
X147937142Y-80840476D01*
X147784761Y-80840476D01*
X148146666Y-80630952D02*
X148394285Y-80630952D01*
X148260952Y-80783333D01*
X148318095Y-80783333D01*
X148356190Y-80802380D01*
X148375238Y-80821428D01*
X148394285Y-80859523D01*
X148394285Y-80954761D01*
X148375238Y-80992857D01*
X148356190Y-81011904D01*
X148318095Y-81030952D01*
X148203809Y-81030952D01*
X148165714Y-81011904D01*
X148146666Y-80992857D01*
%TO.C,R2*%
D13*
X109615314Y-76139280D02*
X109043885Y-76139280D01*
X109329600Y-76139280D02*
X109329600Y-75139280D01*
X109234361Y-75282138D01*
X109139123Y-75377376D01*
X109043885Y-75424995D01*
X110043885Y-76139280D02*
X110043885Y-75139280D01*
X110615314Y-76139280D02*
X110186742Y-75567852D01*
X110615314Y-75139280D02*
X110043885Y-75710709D01*
D16*
X109762933Y-74437852D02*
X109629600Y-74247376D01*
X109534361Y-74437852D02*
X109534361Y-74037852D01*
X109686742Y-74037852D01*
X109724838Y-74056900D01*
X109743885Y-74075947D01*
X109762933Y-74114042D01*
X109762933Y-74171185D01*
X109743885Y-74209280D01*
X109724838Y-74228328D01*
X109686742Y-74247376D01*
X109534361Y-74247376D01*
X109915314Y-74075947D02*
X109934361Y-74056900D01*
X109972457Y-74037852D01*
X110067695Y-74037852D01*
X110105790Y-74056900D01*
X110124838Y-74075947D01*
X110143885Y-74114042D01*
X110143885Y-74152138D01*
X110124838Y-74209280D01*
X109896266Y-74437852D01*
X110143885Y-74437852D01*
%TO.C,R1*%
D13*
X126493614Y-75885280D02*
X125922185Y-75885280D01*
X126207900Y-75885280D02*
X126207900Y-74885280D01*
X126112661Y-75028138D01*
X126017423Y-75123376D01*
X125922185Y-75170995D01*
X126922185Y-75885280D02*
X126922185Y-74885280D01*
X127493614Y-75885280D02*
X127065042Y-75313852D01*
X127493614Y-74885280D02*
X126922185Y-75456709D01*
D16*
X126641233Y-74183852D02*
X126507900Y-73993376D01*
X126412661Y-74183852D02*
X126412661Y-73783852D01*
X126565042Y-73783852D01*
X126603138Y-73802900D01*
X126622185Y-73821947D01*
X126641233Y-73860042D01*
X126641233Y-73917185D01*
X126622185Y-73955280D01*
X126603138Y-73974328D01*
X126565042Y-73993376D01*
X126412661Y-73993376D01*
X127022185Y-74183852D02*
X126793614Y-74183852D01*
X126907900Y-74183852D02*
X126907900Y-73783852D01*
X126869804Y-73840995D01*
X126831709Y-73879090D01*
X126793614Y-73898138D01*
%TO.C,Q4*%
D13*
X104432857Y-83962571D02*
X104575714Y-84010190D01*
X104623333Y-84057809D01*
X104670952Y-84153047D01*
X104670952Y-84295904D01*
X104623333Y-84391142D01*
X104575714Y-84438761D01*
X104480476Y-84486380D01*
X104099523Y-84486380D01*
X104099523Y-83486380D01*
X104432857Y-83486380D01*
X104528095Y-83534000D01*
X104575714Y-83581619D01*
X104623333Y-83676857D01*
X104623333Y-83772095D01*
X104575714Y-83867333D01*
X104528095Y-83914952D01*
X104432857Y-83962571D01*
X104099523Y-83962571D01*
X105670952Y-84391142D02*
X105623333Y-84438761D01*
X105480476Y-84486380D01*
X105385238Y-84486380D01*
X105242380Y-84438761D01*
X105147142Y-84343523D01*
X105099523Y-84248285D01*
X105051904Y-84057809D01*
X105051904Y-83914952D01*
X105099523Y-83724476D01*
X105147142Y-83629238D01*
X105242380Y-83534000D01*
X105385238Y-83486380D01*
X105480476Y-83486380D01*
X105623333Y-83534000D01*
X105670952Y-83581619D01*
X106242380Y-83914952D02*
X106147142Y-83867333D01*
X106099523Y-83819714D01*
X106051904Y-83724476D01*
X106051904Y-83676857D01*
X106099523Y-83581619D01*
X106147142Y-83534000D01*
X106242380Y-83486380D01*
X106432857Y-83486380D01*
X106528095Y-83534000D01*
X106575714Y-83581619D01*
X106623333Y-83676857D01*
X106623333Y-83724476D01*
X106575714Y-83819714D01*
X106528095Y-83867333D01*
X106432857Y-83914952D01*
X106242380Y-83914952D01*
X106147142Y-83962571D01*
X106099523Y-84010190D01*
X106051904Y-84105428D01*
X106051904Y-84295904D01*
X106099523Y-84391142D01*
X106147142Y-84438761D01*
X106242380Y-84486380D01*
X106432857Y-84486380D01*
X106528095Y-84438761D01*
X106575714Y-84391142D01*
X106623333Y-84295904D01*
X106623333Y-84105428D01*
X106575714Y-84010190D01*
X106528095Y-83962571D01*
X106432857Y-83914952D01*
X107480476Y-83819714D02*
X107480476Y-84486380D01*
X107242380Y-83438761D02*
X107004285Y-84153047D01*
X107623333Y-84153047D01*
X107909047Y-83486380D02*
X108575714Y-83486380D01*
X108147142Y-84486380D01*
D19*
X106016190Y-81486380D02*
X106040000Y-81438761D01*
X106087619Y-81391142D01*
X106159047Y-81319714D01*
X106182857Y-81272095D01*
X106182857Y-81224476D01*
X106063809Y-81248285D02*
X106087619Y-81200666D01*
X106135238Y-81153047D01*
X106230476Y-81129238D01*
X106397142Y-81129238D01*
X106492380Y-81153047D01*
X106540000Y-81200666D01*
X106563809Y-81248285D01*
X106563809Y-81343523D01*
X106540000Y-81391142D01*
X106492380Y-81438761D01*
X106397142Y-81462571D01*
X106230476Y-81462571D01*
X106135238Y-81438761D01*
X106087619Y-81391142D01*
X106063809Y-81343523D01*
X106063809Y-81248285D01*
X106397142Y-81891142D02*
X106063809Y-81891142D01*
X106587619Y-81772095D02*
X106230476Y-81653047D01*
X106230476Y-81962571D01*
%TO.C,Q3*%
D13*
X121342857Y-83738571D02*
X121485714Y-83786190D01*
X121533333Y-83833809D01*
X121580952Y-83929047D01*
X121580952Y-84071904D01*
X121533333Y-84167142D01*
X121485714Y-84214761D01*
X121390476Y-84262380D01*
X121009523Y-84262380D01*
X121009523Y-83262380D01*
X121342857Y-83262380D01*
X121438095Y-83310000D01*
X121485714Y-83357619D01*
X121533333Y-83452857D01*
X121533333Y-83548095D01*
X121485714Y-83643333D01*
X121438095Y-83690952D01*
X121342857Y-83738571D01*
X121009523Y-83738571D01*
X122580952Y-84167142D02*
X122533333Y-84214761D01*
X122390476Y-84262380D01*
X122295238Y-84262380D01*
X122152380Y-84214761D01*
X122057142Y-84119523D01*
X122009523Y-84024285D01*
X121961904Y-83833809D01*
X121961904Y-83690952D01*
X122009523Y-83500476D01*
X122057142Y-83405238D01*
X122152380Y-83310000D01*
X122295238Y-83262380D01*
X122390476Y-83262380D01*
X122533333Y-83310000D01*
X122580952Y-83357619D01*
X123152380Y-83690952D02*
X123057142Y-83643333D01*
X123009523Y-83595714D01*
X122961904Y-83500476D01*
X122961904Y-83452857D01*
X123009523Y-83357619D01*
X123057142Y-83310000D01*
X123152380Y-83262380D01*
X123342857Y-83262380D01*
X123438095Y-83310000D01*
X123485714Y-83357619D01*
X123533333Y-83452857D01*
X123533333Y-83500476D01*
X123485714Y-83595714D01*
X123438095Y-83643333D01*
X123342857Y-83690952D01*
X123152380Y-83690952D01*
X123057142Y-83738571D01*
X123009523Y-83786190D01*
X122961904Y-83881428D01*
X122961904Y-84071904D01*
X123009523Y-84167142D01*
X123057142Y-84214761D01*
X123152380Y-84262380D01*
X123342857Y-84262380D01*
X123438095Y-84214761D01*
X123485714Y-84167142D01*
X123533333Y-84071904D01*
X123533333Y-83881428D01*
X123485714Y-83786190D01*
X123438095Y-83738571D01*
X123342857Y-83690952D01*
X124390476Y-83595714D02*
X124390476Y-84262380D01*
X124152380Y-83214761D02*
X123914285Y-83929047D01*
X124533333Y-83929047D01*
X124819047Y-83262380D02*
X125485714Y-83262380D01*
X125057142Y-84262380D01*
D19*
X122926190Y-81262380D02*
X122950000Y-81214761D01*
X122997619Y-81167142D01*
X123069047Y-81095714D01*
X123092857Y-81048095D01*
X123092857Y-81000476D01*
X122973809Y-81024285D02*
X122997619Y-80976666D01*
X123045238Y-80929047D01*
X123140476Y-80905238D01*
X123307142Y-80905238D01*
X123402380Y-80929047D01*
X123450000Y-80976666D01*
X123473809Y-81024285D01*
X123473809Y-81119523D01*
X123450000Y-81167142D01*
X123402380Y-81214761D01*
X123307142Y-81238571D01*
X123140476Y-81238571D01*
X123045238Y-81214761D01*
X122997619Y-81167142D01*
X122973809Y-81119523D01*
X122973809Y-81024285D01*
X123473809Y-81405238D02*
X123473809Y-81714761D01*
X123283333Y-81548095D01*
X123283333Y-81619523D01*
X123259523Y-81667142D01*
X123235714Y-81690952D01*
X123188095Y-81714761D01*
X123069047Y-81714761D01*
X123021428Y-81690952D01*
X122997619Y-81667142D01*
X122973809Y-81619523D01*
X122973809Y-81476666D01*
X122997619Y-81429047D01*
X123021428Y-81405238D01*
%TO.C,Q2*%
D13*
X173852857Y-83888571D02*
X173995714Y-83936190D01*
X174043333Y-83983809D01*
X174090952Y-84079047D01*
X174090952Y-84221904D01*
X174043333Y-84317142D01*
X173995714Y-84364761D01*
X173900476Y-84412380D01*
X173519523Y-84412380D01*
X173519523Y-83412380D01*
X173852857Y-83412380D01*
X173948095Y-83460000D01*
X173995714Y-83507619D01*
X174043333Y-83602857D01*
X174043333Y-83698095D01*
X173995714Y-83793333D01*
X173948095Y-83840952D01*
X173852857Y-83888571D01*
X173519523Y-83888571D01*
X175090952Y-84317142D02*
X175043333Y-84364761D01*
X174900476Y-84412380D01*
X174805238Y-84412380D01*
X174662380Y-84364761D01*
X174567142Y-84269523D01*
X174519523Y-84174285D01*
X174471904Y-83983809D01*
X174471904Y-83840952D01*
X174519523Y-83650476D01*
X174567142Y-83555238D01*
X174662380Y-83460000D01*
X174805238Y-83412380D01*
X174900476Y-83412380D01*
X175043333Y-83460000D01*
X175090952Y-83507619D01*
X175662380Y-83840952D02*
X175567142Y-83793333D01*
X175519523Y-83745714D01*
X175471904Y-83650476D01*
X175471904Y-83602857D01*
X175519523Y-83507619D01*
X175567142Y-83460000D01*
X175662380Y-83412380D01*
X175852857Y-83412380D01*
X175948095Y-83460000D01*
X175995714Y-83507619D01*
X176043333Y-83602857D01*
X176043333Y-83650476D01*
X175995714Y-83745714D01*
X175948095Y-83793333D01*
X175852857Y-83840952D01*
X175662380Y-83840952D01*
X175567142Y-83888571D01*
X175519523Y-83936190D01*
X175471904Y-84031428D01*
X175471904Y-84221904D01*
X175519523Y-84317142D01*
X175567142Y-84364761D01*
X175662380Y-84412380D01*
X175852857Y-84412380D01*
X175948095Y-84364761D01*
X175995714Y-84317142D01*
X176043333Y-84221904D01*
X176043333Y-84031428D01*
X175995714Y-83936190D01*
X175948095Y-83888571D01*
X175852857Y-83840952D01*
X176900476Y-83745714D02*
X176900476Y-84412380D01*
X176662380Y-83364761D02*
X176424285Y-84079047D01*
X177043333Y-84079047D01*
X177329047Y-83412380D02*
X177995714Y-83412380D01*
X177567142Y-84412380D01*
D19*
X175436190Y-81412380D02*
X175460000Y-81364761D01*
X175507619Y-81317142D01*
X175579047Y-81245714D01*
X175602857Y-81198095D01*
X175602857Y-81150476D01*
X175483809Y-81174285D02*
X175507619Y-81126666D01*
X175555238Y-81079047D01*
X175650476Y-81055238D01*
X175817142Y-81055238D01*
X175912380Y-81079047D01*
X175960000Y-81126666D01*
X175983809Y-81174285D01*
X175983809Y-81269523D01*
X175960000Y-81317142D01*
X175912380Y-81364761D01*
X175817142Y-81388571D01*
X175650476Y-81388571D01*
X175555238Y-81364761D01*
X175507619Y-81317142D01*
X175483809Y-81269523D01*
X175483809Y-81174285D01*
X175936190Y-81579047D02*
X175960000Y-81602857D01*
X175983809Y-81650476D01*
X175983809Y-81769523D01*
X175960000Y-81817142D01*
X175936190Y-81840952D01*
X175888571Y-81864761D01*
X175840952Y-81864761D01*
X175769523Y-81840952D01*
X175483809Y-81555238D01*
X175483809Y-81864761D01*
%TO.C,Q1*%
D13*
X149812857Y-83818571D02*
X149955714Y-83866190D01*
X150003333Y-83913809D01*
X150050952Y-84009047D01*
X150050952Y-84151904D01*
X150003333Y-84247142D01*
X149955714Y-84294761D01*
X149860476Y-84342380D01*
X149479523Y-84342380D01*
X149479523Y-83342380D01*
X149812857Y-83342380D01*
X149908095Y-83390000D01*
X149955714Y-83437619D01*
X150003333Y-83532857D01*
X150003333Y-83628095D01*
X149955714Y-83723333D01*
X149908095Y-83770952D01*
X149812857Y-83818571D01*
X149479523Y-83818571D01*
X151050952Y-84247142D02*
X151003333Y-84294761D01*
X150860476Y-84342380D01*
X150765238Y-84342380D01*
X150622380Y-84294761D01*
X150527142Y-84199523D01*
X150479523Y-84104285D01*
X150431904Y-83913809D01*
X150431904Y-83770952D01*
X150479523Y-83580476D01*
X150527142Y-83485238D01*
X150622380Y-83390000D01*
X150765238Y-83342380D01*
X150860476Y-83342380D01*
X151003333Y-83390000D01*
X151050952Y-83437619D01*
X151622380Y-83770952D02*
X151527142Y-83723333D01*
X151479523Y-83675714D01*
X151431904Y-83580476D01*
X151431904Y-83532857D01*
X151479523Y-83437619D01*
X151527142Y-83390000D01*
X151622380Y-83342380D01*
X151812857Y-83342380D01*
X151908095Y-83390000D01*
X151955714Y-83437619D01*
X152003333Y-83532857D01*
X152003333Y-83580476D01*
X151955714Y-83675714D01*
X151908095Y-83723333D01*
X151812857Y-83770952D01*
X151622380Y-83770952D01*
X151527142Y-83818571D01*
X151479523Y-83866190D01*
X151431904Y-83961428D01*
X151431904Y-84151904D01*
X151479523Y-84247142D01*
X151527142Y-84294761D01*
X151622380Y-84342380D01*
X151812857Y-84342380D01*
X151908095Y-84294761D01*
X151955714Y-84247142D01*
X152003333Y-84151904D01*
X152003333Y-83961428D01*
X151955714Y-83866190D01*
X151908095Y-83818571D01*
X151812857Y-83770952D01*
X152860476Y-83675714D02*
X152860476Y-84342380D01*
X152622380Y-83294761D02*
X152384285Y-84009047D01*
X153003333Y-84009047D01*
X153289047Y-83342380D02*
X153955714Y-83342380D01*
X153527142Y-84342380D01*
D19*
X151396190Y-81342380D02*
X151420000Y-81294761D01*
X151467619Y-81247142D01*
X151539047Y-81175714D01*
X151562857Y-81128095D01*
X151562857Y-81080476D01*
X151443809Y-81104285D02*
X151467619Y-81056666D01*
X151515238Y-81009047D01*
X151610476Y-80985238D01*
X151777142Y-80985238D01*
X151872380Y-81009047D01*
X151920000Y-81056666D01*
X151943809Y-81104285D01*
X151943809Y-81199523D01*
X151920000Y-81247142D01*
X151872380Y-81294761D01*
X151777142Y-81318571D01*
X151610476Y-81318571D01*
X151515238Y-81294761D01*
X151467619Y-81247142D01*
X151443809Y-81199523D01*
X151443809Y-81104285D01*
X151443809Y-81794761D02*
X151443809Y-81509047D01*
X151443809Y-81651904D02*
X151943809Y-81651904D01*
X151872380Y-81604285D01*
X151824761Y-81556666D01*
X151800952Y-81509047D01*
%TO.C,PS1*%
D17*
X163947857Y-66914523D02*
X163947857Y-65644523D01*
X164431666Y-65644523D01*
X164552619Y-65705000D01*
X164613095Y-65765476D01*
X164673571Y-65886428D01*
X164673571Y-66067857D01*
X164613095Y-66188809D01*
X164552619Y-66249285D01*
X164431666Y-66309761D01*
X163947857Y-66309761D01*
X165157380Y-66854047D02*
X165338809Y-66914523D01*
X165641190Y-66914523D01*
X165762142Y-66854047D01*
X165822619Y-66793571D01*
X165883095Y-66672619D01*
X165883095Y-66551666D01*
X165822619Y-66430714D01*
X165762142Y-66370238D01*
X165641190Y-66309761D01*
X165399285Y-66249285D01*
X165278333Y-66188809D01*
X165217857Y-66128333D01*
X165157380Y-66007380D01*
X165157380Y-65886428D01*
X165217857Y-65765476D01*
X165278333Y-65705000D01*
X165399285Y-65644523D01*
X165701666Y-65644523D01*
X165883095Y-65705000D01*
X167092619Y-66914523D02*
X166366904Y-66914523D01*
X166729761Y-66914523D02*
X166729761Y-65644523D01*
X166608809Y-65825952D01*
X166487857Y-65946904D01*
X166366904Y-66007380D01*
%TO.C,L2*%
D13*
X129363933Y-63112380D02*
X128792504Y-63112380D01*
X129078219Y-63112380D02*
X129078219Y-62112380D01*
X128982980Y-62255238D01*
X128887742Y-62350476D01*
X128792504Y-62398095D01*
X129982980Y-62112380D02*
X130078219Y-62112380D01*
X130173457Y-62160000D01*
X130221076Y-62207619D01*
X130268695Y-62302857D01*
X130316314Y-62493333D01*
X130316314Y-62731428D01*
X130268695Y-62921904D01*
X130221076Y-63017142D01*
X130173457Y-63064761D01*
X130078219Y-63112380D01*
X129982980Y-63112380D01*
X129887742Y-63064761D01*
X129840123Y-63017142D01*
X129792504Y-62921904D01*
X129744885Y-62731428D01*
X129744885Y-62493333D01*
X129792504Y-62302857D01*
X129840123Y-62207619D01*
X129887742Y-62160000D01*
X129982980Y-62112380D01*
X131173457Y-62445714D02*
X131173457Y-63112380D01*
X130744885Y-62445714D02*
X130744885Y-62969523D01*
X130792504Y-63064761D01*
X130887742Y-63112380D01*
X131030600Y-63112380D01*
X131125838Y-63064761D01*
X131173457Y-63017142D01*
X131649647Y-63112380D02*
X131649647Y-62112380D01*
X131649647Y-62588571D02*
X132221076Y-62588571D01*
X132221076Y-63112380D02*
X132221076Y-62112380D01*
D20*
X130397266Y-61121904D02*
X130016314Y-61121904D01*
X130016314Y-60321904D01*
X130625838Y-60398095D02*
X130663933Y-60360000D01*
X130740123Y-60321904D01*
X130930600Y-60321904D01*
X131006790Y-60360000D01*
X131044885Y-60398095D01*
X131082980Y-60474285D01*
X131082980Y-60550476D01*
X131044885Y-60664761D01*
X130587742Y-61121904D01*
X131082980Y-61121904D01*
%TO.C,L1*%
D17*
X179752033Y-67786223D02*
X179147271Y-67786223D01*
X179147271Y-66516223D01*
X180840604Y-67786223D02*
X180114890Y-67786223D01*
X180477747Y-67786223D02*
X180477747Y-66516223D01*
X180356795Y-66697652D01*
X180235842Y-66818604D01*
X180114890Y-66879080D01*
%TO.C,K4*%
D13*
X104337191Y-106727741D02*
X104384824Y-106584840D01*
X104384824Y-106346672D01*
X104337191Y-106251405D01*
X104289557Y-106203771D01*
X104194290Y-106156137D01*
X104099022Y-106156137D01*
X104003755Y-106203771D01*
X103956121Y-106251405D01*
X103908488Y-106346672D01*
X103860854Y-106537207D01*
X103813220Y-106632474D01*
X103765587Y-106680108D01*
X103670319Y-106727741D01*
X103575052Y-106727741D01*
X103479785Y-106680108D01*
X103432151Y-106632474D01*
X103384517Y-106537207D01*
X103384517Y-106299038D01*
X103432151Y-106156137D01*
X104384824Y-105155830D02*
X103908488Y-105489266D01*
X104384824Y-105727434D02*
X103384517Y-105727434D01*
X103384517Y-105346365D01*
X103432151Y-105251098D01*
X103479785Y-105203464D01*
X103575052Y-105155830D01*
X103717953Y-105155830D01*
X103813220Y-105203464D01*
X103860854Y-105251098D01*
X103908488Y-105346365D01*
X103908488Y-105727434D01*
X104384824Y-104727127D02*
X103384517Y-104727127D01*
X103384517Y-104488959D01*
X103432151Y-104346058D01*
X103527418Y-104250791D01*
X103622686Y-104203157D01*
X103813220Y-104155523D01*
X103956121Y-104155523D01*
X104146656Y-104203157D01*
X104241923Y-104250791D01*
X104337191Y-104346058D01*
X104384824Y-104488959D01*
X104384824Y-104727127D01*
X104003755Y-103726820D02*
X104003755Y-102964682D01*
X103384517Y-102297810D02*
X103384517Y-102202543D01*
X103432151Y-102107276D01*
X103479785Y-102059642D01*
X103575052Y-102012008D01*
X103765587Y-101964375D01*
X104003755Y-101964375D01*
X104194290Y-102012008D01*
X104289557Y-102059642D01*
X104337191Y-102107276D01*
X104384824Y-102202543D01*
X104384824Y-102297810D01*
X104337191Y-102393078D01*
X104289557Y-102440711D01*
X104194290Y-102488345D01*
X104003755Y-102535979D01*
X103765587Y-102535979D01*
X103575052Y-102488345D01*
X103479785Y-102440711D01*
X103432151Y-102393078D01*
X103384517Y-102297810D01*
X103384517Y-101059335D02*
X103384517Y-101535672D01*
X103860854Y-101583305D01*
X103813220Y-101535672D01*
X103765587Y-101440404D01*
X103765587Y-101202236D01*
X103813220Y-101106969D01*
X103860854Y-101059335D01*
X103956121Y-101011701D01*
X104194290Y-101011701D01*
X104289557Y-101059335D01*
X104337191Y-101106969D01*
X104384824Y-101202236D01*
X104384824Y-101440404D01*
X104337191Y-101535672D01*
X104289557Y-101583305D01*
X103384517Y-100725899D02*
X104384824Y-100392464D01*
X103384517Y-100059028D01*
X104384824Y-99725592D02*
X103384517Y-99725592D01*
X103384517Y-99487424D01*
X103432151Y-99344523D01*
X103527418Y-99249256D01*
X103622686Y-99201622D01*
X103813220Y-99153988D01*
X103956121Y-99153988D01*
X104146656Y-99201622D01*
X104241923Y-99249256D01*
X104337191Y-99344523D01*
X104384824Y-99487424D01*
X104384824Y-99725592D01*
X104289557Y-98153681D02*
X104337191Y-98201315D01*
X104384824Y-98344216D01*
X104384824Y-98439483D01*
X104337191Y-98582384D01*
X104241923Y-98677652D01*
X104146656Y-98725285D01*
X103956121Y-98772919D01*
X103813220Y-98772919D01*
X103622686Y-98725285D01*
X103527418Y-98677652D01*
X103432151Y-98582384D01*
X103384517Y-98439483D01*
X103384517Y-98344216D01*
X103432151Y-98201315D01*
X103479785Y-98153681D01*
X104003755Y-97724978D02*
X104003755Y-96962840D01*
X104337191Y-96534137D02*
X104384824Y-96391236D01*
X104384824Y-96153067D01*
X104337191Y-96057800D01*
X104289557Y-96010166D01*
X104194290Y-95962533D01*
X104099022Y-95962533D01*
X104003755Y-96010166D01*
X103956121Y-96057800D01*
X103908488Y-96153067D01*
X103860854Y-96343602D01*
X103813220Y-96438869D01*
X103765587Y-96486503D01*
X103670319Y-96534137D01*
X103575052Y-96534137D01*
X103479785Y-96486503D01*
X103432151Y-96438869D01*
X103384517Y-96343602D01*
X103384517Y-96105434D01*
X103432151Y-95962533D01*
X104384824Y-95057493D02*
X104384824Y-95533830D01*
X103384517Y-95533830D01*
X104003755Y-94724057D02*
X104003755Y-93961919D01*
X104289557Y-92913978D02*
X104337191Y-92961612D01*
X104384824Y-93104513D01*
X104384824Y-93199780D01*
X104337191Y-93342681D01*
X104241923Y-93437948D01*
X104146656Y-93485582D01*
X103956121Y-93533216D01*
X103813220Y-93533216D01*
X103622686Y-93485582D01*
X103527418Y-93437948D01*
X103432151Y-93342681D01*
X103384517Y-93199780D01*
X103384517Y-93104513D01*
X103432151Y-92961612D01*
X103479785Y-92913978D01*
%TO.C,K2*%
X170337191Y-106617741D02*
X170384824Y-106474840D01*
X170384824Y-106236672D01*
X170337191Y-106141405D01*
X170289557Y-106093771D01*
X170194290Y-106046137D01*
X170099022Y-106046137D01*
X170003755Y-106093771D01*
X169956121Y-106141405D01*
X169908488Y-106236672D01*
X169860854Y-106427207D01*
X169813220Y-106522474D01*
X169765587Y-106570108D01*
X169670319Y-106617741D01*
X169575052Y-106617741D01*
X169479785Y-106570108D01*
X169432151Y-106522474D01*
X169384517Y-106427207D01*
X169384517Y-106189038D01*
X169432151Y-106046137D01*
X170384824Y-105045830D02*
X169908488Y-105379266D01*
X170384824Y-105617434D02*
X169384517Y-105617434D01*
X169384517Y-105236365D01*
X169432151Y-105141098D01*
X169479785Y-105093464D01*
X169575052Y-105045830D01*
X169717953Y-105045830D01*
X169813220Y-105093464D01*
X169860854Y-105141098D01*
X169908488Y-105236365D01*
X169908488Y-105617434D01*
X170384824Y-104617127D02*
X169384517Y-104617127D01*
X169384517Y-104378959D01*
X169432151Y-104236058D01*
X169527418Y-104140791D01*
X169622686Y-104093157D01*
X169813220Y-104045523D01*
X169956121Y-104045523D01*
X170146656Y-104093157D01*
X170241923Y-104140791D01*
X170337191Y-104236058D01*
X170384824Y-104378959D01*
X170384824Y-104617127D01*
X170003755Y-103616820D02*
X170003755Y-102854682D01*
X169384517Y-102187810D02*
X169384517Y-102092543D01*
X169432151Y-101997276D01*
X169479785Y-101949642D01*
X169575052Y-101902008D01*
X169765587Y-101854375D01*
X170003755Y-101854375D01*
X170194290Y-101902008D01*
X170289557Y-101949642D01*
X170337191Y-101997276D01*
X170384824Y-102092543D01*
X170384824Y-102187810D01*
X170337191Y-102283078D01*
X170289557Y-102330711D01*
X170194290Y-102378345D01*
X170003755Y-102425979D01*
X169765587Y-102425979D01*
X169575052Y-102378345D01*
X169479785Y-102330711D01*
X169432151Y-102283078D01*
X169384517Y-102187810D01*
X169384517Y-100949335D02*
X169384517Y-101425672D01*
X169860854Y-101473305D01*
X169813220Y-101425672D01*
X169765587Y-101330404D01*
X169765587Y-101092236D01*
X169813220Y-100996969D01*
X169860854Y-100949335D01*
X169956121Y-100901701D01*
X170194290Y-100901701D01*
X170289557Y-100949335D01*
X170337191Y-100996969D01*
X170384824Y-101092236D01*
X170384824Y-101330404D01*
X170337191Y-101425672D01*
X170289557Y-101473305D01*
X169384517Y-100615899D02*
X170384824Y-100282464D01*
X169384517Y-99949028D01*
X170384824Y-99615592D02*
X169384517Y-99615592D01*
X169384517Y-99377424D01*
X169432151Y-99234523D01*
X169527418Y-99139256D01*
X169622686Y-99091622D01*
X169813220Y-99043988D01*
X169956121Y-99043988D01*
X170146656Y-99091622D01*
X170241923Y-99139256D01*
X170337191Y-99234523D01*
X170384824Y-99377424D01*
X170384824Y-99615592D01*
X170289557Y-98043681D02*
X170337191Y-98091315D01*
X170384824Y-98234216D01*
X170384824Y-98329483D01*
X170337191Y-98472384D01*
X170241923Y-98567652D01*
X170146656Y-98615285D01*
X169956121Y-98662919D01*
X169813220Y-98662919D01*
X169622686Y-98615285D01*
X169527418Y-98567652D01*
X169432151Y-98472384D01*
X169384517Y-98329483D01*
X169384517Y-98234216D01*
X169432151Y-98091315D01*
X169479785Y-98043681D01*
X170003755Y-97614978D02*
X170003755Y-96852840D01*
X170337191Y-96424137D02*
X170384824Y-96281236D01*
X170384824Y-96043067D01*
X170337191Y-95947800D01*
X170289557Y-95900166D01*
X170194290Y-95852533D01*
X170099022Y-95852533D01*
X170003755Y-95900166D01*
X169956121Y-95947800D01*
X169908488Y-96043067D01*
X169860854Y-96233602D01*
X169813220Y-96328869D01*
X169765587Y-96376503D01*
X169670319Y-96424137D01*
X169575052Y-96424137D01*
X169479785Y-96376503D01*
X169432151Y-96328869D01*
X169384517Y-96233602D01*
X169384517Y-95995434D01*
X169432151Y-95852533D01*
X170384824Y-94947493D02*
X170384824Y-95423830D01*
X169384517Y-95423830D01*
X170003755Y-94614057D02*
X170003755Y-93851919D01*
X170289557Y-92803978D02*
X170337191Y-92851612D01*
X170384824Y-92994513D01*
X170384824Y-93089780D01*
X170337191Y-93232681D01*
X170241923Y-93327948D01*
X170146656Y-93375582D01*
X169956121Y-93423216D01*
X169813220Y-93423216D01*
X169622686Y-93375582D01*
X169527418Y-93327948D01*
X169432151Y-93232681D01*
X169384517Y-93089780D01*
X169384517Y-92994513D01*
X169432151Y-92851612D01*
X169479785Y-92803978D01*
%TO.C,K1*%
X145937191Y-106807741D02*
X145984824Y-106664840D01*
X145984824Y-106426672D01*
X145937191Y-106331405D01*
X145889557Y-106283771D01*
X145794290Y-106236137D01*
X145699022Y-106236137D01*
X145603755Y-106283771D01*
X145556121Y-106331405D01*
X145508488Y-106426672D01*
X145460854Y-106617207D01*
X145413220Y-106712474D01*
X145365587Y-106760108D01*
X145270319Y-106807741D01*
X145175052Y-106807741D01*
X145079785Y-106760108D01*
X145032151Y-106712474D01*
X144984517Y-106617207D01*
X144984517Y-106379038D01*
X145032151Y-106236137D01*
X145984824Y-105235830D02*
X145508488Y-105569266D01*
X145984824Y-105807434D02*
X144984517Y-105807434D01*
X144984517Y-105426365D01*
X145032151Y-105331098D01*
X145079785Y-105283464D01*
X145175052Y-105235830D01*
X145317953Y-105235830D01*
X145413220Y-105283464D01*
X145460854Y-105331098D01*
X145508488Y-105426365D01*
X145508488Y-105807434D01*
X145984824Y-104807127D02*
X144984517Y-104807127D01*
X144984517Y-104568959D01*
X145032151Y-104426058D01*
X145127418Y-104330791D01*
X145222686Y-104283157D01*
X145413220Y-104235523D01*
X145556121Y-104235523D01*
X145746656Y-104283157D01*
X145841923Y-104330791D01*
X145937191Y-104426058D01*
X145984824Y-104568959D01*
X145984824Y-104807127D01*
X145603755Y-103806820D02*
X145603755Y-103044682D01*
X144984517Y-102377810D02*
X144984517Y-102282543D01*
X145032151Y-102187276D01*
X145079785Y-102139642D01*
X145175052Y-102092008D01*
X145365587Y-102044375D01*
X145603755Y-102044375D01*
X145794290Y-102092008D01*
X145889557Y-102139642D01*
X145937191Y-102187276D01*
X145984824Y-102282543D01*
X145984824Y-102377810D01*
X145937191Y-102473078D01*
X145889557Y-102520711D01*
X145794290Y-102568345D01*
X145603755Y-102615979D01*
X145365587Y-102615979D01*
X145175052Y-102568345D01*
X145079785Y-102520711D01*
X145032151Y-102473078D01*
X144984517Y-102377810D01*
X144984517Y-101139335D02*
X144984517Y-101615672D01*
X145460854Y-101663305D01*
X145413220Y-101615672D01*
X145365587Y-101520404D01*
X145365587Y-101282236D01*
X145413220Y-101186969D01*
X145460854Y-101139335D01*
X145556121Y-101091701D01*
X145794290Y-101091701D01*
X145889557Y-101139335D01*
X145937191Y-101186969D01*
X145984824Y-101282236D01*
X145984824Y-101520404D01*
X145937191Y-101615672D01*
X145889557Y-101663305D01*
X144984517Y-100805899D02*
X145984824Y-100472464D01*
X144984517Y-100139028D01*
X145984824Y-99805592D02*
X144984517Y-99805592D01*
X144984517Y-99567424D01*
X145032151Y-99424523D01*
X145127418Y-99329256D01*
X145222686Y-99281622D01*
X145413220Y-99233988D01*
X145556121Y-99233988D01*
X145746656Y-99281622D01*
X145841923Y-99329256D01*
X145937191Y-99424523D01*
X145984824Y-99567424D01*
X145984824Y-99805592D01*
X145889557Y-98233681D02*
X145937191Y-98281315D01*
X145984824Y-98424216D01*
X145984824Y-98519483D01*
X145937191Y-98662384D01*
X145841923Y-98757652D01*
X145746656Y-98805285D01*
X145556121Y-98852919D01*
X145413220Y-98852919D01*
X145222686Y-98805285D01*
X145127418Y-98757652D01*
X145032151Y-98662384D01*
X144984517Y-98519483D01*
X144984517Y-98424216D01*
X145032151Y-98281315D01*
X145079785Y-98233681D01*
X145603755Y-97804978D02*
X145603755Y-97042840D01*
X145937191Y-96614137D02*
X145984824Y-96471236D01*
X145984824Y-96233067D01*
X145937191Y-96137800D01*
X145889557Y-96090166D01*
X145794290Y-96042533D01*
X145699022Y-96042533D01*
X145603755Y-96090166D01*
X145556121Y-96137800D01*
X145508488Y-96233067D01*
X145460854Y-96423602D01*
X145413220Y-96518869D01*
X145365587Y-96566503D01*
X145270319Y-96614137D01*
X145175052Y-96614137D01*
X145079785Y-96566503D01*
X145032151Y-96518869D01*
X144984517Y-96423602D01*
X144984517Y-96185434D01*
X145032151Y-96042533D01*
X145984824Y-95137493D02*
X145984824Y-95613830D01*
X144984517Y-95613830D01*
X145603755Y-94804057D02*
X145603755Y-94041919D01*
X145889557Y-92993978D02*
X145937191Y-93041612D01*
X145984824Y-93184513D01*
X145984824Y-93279780D01*
X145937191Y-93422681D01*
X145841923Y-93517948D01*
X145746656Y-93565582D01*
X145556121Y-93613216D01*
X145413220Y-93613216D01*
X145222686Y-93565582D01*
X145127418Y-93517948D01*
X145032151Y-93422681D01*
X144984517Y-93279780D01*
X144984517Y-93184513D01*
X145032151Y-93041612D01*
X145079785Y-92993978D01*
%TO.C,J9*%
X162866666Y-86827142D02*
X162819047Y-86874761D01*
X162676190Y-86922380D01*
X162580952Y-86922380D01*
X162438095Y-86874761D01*
X162342857Y-86779523D01*
X162295238Y-86684285D01*
X162247619Y-86493809D01*
X162247619Y-86350952D01*
X162295238Y-86160476D01*
X162342857Y-86065238D01*
X162438095Y-85970000D01*
X162580952Y-85922380D01*
X162676190Y-85922380D01*
X162819047Y-85970000D01*
X162866666Y-86017619D01*
X163438095Y-86922380D02*
X163342857Y-86874761D01*
X163295238Y-86827142D01*
X163247619Y-86731904D01*
X163247619Y-86446190D01*
X163295238Y-86350952D01*
X163342857Y-86303333D01*
X163438095Y-86255714D01*
X163580952Y-86255714D01*
X163676190Y-86303333D01*
X163723809Y-86350952D01*
X163771428Y-86446190D01*
X163771428Y-86731904D01*
X163723809Y-86827142D01*
X163676190Y-86874761D01*
X163580952Y-86922380D01*
X163438095Y-86922380D01*
X164200000Y-86255714D02*
X164200000Y-86922380D01*
X164200000Y-86350952D02*
X164247619Y-86303333D01*
X164342857Y-86255714D01*
X164485714Y-86255714D01*
X164580952Y-86303333D01*
X164628571Y-86398571D01*
X164628571Y-86922380D01*
X165104761Y-86255714D02*
X165104761Y-86922380D01*
X165104761Y-86350952D02*
X165152380Y-86303333D01*
X165247619Y-86255714D01*
X165390476Y-86255714D01*
X165485714Y-86303333D01*
X165533333Y-86398571D01*
X165533333Y-86922380D01*
X165771428Y-87017619D02*
X166533333Y-87017619D01*
X166961904Y-85922380D02*
X167057142Y-85922380D01*
X167152380Y-85970000D01*
X167200000Y-86017619D01*
X167247619Y-86112857D01*
X167295238Y-86303333D01*
X167295238Y-86541428D01*
X167247619Y-86731904D01*
X167200000Y-86827142D01*
X167152380Y-86874761D01*
X167057142Y-86922380D01*
X166961904Y-86922380D01*
X166866666Y-86874761D01*
X166819047Y-86827142D01*
X166771428Y-86731904D01*
X166723809Y-86541428D01*
X166723809Y-86303333D01*
X166771428Y-86112857D01*
X166819047Y-86017619D01*
X166866666Y-85970000D01*
X166961904Y-85922380D01*
X168247619Y-86922380D02*
X167676190Y-86922380D01*
X167961904Y-86922380D02*
X167961904Y-85922380D01*
X167866666Y-86065238D01*
X167771428Y-86160476D01*
X167676190Y-86208095D01*
X168580952Y-86922380D02*
X169104761Y-86255714D01*
X168580952Y-86255714D02*
X169104761Y-86922380D01*
X169676190Y-85922380D02*
X169771428Y-85922380D01*
X169866666Y-85970000D01*
X169914285Y-86017619D01*
X169961904Y-86112857D01*
X170009523Y-86303333D01*
X170009523Y-86541428D01*
X169961904Y-86731904D01*
X169914285Y-86827142D01*
X169866666Y-86874761D01*
X169771428Y-86922380D01*
X169676190Y-86922380D01*
X169580952Y-86874761D01*
X169533333Y-86827142D01*
X169485714Y-86731904D01*
X169438095Y-86541428D01*
X169438095Y-86303333D01*
X169485714Y-86112857D01*
X169533333Y-86017619D01*
X169580952Y-85970000D01*
X169676190Y-85922380D01*
X170866666Y-85922380D02*
X170676190Y-85922380D01*
X170580952Y-85970000D01*
X170533333Y-86017619D01*
X170438095Y-86160476D01*
X170390476Y-86350952D01*
X170390476Y-86731904D01*
X170438095Y-86827142D01*
X170485714Y-86874761D01*
X170580952Y-86922380D01*
X170771428Y-86922380D01*
X170866666Y-86874761D01*
X170914285Y-86827142D01*
X170961904Y-86731904D01*
X170961904Y-86493809D01*
X170914285Y-86398571D01*
X170866666Y-86350952D01*
X170771428Y-86303333D01*
X170580952Y-86303333D01*
X170485714Y-86350952D01*
X170438095Y-86398571D01*
X170390476Y-86493809D01*
X171152380Y-87017619D02*
X171914285Y-87017619D01*
X172152380Y-86922380D02*
X172152380Y-85922380D01*
X172485714Y-86636666D01*
X172819047Y-85922380D01*
X172819047Y-86922380D01*
X173723809Y-86922380D02*
X173723809Y-86398571D01*
X173676190Y-86303333D01*
X173580952Y-86255714D01*
X173390476Y-86255714D01*
X173295238Y-86303333D01*
X173723809Y-86874761D02*
X173628571Y-86922380D01*
X173390476Y-86922380D01*
X173295238Y-86874761D01*
X173247619Y-86779523D01*
X173247619Y-86684285D01*
X173295238Y-86589047D01*
X173390476Y-86541428D01*
X173628571Y-86541428D01*
X173723809Y-86493809D01*
X174342857Y-86922380D02*
X174247619Y-86874761D01*
X174200000Y-86779523D01*
X174200000Y-85922380D01*
X175104761Y-86874761D02*
X175009523Y-86922380D01*
X174819047Y-86922380D01*
X174723809Y-86874761D01*
X174676190Y-86779523D01*
X174676190Y-86398571D01*
X174723809Y-86303333D01*
X174819047Y-86255714D01*
X175009523Y-86255714D01*
X175104761Y-86303333D01*
X175152380Y-86398571D01*
X175152380Y-86493809D01*
X174676190Y-86589047D01*
X168152380Y-95483333D02*
X168866666Y-95483333D01*
X169009523Y-95530952D01*
X169104761Y-95626190D01*
X169152380Y-95769047D01*
X169152380Y-95864285D01*
X169152380Y-94959523D02*
X169152380Y-94769047D01*
X169104761Y-94673809D01*
X169057142Y-94626190D01*
X168914285Y-94530952D01*
X168723809Y-94483333D01*
X168342857Y-94483333D01*
X168247619Y-94530952D01*
X168200000Y-94578571D01*
X168152380Y-94673809D01*
X168152380Y-94864285D01*
X168200000Y-94959523D01*
X168247619Y-95007142D01*
X168342857Y-95054761D01*
X168580952Y-95054761D01*
X168676190Y-95007142D01*
X168723809Y-94959523D01*
X168771428Y-94864285D01*
X168771428Y-94673809D01*
X168723809Y-94578571D01*
X168676190Y-94530952D01*
X168580952Y-94483333D01*
%TO.C,J8*%
X138466666Y-86827142D02*
X138419047Y-86874761D01*
X138276190Y-86922380D01*
X138180952Y-86922380D01*
X138038095Y-86874761D01*
X137942857Y-86779523D01*
X137895238Y-86684285D01*
X137847619Y-86493809D01*
X137847619Y-86350952D01*
X137895238Y-86160476D01*
X137942857Y-86065238D01*
X138038095Y-85970000D01*
X138180952Y-85922380D01*
X138276190Y-85922380D01*
X138419047Y-85970000D01*
X138466666Y-86017619D01*
X139038095Y-86922380D02*
X138942857Y-86874761D01*
X138895238Y-86827142D01*
X138847619Y-86731904D01*
X138847619Y-86446190D01*
X138895238Y-86350952D01*
X138942857Y-86303333D01*
X139038095Y-86255714D01*
X139180952Y-86255714D01*
X139276190Y-86303333D01*
X139323809Y-86350952D01*
X139371428Y-86446190D01*
X139371428Y-86731904D01*
X139323809Y-86827142D01*
X139276190Y-86874761D01*
X139180952Y-86922380D01*
X139038095Y-86922380D01*
X139800000Y-86255714D02*
X139800000Y-86922380D01*
X139800000Y-86350952D02*
X139847619Y-86303333D01*
X139942857Y-86255714D01*
X140085714Y-86255714D01*
X140180952Y-86303333D01*
X140228571Y-86398571D01*
X140228571Y-86922380D01*
X140704761Y-86255714D02*
X140704761Y-86922380D01*
X140704761Y-86350952D02*
X140752380Y-86303333D01*
X140847619Y-86255714D01*
X140990476Y-86255714D01*
X141085714Y-86303333D01*
X141133333Y-86398571D01*
X141133333Y-86922380D01*
X141371428Y-87017619D02*
X142133333Y-87017619D01*
X142561904Y-85922380D02*
X142657142Y-85922380D01*
X142752380Y-85970000D01*
X142800000Y-86017619D01*
X142847619Y-86112857D01*
X142895238Y-86303333D01*
X142895238Y-86541428D01*
X142847619Y-86731904D01*
X142800000Y-86827142D01*
X142752380Y-86874761D01*
X142657142Y-86922380D01*
X142561904Y-86922380D01*
X142466666Y-86874761D01*
X142419047Y-86827142D01*
X142371428Y-86731904D01*
X142323809Y-86541428D01*
X142323809Y-86303333D01*
X142371428Y-86112857D01*
X142419047Y-86017619D01*
X142466666Y-85970000D01*
X142561904Y-85922380D01*
X143847619Y-86922380D02*
X143276190Y-86922380D01*
X143561904Y-86922380D02*
X143561904Y-85922380D01*
X143466666Y-86065238D01*
X143371428Y-86160476D01*
X143276190Y-86208095D01*
X144180952Y-86922380D02*
X144704761Y-86255714D01*
X144180952Y-86255714D02*
X144704761Y-86922380D01*
X145276190Y-85922380D02*
X145371428Y-85922380D01*
X145466666Y-85970000D01*
X145514285Y-86017619D01*
X145561904Y-86112857D01*
X145609523Y-86303333D01*
X145609523Y-86541428D01*
X145561904Y-86731904D01*
X145514285Y-86827142D01*
X145466666Y-86874761D01*
X145371428Y-86922380D01*
X145276190Y-86922380D01*
X145180952Y-86874761D01*
X145133333Y-86827142D01*
X145085714Y-86731904D01*
X145038095Y-86541428D01*
X145038095Y-86303333D01*
X145085714Y-86112857D01*
X145133333Y-86017619D01*
X145180952Y-85970000D01*
X145276190Y-85922380D01*
X146466666Y-85922380D02*
X146276190Y-85922380D01*
X146180952Y-85970000D01*
X146133333Y-86017619D01*
X146038095Y-86160476D01*
X145990476Y-86350952D01*
X145990476Y-86731904D01*
X146038095Y-86827142D01*
X146085714Y-86874761D01*
X146180952Y-86922380D01*
X146371428Y-86922380D01*
X146466666Y-86874761D01*
X146514285Y-86827142D01*
X146561904Y-86731904D01*
X146561904Y-86493809D01*
X146514285Y-86398571D01*
X146466666Y-86350952D01*
X146371428Y-86303333D01*
X146180952Y-86303333D01*
X146085714Y-86350952D01*
X146038095Y-86398571D01*
X145990476Y-86493809D01*
X146752380Y-87017619D02*
X147514285Y-87017619D01*
X147752380Y-86922380D02*
X147752380Y-85922380D01*
X148085714Y-86636666D01*
X148419047Y-85922380D01*
X148419047Y-86922380D01*
X149323809Y-86922380D02*
X149323809Y-86398571D01*
X149276190Y-86303333D01*
X149180952Y-86255714D01*
X148990476Y-86255714D01*
X148895238Y-86303333D01*
X149323809Y-86874761D02*
X149228571Y-86922380D01*
X148990476Y-86922380D01*
X148895238Y-86874761D01*
X148847619Y-86779523D01*
X148847619Y-86684285D01*
X148895238Y-86589047D01*
X148990476Y-86541428D01*
X149228571Y-86541428D01*
X149323809Y-86493809D01*
X149942857Y-86922380D02*
X149847619Y-86874761D01*
X149800000Y-86779523D01*
X149800000Y-85922380D01*
X150704761Y-86874761D02*
X150609523Y-86922380D01*
X150419047Y-86922380D01*
X150323809Y-86874761D01*
X150276190Y-86779523D01*
X150276190Y-86398571D01*
X150323809Y-86303333D01*
X150419047Y-86255714D01*
X150609523Y-86255714D01*
X150704761Y-86303333D01*
X150752380Y-86398571D01*
X150752380Y-86493809D01*
X150276190Y-86589047D01*
X143752380Y-95483333D02*
X144466666Y-95483333D01*
X144609523Y-95530952D01*
X144704761Y-95626190D01*
X144752380Y-95769047D01*
X144752380Y-95864285D01*
X144180952Y-94864285D02*
X144133333Y-94959523D01*
X144085714Y-95007142D01*
X143990476Y-95054761D01*
X143942857Y-95054761D01*
X143847619Y-95007142D01*
X143800000Y-94959523D01*
X143752380Y-94864285D01*
X143752380Y-94673809D01*
X143800000Y-94578571D01*
X143847619Y-94530952D01*
X143942857Y-94483333D01*
X143990476Y-94483333D01*
X144085714Y-94530952D01*
X144133333Y-94578571D01*
X144180952Y-94673809D01*
X144180952Y-94864285D01*
X144228571Y-94959523D01*
X144276190Y-95007142D01*
X144371428Y-95054761D01*
X144561904Y-95054761D01*
X144657142Y-95007142D01*
X144704761Y-94959523D01*
X144752380Y-94864285D01*
X144752380Y-94673809D01*
X144704761Y-94578571D01*
X144657142Y-94530952D01*
X144561904Y-94483333D01*
X144371428Y-94483333D01*
X144276190Y-94530952D01*
X144228571Y-94578571D01*
X144180952Y-94673809D01*
%TO.C,J7*%
X104877142Y-61812857D02*
X104924761Y-61860476D01*
X104972380Y-62003333D01*
X104972380Y-62098571D01*
X104924761Y-62241428D01*
X104829523Y-62336666D01*
X104734285Y-62384285D01*
X104543809Y-62431904D01*
X104400952Y-62431904D01*
X104210476Y-62384285D01*
X104115238Y-62336666D01*
X104020000Y-62241428D01*
X103972380Y-62098571D01*
X103972380Y-62003333D01*
X104020000Y-61860476D01*
X104067619Y-61812857D01*
X104972380Y-61241428D02*
X104924761Y-61336666D01*
X104877142Y-61384285D01*
X104781904Y-61431904D01*
X104496190Y-61431904D01*
X104400952Y-61384285D01*
X104353333Y-61336666D01*
X104305714Y-61241428D01*
X104305714Y-61098571D01*
X104353333Y-61003333D01*
X104400952Y-60955714D01*
X104496190Y-60908095D01*
X104781904Y-60908095D01*
X104877142Y-60955714D01*
X104924761Y-61003333D01*
X104972380Y-61098571D01*
X104972380Y-61241428D01*
X104305714Y-60479523D02*
X104972380Y-60479523D01*
X104400952Y-60479523D02*
X104353333Y-60431904D01*
X104305714Y-60336666D01*
X104305714Y-60193809D01*
X104353333Y-60098571D01*
X104448571Y-60050952D01*
X104972380Y-60050952D01*
X104305714Y-59574761D02*
X104972380Y-59574761D01*
X104400952Y-59574761D02*
X104353333Y-59527142D01*
X104305714Y-59431904D01*
X104305714Y-59289047D01*
X104353333Y-59193809D01*
X104448571Y-59146190D01*
X104972380Y-59146190D01*
X105067619Y-58908095D02*
X105067619Y-58146190D01*
X103972380Y-57717619D02*
X103972380Y-57622380D01*
X104020000Y-57527142D01*
X104067619Y-57479523D01*
X104162857Y-57431904D01*
X104353333Y-57384285D01*
X104591428Y-57384285D01*
X104781904Y-57431904D01*
X104877142Y-57479523D01*
X104924761Y-57527142D01*
X104972380Y-57622380D01*
X104972380Y-57717619D01*
X104924761Y-57812857D01*
X104877142Y-57860476D01*
X104781904Y-57908095D01*
X104591428Y-57955714D01*
X104353333Y-57955714D01*
X104162857Y-57908095D01*
X104067619Y-57860476D01*
X104020000Y-57812857D01*
X103972380Y-57717619D01*
X104067619Y-57003333D02*
X104020000Y-56955714D01*
X103972380Y-56860476D01*
X103972380Y-56622380D01*
X104020000Y-56527142D01*
X104067619Y-56479523D01*
X104162857Y-56431904D01*
X104258095Y-56431904D01*
X104400952Y-56479523D01*
X104972380Y-57050952D01*
X104972380Y-56431904D01*
X104972380Y-56098571D02*
X104305714Y-55574761D01*
X104305714Y-56098571D02*
X104972380Y-55574761D01*
X103972380Y-55003333D02*
X103972380Y-54908095D01*
X104020000Y-54812857D01*
X104067619Y-54765238D01*
X104162857Y-54717619D01*
X104353333Y-54670000D01*
X104591428Y-54670000D01*
X104781904Y-54717619D01*
X104877142Y-54765238D01*
X104924761Y-54812857D01*
X104972380Y-54908095D01*
X104972380Y-55003333D01*
X104924761Y-55098571D01*
X104877142Y-55146190D01*
X104781904Y-55193809D01*
X104591428Y-55241428D01*
X104353333Y-55241428D01*
X104162857Y-55193809D01*
X104067619Y-55146190D01*
X104020000Y-55098571D01*
X103972380Y-55003333D01*
X104400952Y-54098571D02*
X104353333Y-54193809D01*
X104305714Y-54241428D01*
X104210476Y-54289047D01*
X104162857Y-54289047D01*
X104067619Y-54241428D01*
X104020000Y-54193809D01*
X103972380Y-54098571D01*
X103972380Y-53908095D01*
X104020000Y-53812857D01*
X104067619Y-53765238D01*
X104162857Y-53717619D01*
X104210476Y-53717619D01*
X104305714Y-53765238D01*
X104353333Y-53812857D01*
X104400952Y-53908095D01*
X104400952Y-54098571D01*
X104448571Y-54193809D01*
X104496190Y-54241428D01*
X104591428Y-54289047D01*
X104781904Y-54289047D01*
X104877142Y-54241428D01*
X104924761Y-54193809D01*
X104972380Y-54098571D01*
X104972380Y-53908095D01*
X104924761Y-53812857D01*
X104877142Y-53765238D01*
X104781904Y-53717619D01*
X104591428Y-53717619D01*
X104496190Y-53765238D01*
X104448571Y-53812857D01*
X104400952Y-53908095D01*
X105067619Y-53527142D02*
X105067619Y-52765238D01*
X103972380Y-52336666D02*
X103972380Y-52146190D01*
X104020000Y-52050952D01*
X104115238Y-51955714D01*
X104305714Y-51908095D01*
X104639047Y-51908095D01*
X104829523Y-51955714D01*
X104924761Y-52050952D01*
X104972380Y-52146190D01*
X104972380Y-52336666D01*
X104924761Y-52431904D01*
X104829523Y-52527142D01*
X104639047Y-52574761D01*
X104305714Y-52574761D01*
X104115238Y-52527142D01*
X104020000Y-52431904D01*
X103972380Y-52336666D01*
X104972380Y-51050952D02*
X103972380Y-51050952D01*
X104924761Y-51050952D02*
X104972380Y-51146190D01*
X104972380Y-51336666D01*
X104924761Y-51431904D01*
X104877142Y-51479523D01*
X104781904Y-51527142D01*
X104496190Y-51527142D01*
X104400952Y-51479523D01*
X104353333Y-51431904D01*
X104305714Y-51336666D01*
X104305714Y-51146190D01*
X104353333Y-51050952D01*
X104972380Y-50146190D02*
X103972380Y-50146190D01*
X104924761Y-50146190D02*
X104972380Y-50241428D01*
X104972380Y-50431904D01*
X104924761Y-50527142D01*
X104877142Y-50574761D01*
X104781904Y-50622380D01*
X104496190Y-50622380D01*
X104400952Y-50574761D01*
X104353333Y-50527142D01*
X104305714Y-50431904D01*
X104305714Y-50241428D01*
X104353333Y-50146190D01*
X105067619Y-49908095D02*
X105067619Y-49146190D01*
X104448571Y-48908095D02*
X104448571Y-48574761D01*
X104972380Y-48431904D02*
X104972380Y-48908095D01*
X103972380Y-48908095D01*
X103972380Y-48431904D01*
X104305714Y-48098571D02*
X104972380Y-47860476D01*
X104305714Y-47622380D01*
X104924761Y-46860476D02*
X104972380Y-46955714D01*
X104972380Y-47146190D01*
X104924761Y-47241428D01*
X104829523Y-47289047D01*
X104448571Y-47289047D01*
X104353333Y-47241428D01*
X104305714Y-47146190D01*
X104305714Y-46955714D01*
X104353333Y-46860476D01*
X104448571Y-46812857D01*
X104543809Y-46812857D01*
X104639047Y-47289047D01*
X104305714Y-46384285D02*
X104972380Y-46384285D01*
X104400952Y-46384285D02*
X104353333Y-46336666D01*
X104305714Y-46241428D01*
X104305714Y-46098571D01*
X104353333Y-46003333D01*
X104448571Y-45955714D01*
X104972380Y-45955714D01*
X119176666Y-53622380D02*
X119176666Y-54336666D01*
X119129047Y-54479523D01*
X119033809Y-54574761D01*
X118890952Y-54622380D01*
X118795714Y-54622380D01*
X119557619Y-53622380D02*
X120224285Y-53622380D01*
X119795714Y-54622380D01*
%TO.C,J6*%
D17*
X105134523Y-65752133D02*
X106041666Y-65752133D01*
X106223095Y-65812609D01*
X106344047Y-65933561D01*
X106404523Y-66114990D01*
X106404523Y-66235942D01*
X105134523Y-64603085D02*
X105134523Y-64844990D01*
X105195000Y-64965942D01*
X105255476Y-65026419D01*
X105436904Y-65147371D01*
X105678809Y-65207847D01*
X106162619Y-65207847D01*
X106283571Y-65147371D01*
X106344047Y-65086895D01*
X106404523Y-64965942D01*
X106404523Y-64724038D01*
X106344047Y-64603085D01*
X106283571Y-64542609D01*
X106162619Y-64482133D01*
X105860238Y-64482133D01*
X105739285Y-64542609D01*
X105678809Y-64603085D01*
X105618333Y-64724038D01*
X105618333Y-64965942D01*
X105678809Y-65086895D01*
X105739285Y-65147371D01*
X105860238Y-65207847D01*
%TO.C,J3*%
X173496666Y-111474523D02*
X173496666Y-112381666D01*
X173436190Y-112563095D01*
X173315238Y-112684047D01*
X173133809Y-112744523D01*
X173012857Y-112744523D01*
X173980476Y-111474523D02*
X174766666Y-111474523D01*
X174343333Y-111958333D01*
X174524761Y-111958333D01*
X174645714Y-112018809D01*
X174706190Y-112079285D01*
X174766666Y-112200238D01*
X174766666Y-112502619D01*
X174706190Y-112623571D01*
X174645714Y-112684047D01*
X174524761Y-112744523D01*
X174161904Y-112744523D01*
X174040952Y-112684047D01*
X173980476Y-112623571D01*
%TO.C,J2*%
X150696666Y-111454523D02*
X150696666Y-112361666D01*
X150636190Y-112543095D01*
X150515238Y-112664047D01*
X150333809Y-112724523D01*
X150212857Y-112724523D01*
X151240952Y-111575476D02*
X151301428Y-111515000D01*
X151422380Y-111454523D01*
X151724761Y-111454523D01*
X151845714Y-111515000D01*
X151906190Y-111575476D01*
X151966666Y-111696428D01*
X151966666Y-111817380D01*
X151906190Y-111998809D01*
X151180476Y-112724523D01*
X151966666Y-112724523D01*
%TO.C,J1*%
X183964523Y-58373333D02*
X184871666Y-58373333D01*
X185053095Y-58433809D01*
X185174047Y-58554761D01*
X185234523Y-58736190D01*
X185234523Y-58857142D01*
X185234523Y-57103333D02*
X185234523Y-57829047D01*
X185234523Y-57466190D02*
X183964523Y-57466190D01*
X184145952Y-57587142D01*
X184266904Y-57708095D01*
X184327380Y-57829047D01*
%TO.C,IC1*%
X139460238Y-65674523D02*
X139460238Y-64404523D01*
X140790714Y-65553571D02*
X140730238Y-65614047D01*
X140548809Y-65674523D01*
X140427857Y-65674523D01*
X140246428Y-65614047D01*
X140125476Y-65493095D01*
X140065000Y-65372142D01*
X140004523Y-65130238D01*
X140004523Y-64948809D01*
X140065000Y-64706904D01*
X140125476Y-64585952D01*
X140246428Y-64465000D01*
X140427857Y-64404523D01*
X140548809Y-64404523D01*
X140730238Y-64465000D01*
X140790714Y-64525476D01*
X142000238Y-65674523D02*
X141274523Y-65674523D01*
X141637380Y-65674523D02*
X141637380Y-64404523D01*
X141516428Y-64585952D01*
X141395476Y-64706904D01*
X141274523Y-64767380D01*
%TO.C,D21*%
X140266057Y-79441523D02*
X140266057Y-78171523D01*
X140568438Y-78171523D01*
X140749866Y-78232000D01*
X140870819Y-78352952D01*
X140931295Y-78473904D01*
X140991771Y-78715809D01*
X140991771Y-78897238D01*
X140931295Y-79139142D01*
X140870819Y-79260095D01*
X140749866Y-79381047D01*
X140568438Y-79441523D01*
X140266057Y-79441523D01*
X141475580Y-78292476D02*
X141536057Y-78232000D01*
X141657009Y-78171523D01*
X141959390Y-78171523D01*
X142080342Y-78232000D01*
X142140819Y-78292476D01*
X142201295Y-78413428D01*
X142201295Y-78534380D01*
X142140819Y-78715809D01*
X141415104Y-79441523D01*
X142201295Y-79441523D01*
X143410819Y-79441523D02*
X142685104Y-79441523D01*
X143047961Y-79441523D02*
X143047961Y-78171523D01*
X142927009Y-78352952D01*
X142806057Y-78473904D01*
X142685104Y-78534380D01*
%TO.C,D20*%
X136720857Y-75774523D02*
X136720857Y-74504523D01*
X137023238Y-74504523D01*
X137204666Y-74565000D01*
X137325619Y-74685952D01*
X137386095Y-74806904D01*
X137446571Y-75048809D01*
X137446571Y-75230238D01*
X137386095Y-75472142D01*
X137325619Y-75593095D01*
X137204666Y-75714047D01*
X137023238Y-75774523D01*
X136720857Y-75774523D01*
X137930380Y-74625476D02*
X137990857Y-74565000D01*
X138111809Y-74504523D01*
X138414190Y-74504523D01*
X138535142Y-74565000D01*
X138595619Y-74625476D01*
X138656095Y-74746428D01*
X138656095Y-74867380D01*
X138595619Y-75048809D01*
X137869904Y-75774523D01*
X138656095Y-75774523D01*
X139442285Y-74504523D02*
X139563238Y-74504523D01*
X139684190Y-74565000D01*
X139744666Y-74625476D01*
X139805142Y-74746428D01*
X139865619Y-74988333D01*
X139865619Y-75290714D01*
X139805142Y-75532619D01*
X139744666Y-75653571D01*
X139684190Y-75714047D01*
X139563238Y-75774523D01*
X139442285Y-75774523D01*
X139321333Y-75714047D01*
X139260857Y-75653571D01*
X139200380Y-75532619D01*
X139139904Y-75290714D01*
X139139904Y-74988333D01*
X139200380Y-74746428D01*
X139260857Y-74625476D01*
X139321333Y-74565000D01*
X139442285Y-74504523D01*
%TO.C,D19*%
X174654523Y-63314942D02*
X173384523Y-63314942D01*
X173384523Y-63012561D01*
X173445000Y-62831133D01*
X173565952Y-62710180D01*
X173686904Y-62649704D01*
X173928809Y-62589228D01*
X174110238Y-62589228D01*
X174352142Y-62649704D01*
X174473095Y-62710180D01*
X174594047Y-62831133D01*
X174654523Y-63012561D01*
X174654523Y-63314942D01*
X174654523Y-61379704D02*
X174654523Y-62105419D01*
X174654523Y-61742561D02*
X173384523Y-61742561D01*
X173565952Y-61863514D01*
X173686904Y-61984466D01*
X173747380Y-62105419D01*
X174654523Y-60774942D02*
X174654523Y-60533038D01*
X174594047Y-60412085D01*
X174533571Y-60351609D01*
X174352142Y-60230657D01*
X174110238Y-60170180D01*
X173626428Y-60170180D01*
X173505476Y-60230657D01*
X173445000Y-60291133D01*
X173384523Y-60412085D01*
X173384523Y-60653990D01*
X173445000Y-60774942D01*
X173505476Y-60835419D01*
X173626428Y-60895895D01*
X173928809Y-60895895D01*
X174049761Y-60835419D01*
X174110238Y-60774942D01*
X174170714Y-60653990D01*
X174170714Y-60412085D01*
X174110238Y-60291133D01*
X174049761Y-60230657D01*
X173928809Y-60170180D01*
%TO.C,D18*%
X102826457Y-73726523D02*
X102826457Y-72456523D01*
X103128838Y-72456523D01*
X103310266Y-72517000D01*
X103431219Y-72637952D01*
X103491695Y-72758904D01*
X103552171Y-73000809D01*
X103552171Y-73182238D01*
X103491695Y-73424142D01*
X103431219Y-73545095D01*
X103310266Y-73666047D01*
X103128838Y-73726523D01*
X102826457Y-73726523D01*
X104761695Y-73726523D02*
X104035980Y-73726523D01*
X104398838Y-73726523D02*
X104398838Y-72456523D01*
X104277885Y-72637952D01*
X104156933Y-72758904D01*
X104035980Y-72819380D01*
X105487409Y-73000809D02*
X105366457Y-72940333D01*
X105305980Y-72879857D01*
X105245504Y-72758904D01*
X105245504Y-72698428D01*
X105305980Y-72577476D01*
X105366457Y-72517000D01*
X105487409Y-72456523D01*
X105729314Y-72456523D01*
X105850266Y-72517000D01*
X105910742Y-72577476D01*
X105971219Y-72698428D01*
X105971219Y-72758904D01*
X105910742Y-72879857D01*
X105850266Y-72940333D01*
X105729314Y-73000809D01*
X105487409Y-73000809D01*
X105366457Y-73061285D01*
X105305980Y-73121761D01*
X105245504Y-73242714D01*
X105245504Y-73484619D01*
X105305980Y-73605571D01*
X105366457Y-73666047D01*
X105487409Y-73726523D01*
X105729314Y-73726523D01*
X105850266Y-73666047D01*
X105910742Y-73605571D01*
X105971219Y-73484619D01*
X105971219Y-73242714D01*
X105910742Y-73121761D01*
X105850266Y-73061285D01*
X105729314Y-73000809D01*
%TO.C,D17*%
X165437857Y-105674523D02*
X165437857Y-104404523D01*
X165740238Y-104404523D01*
X165921666Y-104465000D01*
X166042619Y-104585952D01*
X166103095Y-104706904D01*
X166163571Y-104948809D01*
X166163571Y-105130238D01*
X166103095Y-105372142D01*
X166042619Y-105493095D01*
X165921666Y-105614047D01*
X165740238Y-105674523D01*
X165437857Y-105674523D01*
X167373095Y-105674523D02*
X166647380Y-105674523D01*
X167010238Y-105674523D02*
X167010238Y-104404523D01*
X166889285Y-104585952D01*
X166768333Y-104706904D01*
X166647380Y-104767380D01*
X167796428Y-104404523D02*
X168643095Y-104404523D01*
X168098809Y-105674523D01*
%TO.C,D16*%
X141047857Y-105654523D02*
X141047857Y-104384523D01*
X141350238Y-104384523D01*
X141531666Y-104445000D01*
X141652619Y-104565952D01*
X141713095Y-104686904D01*
X141773571Y-104928809D01*
X141773571Y-105110238D01*
X141713095Y-105352142D01*
X141652619Y-105473095D01*
X141531666Y-105594047D01*
X141350238Y-105654523D01*
X141047857Y-105654523D01*
X142983095Y-105654523D02*
X142257380Y-105654523D01*
X142620238Y-105654523D02*
X142620238Y-104384523D01*
X142499285Y-104565952D01*
X142378333Y-104686904D01*
X142257380Y-104747380D01*
X144071666Y-104384523D02*
X143829761Y-104384523D01*
X143708809Y-104445000D01*
X143648333Y-104505476D01*
X143527380Y-104686904D01*
X143466904Y-104928809D01*
X143466904Y-105412619D01*
X143527380Y-105533571D01*
X143587857Y-105594047D01*
X143708809Y-105654523D01*
X143950714Y-105654523D01*
X144071666Y-105594047D01*
X144132142Y-105533571D01*
X144192619Y-105412619D01*
X144192619Y-105110238D01*
X144132142Y-104989285D01*
X144071666Y-104928809D01*
X143950714Y-104868333D01*
X143708809Y-104868333D01*
X143587857Y-104928809D01*
X143527380Y-104989285D01*
X143466904Y-105110238D01*
%TO.C,D15*%
D13*
X177550842Y-77085180D02*
X177074652Y-77085180D01*
X177074652Y-76085180D01*
X177884176Y-76561371D02*
X178217509Y-76561371D01*
X178360366Y-77085180D02*
X177884176Y-77085180D01*
X177884176Y-76085180D01*
X178360366Y-76085180D01*
X178788938Y-77085180D02*
X178788938Y-76085180D01*
X179027033Y-76085180D01*
X179169890Y-76132800D01*
X179265128Y-76228038D01*
X179312747Y-76323276D01*
X179360366Y-76513752D01*
X179360366Y-76656609D01*
X179312747Y-76847085D01*
X179265128Y-76942323D01*
X179169890Y-77037561D01*
X179027033Y-77085180D01*
X178788938Y-77085180D01*
D15*
X177586557Y-78708990D02*
X177586557Y-78208990D01*
X177705604Y-78208990D01*
X177777033Y-78232800D01*
X177824652Y-78280419D01*
X177848461Y-78328038D01*
X177872271Y-78423276D01*
X177872271Y-78494704D01*
X177848461Y-78589942D01*
X177824652Y-78637561D01*
X177777033Y-78685180D01*
X177705604Y-78708990D01*
X177586557Y-78708990D01*
X178348461Y-78708990D02*
X178062747Y-78708990D01*
X178205604Y-78708990D02*
X178205604Y-78208990D01*
X178157985Y-78280419D01*
X178110366Y-78328038D01*
X178062747Y-78351847D01*
X178800842Y-78208990D02*
X178562747Y-78208990D01*
X178538938Y-78447085D01*
X178562747Y-78423276D01*
X178610366Y-78399466D01*
X178729414Y-78399466D01*
X178777033Y-78423276D01*
X178800842Y-78447085D01*
X178824652Y-78494704D01*
X178824652Y-78613752D01*
X178800842Y-78661371D01*
X178777033Y-78685180D01*
X178729414Y-78708990D01*
X178610366Y-78708990D01*
X178562747Y-78685180D01*
X178538938Y-78661371D01*
%TO.C,D14*%
D17*
X106543257Y-85766123D02*
X106543257Y-84496123D01*
X106845638Y-84496123D01*
X107027066Y-84556600D01*
X107148019Y-84677552D01*
X107208495Y-84798504D01*
X107268971Y-85040409D01*
X107268971Y-85221838D01*
X107208495Y-85463742D01*
X107148019Y-85584695D01*
X107027066Y-85705647D01*
X106845638Y-85766123D01*
X106543257Y-85766123D01*
X108478495Y-85766123D02*
X107752780Y-85766123D01*
X108115638Y-85766123D02*
X108115638Y-84496123D01*
X107994685Y-84677552D01*
X107873733Y-84798504D01*
X107752780Y-84858980D01*
X109567066Y-84919457D02*
X109567066Y-85766123D01*
X109264685Y-84435647D02*
X108962304Y-85342790D01*
X109748495Y-85342790D01*
%TO.C,D13*%
X115534857Y-85724523D02*
X115534857Y-84454523D01*
X115837238Y-84454523D01*
X116018666Y-84515000D01*
X116139619Y-84635952D01*
X116200095Y-84756904D01*
X116260571Y-84998809D01*
X116260571Y-85180238D01*
X116200095Y-85422142D01*
X116139619Y-85543095D01*
X116018666Y-85664047D01*
X115837238Y-85724523D01*
X115534857Y-85724523D01*
X117470095Y-85724523D02*
X116744380Y-85724523D01*
X117107238Y-85724523D02*
X117107238Y-84454523D01*
X116986285Y-84635952D01*
X116865333Y-84756904D01*
X116744380Y-84817380D01*
X117893428Y-84454523D02*
X118679619Y-84454523D01*
X118256285Y-84938333D01*
X118437714Y-84938333D01*
X118558666Y-84998809D01*
X118619142Y-85059285D01*
X118679619Y-85180238D01*
X118679619Y-85482619D01*
X118619142Y-85603571D01*
X118558666Y-85664047D01*
X118437714Y-85724523D01*
X118074857Y-85724523D01*
X117953904Y-85664047D01*
X117893428Y-85603571D01*
%TO.C,D12*%
X123394857Y-85554523D02*
X123394857Y-84284523D01*
X123697238Y-84284523D01*
X123878666Y-84345000D01*
X123999619Y-84465952D01*
X124060095Y-84586904D01*
X124120571Y-84828809D01*
X124120571Y-85010238D01*
X124060095Y-85252142D01*
X123999619Y-85373095D01*
X123878666Y-85494047D01*
X123697238Y-85554523D01*
X123394857Y-85554523D01*
X125330095Y-85554523D02*
X124604380Y-85554523D01*
X124967238Y-85554523D02*
X124967238Y-84284523D01*
X124846285Y-84465952D01*
X124725333Y-84586904D01*
X124604380Y-84647380D01*
X125813904Y-84405476D02*
X125874380Y-84345000D01*
X125995333Y-84284523D01*
X126297714Y-84284523D01*
X126418666Y-84345000D01*
X126479142Y-84405476D01*
X126539619Y-84526428D01*
X126539619Y-84647380D01*
X126479142Y-84828809D01*
X125753428Y-85554523D01*
X126539619Y-85554523D01*
%TO.C,D11*%
X132454857Y-85544523D02*
X132454857Y-84274523D01*
X132757238Y-84274523D01*
X132938666Y-84335000D01*
X133059619Y-84455952D01*
X133120095Y-84576904D01*
X133180571Y-84818809D01*
X133180571Y-85000238D01*
X133120095Y-85242142D01*
X133059619Y-85363095D01*
X132938666Y-85484047D01*
X132757238Y-85544523D01*
X132454857Y-85544523D01*
X134390095Y-85544523D02*
X133664380Y-85544523D01*
X134027238Y-85544523D02*
X134027238Y-84274523D01*
X133906285Y-84455952D01*
X133785333Y-84576904D01*
X133664380Y-84637380D01*
X135599619Y-85544523D02*
X134873904Y-85544523D01*
X135236761Y-85544523D02*
X135236761Y-84274523D01*
X135115809Y-84455952D01*
X134994857Y-84576904D01*
X134873904Y-84637380D01*
%TO.C,D10*%
D13*
X185457142Y-69162380D02*
X184980952Y-69162380D01*
X184980952Y-68162380D01*
X185790476Y-68638571D02*
X186123809Y-68638571D01*
X186266666Y-69162380D02*
X185790476Y-69162380D01*
X185790476Y-68162380D01*
X186266666Y-68162380D01*
X186695238Y-69162380D02*
X186695238Y-68162380D01*
X186933333Y-68162380D01*
X187076190Y-68210000D01*
X187171428Y-68305238D01*
X187219047Y-68400476D01*
X187266666Y-68590952D01*
X187266666Y-68733809D01*
X187219047Y-68924285D01*
X187171428Y-69019523D01*
X187076190Y-69114761D01*
X186933333Y-69162380D01*
X186695238Y-69162380D01*
D15*
X185492857Y-70586190D02*
X185492857Y-70086190D01*
X185611904Y-70086190D01*
X185683333Y-70110000D01*
X185730952Y-70157619D01*
X185754761Y-70205238D01*
X185778571Y-70300476D01*
X185778571Y-70371904D01*
X185754761Y-70467142D01*
X185730952Y-70514761D01*
X185683333Y-70562380D01*
X185611904Y-70586190D01*
X185492857Y-70586190D01*
X186254761Y-70586190D02*
X185969047Y-70586190D01*
X186111904Y-70586190D02*
X186111904Y-70086190D01*
X186064285Y-70157619D01*
X186016666Y-70205238D01*
X185969047Y-70229047D01*
X186564285Y-70086190D02*
X186611904Y-70086190D01*
X186659523Y-70110000D01*
X186683333Y-70133809D01*
X186707142Y-70181428D01*
X186730952Y-70276666D01*
X186730952Y-70395714D01*
X186707142Y-70490952D01*
X186683333Y-70538571D01*
X186659523Y-70562380D01*
X186611904Y-70586190D01*
X186564285Y-70586190D01*
X186516666Y-70562380D01*
X186492857Y-70538571D01*
X186469047Y-70490952D01*
X186445238Y-70395714D01*
X186445238Y-70276666D01*
X186469047Y-70181428D01*
X186492857Y-70133809D01*
X186516666Y-70110000D01*
X186564285Y-70086190D01*
%TO.C,D9*%
D13*
X114637142Y-84352380D02*
X114160952Y-84352380D01*
X114160952Y-83352380D01*
X114970476Y-83828571D02*
X115303809Y-83828571D01*
X115446666Y-84352380D02*
X114970476Y-84352380D01*
X114970476Y-83352380D01*
X115446666Y-83352380D01*
X115875238Y-84352380D02*
X115875238Y-83352380D01*
X116113333Y-83352380D01*
X116256190Y-83400000D01*
X116351428Y-83495238D01*
X116399047Y-83590476D01*
X116446666Y-83780952D01*
X116446666Y-83923809D01*
X116399047Y-84114285D01*
X116351428Y-84209523D01*
X116256190Y-84304761D01*
X116113333Y-84352380D01*
X115875238Y-84352380D01*
D15*
X114910952Y-82476190D02*
X114910952Y-81976190D01*
X115030000Y-81976190D01*
X115101428Y-82000000D01*
X115149047Y-82047619D01*
X115172857Y-82095238D01*
X115196666Y-82190476D01*
X115196666Y-82261904D01*
X115172857Y-82357142D01*
X115149047Y-82404761D01*
X115101428Y-82452380D01*
X115030000Y-82476190D01*
X114910952Y-82476190D01*
X115434761Y-82476190D02*
X115530000Y-82476190D01*
X115577619Y-82452380D01*
X115601428Y-82428571D01*
X115649047Y-82357142D01*
X115672857Y-82261904D01*
X115672857Y-82071428D01*
X115649047Y-82023809D01*
X115625238Y-82000000D01*
X115577619Y-81976190D01*
X115482380Y-81976190D01*
X115434761Y-82000000D01*
X115410952Y-82023809D01*
X115387142Y-82071428D01*
X115387142Y-82190476D01*
X115410952Y-82238095D01*
X115434761Y-82261904D01*
X115482380Y-82285714D01*
X115577619Y-82285714D01*
X115625238Y-82261904D01*
X115649047Y-82238095D01*
X115672857Y-82190476D01*
%TO.C,D7*%
D17*
X173029619Y-85704523D02*
X173029619Y-84434523D01*
X173332000Y-84434523D01*
X173513428Y-84495000D01*
X173634380Y-84615952D01*
X173694857Y-84736904D01*
X173755333Y-84978809D01*
X173755333Y-85160238D01*
X173694857Y-85402142D01*
X173634380Y-85523095D01*
X173513428Y-85644047D01*
X173332000Y-85704523D01*
X173029619Y-85704523D01*
X174178666Y-84434523D02*
X175025333Y-84434523D01*
X174481047Y-85704523D01*
%TO.C,D6*%
X181989619Y-85644523D02*
X181989619Y-84374523D01*
X182292000Y-84374523D01*
X182473428Y-84435000D01*
X182594380Y-84555952D01*
X182654857Y-84676904D01*
X182715333Y-84918809D01*
X182715333Y-85100238D01*
X182654857Y-85342142D01*
X182594380Y-85463095D01*
X182473428Y-85584047D01*
X182292000Y-85644523D01*
X181989619Y-85644523D01*
X183803904Y-84374523D02*
X183562000Y-84374523D01*
X183441047Y-84435000D01*
X183380571Y-84495476D01*
X183259619Y-84676904D01*
X183199142Y-84918809D01*
X183199142Y-85402619D01*
X183259619Y-85523571D01*
X183320095Y-85584047D01*
X183441047Y-85644523D01*
X183682952Y-85644523D01*
X183803904Y-85584047D01*
X183864380Y-85523571D01*
X183924857Y-85402619D01*
X183924857Y-85100238D01*
X183864380Y-84979285D01*
X183803904Y-84918809D01*
X183682952Y-84858333D01*
X183441047Y-84858333D01*
X183320095Y-84918809D01*
X183259619Y-84979285D01*
X183199142Y-85100238D01*
%TO.C,D5*%
X149179619Y-85634523D02*
X149179619Y-84364523D01*
X149482000Y-84364523D01*
X149663428Y-84425000D01*
X149784380Y-84545952D01*
X149844857Y-84666904D01*
X149905333Y-84908809D01*
X149905333Y-85090238D01*
X149844857Y-85332142D01*
X149784380Y-85453095D01*
X149663428Y-85574047D01*
X149482000Y-85634523D01*
X149179619Y-85634523D01*
X151054380Y-84364523D02*
X150449619Y-84364523D01*
X150389142Y-84969285D01*
X150449619Y-84908809D01*
X150570571Y-84848333D01*
X150872952Y-84848333D01*
X150993904Y-84908809D01*
X151054380Y-84969285D01*
X151114857Y-85090238D01*
X151114857Y-85392619D01*
X151054380Y-85513571D01*
X150993904Y-85574047D01*
X150872952Y-85634523D01*
X150570571Y-85634523D01*
X150449619Y-85574047D01*
X150389142Y-85513571D01*
%TO.C,D4*%
X157289619Y-85424523D02*
X157289619Y-84154523D01*
X157592000Y-84154523D01*
X157773428Y-84215000D01*
X157894380Y-84335952D01*
X157954857Y-84456904D01*
X158015333Y-84698809D01*
X158015333Y-84880238D01*
X157954857Y-85122142D01*
X157894380Y-85243095D01*
X157773428Y-85364047D01*
X157592000Y-85424523D01*
X157289619Y-85424523D01*
X159103904Y-84577857D02*
X159103904Y-85424523D01*
X158801523Y-84094047D02*
X158499142Y-85001190D01*
X159285333Y-85001190D01*
%TO.C,D3*%
X183349619Y-68074523D02*
X183349619Y-66804523D01*
X183652000Y-66804523D01*
X183833428Y-66865000D01*
X183954380Y-66985952D01*
X184014857Y-67106904D01*
X184075333Y-67348809D01*
X184075333Y-67530238D01*
X184014857Y-67772142D01*
X183954380Y-67893095D01*
X183833428Y-68014047D01*
X183652000Y-68074523D01*
X183349619Y-68074523D01*
X184498666Y-66804523D02*
X185284857Y-66804523D01*
X184861523Y-67288333D01*
X185042952Y-67288333D01*
X185163904Y-67348809D01*
X185224380Y-67409285D01*
X185284857Y-67530238D01*
X185284857Y-67832619D01*
X185224380Y-67953571D01*
X185163904Y-68014047D01*
X185042952Y-68074523D01*
X184680095Y-68074523D01*
X184559142Y-68014047D01*
X184498666Y-67953571D01*
%TO.C,D2*%
D13*
X180607142Y-84082380D02*
X180130952Y-84082380D01*
X180130952Y-83082380D01*
X180940476Y-83558571D02*
X181273809Y-83558571D01*
X181416666Y-84082380D02*
X180940476Y-84082380D01*
X180940476Y-83082380D01*
X181416666Y-83082380D01*
X181845238Y-84082380D02*
X181845238Y-83082380D01*
X182083333Y-83082380D01*
X182226190Y-83130000D01*
X182321428Y-83225238D01*
X182369047Y-83320476D01*
X182416666Y-83510952D01*
X182416666Y-83653809D01*
X182369047Y-83844285D01*
X182321428Y-83939523D01*
X182226190Y-84034761D01*
X182083333Y-84082380D01*
X181845238Y-84082380D01*
D15*
X180880952Y-82206190D02*
X180880952Y-81706190D01*
X181000000Y-81706190D01*
X181071428Y-81730000D01*
X181119047Y-81777619D01*
X181142857Y-81825238D01*
X181166666Y-81920476D01*
X181166666Y-81991904D01*
X181142857Y-82087142D01*
X181119047Y-82134761D01*
X181071428Y-82182380D01*
X181000000Y-82206190D01*
X180880952Y-82206190D01*
X181357142Y-81753809D02*
X181380952Y-81730000D01*
X181428571Y-81706190D01*
X181547619Y-81706190D01*
X181595238Y-81730000D01*
X181619047Y-81753809D01*
X181642857Y-81801428D01*
X181642857Y-81849047D01*
X181619047Y-81920476D01*
X181333333Y-82206190D01*
X181642857Y-82206190D01*
%TO.C,D1*%
D13*
X155757142Y-84002380D02*
X155280952Y-84002380D01*
X155280952Y-83002380D01*
X156090476Y-83478571D02*
X156423809Y-83478571D01*
X156566666Y-84002380D02*
X156090476Y-84002380D01*
X156090476Y-83002380D01*
X156566666Y-83002380D01*
X156995238Y-84002380D02*
X156995238Y-83002380D01*
X157233333Y-83002380D01*
X157376190Y-83050000D01*
X157471428Y-83145238D01*
X157519047Y-83240476D01*
X157566666Y-83430952D01*
X157566666Y-83573809D01*
X157519047Y-83764285D01*
X157471428Y-83859523D01*
X157376190Y-83954761D01*
X157233333Y-84002380D01*
X156995238Y-84002380D01*
D15*
X156030952Y-82126190D02*
X156030952Y-81626190D01*
X156150000Y-81626190D01*
X156221428Y-81650000D01*
X156269047Y-81697619D01*
X156292857Y-81745238D01*
X156316666Y-81840476D01*
X156316666Y-81911904D01*
X156292857Y-82007142D01*
X156269047Y-82054761D01*
X156221428Y-82102380D01*
X156150000Y-82126190D01*
X156030952Y-82126190D01*
X156792857Y-82126190D02*
X156507142Y-82126190D01*
X156650000Y-82126190D02*
X156650000Y-81626190D01*
X156602380Y-81697619D01*
X156554761Y-81745238D01*
X156507142Y-81769047D01*
%TO.C,C16*%
D13*
X131757380Y-61942380D02*
X131185952Y-61942380D01*
X131471666Y-61942380D02*
X131471666Y-60942380D01*
X131376428Y-61085238D01*
X131281190Y-61180476D01*
X131185952Y-61228095D01*
X132376428Y-60942380D02*
X132471666Y-60942380D01*
X132566904Y-60990000D01*
X132614523Y-61037619D01*
X132662142Y-61132857D01*
X132709761Y-61323333D01*
X132709761Y-61561428D01*
X132662142Y-61751904D01*
X132614523Y-61847142D01*
X132566904Y-61894761D01*
X132471666Y-61942380D01*
X132376428Y-61942380D01*
X132281190Y-61894761D01*
X132233571Y-61847142D01*
X132185952Y-61751904D01*
X132138333Y-61561428D01*
X132138333Y-61323333D01*
X132185952Y-61132857D01*
X132233571Y-61037619D01*
X132281190Y-60990000D01*
X132376428Y-60942380D01*
X133328809Y-60942380D02*
X133424047Y-60942380D01*
X133519285Y-60990000D01*
X133566904Y-61037619D01*
X133614523Y-61132857D01*
X133662142Y-61323333D01*
X133662142Y-61561428D01*
X133614523Y-61751904D01*
X133566904Y-61847142D01*
X133519285Y-61894761D01*
X133424047Y-61942380D01*
X133328809Y-61942380D01*
X133233571Y-61894761D01*
X133185952Y-61847142D01*
X133138333Y-61751904D01*
X133090714Y-61561428D01*
X133090714Y-61323333D01*
X133138333Y-61132857D01*
X133185952Y-61037619D01*
X133233571Y-60990000D01*
X133328809Y-60942380D01*
X134090714Y-61275714D02*
X134090714Y-61942380D01*
X134090714Y-61370952D02*
X134138333Y-61323333D01*
X134233571Y-61275714D01*
X134376428Y-61275714D01*
X134471666Y-61323333D01*
X134519285Y-61418571D01*
X134519285Y-61942380D01*
X135328809Y-61418571D02*
X134995476Y-61418571D01*
X134995476Y-61942380D02*
X134995476Y-60942380D01*
X135471666Y-60942380D01*
D16*
X132607857Y-63172857D02*
X132588809Y-63191904D01*
X132531666Y-63210952D01*
X132493571Y-63210952D01*
X132436428Y-63191904D01*
X132398333Y-63153809D01*
X132379285Y-63115714D01*
X132360238Y-63039523D01*
X132360238Y-62982380D01*
X132379285Y-62906190D01*
X132398333Y-62868095D01*
X132436428Y-62830000D01*
X132493571Y-62810952D01*
X132531666Y-62810952D01*
X132588809Y-62830000D01*
X132607857Y-62849047D01*
X132988809Y-63210952D02*
X132760238Y-63210952D01*
X132874523Y-63210952D02*
X132874523Y-62810952D01*
X132836428Y-62868095D01*
X132798333Y-62906190D01*
X132760238Y-62925238D01*
X133331666Y-62810952D02*
X133255476Y-62810952D01*
X133217380Y-62830000D01*
X133198333Y-62849047D01*
X133160238Y-62906190D01*
X133141190Y-62982380D01*
X133141190Y-63134761D01*
X133160238Y-63172857D01*
X133179285Y-63191904D01*
X133217380Y-63210952D01*
X133293571Y-63210952D01*
X133331666Y-63191904D01*
X133350714Y-63172857D01*
X133369761Y-63134761D01*
X133369761Y-63039523D01*
X133350714Y-63001428D01*
X133331666Y-62982380D01*
X133293571Y-62963333D01*
X133217380Y-62963333D01*
X133179285Y-62982380D01*
X133160238Y-63001428D01*
X133141190Y-63039523D01*
%TO.C,C15*%
D13*
X131317380Y-66482380D02*
X130745952Y-66482380D01*
X131031666Y-66482380D02*
X131031666Y-65482380D01*
X130936428Y-65625238D01*
X130841190Y-65720476D01*
X130745952Y-65768095D01*
X131936428Y-65482380D02*
X132031666Y-65482380D01*
X132126904Y-65530000D01*
X132174523Y-65577619D01*
X132222142Y-65672857D01*
X132269761Y-65863333D01*
X132269761Y-66101428D01*
X132222142Y-66291904D01*
X132174523Y-66387142D01*
X132126904Y-66434761D01*
X132031666Y-66482380D01*
X131936428Y-66482380D01*
X131841190Y-66434761D01*
X131793571Y-66387142D01*
X131745952Y-66291904D01*
X131698333Y-66101428D01*
X131698333Y-65863333D01*
X131745952Y-65672857D01*
X131793571Y-65577619D01*
X131841190Y-65530000D01*
X131936428Y-65482380D01*
X132888809Y-65482380D02*
X132984047Y-65482380D01*
X133079285Y-65530000D01*
X133126904Y-65577619D01*
X133174523Y-65672857D01*
X133222142Y-65863333D01*
X133222142Y-66101428D01*
X133174523Y-66291904D01*
X133126904Y-66387142D01*
X133079285Y-66434761D01*
X132984047Y-66482380D01*
X132888809Y-66482380D01*
X132793571Y-66434761D01*
X132745952Y-66387142D01*
X132698333Y-66291904D01*
X132650714Y-66101428D01*
X132650714Y-65863333D01*
X132698333Y-65672857D01*
X132745952Y-65577619D01*
X132793571Y-65530000D01*
X132888809Y-65482380D01*
X133650714Y-65815714D02*
X133650714Y-66482380D01*
X133650714Y-65910952D02*
X133698333Y-65863333D01*
X133793571Y-65815714D01*
X133936428Y-65815714D01*
X134031666Y-65863333D01*
X134079285Y-65958571D01*
X134079285Y-66482380D01*
X134888809Y-65958571D02*
X134555476Y-65958571D01*
X134555476Y-66482380D02*
X134555476Y-65482380D01*
X135031666Y-65482380D01*
D16*
X132607857Y-64742857D02*
X132588809Y-64761904D01*
X132531666Y-64780952D01*
X132493571Y-64780952D01*
X132436428Y-64761904D01*
X132398333Y-64723809D01*
X132379285Y-64685714D01*
X132360238Y-64609523D01*
X132360238Y-64552380D01*
X132379285Y-64476190D01*
X132398333Y-64438095D01*
X132436428Y-64400000D01*
X132493571Y-64380952D01*
X132531666Y-64380952D01*
X132588809Y-64400000D01*
X132607857Y-64419047D01*
X132988809Y-64780952D02*
X132760238Y-64780952D01*
X132874523Y-64780952D02*
X132874523Y-64380952D01*
X132836428Y-64438095D01*
X132798333Y-64476190D01*
X132760238Y-64495238D01*
X133350714Y-64380952D02*
X133160238Y-64380952D01*
X133141190Y-64571428D01*
X133160238Y-64552380D01*
X133198333Y-64533333D01*
X133293571Y-64533333D01*
X133331666Y-64552380D01*
X133350714Y-64571428D01*
X133369761Y-64609523D01*
X133369761Y-64704761D01*
X133350714Y-64742857D01*
X133331666Y-64761904D01*
X133293571Y-64780952D01*
X133198333Y-64780952D01*
X133160238Y-64761904D01*
X133141190Y-64742857D01*
%TO.C,C13*%
D13*
X147032380Y-67575238D02*
X147032380Y-68146666D01*
X147032380Y-67860952D02*
X146032380Y-67860952D01*
X146175238Y-67956190D01*
X146270476Y-68051428D01*
X146318095Y-68146666D01*
X146365714Y-66718095D02*
X147032380Y-66718095D01*
X146365714Y-67146666D02*
X146889523Y-67146666D01*
X146984761Y-67099047D01*
X147032380Y-67003809D01*
X147032380Y-66860952D01*
X146984761Y-66765714D01*
X146937142Y-66718095D01*
X146508571Y-65908571D02*
X146508571Y-66241904D01*
X147032380Y-66241904D02*
X146032380Y-66241904D01*
X146032380Y-65765714D01*
D20*
X148725714Y-67484285D02*
X148763809Y-67522380D01*
X148801904Y-67636666D01*
X148801904Y-67712857D01*
X148763809Y-67827142D01*
X148687619Y-67903333D01*
X148611428Y-67941428D01*
X148459047Y-67979523D01*
X148344761Y-67979523D01*
X148192380Y-67941428D01*
X148116190Y-67903333D01*
X148040000Y-67827142D01*
X148001904Y-67712857D01*
X148001904Y-67636666D01*
X148040000Y-67522380D01*
X148078095Y-67484285D01*
X148801904Y-66722380D02*
X148801904Y-67179523D01*
X148801904Y-66950952D02*
X148001904Y-66950952D01*
X148116190Y-67027142D01*
X148192380Y-67103333D01*
X148230476Y-67179523D01*
X148001904Y-66455714D02*
X148001904Y-65960476D01*
X148306666Y-66227142D01*
X148306666Y-66112857D01*
X148344761Y-66036666D01*
X148382857Y-65998571D01*
X148459047Y-65960476D01*
X148649523Y-65960476D01*
X148725714Y-65998571D01*
X148763809Y-66036666D01*
X148801904Y-66112857D01*
X148801904Y-66341428D01*
X148763809Y-66417619D01*
X148725714Y-66455714D01*
%TO.C,C11*%
D13*
X147038571Y-71992380D02*
X146467142Y-71992380D01*
X146752857Y-71992380D02*
X146752857Y-70992380D01*
X146657619Y-71135238D01*
X146562380Y-71230476D01*
X146467142Y-71278095D01*
X147657619Y-70992380D02*
X147752857Y-70992380D01*
X147848095Y-71040000D01*
X147895714Y-71087619D01*
X147943333Y-71182857D01*
X147990952Y-71373333D01*
X147990952Y-71611428D01*
X147943333Y-71801904D01*
X147895714Y-71897142D01*
X147848095Y-71944761D01*
X147752857Y-71992380D01*
X147657619Y-71992380D01*
X147562380Y-71944761D01*
X147514761Y-71897142D01*
X147467142Y-71801904D01*
X147419523Y-71611428D01*
X147419523Y-71373333D01*
X147467142Y-71182857D01*
X147514761Y-71087619D01*
X147562380Y-71040000D01*
X147657619Y-70992380D01*
X148419523Y-71325714D02*
X148419523Y-71992380D01*
X148419523Y-71420952D02*
X148467142Y-71373333D01*
X148562380Y-71325714D01*
X148705238Y-71325714D01*
X148800476Y-71373333D01*
X148848095Y-71468571D01*
X148848095Y-71992380D01*
X149657619Y-71468571D02*
X149324285Y-71468571D01*
X149324285Y-71992380D02*
X149324285Y-70992380D01*
X149800476Y-70992380D01*
D16*
X147852857Y-70252857D02*
X147833809Y-70271904D01*
X147776666Y-70290952D01*
X147738571Y-70290952D01*
X147681428Y-70271904D01*
X147643333Y-70233809D01*
X147624285Y-70195714D01*
X147605238Y-70119523D01*
X147605238Y-70062380D01*
X147624285Y-69986190D01*
X147643333Y-69948095D01*
X147681428Y-69910000D01*
X147738571Y-69890952D01*
X147776666Y-69890952D01*
X147833809Y-69910000D01*
X147852857Y-69929047D01*
X148233809Y-70290952D02*
X148005238Y-70290952D01*
X148119523Y-70290952D02*
X148119523Y-69890952D01*
X148081428Y-69948095D01*
X148043333Y-69986190D01*
X148005238Y-70005238D01*
X148614761Y-70290952D02*
X148386190Y-70290952D01*
X148500476Y-70290952D02*
X148500476Y-69890952D01*
X148462380Y-69948095D01*
X148424285Y-69986190D01*
X148386190Y-70005238D01*
%TO.C,C10*%
D13*
X155407619Y-62382857D02*
X155360000Y-62335238D01*
X155312380Y-62240000D01*
X155312380Y-62001904D01*
X155360000Y-61906666D01*
X155407619Y-61859047D01*
X155502857Y-61811428D01*
X155598095Y-61811428D01*
X155740952Y-61859047D01*
X156312380Y-62430476D01*
X156312380Y-61811428D01*
X155407619Y-61430476D02*
X155360000Y-61382857D01*
X155312380Y-61287619D01*
X155312380Y-61049523D01*
X155360000Y-60954285D01*
X155407619Y-60906666D01*
X155502857Y-60859047D01*
X155598095Y-60859047D01*
X155740952Y-60906666D01*
X156312380Y-61478095D01*
X156312380Y-60859047D01*
X155645714Y-60430476D02*
X156645714Y-60430476D01*
X155693333Y-60430476D02*
X155645714Y-60335238D01*
X155645714Y-60144761D01*
X155693333Y-60049523D01*
X155740952Y-60001904D01*
X155836190Y-59954285D01*
X156121904Y-59954285D01*
X156217142Y-60001904D01*
X156264761Y-60049523D01*
X156312380Y-60144761D01*
X156312380Y-60335238D01*
X156264761Y-60430476D01*
X155788571Y-59192380D02*
X155788571Y-59525714D01*
X156312380Y-59525714D02*
X155312380Y-59525714D01*
X155312380Y-59049523D01*
D16*
X157432857Y-60997142D02*
X157451904Y-61016190D01*
X157470952Y-61073333D01*
X157470952Y-61111428D01*
X157451904Y-61168571D01*
X157413809Y-61206666D01*
X157375714Y-61225714D01*
X157299523Y-61244761D01*
X157242380Y-61244761D01*
X157166190Y-61225714D01*
X157128095Y-61206666D01*
X157090000Y-61168571D01*
X157070952Y-61111428D01*
X157070952Y-61073333D01*
X157090000Y-61016190D01*
X157109047Y-60997142D01*
X157470952Y-60616190D02*
X157470952Y-60844761D01*
X157470952Y-60730476D02*
X157070952Y-60730476D01*
X157128095Y-60768571D01*
X157166190Y-60806666D01*
X157185238Y-60844761D01*
X157070952Y-60368571D02*
X157070952Y-60330476D01*
X157090000Y-60292380D01*
X157109047Y-60273333D01*
X157147142Y-60254285D01*
X157223333Y-60235238D01*
X157318571Y-60235238D01*
X157394761Y-60254285D01*
X157432857Y-60273333D01*
X157451904Y-60292380D01*
X157470952Y-60330476D01*
X157470952Y-60368571D01*
X157451904Y-60406666D01*
X157432857Y-60425714D01*
X157394761Y-60444761D01*
X157318571Y-60463809D01*
X157223333Y-60463809D01*
X157147142Y-60444761D01*
X157109047Y-60425714D01*
X157090000Y-60406666D01*
X157070952Y-60368571D01*
%TO.C,C9*%
D13*
X158257619Y-68262857D02*
X158210000Y-68215238D01*
X158162380Y-68120000D01*
X158162380Y-67881904D01*
X158210000Y-67786666D01*
X158257619Y-67739047D01*
X158352857Y-67691428D01*
X158448095Y-67691428D01*
X158590952Y-67739047D01*
X159162380Y-68310476D01*
X159162380Y-67691428D01*
X158257619Y-67310476D02*
X158210000Y-67262857D01*
X158162380Y-67167619D01*
X158162380Y-66929523D01*
X158210000Y-66834285D01*
X158257619Y-66786666D01*
X158352857Y-66739047D01*
X158448095Y-66739047D01*
X158590952Y-66786666D01*
X159162380Y-67358095D01*
X159162380Y-66739047D01*
X158495714Y-66310476D02*
X159495714Y-66310476D01*
X158543333Y-66310476D02*
X158495714Y-66215238D01*
X158495714Y-66024761D01*
X158543333Y-65929523D01*
X158590952Y-65881904D01*
X158686190Y-65834285D01*
X158971904Y-65834285D01*
X159067142Y-65881904D01*
X159114761Y-65929523D01*
X159162380Y-66024761D01*
X159162380Y-66215238D01*
X159114761Y-66310476D01*
X158638571Y-65072380D02*
X158638571Y-65405714D01*
X159162380Y-65405714D02*
X158162380Y-65405714D01*
X158162380Y-64929523D01*
D16*
X157422857Y-66686666D02*
X157441904Y-66705714D01*
X157460952Y-66762857D01*
X157460952Y-66800952D01*
X157441904Y-66858095D01*
X157403809Y-66896190D01*
X157365714Y-66915238D01*
X157289523Y-66934285D01*
X157232380Y-66934285D01*
X157156190Y-66915238D01*
X157118095Y-66896190D01*
X157080000Y-66858095D01*
X157060952Y-66800952D01*
X157060952Y-66762857D01*
X157080000Y-66705714D01*
X157099047Y-66686666D01*
X157460952Y-66496190D02*
X157460952Y-66420000D01*
X157441904Y-66381904D01*
X157422857Y-66362857D01*
X157365714Y-66324761D01*
X157289523Y-66305714D01*
X157137142Y-66305714D01*
X157099047Y-66324761D01*
X157080000Y-66343809D01*
X157060952Y-66381904D01*
X157060952Y-66458095D01*
X157080000Y-66496190D01*
X157099047Y-66515238D01*
X157137142Y-66534285D01*
X157232380Y-66534285D01*
X157270476Y-66515238D01*
X157289523Y-66496190D01*
X157308571Y-66458095D01*
X157308571Y-66381904D01*
X157289523Y-66343809D01*
X157270476Y-66324761D01*
X157232380Y-66305714D01*
%TO.C,C6*%
D13*
X103792542Y-73688980D02*
X103887780Y-73688980D01*
X103983019Y-73736600D01*
X104030638Y-73784219D01*
X104078257Y-73879457D01*
X104125876Y-74069933D01*
X104125876Y-74308028D01*
X104078257Y-74498504D01*
X104030638Y-74593742D01*
X103983019Y-74641361D01*
X103887780Y-74688980D01*
X103792542Y-74688980D01*
X103697304Y-74641361D01*
X103649685Y-74593742D01*
X103602066Y-74498504D01*
X103554447Y-74308028D01*
X103554447Y-74069933D01*
X103602066Y-73879457D01*
X103649685Y-73784219D01*
X103697304Y-73736600D01*
X103792542Y-73688980D01*
X104554447Y-74593742D02*
X104602066Y-74641361D01*
X104554447Y-74688980D01*
X104506828Y-74641361D01*
X104554447Y-74593742D01*
X104554447Y-74688980D01*
X105554447Y-74688980D02*
X104983019Y-74688980D01*
X105268733Y-74688980D02*
X105268733Y-73688980D01*
X105173495Y-73831838D01*
X105078257Y-73927076D01*
X104983019Y-73974695D01*
X106411590Y-74022314D02*
X106411590Y-74688980D01*
X105983019Y-74022314D02*
X105983019Y-74546123D01*
X106030638Y-74641361D01*
X106125876Y-74688980D01*
X106268733Y-74688980D01*
X106363971Y-74641361D01*
X106411590Y-74593742D01*
X107221114Y-74165171D02*
X106887780Y-74165171D01*
X106887780Y-74688980D02*
X106887780Y-73688980D01*
X107363971Y-73688980D01*
D16*
X105368733Y-75809457D02*
X105349685Y-75828504D01*
X105292542Y-75847552D01*
X105254447Y-75847552D01*
X105197304Y-75828504D01*
X105159209Y-75790409D01*
X105140161Y-75752314D01*
X105121114Y-75676123D01*
X105121114Y-75618980D01*
X105140161Y-75542790D01*
X105159209Y-75504695D01*
X105197304Y-75466600D01*
X105254447Y-75447552D01*
X105292542Y-75447552D01*
X105349685Y-75466600D01*
X105368733Y-75485647D01*
X105711590Y-75447552D02*
X105635400Y-75447552D01*
X105597304Y-75466600D01*
X105578257Y-75485647D01*
X105540161Y-75542790D01*
X105521114Y-75618980D01*
X105521114Y-75771361D01*
X105540161Y-75809457D01*
X105559209Y-75828504D01*
X105597304Y-75847552D01*
X105673495Y-75847552D01*
X105711590Y-75828504D01*
X105730638Y-75809457D01*
X105749685Y-75771361D01*
X105749685Y-75676123D01*
X105730638Y-75638028D01*
X105711590Y-75618980D01*
X105673495Y-75599933D01*
X105597304Y-75599933D01*
X105559209Y-75618980D01*
X105540161Y-75638028D01*
X105521114Y-75676123D01*
%TO.C,C5*%
D13*
X181547142Y-68192380D02*
X181642380Y-68192380D01*
X181737619Y-68240000D01*
X181785238Y-68287619D01*
X181832857Y-68382857D01*
X181880476Y-68573333D01*
X181880476Y-68811428D01*
X181832857Y-69001904D01*
X181785238Y-69097142D01*
X181737619Y-69144761D01*
X181642380Y-69192380D01*
X181547142Y-69192380D01*
X181451904Y-69144761D01*
X181404285Y-69097142D01*
X181356666Y-69001904D01*
X181309047Y-68811428D01*
X181309047Y-68573333D01*
X181356666Y-68382857D01*
X181404285Y-68287619D01*
X181451904Y-68240000D01*
X181547142Y-68192380D01*
X182309047Y-69097142D02*
X182356666Y-69144761D01*
X182309047Y-69192380D01*
X182261428Y-69144761D01*
X182309047Y-69097142D01*
X182309047Y-69192380D01*
X183309047Y-69192380D02*
X182737619Y-69192380D01*
X183023333Y-69192380D02*
X183023333Y-68192380D01*
X182928095Y-68335238D01*
X182832857Y-68430476D01*
X182737619Y-68478095D01*
X184166190Y-68525714D02*
X184166190Y-69192380D01*
X183737619Y-68525714D02*
X183737619Y-69049523D01*
X183785238Y-69144761D01*
X183880476Y-69192380D01*
X184023333Y-69192380D01*
X184118571Y-69144761D01*
X184166190Y-69097142D01*
X184975714Y-68668571D02*
X184642380Y-68668571D01*
X184642380Y-69192380D02*
X184642380Y-68192380D01*
X185118571Y-68192380D01*
D16*
X182233333Y-70302857D02*
X182214285Y-70321904D01*
X182157142Y-70340952D01*
X182119047Y-70340952D01*
X182061904Y-70321904D01*
X182023809Y-70283809D01*
X182004761Y-70245714D01*
X181985714Y-70169523D01*
X181985714Y-70112380D01*
X182004761Y-70036190D01*
X182023809Y-69998095D01*
X182061904Y-69960000D01*
X182119047Y-69940952D01*
X182157142Y-69940952D01*
X182214285Y-69960000D01*
X182233333Y-69979047D01*
X182595238Y-69940952D02*
X182404761Y-69940952D01*
X182385714Y-70131428D01*
X182404761Y-70112380D01*
X182442857Y-70093333D01*
X182538095Y-70093333D01*
X182576190Y-70112380D01*
X182595238Y-70131428D01*
X182614285Y-70169523D01*
X182614285Y-70264761D01*
X182595238Y-70302857D01*
X182576190Y-70321904D01*
X182538095Y-70340952D01*
X182442857Y-70340952D01*
X182404761Y-70321904D01*
X182385714Y-70302857D01*
%TO.C,C4*%
D13*
X106810580Y-82897457D02*
X106810580Y-82802219D01*
X106858200Y-82706980D01*
X106905819Y-82659361D01*
X107001057Y-82611742D01*
X107191533Y-82564123D01*
X107429628Y-82564123D01*
X107620104Y-82611742D01*
X107715342Y-82659361D01*
X107762961Y-82706980D01*
X107810580Y-82802219D01*
X107810580Y-82897457D01*
X107762961Y-82992695D01*
X107715342Y-83040314D01*
X107620104Y-83087933D01*
X107429628Y-83135552D01*
X107191533Y-83135552D01*
X107001057Y-83087933D01*
X106905819Y-83040314D01*
X106858200Y-82992695D01*
X106810580Y-82897457D01*
X107715342Y-82135552D02*
X107762961Y-82087933D01*
X107810580Y-82135552D01*
X107762961Y-82183171D01*
X107715342Y-82135552D01*
X107810580Y-82135552D01*
X107810580Y-81135552D02*
X107810580Y-81706980D01*
X107810580Y-81421266D02*
X106810580Y-81421266D01*
X106953438Y-81516504D01*
X107048676Y-81611742D01*
X107096295Y-81706980D01*
X107143914Y-80278409D02*
X107810580Y-80278409D01*
X107143914Y-80706980D02*
X107667723Y-80706980D01*
X107762961Y-80659361D01*
X107810580Y-80564123D01*
X107810580Y-80421266D01*
X107762961Y-80326028D01*
X107715342Y-80278409D01*
X107286771Y-79468885D02*
X107286771Y-79802219D01*
X107810580Y-79802219D02*
X106810580Y-79802219D01*
X106810580Y-79326028D01*
D16*
X108931057Y-81321266D02*
X108950104Y-81340314D01*
X108969152Y-81397457D01*
X108969152Y-81435552D01*
X108950104Y-81492695D01*
X108912009Y-81530790D01*
X108873914Y-81549838D01*
X108797723Y-81568885D01*
X108740580Y-81568885D01*
X108664390Y-81549838D01*
X108626295Y-81530790D01*
X108588200Y-81492695D01*
X108569152Y-81435552D01*
X108569152Y-81397457D01*
X108588200Y-81340314D01*
X108607247Y-81321266D01*
X108702485Y-80978409D02*
X108969152Y-80978409D01*
X108550104Y-81073647D02*
X108835819Y-81168885D01*
X108835819Y-80921266D01*
%TO.C,C3*%
D13*
X123842380Y-82762857D02*
X123842380Y-82667619D01*
X123890000Y-82572380D01*
X123937619Y-82524761D01*
X124032857Y-82477142D01*
X124223333Y-82429523D01*
X124461428Y-82429523D01*
X124651904Y-82477142D01*
X124747142Y-82524761D01*
X124794761Y-82572380D01*
X124842380Y-82667619D01*
X124842380Y-82762857D01*
X124794761Y-82858095D01*
X124747142Y-82905714D01*
X124651904Y-82953333D01*
X124461428Y-83000952D01*
X124223333Y-83000952D01*
X124032857Y-82953333D01*
X123937619Y-82905714D01*
X123890000Y-82858095D01*
X123842380Y-82762857D01*
X124747142Y-82000952D02*
X124794761Y-81953333D01*
X124842380Y-82000952D01*
X124794761Y-82048571D01*
X124747142Y-82000952D01*
X124842380Y-82000952D01*
X124842380Y-81000952D02*
X124842380Y-81572380D01*
X124842380Y-81286666D02*
X123842380Y-81286666D01*
X123985238Y-81381904D01*
X124080476Y-81477142D01*
X124128095Y-81572380D01*
X124175714Y-80143809D02*
X124842380Y-80143809D01*
X124175714Y-80572380D02*
X124699523Y-80572380D01*
X124794761Y-80524761D01*
X124842380Y-80429523D01*
X124842380Y-80286666D01*
X124794761Y-80191428D01*
X124747142Y-80143809D01*
X124318571Y-79334285D02*
X124318571Y-79667619D01*
X124842380Y-79667619D02*
X123842380Y-79667619D01*
X123842380Y-79191428D01*
D16*
X125962857Y-81186666D02*
X125981904Y-81205714D01*
X126000952Y-81262857D01*
X126000952Y-81300952D01*
X125981904Y-81358095D01*
X125943809Y-81396190D01*
X125905714Y-81415238D01*
X125829523Y-81434285D01*
X125772380Y-81434285D01*
X125696190Y-81415238D01*
X125658095Y-81396190D01*
X125620000Y-81358095D01*
X125600952Y-81300952D01*
X125600952Y-81262857D01*
X125620000Y-81205714D01*
X125639047Y-81186666D01*
X125600952Y-81053333D02*
X125600952Y-80805714D01*
X125753333Y-80939047D01*
X125753333Y-80881904D01*
X125772380Y-80843809D01*
X125791428Y-80824761D01*
X125829523Y-80805714D01*
X125924761Y-80805714D01*
X125962857Y-80824761D01*
X125981904Y-80843809D01*
X126000952Y-80881904D01*
X126000952Y-80996190D01*
X125981904Y-81034285D01*
X125962857Y-81053333D01*
%TO.C,C2*%
D13*
X170365942Y-83356180D02*
X170461180Y-83356180D01*
X170556419Y-83403800D01*
X170604038Y-83451419D01*
X170651657Y-83546657D01*
X170699276Y-83737133D01*
X170699276Y-83975228D01*
X170651657Y-84165704D01*
X170604038Y-84260942D01*
X170556419Y-84308561D01*
X170461180Y-84356180D01*
X170365942Y-84356180D01*
X170270704Y-84308561D01*
X170223085Y-84260942D01*
X170175466Y-84165704D01*
X170127847Y-83975228D01*
X170127847Y-83737133D01*
X170175466Y-83546657D01*
X170223085Y-83451419D01*
X170270704Y-83403800D01*
X170365942Y-83356180D01*
X171127847Y-84260942D02*
X171175466Y-84308561D01*
X171127847Y-84356180D01*
X171080228Y-84308561D01*
X171127847Y-84260942D01*
X171127847Y-84356180D01*
X172127847Y-84356180D02*
X171556419Y-84356180D01*
X171842133Y-84356180D02*
X171842133Y-83356180D01*
X171746895Y-83499038D01*
X171651657Y-83594276D01*
X171556419Y-83641895D01*
X172984990Y-83689514D02*
X172984990Y-84356180D01*
X172556419Y-83689514D02*
X172556419Y-84213323D01*
X172604038Y-84308561D01*
X172699276Y-84356180D01*
X172842133Y-84356180D01*
X172937371Y-84308561D01*
X172984990Y-84260942D01*
X173794514Y-83832371D02*
X173461180Y-83832371D01*
X173461180Y-84356180D02*
X173461180Y-83356180D01*
X173937371Y-83356180D01*
D16*
X171942133Y-82616657D02*
X171923085Y-82635704D01*
X171865942Y-82654752D01*
X171827847Y-82654752D01*
X171770704Y-82635704D01*
X171732609Y-82597609D01*
X171713561Y-82559514D01*
X171694514Y-82483323D01*
X171694514Y-82426180D01*
X171713561Y-82349990D01*
X171732609Y-82311895D01*
X171770704Y-82273800D01*
X171827847Y-82254752D01*
X171865942Y-82254752D01*
X171923085Y-82273800D01*
X171942133Y-82292847D01*
X172094514Y-82292847D02*
X172113561Y-82273800D01*
X172151657Y-82254752D01*
X172246895Y-82254752D01*
X172284990Y-82273800D01*
X172304038Y-82292847D01*
X172323085Y-82330942D01*
X172323085Y-82369038D01*
X172304038Y-82426180D01*
X172075466Y-82654752D01*
X172323085Y-82654752D01*
%TO.C,C1*%
D13*
X146447142Y-80442380D02*
X146542380Y-80442380D01*
X146637619Y-80490000D01*
X146685238Y-80537619D01*
X146732857Y-80632857D01*
X146780476Y-80823333D01*
X146780476Y-81061428D01*
X146732857Y-81251904D01*
X146685238Y-81347142D01*
X146637619Y-81394761D01*
X146542380Y-81442380D01*
X146447142Y-81442380D01*
X146351904Y-81394761D01*
X146304285Y-81347142D01*
X146256666Y-81251904D01*
X146209047Y-81061428D01*
X146209047Y-80823333D01*
X146256666Y-80632857D01*
X146304285Y-80537619D01*
X146351904Y-80490000D01*
X146447142Y-80442380D01*
X147209047Y-81347142D02*
X147256666Y-81394761D01*
X147209047Y-81442380D01*
X147161428Y-81394761D01*
X147209047Y-81347142D01*
X147209047Y-81442380D01*
X148209047Y-81442380D02*
X147637619Y-81442380D01*
X147923333Y-81442380D02*
X147923333Y-80442380D01*
X147828095Y-80585238D01*
X147732857Y-80680476D01*
X147637619Y-80728095D01*
X149066190Y-80775714D02*
X149066190Y-81442380D01*
X148637619Y-80775714D02*
X148637619Y-81299523D01*
X148685238Y-81394761D01*
X148780476Y-81442380D01*
X148923333Y-81442380D01*
X149018571Y-81394761D01*
X149066190Y-81347142D01*
X149875714Y-80918571D02*
X149542380Y-80918571D01*
X149542380Y-81442380D02*
X149542380Y-80442380D01*
X150018571Y-80442380D01*
D16*
X148023333Y-82562857D02*
X148004285Y-82581904D01*
X147947142Y-82600952D01*
X147909047Y-82600952D01*
X147851904Y-82581904D01*
X147813809Y-82543809D01*
X147794761Y-82505714D01*
X147775714Y-82429523D01*
X147775714Y-82372380D01*
X147794761Y-82296190D01*
X147813809Y-82258095D01*
X147851904Y-82220000D01*
X147909047Y-82200952D01*
X147947142Y-82200952D01*
X148004285Y-82220000D01*
X148023333Y-82239047D01*
X148404285Y-82600952D02*
X148175714Y-82600952D01*
X148290000Y-82600952D02*
X148290000Y-82200952D01*
X148251904Y-82258095D01*
X148213809Y-82296190D01*
X148175714Y-82315238D01*
%TD*%
M02*
