%TF.GenerationSoftware,KiCad,Pcbnew,(5.1.10)-1*%
%TF.CreationDate,2021-12-03T15:52:50+05:30*%
%TF.ProjectId,Relay Board 2.0,52656c61-7920-4426-9f61-726420322e30,rev?*%
%TF.SameCoordinates,Original*%
%TF.FileFunction,Other,User*%
%FSLAX46Y46*%
G04 Gerber Fmt 4.6, Leading zero omitted, Abs format (unit mm)*
G04 Created by KiCad (PCBNEW (5.1.10)-1) date 2021-12-03 15:52:50*
%MOMM*%
%LPD*%
G01*
G04 APERTURE LIST*
%ADD10C,0.050000*%
%ADD11C,0.100000*%
%ADD12C,0.127000*%
G04 APERTURE END LIST*
D10*
%TO.C,D22*%
X176891300Y-66662800D02*
X176891300Y-61962800D01*
X176891300Y-61962800D02*
X179191300Y-61962800D01*
X179191300Y-61962800D02*
X179191300Y-66662800D01*
X176891300Y-66662800D02*
X179191300Y-66662800D01*
%TO.C,C17*%
X107338500Y-76455000D02*
X107338500Y-79755000D01*
X107338500Y-79755000D02*
X102438500Y-79755000D01*
X102438500Y-79755000D02*
X102438500Y-76455000D01*
X102438500Y-76455000D02*
X107338500Y-76455000D01*
%TO.C,D8*%
X132629700Y-83004700D02*
X129269700Y-83004700D01*
X132629700Y-81104700D02*
X132629700Y-83004700D01*
X129269700Y-81104700D02*
X132629700Y-81104700D01*
X129269700Y-83004700D02*
X129269700Y-81104700D01*
%TO.C,R13*%
X175025300Y-79229400D02*
X175025300Y-76269400D01*
X176485300Y-79229400D02*
X175025300Y-79229400D01*
X176485300Y-76269400D02*
X176485300Y-79229400D01*
X175025300Y-76269400D02*
X176485300Y-76269400D01*
%TO.C,H4*%
X104440000Y-116570000D02*
G75*
G03*
X104440000Y-116570000I-2000000J0D01*
G01*
%TO.C,H3*%
X189520000Y-116530000D02*
G75*
G03*
X189520000Y-116530000I-2000000J0D01*
G01*
%TO.C,H2*%
X189460000Y-49430000D02*
G75*
G03*
X189460000Y-49430000I-2000000J0D01*
G01*
%TO.C,H1*%
X104490000Y-49420000D02*
G75*
G03*
X104490000Y-49420000I-2000000J0D01*
G01*
%TO.C,C12*%
X172270000Y-72030000D02*
X172270000Y-73990000D01*
X172270000Y-73990000D02*
X168870000Y-73990000D01*
X168870000Y-73990000D02*
X168870000Y-72030000D01*
X168870000Y-72030000D02*
X172270000Y-72030000D01*
%TO.C,C8*%
X176794900Y-65009200D02*
X176794900Y-66969200D01*
X176794900Y-66969200D02*
X173394900Y-66969200D01*
X173394900Y-66969200D02*
X173394900Y-65009200D01*
X173394900Y-65009200D02*
X176794900Y-65009200D01*
%TO.C,C7*%
X176807600Y-67041200D02*
X176807600Y-69001200D01*
X176807600Y-69001200D02*
X173407600Y-69001200D01*
X173407600Y-69001200D02*
X173407600Y-67041200D01*
X173407600Y-67041200D02*
X176807600Y-67041200D01*
%TO.C,K3*%
X121360000Y-106700000D02*
X121360000Y-87100000D01*
X137360000Y-106700000D02*
X121360000Y-106700000D01*
X137360000Y-87100000D02*
X137360000Y-106700000D01*
X121360000Y-87100000D02*
X137360000Y-87100000D01*
%TO.C,J11*%
X179200000Y-59120000D02*
X179200000Y-49220000D01*
X157840000Y-59120000D02*
X179200000Y-59120000D01*
X157840000Y-49220000D02*
X157840000Y-59120000D01*
X179200000Y-49220000D02*
X157840000Y-49220000D01*
%TO.C,C14*%
X141750000Y-73290000D02*
X138790000Y-73290000D01*
X141750000Y-71830000D02*
X141750000Y-73290000D01*
X138790000Y-71830000D02*
X141750000Y-71830000D01*
X138790000Y-73290000D02*
X138790000Y-71830000D01*
%TO.C,J10*%
X138289600Y-48630000D02*
X138289600Y-52230000D01*
X154589600Y-48630000D02*
X138289600Y-48630000D01*
X154589600Y-52230000D02*
X154589600Y-48630000D01*
X138289600Y-52230000D02*
X154589600Y-52230000D01*
D11*
%TO.C,J5*%
X104860000Y-117400000D02*
X104860000Y-106900000D01*
X122100000Y-117400000D02*
X104860000Y-117400000D01*
X122100000Y-106900000D02*
X122100000Y-117400000D01*
X104860000Y-106900000D02*
X122100000Y-106900000D01*
%TO.C,J4*%
X122410000Y-117400000D02*
X122410000Y-106900000D01*
X139650000Y-117400000D02*
X122410000Y-117400000D01*
X139650000Y-106900000D02*
X139650000Y-117400000D01*
X122410000Y-106900000D02*
X139650000Y-106900000D01*
%TO.C,Y1*%
X156520000Y-73280000D02*
X149820000Y-73280000D01*
X156520000Y-54530000D02*
X156520000Y-73280000D01*
X149820000Y-54530000D02*
X156520000Y-54530000D01*
X149820000Y-73280000D02*
X149820000Y-54530000D01*
D10*
%TO.C,U3*%
X188515000Y-72610000D02*
X188515000Y-77710000D01*
X179965000Y-72610000D02*
X188515000Y-72610000D01*
X179965000Y-77710000D02*
X179965000Y-72610000D01*
X188515000Y-77710000D02*
X179965000Y-77710000D01*
%TO.C,U2*%
X111370000Y-72675000D02*
X116470000Y-72675000D01*
X111370000Y-81225000D02*
X111370000Y-72675000D01*
X116470000Y-81225000D02*
X111370000Y-81225000D01*
X116470000Y-72675000D02*
X116470000Y-81225000D01*
%TO.C,U1*%
X128270000Y-72496500D02*
X133370000Y-72496500D01*
X128270000Y-81046500D02*
X128270000Y-72496500D01*
X133370000Y-81046500D02*
X128270000Y-81046500D01*
X133370000Y-72496500D02*
X133370000Y-81046500D01*
%TO.C,RT1*%
X179318000Y-61153000D02*
X179318000Y-59187000D01*
X175902000Y-61153000D02*
X175902000Y-59187000D01*
X175902000Y-59187000D02*
X179318000Y-59187000D01*
X175902000Y-61153000D02*
X179318000Y-61153000D01*
%TO.C,R16*%
X137750000Y-73290000D02*
X134790000Y-73290000D01*
X137750000Y-71830000D02*
X137750000Y-73290000D01*
X134790000Y-71830000D02*
X137750000Y-71830000D01*
X134790000Y-73290000D02*
X134790000Y-71830000D01*
%TO.C,R15*%
X150570000Y-76900000D02*
X147610000Y-76900000D01*
X150570000Y-75440000D02*
X150570000Y-76900000D01*
X147610000Y-75440000D02*
X150570000Y-75440000D01*
X147610000Y-76900000D02*
X147610000Y-75440000D01*
%TO.C,R14*%
X147600000Y-73820000D02*
X150560000Y-73820000D01*
X147600000Y-75280000D02*
X147600000Y-73820000D01*
X150560000Y-75280000D02*
X147600000Y-75280000D01*
X150560000Y-73820000D02*
X150560000Y-75280000D01*
%TO.C,R12*%
X120510000Y-83240000D02*
X117550000Y-83240000D01*
X120510000Y-81780000D02*
X120510000Y-83240000D01*
X117550000Y-81780000D02*
X120510000Y-81780000D01*
X117550000Y-83240000D02*
X117550000Y-81780000D01*
%TO.C,R11*%
X135668200Y-82772000D02*
X132708200Y-82772000D01*
X135668200Y-81312000D02*
X135668200Y-82772000D01*
X132708200Y-81312000D02*
X135668200Y-81312000D01*
X132708200Y-82772000D02*
X132708200Y-81312000D01*
%TO.C,R10*%
X111040000Y-79774600D02*
X111040000Y-82734600D01*
X109580000Y-79774600D02*
X111040000Y-79774600D01*
X109580000Y-82734600D02*
X109580000Y-79774600D01*
X111040000Y-82734600D02*
X109580000Y-82734600D01*
%TO.C,R9*%
X128110000Y-79640000D02*
X128110000Y-82600000D01*
X126650000Y-79640000D02*
X128110000Y-79640000D01*
X126650000Y-82600000D02*
X126650000Y-79640000D01*
X128110000Y-82600000D02*
X126650000Y-82600000D01*
%TO.C,R8*%
X181260000Y-64110000D02*
X184220000Y-64110000D01*
X181260000Y-65570000D02*
X181260000Y-64110000D01*
X184220000Y-65570000D02*
X181260000Y-65570000D01*
X184220000Y-64110000D02*
X184220000Y-65570000D01*
%TO.C,R7*%
X188550000Y-65580000D02*
X185590000Y-65580000D01*
X188550000Y-64120000D02*
X188550000Y-65580000D01*
X185590000Y-64120000D02*
X188550000Y-64120000D01*
X185590000Y-65580000D02*
X185590000Y-64120000D01*
%TO.C,R6*%
X186250000Y-82690000D02*
X183290000Y-82690000D01*
X186250000Y-81230000D02*
X186250000Y-82690000D01*
X183290000Y-81230000D02*
X186250000Y-81230000D01*
X183290000Y-82690000D02*
X183290000Y-81230000D01*
%TO.C,R5*%
X161440000Y-82690000D02*
X158480000Y-82690000D01*
X161440000Y-81230000D02*
X161440000Y-82690000D01*
X158480000Y-81230000D02*
X161440000Y-81230000D01*
X158480000Y-82690000D02*
X158480000Y-81230000D01*
%TO.C,R4*%
X173480000Y-81670000D02*
X170520000Y-81670000D01*
X173480000Y-80210000D02*
X173480000Y-81670000D01*
X170520000Y-80210000D02*
X173480000Y-80210000D01*
X170520000Y-81670000D02*
X170520000Y-80210000D01*
%TO.C,R3*%
X149560000Y-81580000D02*
X146600000Y-81580000D01*
X149560000Y-80120000D02*
X149560000Y-81580000D01*
X146600000Y-80120000D02*
X149560000Y-80120000D01*
X146600000Y-81580000D02*
X146600000Y-80120000D01*
%TO.C,R2*%
X111309600Y-74986900D02*
X108349600Y-74986900D01*
X111309600Y-73526900D02*
X111309600Y-74986900D01*
X108349600Y-73526900D02*
X111309600Y-73526900D01*
X108349600Y-74986900D02*
X108349600Y-73526900D01*
%TO.C,R1*%
X128187900Y-74732900D02*
X125227900Y-74732900D01*
X128187900Y-73272900D02*
X128187900Y-74732900D01*
X125227900Y-73272900D02*
X128187900Y-73272900D01*
X125227900Y-74732900D02*
X125227900Y-73272900D01*
%TO.C,Q4*%
X104590000Y-83284000D02*
X104590000Y-79784000D01*
X107990000Y-83284000D02*
X104590000Y-83284000D01*
X107990000Y-79784000D02*
X107990000Y-83284000D01*
X104590000Y-79784000D02*
X107990000Y-79784000D01*
%TO.C,Q3*%
X121500000Y-83060000D02*
X121500000Y-79560000D01*
X124900000Y-83060000D02*
X121500000Y-83060000D01*
X124900000Y-79560000D02*
X124900000Y-83060000D01*
X121500000Y-79560000D02*
X124900000Y-79560000D01*
%TO.C,Q2*%
X174010000Y-83210000D02*
X174010000Y-79710000D01*
X177410000Y-83210000D02*
X174010000Y-83210000D01*
X177410000Y-79710000D02*
X177410000Y-83210000D01*
X174010000Y-79710000D02*
X177410000Y-79710000D01*
%TO.C,Q1*%
X149970000Y-83140000D02*
X149970000Y-79640000D01*
X153370000Y-83140000D02*
X149970000Y-83140000D01*
X153370000Y-79640000D02*
X153370000Y-83140000D01*
X149970000Y-79640000D02*
X153370000Y-79640000D01*
D11*
%TO.C,PS1*%
X172290000Y-60765000D02*
X172290000Y-71915000D01*
X158690000Y-60765000D02*
X172290000Y-60765000D01*
X158690000Y-71915000D02*
X158690000Y-60765000D01*
X172290000Y-71915000D02*
X158690000Y-71915000D01*
D10*
%TO.C,L2*%
X132880600Y-61960000D02*
X128180600Y-61960000D01*
X132880600Y-59560000D02*
X132880600Y-61960000D01*
X128180600Y-59560000D02*
X132880600Y-59560000D01*
X128180600Y-61960000D02*
X128180600Y-59560000D01*
D12*
%TO.C,L1*%
X172788700Y-76156700D02*
X179788700Y-76156700D01*
X172788700Y-69156700D02*
X172788700Y-76156700D01*
X179788700Y-69156700D02*
X172788700Y-69156700D01*
X179788700Y-76156700D02*
X179788700Y-69156700D01*
D10*
%TO.C,K4*%
X104600000Y-106720000D02*
X104600000Y-87120000D01*
X120600000Y-106720000D02*
X104600000Y-106720000D01*
X120600000Y-87120000D02*
X120600000Y-106720000D01*
X104600000Y-87120000D02*
X120600000Y-87120000D01*
%TO.C,K2*%
X170600000Y-106610000D02*
X170600000Y-87010000D01*
X186600000Y-106610000D02*
X170600000Y-106610000D01*
X186600000Y-87010000D02*
X186600000Y-106610000D01*
X170600000Y-87010000D02*
X186600000Y-87010000D01*
%TO.C,K1*%
X146200000Y-106800000D02*
X146200000Y-87200000D01*
X162200000Y-106800000D02*
X146200000Y-106800000D01*
X162200000Y-87200000D02*
X162200000Y-106800000D01*
X146200000Y-87200000D02*
X162200000Y-87200000D01*
%TO.C,J9*%
X166900000Y-103300000D02*
X170500000Y-103300000D01*
X166900000Y-87000000D02*
X166900000Y-103300000D01*
X170500000Y-87000000D02*
X166900000Y-87000000D01*
X170500000Y-103300000D02*
X170500000Y-87000000D01*
%TO.C,J8*%
X142500000Y-103300000D02*
X146100000Y-103300000D01*
X142500000Y-87000000D02*
X142500000Y-103300000D01*
X146100000Y-87000000D02*
X142500000Y-87000000D01*
X146100000Y-103300000D02*
X146100000Y-87000000D01*
%TO.C,J7*%
X134000000Y-59120000D02*
X134000000Y-49220000D01*
X105020000Y-59120000D02*
X134000000Y-59120000D01*
X105020000Y-49220000D02*
X105020000Y-59120000D01*
X134000000Y-49220000D02*
X105020000Y-49220000D01*
D11*
%TO.C,J6*%
X100580000Y-59248800D02*
X111080000Y-59248800D01*
X100580000Y-71408800D02*
X100580000Y-59248800D01*
X111080000Y-71408800D02*
X100580000Y-71408800D01*
X111080000Y-59248800D02*
X111080000Y-71408800D01*
%TO.C,J3*%
X162760000Y-117420000D02*
X162760000Y-106920000D01*
X185080000Y-117420000D02*
X162760000Y-117420000D01*
X185080000Y-106920000D02*
X185080000Y-117420000D01*
X162760000Y-106920000D02*
X185080000Y-106920000D01*
%TO.C,J2*%
X139960000Y-117400000D02*
X139960000Y-106900000D01*
X162280000Y-117400000D02*
X139960000Y-117400000D01*
X162280000Y-106900000D02*
X162280000Y-117400000D01*
X139960000Y-106900000D02*
X162280000Y-106900000D01*
%TO.C,J1*%
X179410000Y-51870000D02*
X189910000Y-51870000D01*
X179410000Y-64030000D02*
X179410000Y-51870000D01*
X189910000Y-64030000D02*
X179410000Y-64030000D01*
X189910000Y-51870000D02*
X189910000Y-64030000D01*
D10*
%TO.C,IC1*%
X145950000Y-59850000D02*
X145950000Y-70350000D01*
X135450000Y-59850000D02*
X145950000Y-59850000D01*
X135450000Y-70350000D02*
X135450000Y-59850000D01*
X145950000Y-70350000D02*
X135450000Y-70350000D01*
%TO.C,D21*%
X139258200Y-80542000D02*
X139258200Y-77192000D01*
X144358200Y-80542000D02*
X139258200Y-80542000D01*
X144358200Y-77192000D02*
X144358200Y-80542000D01*
X139258200Y-77192000D02*
X144358200Y-77192000D01*
D11*
%TO.C,D20*%
X134800000Y-77025000D02*
X134800000Y-73375000D01*
X141725000Y-77025000D02*
X134800000Y-77025000D01*
X141725000Y-73375000D02*
X141725000Y-77025000D01*
X134800000Y-73375000D02*
X141725000Y-73375000D01*
D10*
%TO.C,D19*%
X175755000Y-64347800D02*
X172405000Y-64347800D01*
X175755000Y-59197800D02*
X175755000Y-64347800D01*
X172405000Y-59197800D02*
X175755000Y-59197800D01*
X172405000Y-64347800D02*
X172405000Y-59197800D01*
%TO.C,D18*%
X106943600Y-71477000D02*
X106943600Y-74827000D01*
X101793600Y-71477000D02*
X106943600Y-71477000D01*
X101793600Y-74827000D02*
X101793600Y-71477000D01*
X106943600Y-74827000D02*
X101793600Y-74827000D01*
%TO.C,D17*%
X169555000Y-103425000D02*
X169555000Y-106775000D01*
X164405000Y-103425000D02*
X169555000Y-103425000D01*
X164405000Y-106775000D02*
X164405000Y-103425000D01*
X169555000Y-106775000D02*
X164405000Y-106775000D01*
%TO.C,D16*%
X145165000Y-103405000D02*
X145165000Y-106755000D01*
X140015000Y-103405000D02*
X145165000Y-103405000D01*
X140015000Y-106755000D02*
X140015000Y-103405000D01*
X145165000Y-106755000D02*
X140015000Y-106755000D01*
%TO.C,D15*%
X176513700Y-77332800D02*
X179873700Y-77332800D01*
X176513700Y-79232800D02*
X176513700Y-77332800D01*
X179873700Y-79232800D02*
X176513700Y-79232800D01*
X179873700Y-77332800D02*
X179873700Y-79232800D01*
D11*
%TO.C,D14*%
X111548400Y-83366600D02*
X111548400Y-87016600D01*
X104623400Y-83366600D02*
X111548400Y-83366600D01*
X104623400Y-87016600D02*
X104623400Y-83366600D01*
X111548400Y-87016600D02*
X104623400Y-87016600D01*
%TO.C,D13*%
X120540000Y-83325000D02*
X120540000Y-86975000D01*
X113615000Y-83325000D02*
X120540000Y-83325000D01*
X113615000Y-86975000D02*
X113615000Y-83325000D01*
X120540000Y-86975000D02*
X113615000Y-86975000D01*
%TO.C,D12*%
X128400000Y-83155000D02*
X128400000Y-86805000D01*
X121475000Y-83155000D02*
X128400000Y-83155000D01*
X121475000Y-86805000D02*
X121475000Y-83155000D01*
X128400000Y-86805000D02*
X121475000Y-86805000D01*
%TO.C,D11*%
X137460000Y-83145000D02*
X137460000Y-86795000D01*
X130535000Y-83145000D02*
X137460000Y-83145000D01*
X130535000Y-86795000D02*
X130535000Y-83145000D01*
X137460000Y-86795000D02*
X130535000Y-86795000D01*
D10*
%TO.C,D10*%
X184420000Y-69410000D02*
X187780000Y-69410000D01*
X184420000Y-71310000D02*
X184420000Y-69410000D01*
X187780000Y-71310000D02*
X184420000Y-71310000D01*
X187780000Y-69410000D02*
X187780000Y-71310000D01*
%TO.C,D9*%
X116960000Y-83200000D02*
X113600000Y-83200000D01*
X116960000Y-81300000D02*
X116960000Y-83200000D01*
X113600000Y-81300000D02*
X116960000Y-81300000D01*
X113600000Y-83200000D02*
X113600000Y-81300000D01*
D11*
%TO.C,D7*%
X177430000Y-83305000D02*
X177430000Y-86955000D01*
X170505000Y-83305000D02*
X177430000Y-83305000D01*
X170505000Y-86955000D02*
X170505000Y-83305000D01*
X177430000Y-86955000D02*
X170505000Y-86955000D01*
%TO.C,D6*%
X186390000Y-83245000D02*
X186390000Y-86895000D01*
X179465000Y-83245000D02*
X186390000Y-83245000D01*
X179465000Y-86895000D02*
X179465000Y-83245000D01*
X186390000Y-86895000D02*
X179465000Y-86895000D01*
%TO.C,D5*%
X153580000Y-83235000D02*
X153580000Y-86885000D01*
X146655000Y-83235000D02*
X153580000Y-83235000D01*
X146655000Y-86885000D02*
X146655000Y-83235000D01*
X153580000Y-86885000D02*
X146655000Y-86885000D01*
%TO.C,D4*%
X161690000Y-83025000D02*
X161690000Y-86675000D01*
X154765000Y-83025000D02*
X161690000Y-83025000D01*
X154765000Y-86675000D02*
X154765000Y-83025000D01*
X161690000Y-86675000D02*
X154765000Y-86675000D01*
%TO.C,D3*%
X187750000Y-65675000D02*
X187750000Y-69325000D01*
X180825000Y-65675000D02*
X187750000Y-65675000D01*
X180825000Y-69325000D02*
X180825000Y-65675000D01*
X187750000Y-69325000D02*
X180825000Y-69325000D01*
D10*
%TO.C,D2*%
X182930000Y-82930000D02*
X179570000Y-82930000D01*
X182930000Y-81030000D02*
X182930000Y-82930000D01*
X179570000Y-81030000D02*
X182930000Y-81030000D01*
X179570000Y-82930000D02*
X179570000Y-81030000D01*
%TO.C,D1*%
X158080000Y-82850000D02*
X154720000Y-82850000D01*
X158080000Y-80950000D02*
X158080000Y-82850000D01*
X154720000Y-80950000D02*
X158080000Y-80950000D01*
X154720000Y-82850000D02*
X154720000Y-80950000D01*
%TO.C,C16*%
X131385000Y-62300000D02*
X134345000Y-62300000D01*
X131385000Y-63760000D02*
X131385000Y-62300000D01*
X134345000Y-63760000D02*
X131385000Y-63760000D01*
X134345000Y-62300000D02*
X134345000Y-63760000D01*
%TO.C,C15*%
X134345000Y-65330000D02*
X131385000Y-65330000D01*
X134345000Y-63870000D02*
X134345000Y-65330000D01*
X131385000Y-63870000D02*
X134345000Y-63870000D01*
X131385000Y-65330000D02*
X131385000Y-63870000D01*
%TO.C,C13*%
X147280000Y-69280000D02*
X147280000Y-64680000D01*
X149580000Y-69280000D02*
X147280000Y-69280000D01*
X149580000Y-64680000D02*
X149580000Y-69280000D01*
X147280000Y-64680000D02*
X149580000Y-64680000D01*
%TO.C,C11*%
X149590000Y-70840000D02*
X146630000Y-70840000D01*
X149590000Y-69380000D02*
X149590000Y-70840000D01*
X146630000Y-69380000D02*
X149590000Y-69380000D01*
X146630000Y-70840000D02*
X146630000Y-69380000D01*
%TO.C,C10*%
X156560000Y-62220000D02*
X156560000Y-59260000D01*
X158020000Y-62220000D02*
X156560000Y-62220000D01*
X158020000Y-59260000D02*
X158020000Y-62220000D01*
X156560000Y-59260000D02*
X158020000Y-59260000D01*
%TO.C,C9*%
X158010000Y-65140000D02*
X158010000Y-68100000D01*
X156550000Y-65140000D02*
X158010000Y-65140000D01*
X156550000Y-68100000D02*
X156550000Y-65140000D01*
X158010000Y-68100000D02*
X156550000Y-68100000D01*
%TO.C,C6*%
X103955400Y-74936600D02*
X106915400Y-74936600D01*
X103955400Y-76396600D02*
X103955400Y-74936600D01*
X106915400Y-76396600D02*
X103955400Y-76396600D01*
X106915400Y-74936600D02*
X106915400Y-76396600D01*
%TO.C,C5*%
X180820000Y-69430000D02*
X183780000Y-69430000D01*
X180820000Y-70890000D02*
X180820000Y-69430000D01*
X183780000Y-70890000D02*
X180820000Y-70890000D01*
X183780000Y-69430000D02*
X183780000Y-70890000D01*
%TO.C,C4*%
X108058200Y-82734600D02*
X108058200Y-79774600D01*
X109518200Y-82734600D02*
X108058200Y-82734600D01*
X109518200Y-79774600D02*
X109518200Y-82734600D01*
X108058200Y-79774600D02*
X109518200Y-79774600D01*
%TO.C,C3*%
X125090000Y-82600000D02*
X125090000Y-79640000D01*
X126550000Y-82600000D02*
X125090000Y-82600000D01*
X126550000Y-79640000D02*
X126550000Y-82600000D01*
X125090000Y-79640000D02*
X126550000Y-79640000D01*
%TO.C,C2*%
X173488800Y-83203800D02*
X170528800Y-83203800D01*
X173488800Y-81743800D02*
X173488800Y-83203800D01*
X170528800Y-81743800D02*
X173488800Y-81743800D01*
X170528800Y-83203800D02*
X170528800Y-81743800D01*
%TO.C,C1*%
X146610000Y-81690000D02*
X149570000Y-81690000D01*
X146610000Y-83150000D02*
X146610000Y-81690000D01*
X149570000Y-83150000D02*
X146610000Y-83150000D01*
X149570000Y-81690000D02*
X149570000Y-83150000D01*
%TD*%
M02*
