%TF.GenerationSoftware,KiCad,Pcbnew,(5.1.10)-1*%
%TF.CreationDate,2021-12-03T15:52:50+05:30*%
%TF.ProjectId,Relay Board 2.0,52656c61-7920-4426-9f61-726420322e30,rev?*%
%TF.SameCoordinates,Original*%
%TF.FileFunction,Soldermask,Bot*%
%TF.FilePolarity,Negative*%
%FSLAX46Y46*%
G04 Gerber Fmt 4.6, Leading zero omitted, Abs format (unit mm)*
G04 Created by KiCad (PCBNEW (5.1.10)-1) date 2021-12-03 15:52:50*
%MOMM*%
%LPD*%
G01*
G04 APERTURE LIST*
%ADD10C,4.000000*%
%ADD11C,1.980000*%
%ADD12C,1.935000*%
%ADD13R,1.980000X1.980000*%
%ADD14C,1.700000*%
%ADD15O,1.700000X4.000000*%
%ADD16C,2.400000*%
%ADD17R,2.400000X2.400000*%
%ADD18C,1.500000*%
%ADD19O,1.700000X1.700000*%
%ADD20R,1.700000X1.700000*%
G04 APERTURE END LIST*
D10*
%TO.C,H4*%
X102440000Y-116570000D03*
%TD*%
%TO.C,H3*%
X187520000Y-116530000D03*
%TD*%
%TO.C,H2*%
X187460000Y-49430000D03*
%TD*%
%TO.C,H1*%
X102490000Y-49420000D03*
%TD*%
D11*
%TO.C,K3*%
X135360000Y-103000000D03*
X123360000Y-103000000D03*
X123360000Y-90800000D03*
D12*
X129360000Y-88800000D03*
D13*
X135360000Y-90800000D03*
%TD*%
D14*
%TO.C,J11*%
X163440000Y-55440000D03*
X165980000Y-55440000D03*
X168520000Y-55440000D03*
X171060000Y-55440000D03*
X173600000Y-55440000D03*
X163440000Y-52900000D03*
X165980000Y-52900000D03*
X168520000Y-52900000D03*
X171060000Y-52900000D03*
G36*
G01*
X173000000Y-52050000D02*
X174200000Y-52050000D01*
G75*
G02*
X174450000Y-52300000I0J-250000D01*
G01*
X174450000Y-53500000D01*
G75*
G02*
X174200000Y-53750000I-250000J0D01*
G01*
X173000000Y-53750000D01*
G75*
G02*
X172750000Y-53500000I0J250000D01*
G01*
X172750000Y-52300000D01*
G75*
G02*
X173000000Y-52050000I250000J0D01*
G01*
G37*
%TD*%
D15*
%TO.C,J10*%
X152789600Y-49330000D03*
X150249600Y-49330000D03*
X147709600Y-49330000D03*
X145169600Y-49330000D03*
X142629600Y-49330000D03*
X140089600Y-49330000D03*
%TD*%
D16*
%TO.C,J5*%
X118560000Y-112600000D03*
X113480000Y-112600000D03*
D17*
X108400000Y-112600000D03*
%TD*%
D16*
%TO.C,J4*%
X136110000Y-112600000D03*
X131030000Y-112600000D03*
D17*
X125950000Y-112600000D03*
%TD*%
D18*
%TO.C,PS1*%
X162950000Y-68265000D03*
X165490000Y-68265000D03*
X168030000Y-68265000D03*
%TD*%
D11*
%TO.C,K4*%
X118600000Y-103020000D03*
X106600000Y-103020000D03*
X106600000Y-90820000D03*
D12*
X112600000Y-88820000D03*
D13*
X118600000Y-90820000D03*
%TD*%
D11*
%TO.C,K2*%
X184600000Y-102910000D03*
X172600000Y-102910000D03*
X172600000Y-90710000D03*
D12*
X178600000Y-88710000D03*
D13*
X184600000Y-90710000D03*
%TD*%
D11*
%TO.C,K1*%
X160200000Y-103100000D03*
X148200000Y-103100000D03*
X148200000Y-90900000D03*
D12*
X154200000Y-88900000D03*
D13*
X160200000Y-90900000D03*
%TD*%
D19*
%TO.C,J9*%
X168700000Y-88800000D03*
X168700000Y-91340000D03*
X168700000Y-93880000D03*
X168700000Y-96420000D03*
X168700000Y-98960000D03*
D20*
X168700000Y-101500000D03*
%TD*%
D19*
%TO.C,J8*%
X144300000Y-88800000D03*
X144300000Y-91340000D03*
X144300000Y-93880000D03*
X144300000Y-96420000D03*
X144300000Y-98960000D03*
D20*
X144300000Y-101500000D03*
%TD*%
D14*
%TO.C,J7*%
X110620000Y-55440000D03*
X113160000Y-55440000D03*
X115700000Y-55440000D03*
X118240000Y-55440000D03*
X120780000Y-55440000D03*
X123320000Y-55440000D03*
X125860000Y-55440000D03*
X128400000Y-55440000D03*
X110620000Y-52900000D03*
X113160000Y-52900000D03*
X115700000Y-52900000D03*
X118240000Y-52900000D03*
X120780000Y-52900000D03*
X123320000Y-52900000D03*
X125860000Y-52900000D03*
G36*
G01*
X127800000Y-52050000D02*
X129000000Y-52050000D01*
G75*
G02*
X129250000Y-52300000I0J-250000D01*
G01*
X129250000Y-53500000D01*
G75*
G02*
X129000000Y-53750000I-250000J0D01*
G01*
X127800000Y-53750000D01*
G75*
G02*
X127550000Y-53500000I0J250000D01*
G01*
X127550000Y-52300000D01*
G75*
G02*
X127800000Y-52050000I250000J0D01*
G01*
G37*
%TD*%
D16*
%TO.C,J6*%
X105380000Y-67868800D03*
X105380000Y-62788800D03*
%TD*%
%TO.C,J3*%
X181540000Y-112620000D03*
X176460000Y-112620000D03*
X171380000Y-112620000D03*
X166300000Y-112620000D03*
%TD*%
%TO.C,J2*%
X158740000Y-112600000D03*
X153660000Y-112600000D03*
X148580000Y-112600000D03*
X143500000Y-112600000D03*
%TD*%
%TO.C,J1*%
X184210000Y-60490000D03*
X184210000Y-55410000D03*
%TD*%
M02*
