%TF.GenerationSoftware,KiCad,Pcbnew,(5.1.10)-1*%
%TF.CreationDate,2021-12-03T15:52:50+05:30*%
%TF.ProjectId,Relay Board 2.0,52656c61-7920-4426-9f61-726420322e30,rev?*%
%TF.SameCoordinates,Original*%
%TF.FileFunction,Soldermask,Top*%
%TF.FilePolarity,Negative*%
%FSLAX46Y46*%
G04 Gerber Fmt 4.6, Leading zero omitted, Abs format (unit mm)*
G04 Created by KiCad (PCBNEW (5.1.10)-1) date 2021-12-03 15:52:50*
%MOMM*%
%LPD*%
G01*
G04 APERTURE LIST*
%ADD10R,1.200000X0.900000*%
%ADD11C,4.000000*%
%ADD12C,1.980000*%
%ADD13C,1.935000*%
%ADD14R,1.980000X1.980000*%
%ADD15C,1.700000*%
%ADD16O,1.700000X4.000000*%
%ADD17C,2.400000*%
%ADD18R,2.400000X2.400000*%
%ADD19R,2.100000X5.600000*%
%ADD20R,1.550000X0.700000*%
%ADD21R,0.700000X1.550000*%
%ADD22R,1.150000X1.470000*%
%ADD23R,0.900000X0.800000*%
%ADD24C,1.500000*%
%ADD25R,2.150000X5.500000*%
%ADD26O,1.700000X1.700000*%
%ADD27R,1.700000X1.700000*%
%ADD28R,0.600000X1.500000*%
%ADD29R,1.500000X0.600000*%
%ADD30R,1.200000X0.750000*%
%ADD31R,1.150000X1.650000*%
%ADD32R,0.850000X1.050000*%
%ADD33R,1.050000X0.850000*%
G04 APERTURE END LIST*
D10*
%TO.C,D22*%
X178041300Y-62662800D03*
X178041300Y-65962800D03*
%TD*%
%TO.C,C17*%
G36*
G01*
X104013500Y-77179998D02*
X104013500Y-79030002D01*
G75*
G02*
X103763502Y-79280000I-249998J0D01*
G01*
X102938498Y-79280000D01*
G75*
G02*
X102688500Y-79030002I0J249998D01*
G01*
X102688500Y-77179998D01*
G75*
G02*
X102938498Y-76930000I249998J0D01*
G01*
X103763502Y-76930000D01*
G75*
G02*
X104013500Y-77179998I0J-249998D01*
G01*
G37*
G36*
G01*
X107088500Y-77179998D02*
X107088500Y-79030002D01*
G75*
G02*
X106838502Y-79280000I-249998J0D01*
G01*
X106013498Y-79280000D01*
G75*
G02*
X105763500Y-79030002I0J249998D01*
G01*
X105763500Y-77179998D01*
G75*
G02*
X106013498Y-76930000I249998J0D01*
G01*
X106838502Y-76930000D01*
G75*
G02*
X107088500Y-77179998I0J-249998D01*
G01*
G37*
%TD*%
%TO.C,D8*%
G36*
G01*
X131399700Y-82510950D02*
X131399700Y-81598450D01*
G75*
G02*
X131643450Y-81354700I243750J0D01*
G01*
X132130950Y-81354700D01*
G75*
G02*
X132374700Y-81598450I0J-243750D01*
G01*
X132374700Y-82510950D01*
G75*
G02*
X132130950Y-82754700I-243750J0D01*
G01*
X131643450Y-82754700D01*
G75*
G02*
X131399700Y-82510950I0J243750D01*
G01*
G37*
G36*
G01*
X129524700Y-82510950D02*
X129524700Y-81598450D01*
G75*
G02*
X129768450Y-81354700I243750J0D01*
G01*
X130255950Y-81354700D01*
G75*
G02*
X130499700Y-81598450I0J-243750D01*
G01*
X130499700Y-82510950D01*
G75*
G02*
X130255950Y-82754700I-243750J0D01*
G01*
X129768450Y-82754700D01*
G75*
G02*
X129524700Y-82510950I0J243750D01*
G01*
G37*
%TD*%
%TO.C,R13*%
G36*
G01*
X175480300Y-78174400D02*
X176030300Y-78174400D01*
G75*
G02*
X176230300Y-78374400I0J-200000D01*
G01*
X176230300Y-78774400D01*
G75*
G02*
X176030300Y-78974400I-200000J0D01*
G01*
X175480300Y-78974400D01*
G75*
G02*
X175280300Y-78774400I0J200000D01*
G01*
X175280300Y-78374400D01*
G75*
G02*
X175480300Y-78174400I200000J0D01*
G01*
G37*
G36*
G01*
X175480300Y-76524400D02*
X176030300Y-76524400D01*
G75*
G02*
X176230300Y-76724400I0J-200000D01*
G01*
X176230300Y-77124400D01*
G75*
G02*
X176030300Y-77324400I-200000J0D01*
G01*
X175480300Y-77324400D01*
G75*
G02*
X175280300Y-77124400I0J200000D01*
G01*
X175280300Y-76724400D01*
G75*
G02*
X175480300Y-76524400I200000J0D01*
G01*
G37*
%TD*%
D11*
%TO.C,H4*%
X102440000Y-116570000D03*
%TD*%
%TO.C,H3*%
X187520000Y-116530000D03*
%TD*%
%TO.C,H2*%
X187460000Y-49430000D03*
%TD*%
%TO.C,H1*%
X102490000Y-49420000D03*
%TD*%
%TO.C,C12*%
G36*
G01*
X170120000Y-72535000D02*
X170120000Y-73485000D01*
G75*
G02*
X169870000Y-73735000I-250000J0D01*
G01*
X169370000Y-73735000D01*
G75*
G02*
X169120000Y-73485000I0J250000D01*
G01*
X169120000Y-72535000D01*
G75*
G02*
X169370000Y-72285000I250000J0D01*
G01*
X169870000Y-72285000D01*
G75*
G02*
X170120000Y-72535000I0J-250000D01*
G01*
G37*
G36*
G01*
X172020000Y-72535000D02*
X172020000Y-73485000D01*
G75*
G02*
X171770000Y-73735000I-250000J0D01*
G01*
X171270000Y-73735000D01*
G75*
G02*
X171020000Y-73485000I0J250000D01*
G01*
X171020000Y-72535000D01*
G75*
G02*
X171270000Y-72285000I250000J0D01*
G01*
X171770000Y-72285000D01*
G75*
G02*
X172020000Y-72535000I0J-250000D01*
G01*
G37*
%TD*%
%TO.C,C8*%
G36*
G01*
X174644900Y-65514200D02*
X174644900Y-66464200D01*
G75*
G02*
X174394900Y-66714200I-250000J0D01*
G01*
X173894900Y-66714200D01*
G75*
G02*
X173644900Y-66464200I0J250000D01*
G01*
X173644900Y-65514200D01*
G75*
G02*
X173894900Y-65264200I250000J0D01*
G01*
X174394900Y-65264200D01*
G75*
G02*
X174644900Y-65514200I0J-250000D01*
G01*
G37*
G36*
G01*
X176544900Y-65514200D02*
X176544900Y-66464200D01*
G75*
G02*
X176294900Y-66714200I-250000J0D01*
G01*
X175794900Y-66714200D01*
G75*
G02*
X175544900Y-66464200I0J250000D01*
G01*
X175544900Y-65514200D01*
G75*
G02*
X175794900Y-65264200I250000J0D01*
G01*
X176294900Y-65264200D01*
G75*
G02*
X176544900Y-65514200I0J-250000D01*
G01*
G37*
%TD*%
%TO.C,C7*%
G36*
G01*
X174657600Y-67546200D02*
X174657600Y-68496200D01*
G75*
G02*
X174407600Y-68746200I-250000J0D01*
G01*
X173907600Y-68746200D01*
G75*
G02*
X173657600Y-68496200I0J250000D01*
G01*
X173657600Y-67546200D01*
G75*
G02*
X173907600Y-67296200I250000J0D01*
G01*
X174407600Y-67296200D01*
G75*
G02*
X174657600Y-67546200I0J-250000D01*
G01*
G37*
G36*
G01*
X176557600Y-67546200D02*
X176557600Y-68496200D01*
G75*
G02*
X176307600Y-68746200I-250000J0D01*
G01*
X175807600Y-68746200D01*
G75*
G02*
X175557600Y-68496200I0J250000D01*
G01*
X175557600Y-67546200D01*
G75*
G02*
X175807600Y-67296200I250000J0D01*
G01*
X176307600Y-67296200D01*
G75*
G02*
X176557600Y-67546200I0J-250000D01*
G01*
G37*
%TD*%
D12*
%TO.C,K3*%
X135360000Y-103000000D03*
X123360000Y-103000000D03*
X123360000Y-90800000D03*
D13*
X129360000Y-88800000D03*
D14*
X135360000Y-90800000D03*
%TD*%
D15*
%TO.C,J11*%
X163440000Y-55440000D03*
X165980000Y-55440000D03*
X168520000Y-55440000D03*
X171060000Y-55440000D03*
X173600000Y-55440000D03*
X163440000Y-52900000D03*
X165980000Y-52900000D03*
X168520000Y-52900000D03*
X171060000Y-52900000D03*
G36*
G01*
X173000000Y-52050000D02*
X174200000Y-52050000D01*
G75*
G02*
X174450000Y-52300000I0J-250000D01*
G01*
X174450000Y-53500000D01*
G75*
G02*
X174200000Y-53750000I-250000J0D01*
G01*
X173000000Y-53750000D01*
G75*
G02*
X172750000Y-53500000I0J250000D01*
G01*
X172750000Y-52300000D01*
G75*
G02*
X173000000Y-52050000I250000J0D01*
G01*
G37*
%TD*%
%TO.C,C14*%
G36*
G01*
X140595000Y-72810000D02*
X140595000Y-72310000D01*
G75*
G02*
X140820000Y-72085000I225000J0D01*
G01*
X141270000Y-72085000D01*
G75*
G02*
X141495000Y-72310000I0J-225000D01*
G01*
X141495000Y-72810000D01*
G75*
G02*
X141270000Y-73035000I-225000J0D01*
G01*
X140820000Y-73035000D01*
G75*
G02*
X140595000Y-72810000I0J225000D01*
G01*
G37*
G36*
G01*
X139045000Y-72810000D02*
X139045000Y-72310000D01*
G75*
G02*
X139270000Y-72085000I225000J0D01*
G01*
X139720000Y-72085000D01*
G75*
G02*
X139945000Y-72310000I0J-225000D01*
G01*
X139945000Y-72810000D01*
G75*
G02*
X139720000Y-73035000I-225000J0D01*
G01*
X139270000Y-73035000D01*
G75*
G02*
X139045000Y-72810000I0J225000D01*
G01*
G37*
%TD*%
D16*
%TO.C,J10*%
X152789600Y-49330000D03*
X150249600Y-49330000D03*
X147709600Y-49330000D03*
X145169600Y-49330000D03*
X142629600Y-49330000D03*
X140089600Y-49330000D03*
%TD*%
D17*
%TO.C,J5*%
X118560000Y-112600000D03*
X113480000Y-112600000D03*
D18*
X108400000Y-112600000D03*
%TD*%
D17*
%TO.C,J4*%
X136110000Y-112600000D03*
X131030000Y-112600000D03*
D18*
X125950000Y-112600000D03*
%TD*%
D19*
%TO.C,Y1*%
X153170000Y-58330000D03*
X153170000Y-67830000D03*
%TD*%
D20*
%TO.C,U3*%
X180990000Y-76430000D03*
X180990000Y-73890000D03*
X187490000Y-73890000D03*
X187490000Y-76430000D03*
%TD*%
D21*
%TO.C,U2*%
X115190000Y-80200000D03*
X112650000Y-80200000D03*
X112650000Y-73700000D03*
X115190000Y-73700000D03*
%TD*%
%TO.C,U1*%
X132090000Y-80021500D03*
X129550000Y-80021500D03*
X129550000Y-73521500D03*
X132090000Y-73521500D03*
%TD*%
D22*
%TO.C,RT1*%
X178490000Y-60170000D03*
X176730000Y-60170000D03*
%TD*%
%TO.C,R16*%
G36*
G01*
X136695000Y-72835000D02*
X136695000Y-72285000D01*
G75*
G02*
X136895000Y-72085000I200000J0D01*
G01*
X137295000Y-72085000D01*
G75*
G02*
X137495000Y-72285000I0J-200000D01*
G01*
X137495000Y-72835000D01*
G75*
G02*
X137295000Y-73035000I-200000J0D01*
G01*
X136895000Y-73035000D01*
G75*
G02*
X136695000Y-72835000I0J200000D01*
G01*
G37*
G36*
G01*
X135045000Y-72835000D02*
X135045000Y-72285000D01*
G75*
G02*
X135245000Y-72085000I200000J0D01*
G01*
X135645000Y-72085000D01*
G75*
G02*
X135845000Y-72285000I0J-200000D01*
G01*
X135845000Y-72835000D01*
G75*
G02*
X135645000Y-73035000I-200000J0D01*
G01*
X135245000Y-73035000D01*
G75*
G02*
X135045000Y-72835000I0J200000D01*
G01*
G37*
%TD*%
%TO.C,R15*%
G36*
G01*
X149515000Y-76445000D02*
X149515000Y-75895000D01*
G75*
G02*
X149715000Y-75695000I200000J0D01*
G01*
X150115000Y-75695000D01*
G75*
G02*
X150315000Y-75895000I0J-200000D01*
G01*
X150315000Y-76445000D01*
G75*
G02*
X150115000Y-76645000I-200000J0D01*
G01*
X149715000Y-76645000D01*
G75*
G02*
X149515000Y-76445000I0J200000D01*
G01*
G37*
G36*
G01*
X147865000Y-76445000D02*
X147865000Y-75895000D01*
G75*
G02*
X148065000Y-75695000I200000J0D01*
G01*
X148465000Y-75695000D01*
G75*
G02*
X148665000Y-75895000I0J-200000D01*
G01*
X148665000Y-76445000D01*
G75*
G02*
X148465000Y-76645000I-200000J0D01*
G01*
X148065000Y-76645000D01*
G75*
G02*
X147865000Y-76445000I0J200000D01*
G01*
G37*
%TD*%
%TO.C,R14*%
G36*
G01*
X148655000Y-74275000D02*
X148655000Y-74825000D01*
G75*
G02*
X148455000Y-75025000I-200000J0D01*
G01*
X148055000Y-75025000D01*
G75*
G02*
X147855000Y-74825000I0J200000D01*
G01*
X147855000Y-74275000D01*
G75*
G02*
X148055000Y-74075000I200000J0D01*
G01*
X148455000Y-74075000D01*
G75*
G02*
X148655000Y-74275000I0J-200000D01*
G01*
G37*
G36*
G01*
X150305000Y-74275000D02*
X150305000Y-74825000D01*
G75*
G02*
X150105000Y-75025000I-200000J0D01*
G01*
X149705000Y-75025000D01*
G75*
G02*
X149505000Y-74825000I0J200000D01*
G01*
X149505000Y-74275000D01*
G75*
G02*
X149705000Y-74075000I200000J0D01*
G01*
X150105000Y-74075000D01*
G75*
G02*
X150305000Y-74275000I0J-200000D01*
G01*
G37*
%TD*%
%TO.C,R12*%
G36*
G01*
X119455000Y-82785000D02*
X119455000Y-82235000D01*
G75*
G02*
X119655000Y-82035000I200000J0D01*
G01*
X120055000Y-82035000D01*
G75*
G02*
X120255000Y-82235000I0J-200000D01*
G01*
X120255000Y-82785000D01*
G75*
G02*
X120055000Y-82985000I-200000J0D01*
G01*
X119655000Y-82985000D01*
G75*
G02*
X119455000Y-82785000I0J200000D01*
G01*
G37*
G36*
G01*
X117805000Y-82785000D02*
X117805000Y-82235000D01*
G75*
G02*
X118005000Y-82035000I200000J0D01*
G01*
X118405000Y-82035000D01*
G75*
G02*
X118605000Y-82235000I0J-200000D01*
G01*
X118605000Y-82785000D01*
G75*
G02*
X118405000Y-82985000I-200000J0D01*
G01*
X118005000Y-82985000D01*
G75*
G02*
X117805000Y-82785000I0J200000D01*
G01*
G37*
%TD*%
%TO.C,R11*%
G36*
G01*
X134613200Y-82317000D02*
X134613200Y-81767000D01*
G75*
G02*
X134813200Y-81567000I200000J0D01*
G01*
X135213200Y-81567000D01*
G75*
G02*
X135413200Y-81767000I0J-200000D01*
G01*
X135413200Y-82317000D01*
G75*
G02*
X135213200Y-82517000I-200000J0D01*
G01*
X134813200Y-82517000D01*
G75*
G02*
X134613200Y-82317000I0J200000D01*
G01*
G37*
G36*
G01*
X132963200Y-82317000D02*
X132963200Y-81767000D01*
G75*
G02*
X133163200Y-81567000I200000J0D01*
G01*
X133563200Y-81567000D01*
G75*
G02*
X133763200Y-81767000I0J-200000D01*
G01*
X133763200Y-82317000D01*
G75*
G02*
X133563200Y-82517000I-200000J0D01*
G01*
X133163200Y-82517000D01*
G75*
G02*
X132963200Y-82317000I0J200000D01*
G01*
G37*
%TD*%
%TO.C,R10*%
G36*
G01*
X110585000Y-80829600D02*
X110035000Y-80829600D01*
G75*
G02*
X109835000Y-80629600I0J200000D01*
G01*
X109835000Y-80229600D01*
G75*
G02*
X110035000Y-80029600I200000J0D01*
G01*
X110585000Y-80029600D01*
G75*
G02*
X110785000Y-80229600I0J-200000D01*
G01*
X110785000Y-80629600D01*
G75*
G02*
X110585000Y-80829600I-200000J0D01*
G01*
G37*
G36*
G01*
X110585000Y-82479600D02*
X110035000Y-82479600D01*
G75*
G02*
X109835000Y-82279600I0J200000D01*
G01*
X109835000Y-81879600D01*
G75*
G02*
X110035000Y-81679600I200000J0D01*
G01*
X110585000Y-81679600D01*
G75*
G02*
X110785000Y-81879600I0J-200000D01*
G01*
X110785000Y-82279600D01*
G75*
G02*
X110585000Y-82479600I-200000J0D01*
G01*
G37*
%TD*%
%TO.C,R9*%
G36*
G01*
X127655000Y-80695000D02*
X127105000Y-80695000D01*
G75*
G02*
X126905000Y-80495000I0J200000D01*
G01*
X126905000Y-80095000D01*
G75*
G02*
X127105000Y-79895000I200000J0D01*
G01*
X127655000Y-79895000D01*
G75*
G02*
X127855000Y-80095000I0J-200000D01*
G01*
X127855000Y-80495000D01*
G75*
G02*
X127655000Y-80695000I-200000J0D01*
G01*
G37*
G36*
G01*
X127655000Y-82345000D02*
X127105000Y-82345000D01*
G75*
G02*
X126905000Y-82145000I0J200000D01*
G01*
X126905000Y-81745000D01*
G75*
G02*
X127105000Y-81545000I200000J0D01*
G01*
X127655000Y-81545000D01*
G75*
G02*
X127855000Y-81745000I0J-200000D01*
G01*
X127855000Y-82145000D01*
G75*
G02*
X127655000Y-82345000I-200000J0D01*
G01*
G37*
%TD*%
%TO.C,R8*%
G36*
G01*
X182315000Y-64565000D02*
X182315000Y-65115000D01*
G75*
G02*
X182115000Y-65315000I-200000J0D01*
G01*
X181715000Y-65315000D01*
G75*
G02*
X181515000Y-65115000I0J200000D01*
G01*
X181515000Y-64565000D01*
G75*
G02*
X181715000Y-64365000I200000J0D01*
G01*
X182115000Y-64365000D01*
G75*
G02*
X182315000Y-64565000I0J-200000D01*
G01*
G37*
G36*
G01*
X183965000Y-64565000D02*
X183965000Y-65115000D01*
G75*
G02*
X183765000Y-65315000I-200000J0D01*
G01*
X183365000Y-65315000D01*
G75*
G02*
X183165000Y-65115000I0J200000D01*
G01*
X183165000Y-64565000D01*
G75*
G02*
X183365000Y-64365000I200000J0D01*
G01*
X183765000Y-64365000D01*
G75*
G02*
X183965000Y-64565000I0J-200000D01*
G01*
G37*
%TD*%
%TO.C,R7*%
G36*
G01*
X187495000Y-65125000D02*
X187495000Y-64575000D01*
G75*
G02*
X187695000Y-64375000I200000J0D01*
G01*
X188095000Y-64375000D01*
G75*
G02*
X188295000Y-64575000I0J-200000D01*
G01*
X188295000Y-65125000D01*
G75*
G02*
X188095000Y-65325000I-200000J0D01*
G01*
X187695000Y-65325000D01*
G75*
G02*
X187495000Y-65125000I0J200000D01*
G01*
G37*
G36*
G01*
X185845000Y-65125000D02*
X185845000Y-64575000D01*
G75*
G02*
X186045000Y-64375000I200000J0D01*
G01*
X186445000Y-64375000D01*
G75*
G02*
X186645000Y-64575000I0J-200000D01*
G01*
X186645000Y-65125000D01*
G75*
G02*
X186445000Y-65325000I-200000J0D01*
G01*
X186045000Y-65325000D01*
G75*
G02*
X185845000Y-65125000I0J200000D01*
G01*
G37*
%TD*%
%TO.C,R6*%
G36*
G01*
X185195000Y-82235000D02*
X185195000Y-81685000D01*
G75*
G02*
X185395000Y-81485000I200000J0D01*
G01*
X185795000Y-81485000D01*
G75*
G02*
X185995000Y-81685000I0J-200000D01*
G01*
X185995000Y-82235000D01*
G75*
G02*
X185795000Y-82435000I-200000J0D01*
G01*
X185395000Y-82435000D01*
G75*
G02*
X185195000Y-82235000I0J200000D01*
G01*
G37*
G36*
G01*
X183545000Y-82235000D02*
X183545000Y-81685000D01*
G75*
G02*
X183745000Y-81485000I200000J0D01*
G01*
X184145000Y-81485000D01*
G75*
G02*
X184345000Y-81685000I0J-200000D01*
G01*
X184345000Y-82235000D01*
G75*
G02*
X184145000Y-82435000I-200000J0D01*
G01*
X183745000Y-82435000D01*
G75*
G02*
X183545000Y-82235000I0J200000D01*
G01*
G37*
%TD*%
%TO.C,R5*%
G36*
G01*
X160385000Y-82235000D02*
X160385000Y-81685000D01*
G75*
G02*
X160585000Y-81485000I200000J0D01*
G01*
X160985000Y-81485000D01*
G75*
G02*
X161185000Y-81685000I0J-200000D01*
G01*
X161185000Y-82235000D01*
G75*
G02*
X160985000Y-82435000I-200000J0D01*
G01*
X160585000Y-82435000D01*
G75*
G02*
X160385000Y-82235000I0J200000D01*
G01*
G37*
G36*
G01*
X158735000Y-82235000D02*
X158735000Y-81685000D01*
G75*
G02*
X158935000Y-81485000I200000J0D01*
G01*
X159335000Y-81485000D01*
G75*
G02*
X159535000Y-81685000I0J-200000D01*
G01*
X159535000Y-82235000D01*
G75*
G02*
X159335000Y-82435000I-200000J0D01*
G01*
X158935000Y-82435000D01*
G75*
G02*
X158735000Y-82235000I0J200000D01*
G01*
G37*
%TD*%
%TO.C,R4*%
G36*
G01*
X172425000Y-81215000D02*
X172425000Y-80665000D01*
G75*
G02*
X172625000Y-80465000I200000J0D01*
G01*
X173025000Y-80465000D01*
G75*
G02*
X173225000Y-80665000I0J-200000D01*
G01*
X173225000Y-81215000D01*
G75*
G02*
X173025000Y-81415000I-200000J0D01*
G01*
X172625000Y-81415000D01*
G75*
G02*
X172425000Y-81215000I0J200000D01*
G01*
G37*
G36*
G01*
X170775000Y-81215000D02*
X170775000Y-80665000D01*
G75*
G02*
X170975000Y-80465000I200000J0D01*
G01*
X171375000Y-80465000D01*
G75*
G02*
X171575000Y-80665000I0J-200000D01*
G01*
X171575000Y-81215000D01*
G75*
G02*
X171375000Y-81415000I-200000J0D01*
G01*
X170975000Y-81415000D01*
G75*
G02*
X170775000Y-81215000I0J200000D01*
G01*
G37*
%TD*%
%TO.C,R3*%
G36*
G01*
X148505000Y-81125000D02*
X148505000Y-80575000D01*
G75*
G02*
X148705000Y-80375000I200000J0D01*
G01*
X149105000Y-80375000D01*
G75*
G02*
X149305000Y-80575000I0J-200000D01*
G01*
X149305000Y-81125000D01*
G75*
G02*
X149105000Y-81325000I-200000J0D01*
G01*
X148705000Y-81325000D01*
G75*
G02*
X148505000Y-81125000I0J200000D01*
G01*
G37*
G36*
G01*
X146855000Y-81125000D02*
X146855000Y-80575000D01*
G75*
G02*
X147055000Y-80375000I200000J0D01*
G01*
X147455000Y-80375000D01*
G75*
G02*
X147655000Y-80575000I0J-200000D01*
G01*
X147655000Y-81125000D01*
G75*
G02*
X147455000Y-81325000I-200000J0D01*
G01*
X147055000Y-81325000D01*
G75*
G02*
X146855000Y-81125000I0J200000D01*
G01*
G37*
%TD*%
%TO.C,R2*%
G36*
G01*
X110254600Y-74531900D02*
X110254600Y-73981900D01*
G75*
G02*
X110454600Y-73781900I200000J0D01*
G01*
X110854600Y-73781900D01*
G75*
G02*
X111054600Y-73981900I0J-200000D01*
G01*
X111054600Y-74531900D01*
G75*
G02*
X110854600Y-74731900I-200000J0D01*
G01*
X110454600Y-74731900D01*
G75*
G02*
X110254600Y-74531900I0J200000D01*
G01*
G37*
G36*
G01*
X108604600Y-74531900D02*
X108604600Y-73981900D01*
G75*
G02*
X108804600Y-73781900I200000J0D01*
G01*
X109204600Y-73781900D01*
G75*
G02*
X109404600Y-73981900I0J-200000D01*
G01*
X109404600Y-74531900D01*
G75*
G02*
X109204600Y-74731900I-200000J0D01*
G01*
X108804600Y-74731900D01*
G75*
G02*
X108604600Y-74531900I0J200000D01*
G01*
G37*
%TD*%
%TO.C,R1*%
G36*
G01*
X127132900Y-74277900D02*
X127132900Y-73727900D01*
G75*
G02*
X127332900Y-73527900I200000J0D01*
G01*
X127732900Y-73527900D01*
G75*
G02*
X127932900Y-73727900I0J-200000D01*
G01*
X127932900Y-74277900D01*
G75*
G02*
X127732900Y-74477900I-200000J0D01*
G01*
X127332900Y-74477900D01*
G75*
G02*
X127132900Y-74277900I0J200000D01*
G01*
G37*
G36*
G01*
X125482900Y-74277900D02*
X125482900Y-73727900D01*
G75*
G02*
X125682900Y-73527900I200000J0D01*
G01*
X126082900Y-73527900D01*
G75*
G02*
X126282900Y-73727900I0J-200000D01*
G01*
X126282900Y-74277900D01*
G75*
G02*
X126082900Y-74477900I-200000J0D01*
G01*
X125682900Y-74477900D01*
G75*
G02*
X125482900Y-74277900I0J200000D01*
G01*
G37*
%TD*%
D23*
%TO.C,Q4*%
X107290000Y-81534000D03*
X105290000Y-82484000D03*
X105290000Y-80584000D03*
%TD*%
%TO.C,Q3*%
X124200000Y-81310000D03*
X122200000Y-82260000D03*
X122200000Y-80360000D03*
%TD*%
%TO.C,Q2*%
X176710000Y-81460000D03*
X174710000Y-82410000D03*
X174710000Y-80510000D03*
%TD*%
%TO.C,Q1*%
X152670000Y-81390000D03*
X150670000Y-82340000D03*
X150670000Y-80440000D03*
%TD*%
D24*
%TO.C,PS1*%
X162950000Y-68265000D03*
X165490000Y-68265000D03*
X168030000Y-68265000D03*
%TD*%
%TO.C,L2*%
G36*
G01*
X131580600Y-61460001D02*
X131580600Y-60059999D01*
G75*
G02*
X131830599Y-59810000I249999J0D01*
G01*
X132380601Y-59810000D01*
G75*
G02*
X132630600Y-60059999I0J-249999D01*
G01*
X132630600Y-61460001D01*
G75*
G02*
X132380601Y-61710000I-249999J0D01*
G01*
X131830599Y-61710000D01*
G75*
G02*
X131580600Y-61460001I0J249999D01*
G01*
G37*
G36*
G01*
X128430600Y-61460001D02*
X128430600Y-60059999D01*
G75*
G02*
X128680599Y-59810000I249999J0D01*
G01*
X129230601Y-59810000D01*
G75*
G02*
X129480600Y-60059999I0J-249999D01*
G01*
X129480600Y-61460001D01*
G75*
G02*
X129230601Y-61710000I-249999J0D01*
G01*
X128680599Y-61710000D01*
G75*
G02*
X128430600Y-61460001I0J249999D01*
G01*
G37*
%TD*%
D25*
%TO.C,L1*%
X174363700Y-72656700D03*
X178213700Y-72656700D03*
%TD*%
D12*
%TO.C,K4*%
X118600000Y-103020000D03*
X106600000Y-103020000D03*
X106600000Y-90820000D03*
D13*
X112600000Y-88820000D03*
D14*
X118600000Y-90820000D03*
%TD*%
D12*
%TO.C,K2*%
X184600000Y-102910000D03*
X172600000Y-102910000D03*
X172600000Y-90710000D03*
D13*
X178600000Y-88710000D03*
D14*
X184600000Y-90710000D03*
%TD*%
D12*
%TO.C,K1*%
X160200000Y-103100000D03*
X148200000Y-103100000D03*
X148200000Y-90900000D03*
D13*
X154200000Y-88900000D03*
D14*
X160200000Y-90900000D03*
%TD*%
D26*
%TO.C,J9*%
X168700000Y-88800000D03*
X168700000Y-91340000D03*
X168700000Y-93880000D03*
X168700000Y-96420000D03*
X168700000Y-98960000D03*
D27*
X168700000Y-101500000D03*
%TD*%
D26*
%TO.C,J8*%
X144300000Y-88800000D03*
X144300000Y-91340000D03*
X144300000Y-93880000D03*
X144300000Y-96420000D03*
X144300000Y-98960000D03*
D27*
X144300000Y-101500000D03*
%TD*%
D15*
%TO.C,J7*%
X110620000Y-55440000D03*
X113160000Y-55440000D03*
X115700000Y-55440000D03*
X118240000Y-55440000D03*
X120780000Y-55440000D03*
X123320000Y-55440000D03*
X125860000Y-55440000D03*
X128400000Y-55440000D03*
X110620000Y-52900000D03*
X113160000Y-52900000D03*
X115700000Y-52900000D03*
X118240000Y-52900000D03*
X120780000Y-52900000D03*
X123320000Y-52900000D03*
X125860000Y-52900000D03*
G36*
G01*
X127800000Y-52050000D02*
X129000000Y-52050000D01*
G75*
G02*
X129250000Y-52300000I0J-250000D01*
G01*
X129250000Y-53500000D01*
G75*
G02*
X129000000Y-53750000I-250000J0D01*
G01*
X127800000Y-53750000D01*
G75*
G02*
X127550000Y-53500000I0J250000D01*
G01*
X127550000Y-52300000D01*
G75*
G02*
X127800000Y-52050000I250000J0D01*
G01*
G37*
%TD*%
D17*
%TO.C,J6*%
X105380000Y-67868800D03*
X105380000Y-62788800D03*
%TD*%
%TO.C,J3*%
X181540000Y-112620000D03*
X176460000Y-112620000D03*
X171380000Y-112620000D03*
X166300000Y-112620000D03*
%TD*%
%TO.C,J2*%
X158740000Y-112600000D03*
X153660000Y-112600000D03*
X148580000Y-112600000D03*
X143500000Y-112600000D03*
%TD*%
%TO.C,J1*%
X184210000Y-60490000D03*
X184210000Y-55410000D03*
%TD*%
D28*
%TO.C,IC1*%
X143500000Y-69350000D03*
X142700000Y-69350000D03*
X141900000Y-69350000D03*
X141100000Y-69350000D03*
X140300000Y-69350000D03*
X139500000Y-69350000D03*
X138700000Y-69350000D03*
X137900000Y-69350000D03*
D29*
X136450000Y-67900000D03*
X136450000Y-67100000D03*
X136450000Y-66300000D03*
X136450000Y-65500000D03*
X136450000Y-64700000D03*
X136450000Y-63900000D03*
X136450000Y-63100000D03*
X136450000Y-62300000D03*
D28*
X137900000Y-60850000D03*
X138700000Y-60850000D03*
X139500000Y-60850000D03*
X140300000Y-60850000D03*
X141100000Y-60850000D03*
X141900000Y-60850000D03*
X142700000Y-60850000D03*
X143500000Y-60850000D03*
D29*
X144950000Y-62300000D03*
X144950000Y-63100000D03*
X144950000Y-63900000D03*
X144950000Y-64700000D03*
X144950000Y-65500000D03*
X144950000Y-66300000D03*
X144950000Y-67100000D03*
X144950000Y-67900000D03*
%TD*%
D30*
%TO.C,D21*%
X143508200Y-78867000D03*
X140108200Y-78867000D03*
%TD*%
D31*
%TO.C,D20*%
X140150000Y-75200000D03*
X136850000Y-75200000D03*
%TD*%
D32*
%TO.C,D19*%
X174080000Y-59972800D03*
X174080000Y-63572800D03*
%TD*%
D33*
%TO.C,D18*%
X102568600Y-73152000D03*
X106168600Y-73152000D03*
%TD*%
%TO.C,D17*%
X165180000Y-105100000D03*
X168780000Y-105100000D03*
%TD*%
%TO.C,D16*%
X140790000Y-105080000D03*
X144390000Y-105080000D03*
%TD*%
%TO.C,D15*%
G36*
G01*
X177743700Y-77826550D02*
X177743700Y-78739050D01*
G75*
G02*
X177499950Y-78982800I-243750J0D01*
G01*
X177012450Y-78982800D01*
G75*
G02*
X176768700Y-78739050I0J243750D01*
G01*
X176768700Y-77826550D01*
G75*
G02*
X177012450Y-77582800I243750J0D01*
G01*
X177499950Y-77582800D01*
G75*
G02*
X177743700Y-77826550I0J-243750D01*
G01*
G37*
G36*
G01*
X179618700Y-77826550D02*
X179618700Y-78739050D01*
G75*
G02*
X179374950Y-78982800I-243750J0D01*
G01*
X178887450Y-78982800D01*
G75*
G02*
X178643700Y-78739050I0J243750D01*
G01*
X178643700Y-77826550D01*
G75*
G02*
X178887450Y-77582800I243750J0D01*
G01*
X179374950Y-77582800D01*
G75*
G02*
X179618700Y-77826550I0J-243750D01*
G01*
G37*
%TD*%
D31*
%TO.C,D14*%
X106198400Y-85191600D03*
X109498400Y-85191600D03*
%TD*%
%TO.C,D13*%
X115190000Y-85150000D03*
X118490000Y-85150000D03*
%TD*%
%TO.C,D12*%
X123050000Y-84980000D03*
X126350000Y-84980000D03*
%TD*%
%TO.C,D11*%
X132110000Y-84970000D03*
X135410000Y-84970000D03*
%TD*%
%TO.C,D10*%
G36*
G01*
X185650000Y-69903750D02*
X185650000Y-70816250D01*
G75*
G02*
X185406250Y-71060000I-243750J0D01*
G01*
X184918750Y-71060000D01*
G75*
G02*
X184675000Y-70816250I0J243750D01*
G01*
X184675000Y-69903750D01*
G75*
G02*
X184918750Y-69660000I243750J0D01*
G01*
X185406250Y-69660000D01*
G75*
G02*
X185650000Y-69903750I0J-243750D01*
G01*
G37*
G36*
G01*
X187525000Y-69903750D02*
X187525000Y-70816250D01*
G75*
G02*
X187281250Y-71060000I-243750J0D01*
G01*
X186793750Y-71060000D01*
G75*
G02*
X186550000Y-70816250I0J243750D01*
G01*
X186550000Y-69903750D01*
G75*
G02*
X186793750Y-69660000I243750J0D01*
G01*
X187281250Y-69660000D01*
G75*
G02*
X187525000Y-69903750I0J-243750D01*
G01*
G37*
%TD*%
%TO.C,D9*%
G36*
G01*
X115730000Y-82706250D02*
X115730000Y-81793750D01*
G75*
G02*
X115973750Y-81550000I243750J0D01*
G01*
X116461250Y-81550000D01*
G75*
G02*
X116705000Y-81793750I0J-243750D01*
G01*
X116705000Y-82706250D01*
G75*
G02*
X116461250Y-82950000I-243750J0D01*
G01*
X115973750Y-82950000D01*
G75*
G02*
X115730000Y-82706250I0J243750D01*
G01*
G37*
G36*
G01*
X113855000Y-82706250D02*
X113855000Y-81793750D01*
G75*
G02*
X114098750Y-81550000I243750J0D01*
G01*
X114586250Y-81550000D01*
G75*
G02*
X114830000Y-81793750I0J-243750D01*
G01*
X114830000Y-82706250D01*
G75*
G02*
X114586250Y-82950000I-243750J0D01*
G01*
X114098750Y-82950000D01*
G75*
G02*
X113855000Y-82706250I0J243750D01*
G01*
G37*
%TD*%
%TO.C,D7*%
X172080000Y-85130000D03*
X175380000Y-85130000D03*
%TD*%
%TO.C,D6*%
X181040000Y-85070000D03*
X184340000Y-85070000D03*
%TD*%
%TO.C,D5*%
X148230000Y-85060000D03*
X151530000Y-85060000D03*
%TD*%
%TO.C,D4*%
X156340000Y-84850000D03*
X159640000Y-84850000D03*
%TD*%
%TO.C,D3*%
X182400000Y-67500000D03*
X185700000Y-67500000D03*
%TD*%
%TO.C,D2*%
G36*
G01*
X181700000Y-82436250D02*
X181700000Y-81523750D01*
G75*
G02*
X181943750Y-81280000I243750J0D01*
G01*
X182431250Y-81280000D01*
G75*
G02*
X182675000Y-81523750I0J-243750D01*
G01*
X182675000Y-82436250D01*
G75*
G02*
X182431250Y-82680000I-243750J0D01*
G01*
X181943750Y-82680000D01*
G75*
G02*
X181700000Y-82436250I0J243750D01*
G01*
G37*
G36*
G01*
X179825000Y-82436250D02*
X179825000Y-81523750D01*
G75*
G02*
X180068750Y-81280000I243750J0D01*
G01*
X180556250Y-81280000D01*
G75*
G02*
X180800000Y-81523750I0J-243750D01*
G01*
X180800000Y-82436250D01*
G75*
G02*
X180556250Y-82680000I-243750J0D01*
G01*
X180068750Y-82680000D01*
G75*
G02*
X179825000Y-82436250I0J243750D01*
G01*
G37*
%TD*%
%TO.C,D1*%
G36*
G01*
X156850000Y-82356250D02*
X156850000Y-81443750D01*
G75*
G02*
X157093750Y-81200000I243750J0D01*
G01*
X157581250Y-81200000D01*
G75*
G02*
X157825000Y-81443750I0J-243750D01*
G01*
X157825000Y-82356250D01*
G75*
G02*
X157581250Y-82600000I-243750J0D01*
G01*
X157093750Y-82600000D01*
G75*
G02*
X156850000Y-82356250I0J243750D01*
G01*
G37*
G36*
G01*
X154975000Y-82356250D02*
X154975000Y-81443750D01*
G75*
G02*
X155218750Y-81200000I243750J0D01*
G01*
X155706250Y-81200000D01*
G75*
G02*
X155950000Y-81443750I0J-243750D01*
G01*
X155950000Y-82356250D01*
G75*
G02*
X155706250Y-82600000I-243750J0D01*
G01*
X155218750Y-82600000D01*
G75*
G02*
X154975000Y-82356250I0J243750D01*
G01*
G37*
%TD*%
%TO.C,C16*%
G36*
G01*
X132540000Y-62780000D02*
X132540000Y-63280000D01*
G75*
G02*
X132315000Y-63505000I-225000J0D01*
G01*
X131865000Y-63505000D01*
G75*
G02*
X131640000Y-63280000I0J225000D01*
G01*
X131640000Y-62780000D01*
G75*
G02*
X131865000Y-62555000I225000J0D01*
G01*
X132315000Y-62555000D01*
G75*
G02*
X132540000Y-62780000I0J-225000D01*
G01*
G37*
G36*
G01*
X134090000Y-62780000D02*
X134090000Y-63280000D01*
G75*
G02*
X133865000Y-63505000I-225000J0D01*
G01*
X133415000Y-63505000D01*
G75*
G02*
X133190000Y-63280000I0J225000D01*
G01*
X133190000Y-62780000D01*
G75*
G02*
X133415000Y-62555000I225000J0D01*
G01*
X133865000Y-62555000D01*
G75*
G02*
X134090000Y-62780000I0J-225000D01*
G01*
G37*
%TD*%
%TO.C,C15*%
G36*
G01*
X133190000Y-64850000D02*
X133190000Y-64350000D01*
G75*
G02*
X133415000Y-64125000I225000J0D01*
G01*
X133865000Y-64125000D01*
G75*
G02*
X134090000Y-64350000I0J-225000D01*
G01*
X134090000Y-64850000D01*
G75*
G02*
X133865000Y-65075000I-225000J0D01*
G01*
X133415000Y-65075000D01*
G75*
G02*
X133190000Y-64850000I0J225000D01*
G01*
G37*
G36*
G01*
X131640000Y-64850000D02*
X131640000Y-64350000D01*
G75*
G02*
X131865000Y-64125000I225000J0D01*
G01*
X132315000Y-64125000D01*
G75*
G02*
X132540000Y-64350000I0J-225000D01*
G01*
X132540000Y-64850000D01*
G75*
G02*
X132315000Y-65075000I-225000J0D01*
G01*
X131865000Y-65075000D01*
G75*
G02*
X131640000Y-64850000I0J225000D01*
G01*
G37*
%TD*%
%TO.C,C13*%
G36*
G01*
X147779999Y-67880000D02*
X149080001Y-67880000D01*
G75*
G02*
X149330000Y-68129999I0J-249999D01*
G01*
X149330000Y-68780001D01*
G75*
G02*
X149080001Y-69030000I-249999J0D01*
G01*
X147779999Y-69030000D01*
G75*
G02*
X147530000Y-68780001I0J249999D01*
G01*
X147530000Y-68129999D01*
G75*
G02*
X147779999Y-67880000I249999J0D01*
G01*
G37*
G36*
G01*
X147779999Y-64930000D02*
X149080001Y-64930000D01*
G75*
G02*
X149330000Y-65179999I0J-249999D01*
G01*
X149330000Y-65830001D01*
G75*
G02*
X149080001Y-66080000I-249999J0D01*
G01*
X147779999Y-66080000D01*
G75*
G02*
X147530000Y-65830001I0J249999D01*
G01*
X147530000Y-65179999D01*
G75*
G02*
X147779999Y-64930000I249999J0D01*
G01*
G37*
%TD*%
%TO.C,C11*%
G36*
G01*
X148435000Y-70360000D02*
X148435000Y-69860000D01*
G75*
G02*
X148660000Y-69635000I225000J0D01*
G01*
X149110000Y-69635000D01*
G75*
G02*
X149335000Y-69860000I0J-225000D01*
G01*
X149335000Y-70360000D01*
G75*
G02*
X149110000Y-70585000I-225000J0D01*
G01*
X148660000Y-70585000D01*
G75*
G02*
X148435000Y-70360000I0J225000D01*
G01*
G37*
G36*
G01*
X146885000Y-70360000D02*
X146885000Y-69860000D01*
G75*
G02*
X147110000Y-69635000I225000J0D01*
G01*
X147560000Y-69635000D01*
G75*
G02*
X147785000Y-69860000I0J-225000D01*
G01*
X147785000Y-70360000D01*
G75*
G02*
X147560000Y-70585000I-225000J0D01*
G01*
X147110000Y-70585000D01*
G75*
G02*
X146885000Y-70360000I0J225000D01*
G01*
G37*
%TD*%
%TO.C,C10*%
G36*
G01*
X157040000Y-61065000D02*
X157540000Y-61065000D01*
G75*
G02*
X157765000Y-61290000I0J-225000D01*
G01*
X157765000Y-61740000D01*
G75*
G02*
X157540000Y-61965000I-225000J0D01*
G01*
X157040000Y-61965000D01*
G75*
G02*
X156815000Y-61740000I0J225000D01*
G01*
X156815000Y-61290000D01*
G75*
G02*
X157040000Y-61065000I225000J0D01*
G01*
G37*
G36*
G01*
X157040000Y-59515000D02*
X157540000Y-59515000D01*
G75*
G02*
X157765000Y-59740000I0J-225000D01*
G01*
X157765000Y-60190000D01*
G75*
G02*
X157540000Y-60415000I-225000J0D01*
G01*
X157040000Y-60415000D01*
G75*
G02*
X156815000Y-60190000I0J225000D01*
G01*
X156815000Y-59740000D01*
G75*
G02*
X157040000Y-59515000I225000J0D01*
G01*
G37*
%TD*%
%TO.C,C9*%
G36*
G01*
X157530000Y-66295000D02*
X157030000Y-66295000D01*
G75*
G02*
X156805000Y-66070000I0J225000D01*
G01*
X156805000Y-65620000D01*
G75*
G02*
X157030000Y-65395000I225000J0D01*
G01*
X157530000Y-65395000D01*
G75*
G02*
X157755000Y-65620000I0J-225000D01*
G01*
X157755000Y-66070000D01*
G75*
G02*
X157530000Y-66295000I-225000J0D01*
G01*
G37*
G36*
G01*
X157530000Y-67845000D02*
X157030000Y-67845000D01*
G75*
G02*
X156805000Y-67620000I0J225000D01*
G01*
X156805000Y-67170000D01*
G75*
G02*
X157030000Y-66945000I225000J0D01*
G01*
X157530000Y-66945000D01*
G75*
G02*
X157755000Y-67170000I0J-225000D01*
G01*
X157755000Y-67620000D01*
G75*
G02*
X157530000Y-67845000I-225000J0D01*
G01*
G37*
%TD*%
%TO.C,C6*%
G36*
G01*
X105110400Y-75416600D02*
X105110400Y-75916600D01*
G75*
G02*
X104885400Y-76141600I-225000J0D01*
G01*
X104435400Y-76141600D01*
G75*
G02*
X104210400Y-75916600I0J225000D01*
G01*
X104210400Y-75416600D01*
G75*
G02*
X104435400Y-75191600I225000J0D01*
G01*
X104885400Y-75191600D01*
G75*
G02*
X105110400Y-75416600I0J-225000D01*
G01*
G37*
G36*
G01*
X106660400Y-75416600D02*
X106660400Y-75916600D01*
G75*
G02*
X106435400Y-76141600I-225000J0D01*
G01*
X105985400Y-76141600D01*
G75*
G02*
X105760400Y-75916600I0J225000D01*
G01*
X105760400Y-75416600D01*
G75*
G02*
X105985400Y-75191600I225000J0D01*
G01*
X106435400Y-75191600D01*
G75*
G02*
X106660400Y-75416600I0J-225000D01*
G01*
G37*
%TD*%
%TO.C,C5*%
G36*
G01*
X181975000Y-69910000D02*
X181975000Y-70410000D01*
G75*
G02*
X181750000Y-70635000I-225000J0D01*
G01*
X181300000Y-70635000D01*
G75*
G02*
X181075000Y-70410000I0J225000D01*
G01*
X181075000Y-69910000D01*
G75*
G02*
X181300000Y-69685000I225000J0D01*
G01*
X181750000Y-69685000D01*
G75*
G02*
X181975000Y-69910000I0J-225000D01*
G01*
G37*
G36*
G01*
X183525000Y-69910000D02*
X183525000Y-70410000D01*
G75*
G02*
X183300000Y-70635000I-225000J0D01*
G01*
X182850000Y-70635000D01*
G75*
G02*
X182625000Y-70410000I0J225000D01*
G01*
X182625000Y-69910000D01*
G75*
G02*
X182850000Y-69685000I225000J0D01*
G01*
X183300000Y-69685000D01*
G75*
G02*
X183525000Y-69910000I0J-225000D01*
G01*
G37*
%TD*%
%TO.C,C4*%
G36*
G01*
X108538200Y-81579600D02*
X109038200Y-81579600D01*
G75*
G02*
X109263200Y-81804600I0J-225000D01*
G01*
X109263200Y-82254600D01*
G75*
G02*
X109038200Y-82479600I-225000J0D01*
G01*
X108538200Y-82479600D01*
G75*
G02*
X108313200Y-82254600I0J225000D01*
G01*
X108313200Y-81804600D01*
G75*
G02*
X108538200Y-81579600I225000J0D01*
G01*
G37*
G36*
G01*
X108538200Y-80029600D02*
X109038200Y-80029600D01*
G75*
G02*
X109263200Y-80254600I0J-225000D01*
G01*
X109263200Y-80704600D01*
G75*
G02*
X109038200Y-80929600I-225000J0D01*
G01*
X108538200Y-80929600D01*
G75*
G02*
X108313200Y-80704600I0J225000D01*
G01*
X108313200Y-80254600D01*
G75*
G02*
X108538200Y-80029600I225000J0D01*
G01*
G37*
%TD*%
%TO.C,C3*%
G36*
G01*
X125570000Y-81445000D02*
X126070000Y-81445000D01*
G75*
G02*
X126295000Y-81670000I0J-225000D01*
G01*
X126295000Y-82120000D01*
G75*
G02*
X126070000Y-82345000I-225000J0D01*
G01*
X125570000Y-82345000D01*
G75*
G02*
X125345000Y-82120000I0J225000D01*
G01*
X125345000Y-81670000D01*
G75*
G02*
X125570000Y-81445000I225000J0D01*
G01*
G37*
G36*
G01*
X125570000Y-79895000D02*
X126070000Y-79895000D01*
G75*
G02*
X126295000Y-80120000I0J-225000D01*
G01*
X126295000Y-80570000D01*
G75*
G02*
X126070000Y-80795000I-225000J0D01*
G01*
X125570000Y-80795000D01*
G75*
G02*
X125345000Y-80570000I0J225000D01*
G01*
X125345000Y-80120000D01*
G75*
G02*
X125570000Y-79895000I225000J0D01*
G01*
G37*
%TD*%
%TO.C,C2*%
G36*
G01*
X172333800Y-82723800D02*
X172333800Y-82223800D01*
G75*
G02*
X172558800Y-81998800I225000J0D01*
G01*
X173008800Y-81998800D01*
G75*
G02*
X173233800Y-82223800I0J-225000D01*
G01*
X173233800Y-82723800D01*
G75*
G02*
X173008800Y-82948800I-225000J0D01*
G01*
X172558800Y-82948800D01*
G75*
G02*
X172333800Y-82723800I0J225000D01*
G01*
G37*
G36*
G01*
X170783800Y-82723800D02*
X170783800Y-82223800D01*
G75*
G02*
X171008800Y-81998800I225000J0D01*
G01*
X171458800Y-81998800D01*
G75*
G02*
X171683800Y-82223800I0J-225000D01*
G01*
X171683800Y-82723800D01*
G75*
G02*
X171458800Y-82948800I-225000J0D01*
G01*
X171008800Y-82948800D01*
G75*
G02*
X170783800Y-82723800I0J225000D01*
G01*
G37*
%TD*%
%TO.C,C1*%
G36*
G01*
X147765000Y-82170000D02*
X147765000Y-82670000D01*
G75*
G02*
X147540000Y-82895000I-225000J0D01*
G01*
X147090000Y-82895000D01*
G75*
G02*
X146865000Y-82670000I0J225000D01*
G01*
X146865000Y-82170000D01*
G75*
G02*
X147090000Y-81945000I225000J0D01*
G01*
X147540000Y-81945000D01*
G75*
G02*
X147765000Y-82170000I0J-225000D01*
G01*
G37*
G36*
G01*
X149315000Y-82170000D02*
X149315000Y-82670000D01*
G75*
G02*
X149090000Y-82895000I-225000J0D01*
G01*
X148640000Y-82895000D01*
G75*
G02*
X148415000Y-82670000I0J225000D01*
G01*
X148415000Y-82170000D01*
G75*
G02*
X148640000Y-81945000I225000J0D01*
G01*
X149090000Y-81945000D01*
G75*
G02*
X149315000Y-82170000I0J-225000D01*
G01*
G37*
%TD*%
M02*
