%TF.GenerationSoftware,KiCad,Pcbnew,(5.1.10)-1*%
%TF.CreationDate,2021-12-03T15:52:50+05:30*%
%TF.ProjectId,Relay Board 2.0,52656c61-7920-4426-9f61-726420322e30,rev?*%
%TF.SameCoordinates,Original*%
%TF.FileFunction,Legend,Top*%
%TF.FilePolarity,Positive*%
%FSLAX46Y46*%
G04 Gerber Fmt 4.6, Leading zero omitted, Abs format (unit mm)*
G04 Created by KiCad (PCBNEW (5.1.10)-1) date 2021-12-03 15:52:50*
%MOMM*%
%LPD*%
G01*
G04 APERTURE LIST*
%ADD10C,0.100000*%
%ADD11C,0.120000*%
%ADD12C,0.300000*%
%ADD13C,0.010000*%
%ADD14C,0.127000*%
%ADD15C,0.200000*%
%ADD16C,0.400000*%
G04 APERTURE END LIST*
D10*
X166593414Y-59620957D02*
X166212461Y-59763814D01*
X166593414Y-59906671D01*
X166831509Y-59763814D02*
X167212461Y-59763814D01*
X167736271Y-59954290D02*
X167569604Y-59716195D01*
X167450557Y-59954290D02*
X167450557Y-59454290D01*
X167641033Y-59454290D01*
X167688652Y-59478100D01*
X167712461Y-59501909D01*
X167736271Y-59549528D01*
X167736271Y-59620957D01*
X167712461Y-59668576D01*
X167688652Y-59692385D01*
X167641033Y-59716195D01*
X167450557Y-59716195D01*
X167950557Y-59692385D02*
X168117223Y-59692385D01*
X168188652Y-59954290D02*
X167950557Y-59954290D01*
X167950557Y-59454290D01*
X168188652Y-59454290D01*
X168641033Y-59954290D02*
X168402938Y-59954290D01*
X168402938Y-59454290D01*
X168783890Y-59811433D02*
X169021985Y-59811433D01*
X168736271Y-59954290D02*
X168902938Y-59454290D01*
X169069604Y-59954290D01*
X169331509Y-59716195D02*
X169331509Y-59954290D01*
X169164842Y-59454290D02*
X169331509Y-59716195D01*
X169498176Y-59454290D01*
X169807700Y-60144766D02*
X169783890Y-60120957D01*
X169736271Y-60049528D01*
X169712461Y-60001909D01*
X169688652Y-59930480D01*
X169664842Y-59811433D01*
X169664842Y-59716195D01*
X169688652Y-59597147D01*
X169712461Y-59525719D01*
X169736271Y-59478100D01*
X169783890Y-59406671D01*
X169807700Y-59382861D01*
X170212461Y-59620957D02*
X170212461Y-59954290D01*
X170093414Y-59430480D02*
X169974366Y-59787623D01*
X170283890Y-59787623D01*
X170474366Y-59763814D02*
X170855319Y-59763814D01*
X171355319Y-59954290D02*
X171069604Y-59954290D01*
X171212461Y-59954290D02*
X171212461Y-59454290D01*
X171164842Y-59525719D01*
X171117223Y-59573338D01*
X171069604Y-59597147D01*
X171521985Y-60144766D02*
X171545795Y-60120957D01*
X171593414Y-60049528D01*
X171617223Y-60001909D01*
X171641033Y-59930480D01*
X171664842Y-59811433D01*
X171664842Y-59716195D01*
X171641033Y-59597147D01*
X171617223Y-59525719D01*
X171593414Y-59478100D01*
X171545795Y-59406671D01*
X171521985Y-59382861D01*
X171902938Y-59763814D02*
X172283890Y-59763814D01*
X172521985Y-59620957D02*
X172902938Y-59763814D01*
X172521985Y-59906671D01*
X163068047Y-59490800D02*
X163020428Y-59466990D01*
X162949000Y-59466990D01*
X162877571Y-59490800D01*
X162829952Y-59538419D01*
X162806142Y-59586038D01*
X162782333Y-59681276D01*
X162782333Y-59752704D01*
X162806142Y-59847942D01*
X162829952Y-59895561D01*
X162877571Y-59943180D01*
X162949000Y-59966990D01*
X162996619Y-59966990D01*
X163068047Y-59943180D01*
X163091857Y-59919371D01*
X163091857Y-59752704D01*
X162996619Y-59752704D01*
X163306142Y-59966990D02*
X163306142Y-59466990D01*
X163591857Y-59966990D01*
X163591857Y-59466990D01*
X163829952Y-59966990D02*
X163829952Y-59466990D01*
X163949000Y-59466990D01*
X164020428Y-59490800D01*
X164068047Y-59538419D01*
X164091857Y-59586038D01*
X164115666Y-59681276D01*
X164115666Y-59752704D01*
X164091857Y-59847942D01*
X164068047Y-59895561D01*
X164020428Y-59943180D01*
X163949000Y-59966990D01*
X163829952Y-59966990D01*
X173083600Y-48054390D02*
X173083600Y-47554390D01*
X173321695Y-48054390D02*
X173321695Y-47554390D01*
X173607409Y-48054390D01*
X173607409Y-47554390D01*
X174107409Y-48054390D02*
X173821695Y-48054390D01*
X173964552Y-48054390D02*
X173964552Y-47554390D01*
X173916933Y-47625819D01*
X173869314Y-47673438D01*
X173821695Y-47697247D01*
X171371390Y-49105333D02*
X171133295Y-49272000D01*
X171371390Y-49391047D02*
X170871390Y-49391047D01*
X170871390Y-49200571D01*
X170895200Y-49152952D01*
X170919009Y-49129142D01*
X170966628Y-49105333D01*
X171038057Y-49105333D01*
X171085676Y-49129142D01*
X171109485Y-49152952D01*
X171133295Y-49200571D01*
X171133295Y-49391047D01*
X170871390Y-48938666D02*
X171371390Y-48605333D01*
X170871390Y-48605333D02*
X171371390Y-48938666D01*
X168153590Y-49352152D02*
X168153590Y-49066438D01*
X168653590Y-49209295D02*
X168153590Y-49209295D01*
X168153590Y-48947390D02*
X168653590Y-48614057D01*
X168153590Y-48614057D02*
X168653590Y-48947390D01*
X165713600Y-49174352D02*
X165689790Y-49221971D01*
X165689790Y-49293400D01*
X165713600Y-49364828D01*
X165761219Y-49412447D01*
X165808838Y-49436257D01*
X165904076Y-49460066D01*
X165975504Y-49460066D01*
X166070742Y-49436257D01*
X166118361Y-49412447D01*
X166165980Y-49364828D01*
X166189790Y-49293400D01*
X166189790Y-49245780D01*
X166165980Y-49174352D01*
X166142171Y-49150542D01*
X165975504Y-49150542D01*
X165975504Y-49245780D01*
X166189790Y-48936257D02*
X165689790Y-48936257D01*
X166189790Y-48650542D01*
X165689790Y-48650542D01*
X166189790Y-48412447D02*
X165689790Y-48412447D01*
X165689790Y-48293400D01*
X165713600Y-48221971D01*
X165761219Y-48174352D01*
X165808838Y-48150542D01*
X165904076Y-48126733D01*
X165975504Y-48126733D01*
X166070742Y-48150542D01*
X166118361Y-48174352D01*
X166165980Y-48221971D01*
X166189790Y-48293400D01*
X166189790Y-48412447D01*
X163700590Y-49179123D02*
X163700590Y-49464838D01*
X163700590Y-49321980D02*
X163200590Y-49321980D01*
X163272019Y-49369600D01*
X163319638Y-49417219D01*
X163343447Y-49464838D01*
X163248209Y-48988647D02*
X163224400Y-48964838D01*
X163200590Y-48917219D01*
X163200590Y-48798171D01*
X163224400Y-48750552D01*
X163248209Y-48726742D01*
X163295828Y-48702933D01*
X163343447Y-48702933D01*
X163414876Y-48726742D01*
X163700590Y-49012457D01*
X163700590Y-48702933D01*
X163200590Y-48560076D02*
X163700590Y-48393409D01*
X163200590Y-48226742D01*
X128115190Y-60880523D02*
X127615190Y-60880523D01*
X127615190Y-60547190D02*
X127615190Y-60451952D01*
X127639000Y-60404333D01*
X127686619Y-60356714D01*
X127781857Y-60332904D01*
X127948523Y-60332904D01*
X128043761Y-60356714D01*
X128091380Y-60404333D01*
X128115190Y-60451952D01*
X128115190Y-60547190D01*
X128091380Y-60594809D01*
X128043761Y-60642428D01*
X127948523Y-60666238D01*
X127781857Y-60666238D01*
X127686619Y-60642428D01*
X127639000Y-60594809D01*
X127615190Y-60547190D01*
X127924714Y-60118619D02*
X127924714Y-59737666D01*
X127615190Y-59547190D02*
X127615190Y-59213857D01*
X128115190Y-59428142D01*
X126083190Y-60905923D02*
X125583190Y-60905923D01*
X125583190Y-60572590D02*
X125583190Y-60477352D01*
X125607000Y-60429733D01*
X125654619Y-60382114D01*
X125749857Y-60358304D01*
X125916523Y-60358304D01*
X126011761Y-60382114D01*
X126059380Y-60429733D01*
X126083190Y-60477352D01*
X126083190Y-60572590D01*
X126059380Y-60620209D01*
X126011761Y-60667828D01*
X125916523Y-60691638D01*
X125749857Y-60691638D01*
X125654619Y-60667828D01*
X125607000Y-60620209D01*
X125583190Y-60572590D01*
X125892714Y-60144019D02*
X125892714Y-59763066D01*
X125797476Y-59453542D02*
X125773666Y-59501161D01*
X125749857Y-59524971D01*
X125702238Y-59548780D01*
X125678428Y-59548780D01*
X125630809Y-59524971D01*
X125607000Y-59501161D01*
X125583190Y-59453542D01*
X125583190Y-59358304D01*
X125607000Y-59310685D01*
X125630809Y-59286876D01*
X125678428Y-59263066D01*
X125702238Y-59263066D01*
X125749857Y-59286876D01*
X125773666Y-59310685D01*
X125797476Y-59358304D01*
X125797476Y-59453542D01*
X125821285Y-59501161D01*
X125845095Y-59524971D01*
X125892714Y-59548780D01*
X125987952Y-59548780D01*
X126035571Y-59524971D01*
X126059380Y-59501161D01*
X126083190Y-59453542D01*
X126083190Y-59358304D01*
X126059380Y-59310685D01*
X126035571Y-59286876D01*
X125987952Y-59263066D01*
X125892714Y-59263066D01*
X125845095Y-59286876D01*
X125821285Y-59310685D01*
X125797476Y-59358304D01*
X123695590Y-60905923D02*
X123195590Y-60905923D01*
X123195590Y-60572590D02*
X123195590Y-60477352D01*
X123219400Y-60429733D01*
X123267019Y-60382114D01*
X123362257Y-60358304D01*
X123528923Y-60358304D01*
X123624161Y-60382114D01*
X123671780Y-60429733D01*
X123695590Y-60477352D01*
X123695590Y-60572590D01*
X123671780Y-60620209D01*
X123624161Y-60667828D01*
X123528923Y-60691638D01*
X123362257Y-60691638D01*
X123267019Y-60667828D01*
X123219400Y-60620209D01*
X123195590Y-60572590D01*
X123505114Y-60144019D02*
X123505114Y-59763066D01*
X123695590Y-59501161D02*
X123695590Y-59405923D01*
X123671780Y-59358304D01*
X123647971Y-59334495D01*
X123576542Y-59286876D01*
X123481304Y-59263066D01*
X123290828Y-59263066D01*
X123243209Y-59286876D01*
X123219400Y-59310685D01*
X123195590Y-59358304D01*
X123195590Y-59453542D01*
X123219400Y-59501161D01*
X123243209Y-59524971D01*
X123290828Y-59548780D01*
X123409876Y-59548780D01*
X123457495Y-59524971D01*
X123481304Y-59501161D01*
X123505114Y-59453542D01*
X123505114Y-59358304D01*
X123481304Y-59310685D01*
X123457495Y-59286876D01*
X123409876Y-59263066D01*
X121231790Y-61321819D02*
X120731790Y-61321819D01*
X120731790Y-60988485D02*
X120731790Y-60893247D01*
X120755600Y-60845628D01*
X120803219Y-60798009D01*
X120898457Y-60774200D01*
X121065123Y-60774200D01*
X121160361Y-60798009D01*
X121207980Y-60845628D01*
X121231790Y-60893247D01*
X121231790Y-60988485D01*
X121207980Y-61036104D01*
X121160361Y-61083723D01*
X121065123Y-61107533D01*
X120898457Y-61107533D01*
X120803219Y-61083723D01*
X120755600Y-61036104D01*
X120731790Y-60988485D01*
X121041314Y-60559914D02*
X121041314Y-60178961D01*
X121231790Y-59678961D02*
X121231790Y-59964676D01*
X121231790Y-59821819D02*
X120731790Y-59821819D01*
X120803219Y-59869438D01*
X120850838Y-59917057D01*
X120874647Y-59964676D01*
X120731790Y-59369438D02*
X120731790Y-59321819D01*
X120755600Y-59274200D01*
X120779409Y-59250390D01*
X120827028Y-59226580D01*
X120922266Y-59202771D01*
X121041314Y-59202771D01*
X121136552Y-59226580D01*
X121184171Y-59250390D01*
X121207980Y-59274200D01*
X121231790Y-59321819D01*
X121231790Y-59369438D01*
X121207980Y-59417057D01*
X121184171Y-59440866D01*
X121136552Y-59464676D01*
X121041314Y-59488485D01*
X120922266Y-59488485D01*
X120827028Y-59464676D01*
X120779409Y-59440866D01*
X120755600Y-59417057D01*
X120731790Y-59369438D01*
X118539390Y-61347219D02*
X118039390Y-61347219D01*
X118039390Y-61013885D02*
X118039390Y-60918647D01*
X118063200Y-60871028D01*
X118110819Y-60823409D01*
X118206057Y-60799600D01*
X118372723Y-60799600D01*
X118467961Y-60823409D01*
X118515580Y-60871028D01*
X118539390Y-60918647D01*
X118539390Y-61013885D01*
X118515580Y-61061504D01*
X118467961Y-61109123D01*
X118372723Y-61132933D01*
X118206057Y-61132933D01*
X118110819Y-61109123D01*
X118063200Y-61061504D01*
X118039390Y-61013885D01*
X118348914Y-60585314D02*
X118348914Y-60204361D01*
X118539390Y-59704361D02*
X118539390Y-59990076D01*
X118539390Y-59847219D02*
X118039390Y-59847219D01*
X118110819Y-59894838D01*
X118158438Y-59942457D01*
X118182247Y-59990076D01*
X118539390Y-59228171D02*
X118539390Y-59513885D01*
X118539390Y-59371028D02*
X118039390Y-59371028D01*
X118110819Y-59418647D01*
X118158438Y-59466266D01*
X118182247Y-59513885D01*
X115999390Y-61321819D02*
X115499390Y-61321819D01*
X115499390Y-60988485D02*
X115499390Y-60893247D01*
X115523200Y-60845628D01*
X115570819Y-60798009D01*
X115666057Y-60774200D01*
X115832723Y-60774200D01*
X115927961Y-60798009D01*
X115975580Y-60845628D01*
X115999390Y-60893247D01*
X115999390Y-60988485D01*
X115975580Y-61036104D01*
X115927961Y-61083723D01*
X115832723Y-61107533D01*
X115666057Y-61107533D01*
X115570819Y-61083723D01*
X115523200Y-61036104D01*
X115499390Y-60988485D01*
X115808914Y-60559914D02*
X115808914Y-60178961D01*
X115999390Y-59678961D02*
X115999390Y-59964676D01*
X115999390Y-59821819D02*
X115499390Y-59821819D01*
X115570819Y-59869438D01*
X115618438Y-59917057D01*
X115642247Y-59964676D01*
X115547009Y-59488485D02*
X115523200Y-59464676D01*
X115499390Y-59417057D01*
X115499390Y-59298009D01*
X115523200Y-59250390D01*
X115547009Y-59226580D01*
X115594628Y-59202771D01*
X115642247Y-59202771D01*
X115713676Y-59226580D01*
X115999390Y-59512295D01*
X115999390Y-59202771D01*
X111622685Y-61067047D02*
X111622685Y-60900380D01*
X111884590Y-60828952D02*
X111884590Y-61067047D01*
X111384590Y-61067047D01*
X111384590Y-60828952D01*
X111408400Y-60352761D02*
X111384590Y-60400380D01*
X111384590Y-60471809D01*
X111408400Y-60543238D01*
X111456019Y-60590857D01*
X111503638Y-60614666D01*
X111598876Y-60638476D01*
X111670304Y-60638476D01*
X111765542Y-60614666D01*
X111813161Y-60590857D01*
X111860780Y-60543238D01*
X111884590Y-60471809D01*
X111884590Y-60424190D01*
X111860780Y-60352761D01*
X111836971Y-60328952D01*
X111670304Y-60328952D01*
X111670304Y-60424190D01*
X111884590Y-60114666D02*
X111384590Y-60114666D01*
X111884590Y-59828952D01*
X111384590Y-59828952D01*
X111884590Y-59590857D02*
X111384590Y-59590857D01*
X111384590Y-59471809D01*
X111408400Y-59400380D01*
X111456019Y-59352761D01*
X111503638Y-59328952D01*
X111598876Y-59305142D01*
X111670304Y-59305142D01*
X111765542Y-59328952D01*
X111813161Y-59352761D01*
X111860780Y-59400380D01*
X111884590Y-59471809D01*
X111884590Y-59590857D01*
X113172085Y-60451133D02*
X113172085Y-60284466D01*
X113433990Y-60213038D02*
X113433990Y-60451133D01*
X112933990Y-60451133D01*
X112933990Y-60213038D01*
X113433990Y-59736847D02*
X113433990Y-60022561D01*
X113433990Y-59879704D02*
X112933990Y-59879704D01*
X113005419Y-59927323D01*
X113053038Y-59974942D01*
X113076847Y-60022561D01*
X112981609Y-59546371D02*
X112957800Y-59522561D01*
X112933990Y-59474942D01*
X112933990Y-59355895D01*
X112957800Y-59308276D01*
X112981609Y-59284466D01*
X113029228Y-59260657D01*
X113076847Y-59260657D01*
X113148276Y-59284466D01*
X113433990Y-59570180D01*
X113433990Y-59260657D01*
X127632276Y-48046790D02*
X127632276Y-47546790D01*
X127965609Y-47546790D02*
X128060847Y-47546790D01*
X128108466Y-47570600D01*
X128156085Y-47618219D01*
X128179895Y-47713457D01*
X128179895Y-47880123D01*
X128156085Y-47975361D01*
X128108466Y-48022980D01*
X128060847Y-48046790D01*
X127965609Y-48046790D01*
X127917990Y-48022980D01*
X127870371Y-47975361D01*
X127846561Y-47880123D01*
X127846561Y-47713457D01*
X127870371Y-47618219D01*
X127917990Y-47570600D01*
X127965609Y-47546790D01*
X128394180Y-47856314D02*
X128775133Y-47856314D01*
X129227514Y-47546790D02*
X129132276Y-47546790D01*
X129084657Y-47570600D01*
X129060847Y-47594409D01*
X129013228Y-47665838D01*
X128989419Y-47761076D01*
X128989419Y-47951552D01*
X129013228Y-47999171D01*
X129037038Y-48022980D01*
X129084657Y-48046790D01*
X129179895Y-48046790D01*
X129227514Y-48022980D01*
X129251323Y-47999171D01*
X129275133Y-47951552D01*
X129275133Y-47832504D01*
X129251323Y-47784885D01*
X129227514Y-47761076D01*
X129179895Y-47737266D01*
X129084657Y-47737266D01*
X129037038Y-47761076D01*
X129013228Y-47784885D01*
X128989419Y-47832504D01*
X126083190Y-49425123D02*
X125583190Y-49425123D01*
X125583190Y-49091790D02*
X125583190Y-48996552D01*
X125607000Y-48948933D01*
X125654619Y-48901314D01*
X125749857Y-48877504D01*
X125916523Y-48877504D01*
X126011761Y-48901314D01*
X126059380Y-48948933D01*
X126083190Y-48996552D01*
X126083190Y-49091790D01*
X126059380Y-49139409D01*
X126011761Y-49187028D01*
X125916523Y-49210838D01*
X125749857Y-49210838D01*
X125654619Y-49187028D01*
X125607000Y-49139409D01*
X125583190Y-49091790D01*
X125892714Y-48663219D02*
X125892714Y-48282266D01*
X125583190Y-47806076D02*
X125583190Y-48044171D01*
X125821285Y-48067980D01*
X125797476Y-48044171D01*
X125773666Y-47996552D01*
X125773666Y-47877504D01*
X125797476Y-47829885D01*
X125821285Y-47806076D01*
X125868904Y-47782266D01*
X125987952Y-47782266D01*
X126035571Y-47806076D01*
X126059380Y-47829885D01*
X126083190Y-47877504D01*
X126083190Y-47996552D01*
X126059380Y-48044171D01*
X126035571Y-48067980D01*
X123687990Y-49481923D02*
X123187990Y-49481923D01*
X123187990Y-49148590D02*
X123187990Y-49053352D01*
X123211800Y-49005733D01*
X123259419Y-48958114D01*
X123354657Y-48934304D01*
X123521323Y-48934304D01*
X123616561Y-48958114D01*
X123664180Y-49005733D01*
X123687990Y-49053352D01*
X123687990Y-49148590D01*
X123664180Y-49196209D01*
X123616561Y-49243828D01*
X123521323Y-49267638D01*
X123354657Y-49267638D01*
X123259419Y-49243828D01*
X123211800Y-49196209D01*
X123187990Y-49148590D01*
X123497514Y-48720019D02*
X123497514Y-48339066D01*
X123354657Y-47886685D02*
X123687990Y-47886685D01*
X123164180Y-48005733D02*
X123521323Y-48124780D01*
X123521323Y-47815257D01*
X121046390Y-49456523D02*
X120546390Y-49456523D01*
X120546390Y-49123190D02*
X120546390Y-49027952D01*
X120570200Y-48980333D01*
X120617819Y-48932714D01*
X120713057Y-48908904D01*
X120879723Y-48908904D01*
X120974961Y-48932714D01*
X121022580Y-48980333D01*
X121046390Y-49027952D01*
X121046390Y-49123190D01*
X121022580Y-49170809D01*
X120974961Y-49218428D01*
X120879723Y-49242238D01*
X120713057Y-49242238D01*
X120617819Y-49218428D01*
X120570200Y-49170809D01*
X120546390Y-49123190D01*
X120855914Y-48694619D02*
X120855914Y-48313666D01*
X120546390Y-48123190D02*
X120546390Y-47813666D01*
X120736866Y-47980333D01*
X120736866Y-47908904D01*
X120760676Y-47861285D01*
X120784485Y-47837476D01*
X120832104Y-47813666D01*
X120951152Y-47813666D01*
X120998771Y-47837476D01*
X121022580Y-47861285D01*
X121046390Y-47908904D01*
X121046390Y-48051761D01*
X121022580Y-48099380D01*
X120998771Y-48123190D01*
X118607990Y-49431123D02*
X118107990Y-49431123D01*
X118107990Y-49097790D02*
X118107990Y-49002552D01*
X118131800Y-48954933D01*
X118179419Y-48907314D01*
X118274657Y-48883504D01*
X118441323Y-48883504D01*
X118536561Y-48907314D01*
X118584180Y-48954933D01*
X118607990Y-49002552D01*
X118607990Y-49097790D01*
X118584180Y-49145409D01*
X118536561Y-49193028D01*
X118441323Y-49216838D01*
X118274657Y-49216838D01*
X118179419Y-49193028D01*
X118131800Y-49145409D01*
X118107990Y-49097790D01*
X118417514Y-48669219D02*
X118417514Y-48288266D01*
X118155609Y-48073980D02*
X118131800Y-48050171D01*
X118107990Y-48002552D01*
X118107990Y-47883504D01*
X118131800Y-47835885D01*
X118155609Y-47812076D01*
X118203228Y-47788266D01*
X118250847Y-47788266D01*
X118322276Y-47812076D01*
X118607990Y-48097790D01*
X118607990Y-47788266D01*
X115966390Y-49431123D02*
X115466390Y-49431123D01*
X115466390Y-49097790D02*
X115466390Y-49002552D01*
X115490200Y-48954933D01*
X115537819Y-48907314D01*
X115633057Y-48883504D01*
X115799723Y-48883504D01*
X115894961Y-48907314D01*
X115942580Y-48954933D01*
X115966390Y-49002552D01*
X115966390Y-49097790D01*
X115942580Y-49145409D01*
X115894961Y-49193028D01*
X115799723Y-49216838D01*
X115633057Y-49216838D01*
X115537819Y-49193028D01*
X115490200Y-49145409D01*
X115466390Y-49097790D01*
X115775914Y-48669219D02*
X115775914Y-48288266D01*
X115966390Y-47788266D02*
X115966390Y-48073980D01*
X115966390Y-47931123D02*
X115466390Y-47931123D01*
X115537819Y-47978742D01*
X115585438Y-48026361D01*
X115609247Y-48073980D01*
X112883190Y-49328295D02*
X112883190Y-49018771D01*
X113073666Y-49185438D01*
X113073666Y-49114009D01*
X113097476Y-49066390D01*
X113121285Y-49042580D01*
X113168904Y-49018771D01*
X113287952Y-49018771D01*
X113335571Y-49042580D01*
X113359380Y-49066390D01*
X113383190Y-49114009D01*
X113383190Y-49256866D01*
X113359380Y-49304485D01*
X113335571Y-49328295D01*
X113335571Y-48804485D02*
X113359380Y-48780676D01*
X113383190Y-48804485D01*
X113359380Y-48828295D01*
X113335571Y-48804485D01*
X113383190Y-48804485D01*
X112883190Y-48614009D02*
X112883190Y-48304485D01*
X113073666Y-48471152D01*
X113073666Y-48399723D01*
X113097476Y-48352104D01*
X113121285Y-48328295D01*
X113168904Y-48304485D01*
X113287952Y-48304485D01*
X113335571Y-48328295D01*
X113359380Y-48352104D01*
X113383190Y-48399723D01*
X113383190Y-48542580D01*
X113359380Y-48590200D01*
X113335571Y-48614009D01*
X112883190Y-48161628D02*
X113383190Y-47994961D01*
X112883190Y-47828295D01*
X110290800Y-49047352D02*
X110266990Y-49094971D01*
X110266990Y-49166400D01*
X110290800Y-49237828D01*
X110338419Y-49285447D01*
X110386038Y-49309257D01*
X110481276Y-49333066D01*
X110552704Y-49333066D01*
X110647942Y-49309257D01*
X110695561Y-49285447D01*
X110743180Y-49237828D01*
X110766990Y-49166400D01*
X110766990Y-49118780D01*
X110743180Y-49047352D01*
X110719371Y-49023542D01*
X110552704Y-49023542D01*
X110552704Y-49118780D01*
X110766990Y-48809257D02*
X110266990Y-48809257D01*
X110766990Y-48523542D01*
X110266990Y-48523542D01*
X110766990Y-48285447D02*
X110266990Y-48285447D01*
X110266990Y-48166400D01*
X110290800Y-48094971D01*
X110338419Y-48047352D01*
X110386038Y-48023542D01*
X110481276Y-47999733D01*
X110552704Y-47999733D01*
X110647942Y-48023542D01*
X110695561Y-48047352D01*
X110743180Y-48094971D01*
X110766990Y-48166400D01*
X110766990Y-48285447D01*
X164268314Y-101111104D02*
X164534980Y-101911104D01*
X164801647Y-101111104D01*
X165068314Y-101911104D02*
X165068314Y-101377771D01*
X165068314Y-101111104D02*
X165030219Y-101149200D01*
X165068314Y-101187295D01*
X165106409Y-101149200D01*
X165068314Y-101111104D01*
X165068314Y-101187295D01*
X165449266Y-101377771D02*
X165449266Y-101911104D01*
X165449266Y-101453961D02*
X165487361Y-101415866D01*
X165563552Y-101377771D01*
X165677838Y-101377771D01*
X165754028Y-101415866D01*
X165792123Y-101492057D01*
X165792123Y-101911104D01*
X166173076Y-101606342D02*
X166782600Y-101606342D01*
X164268314Y-98571104D02*
X164534980Y-99371104D01*
X164801647Y-98571104D01*
X165068314Y-99371104D02*
X165068314Y-98837771D01*
X165068314Y-98571104D02*
X165030219Y-98609200D01*
X165068314Y-98647295D01*
X165106409Y-98609200D01*
X165068314Y-98571104D01*
X165068314Y-98647295D01*
X165449266Y-98837771D02*
X165449266Y-99371104D01*
X165449266Y-98913961D02*
X165487361Y-98875866D01*
X165563552Y-98837771D01*
X165677838Y-98837771D01*
X165754028Y-98875866D01*
X165792123Y-98952057D01*
X165792123Y-99371104D01*
X166173076Y-99066342D02*
X166782600Y-99066342D01*
X166477838Y-99371104D02*
X166477838Y-98761580D01*
X164560371Y-96869209D02*
X164674657Y-96907304D01*
X164865133Y-96907304D01*
X164941323Y-96869209D01*
X164979419Y-96831114D01*
X165017514Y-96754923D01*
X165017514Y-96678733D01*
X164979419Y-96602542D01*
X164941323Y-96564447D01*
X164865133Y-96526352D01*
X164712752Y-96488257D01*
X164636561Y-96450161D01*
X164598466Y-96412066D01*
X164560371Y-96335876D01*
X164560371Y-96259685D01*
X164598466Y-96183495D01*
X164636561Y-96145400D01*
X164712752Y-96107304D01*
X164903228Y-96107304D01*
X165017514Y-96145400D01*
X165360371Y-96907304D02*
X165360371Y-96107304D01*
X165550847Y-96107304D01*
X165665133Y-96145400D01*
X165741323Y-96221590D01*
X165779419Y-96297780D01*
X165817514Y-96450161D01*
X165817514Y-96564447D01*
X165779419Y-96716828D01*
X165741323Y-96793019D01*
X165665133Y-96869209D01*
X165550847Y-96907304D01*
X165360371Y-96907304D01*
X166122276Y-96678733D02*
X166503228Y-96678733D01*
X166046085Y-96907304D02*
X166312752Y-96107304D01*
X166579419Y-96907304D01*
X164681019Y-94151409D02*
X164795304Y-94189504D01*
X164985780Y-94189504D01*
X165061971Y-94151409D01*
X165100066Y-94113314D01*
X165138161Y-94037123D01*
X165138161Y-93960933D01*
X165100066Y-93884742D01*
X165061971Y-93846647D01*
X164985780Y-93808552D01*
X164833400Y-93770457D01*
X164757209Y-93732361D01*
X164719114Y-93694266D01*
X164681019Y-93618076D01*
X164681019Y-93541885D01*
X164719114Y-93465695D01*
X164757209Y-93427600D01*
X164833400Y-93389504D01*
X165023876Y-93389504D01*
X165138161Y-93427600D01*
X165938161Y-94113314D02*
X165900066Y-94151409D01*
X165785780Y-94189504D01*
X165709590Y-94189504D01*
X165595304Y-94151409D01*
X165519114Y-94075219D01*
X165481019Y-93999028D01*
X165442923Y-93846647D01*
X165442923Y-93732361D01*
X165481019Y-93579980D01*
X165519114Y-93503790D01*
X165595304Y-93427600D01*
X165709590Y-93389504D01*
X165785780Y-93389504D01*
X165900066Y-93427600D01*
X165938161Y-93465695D01*
X166661971Y-94189504D02*
X166281019Y-94189504D01*
X166281019Y-93389504D01*
X164350847Y-88563504D02*
X164846085Y-88563504D01*
X164579419Y-88868266D01*
X164693704Y-88868266D01*
X164769895Y-88906361D01*
X164807990Y-88944457D01*
X164846085Y-89020647D01*
X164846085Y-89211123D01*
X164807990Y-89287314D01*
X164769895Y-89325409D01*
X164693704Y-89363504D01*
X164465133Y-89363504D01*
X164388942Y-89325409D01*
X164350847Y-89287314D01*
X165188942Y-89287314D02*
X165227038Y-89325409D01*
X165188942Y-89363504D01*
X165150847Y-89325409D01*
X165188942Y-89287314D01*
X165188942Y-89363504D01*
X165493704Y-88563504D02*
X165988942Y-88563504D01*
X165722276Y-88868266D01*
X165836561Y-88868266D01*
X165912752Y-88906361D01*
X165950847Y-88944457D01*
X165988942Y-89020647D01*
X165988942Y-89211123D01*
X165950847Y-89287314D01*
X165912752Y-89325409D01*
X165836561Y-89363504D01*
X165607990Y-89363504D01*
X165531800Y-89325409D01*
X165493704Y-89287314D01*
X166217514Y-88563504D02*
X166484180Y-89363504D01*
X166750847Y-88563504D01*
X164973076Y-90963800D02*
X164896885Y-90925704D01*
X164782600Y-90925704D01*
X164668314Y-90963800D01*
X164592123Y-91039990D01*
X164554028Y-91116180D01*
X164515933Y-91268561D01*
X164515933Y-91382847D01*
X164554028Y-91535228D01*
X164592123Y-91611419D01*
X164668314Y-91687609D01*
X164782600Y-91725704D01*
X164858790Y-91725704D01*
X164973076Y-91687609D01*
X165011171Y-91649514D01*
X165011171Y-91382847D01*
X164858790Y-91382847D01*
X165354028Y-91725704D02*
X165354028Y-90925704D01*
X165811171Y-91725704D01*
X165811171Y-90925704D01*
X166192123Y-91725704D02*
X166192123Y-90925704D01*
X166382600Y-90925704D01*
X166496885Y-90963800D01*
X166573076Y-91039990D01*
X166611171Y-91116180D01*
X166649266Y-91268561D01*
X166649266Y-91382847D01*
X166611171Y-91535228D01*
X166573076Y-91611419D01*
X166496885Y-91687609D01*
X166382600Y-91725704D01*
X166192123Y-91725704D01*
X139909714Y-101085704D02*
X140176380Y-101885704D01*
X140443047Y-101085704D01*
X140709714Y-101885704D02*
X140709714Y-101352371D01*
X140709714Y-101085704D02*
X140671619Y-101123800D01*
X140709714Y-101161895D01*
X140747809Y-101123800D01*
X140709714Y-101085704D01*
X140709714Y-101161895D01*
X141090666Y-101352371D02*
X141090666Y-101885704D01*
X141090666Y-101428561D02*
X141128761Y-101390466D01*
X141204952Y-101352371D01*
X141319238Y-101352371D01*
X141395428Y-101390466D01*
X141433523Y-101466657D01*
X141433523Y-101885704D01*
X141814476Y-101580942D02*
X142424000Y-101580942D01*
X139909714Y-98545704D02*
X140176380Y-99345704D01*
X140443047Y-98545704D01*
X140709714Y-99345704D02*
X140709714Y-98812371D01*
X140709714Y-98545704D02*
X140671619Y-98583800D01*
X140709714Y-98621895D01*
X140747809Y-98583800D01*
X140709714Y-98545704D01*
X140709714Y-98621895D01*
X141090666Y-98812371D02*
X141090666Y-99345704D01*
X141090666Y-98888561D02*
X141128761Y-98850466D01*
X141204952Y-98812371D01*
X141319238Y-98812371D01*
X141395428Y-98850466D01*
X141433523Y-98926657D01*
X141433523Y-99345704D01*
X141814476Y-99040942D02*
X142424000Y-99040942D01*
X142119238Y-99345704D02*
X142119238Y-98736180D01*
X140201771Y-96843809D02*
X140316057Y-96881904D01*
X140506533Y-96881904D01*
X140582723Y-96843809D01*
X140620819Y-96805714D01*
X140658914Y-96729523D01*
X140658914Y-96653333D01*
X140620819Y-96577142D01*
X140582723Y-96539047D01*
X140506533Y-96500952D01*
X140354152Y-96462857D01*
X140277961Y-96424761D01*
X140239866Y-96386666D01*
X140201771Y-96310476D01*
X140201771Y-96234285D01*
X140239866Y-96158095D01*
X140277961Y-96120000D01*
X140354152Y-96081904D01*
X140544628Y-96081904D01*
X140658914Y-96120000D01*
X141001771Y-96881904D02*
X141001771Y-96081904D01*
X141192247Y-96081904D01*
X141306533Y-96120000D01*
X141382723Y-96196190D01*
X141420819Y-96272380D01*
X141458914Y-96424761D01*
X141458914Y-96539047D01*
X141420819Y-96691428D01*
X141382723Y-96767619D01*
X141306533Y-96843809D01*
X141192247Y-96881904D01*
X141001771Y-96881904D01*
X141763676Y-96653333D02*
X142144628Y-96653333D01*
X141687485Y-96881904D02*
X141954152Y-96081904D01*
X142220819Y-96881904D01*
X140322419Y-94126009D02*
X140436704Y-94164104D01*
X140627180Y-94164104D01*
X140703371Y-94126009D01*
X140741466Y-94087914D01*
X140779561Y-94011723D01*
X140779561Y-93935533D01*
X140741466Y-93859342D01*
X140703371Y-93821247D01*
X140627180Y-93783152D01*
X140474800Y-93745057D01*
X140398609Y-93706961D01*
X140360514Y-93668866D01*
X140322419Y-93592676D01*
X140322419Y-93516485D01*
X140360514Y-93440295D01*
X140398609Y-93402200D01*
X140474800Y-93364104D01*
X140665276Y-93364104D01*
X140779561Y-93402200D01*
X141579561Y-94087914D02*
X141541466Y-94126009D01*
X141427180Y-94164104D01*
X141350990Y-94164104D01*
X141236704Y-94126009D01*
X141160514Y-94049819D01*
X141122419Y-93973628D01*
X141084323Y-93821247D01*
X141084323Y-93706961D01*
X141122419Y-93554580D01*
X141160514Y-93478390D01*
X141236704Y-93402200D01*
X141350990Y-93364104D01*
X141427180Y-93364104D01*
X141541466Y-93402200D01*
X141579561Y-93440295D01*
X142303371Y-94164104D02*
X141922419Y-94164104D01*
X141922419Y-93364104D01*
X140614476Y-90938400D02*
X140538285Y-90900304D01*
X140424000Y-90900304D01*
X140309714Y-90938400D01*
X140233523Y-91014590D01*
X140195428Y-91090780D01*
X140157333Y-91243161D01*
X140157333Y-91357447D01*
X140195428Y-91509828D01*
X140233523Y-91586019D01*
X140309714Y-91662209D01*
X140424000Y-91700304D01*
X140500190Y-91700304D01*
X140614476Y-91662209D01*
X140652571Y-91624114D01*
X140652571Y-91357447D01*
X140500190Y-91357447D01*
X140995428Y-91700304D02*
X140995428Y-90900304D01*
X141452571Y-91700304D01*
X141452571Y-90900304D01*
X141833523Y-91700304D02*
X141833523Y-90900304D01*
X142024000Y-90900304D01*
X142138285Y-90938400D01*
X142214476Y-91014590D01*
X142252571Y-91090780D01*
X142290666Y-91243161D01*
X142290666Y-91357447D01*
X142252571Y-91509828D01*
X142214476Y-91586019D01*
X142138285Y-91662209D01*
X142024000Y-91700304D01*
X141833523Y-91700304D01*
X139992247Y-88538104D02*
X140487485Y-88538104D01*
X140220819Y-88842866D01*
X140335104Y-88842866D01*
X140411295Y-88880961D01*
X140449390Y-88919057D01*
X140487485Y-88995247D01*
X140487485Y-89185723D01*
X140449390Y-89261914D01*
X140411295Y-89300009D01*
X140335104Y-89338104D01*
X140106533Y-89338104D01*
X140030342Y-89300009D01*
X139992247Y-89261914D01*
X140830342Y-89261914D02*
X140868438Y-89300009D01*
X140830342Y-89338104D01*
X140792247Y-89300009D01*
X140830342Y-89261914D01*
X140830342Y-89338104D01*
X141135104Y-88538104D02*
X141630342Y-88538104D01*
X141363676Y-88842866D01*
X141477961Y-88842866D01*
X141554152Y-88880961D01*
X141592247Y-88919057D01*
X141630342Y-88995247D01*
X141630342Y-89185723D01*
X141592247Y-89261914D01*
X141554152Y-89300009D01*
X141477961Y-89338104D01*
X141249390Y-89338104D01*
X141173200Y-89300009D01*
X141135104Y-89261914D01*
X141858914Y-88538104D02*
X142125580Y-89338104D01*
X142392247Y-88538104D01*
D11*
X138658600Y-116281200D02*
X138658600Y-118872000D01*
X121081800Y-116332000D02*
X121081800Y-118922800D01*
X178866800Y-116433600D02*
X178866800Y-118922800D01*
X178993800Y-118922800D02*
X184073800Y-118922800D01*
D10*
X180594095Y-117152800D02*
X180498857Y-117105180D01*
X180356000Y-117105180D01*
X180213142Y-117152800D01*
X180117904Y-117248038D01*
X180070285Y-117343276D01*
X180022666Y-117533752D01*
X180022666Y-117676609D01*
X180070285Y-117867085D01*
X180117904Y-117962323D01*
X180213142Y-118057561D01*
X180356000Y-118105180D01*
X180451238Y-118105180D01*
X180594095Y-118057561D01*
X180641714Y-118009942D01*
X180641714Y-117676609D01*
X180451238Y-117676609D01*
X181070285Y-118105180D02*
X181070285Y-117105180D01*
X181641714Y-118105180D01*
X181641714Y-117105180D01*
X182117904Y-118105180D02*
X182117904Y-117105180D01*
X182356000Y-117105180D01*
X182498857Y-117152800D01*
X182594095Y-117248038D01*
X182641714Y-117343276D01*
X182689333Y-117533752D01*
X182689333Y-117676609D01*
X182641714Y-117867085D01*
X182594095Y-117962323D01*
X182498857Y-118057561D01*
X182356000Y-118105180D01*
X182117904Y-118105180D01*
X158165895Y-117152800D02*
X158070657Y-117105180D01*
X157927800Y-117105180D01*
X157784942Y-117152800D01*
X157689704Y-117248038D01*
X157642085Y-117343276D01*
X157594466Y-117533752D01*
X157594466Y-117676609D01*
X157642085Y-117867085D01*
X157689704Y-117962323D01*
X157784942Y-118057561D01*
X157927800Y-118105180D01*
X158023038Y-118105180D01*
X158165895Y-118057561D01*
X158213514Y-118009942D01*
X158213514Y-117676609D01*
X158023038Y-117676609D01*
X158642085Y-118105180D02*
X158642085Y-117105180D01*
X159213514Y-118105180D01*
X159213514Y-117105180D01*
X159689704Y-118105180D02*
X159689704Y-117105180D01*
X159927800Y-117105180D01*
X160070657Y-117152800D01*
X160165895Y-117248038D01*
X160213514Y-117343276D01*
X160261133Y-117533752D01*
X160261133Y-117676609D01*
X160213514Y-117867085D01*
X160165895Y-117962323D01*
X160070657Y-118057561D01*
X159927800Y-118105180D01*
X159689704Y-118105180D01*
D11*
X156413200Y-116408200D02*
X156413200Y-118948200D01*
X156184600Y-118922800D02*
X161264600Y-118922800D01*
X184073800Y-116357400D02*
X184073800Y-118922800D01*
X161264600Y-116357400D02*
X161264600Y-118922800D01*
X168452800Y-116433600D02*
X168452800Y-118948200D01*
X174167800Y-116433600D02*
X174167800Y-118948200D01*
X163753800Y-116408200D02*
X163753800Y-118922800D01*
X163753800Y-118922800D02*
X178993800Y-118922800D01*
D10*
X165627476Y-118042380D02*
X165627476Y-117042380D01*
X166198904Y-118042380D01*
X166198904Y-117042380D01*
X166865571Y-117042380D02*
X167056047Y-117042380D01*
X167151285Y-117090000D01*
X167246523Y-117185238D01*
X167294142Y-117375714D01*
X167294142Y-117709047D01*
X167246523Y-117899523D01*
X167151285Y-117994761D01*
X167056047Y-118042380D01*
X166865571Y-118042380D01*
X166770333Y-117994761D01*
X166675095Y-117899523D01*
X166627476Y-117709047D01*
X166627476Y-117375714D01*
X166675095Y-117185238D01*
X166770333Y-117090000D01*
X166865571Y-117042380D01*
X175746285Y-118062380D02*
X175746285Y-117062380D01*
X176317714Y-118062380D01*
X176317714Y-117062380D01*
X177365333Y-117967142D02*
X177317714Y-118014761D01*
X177174857Y-118062380D01*
X177079619Y-118062380D01*
X176936761Y-118014761D01*
X176841523Y-117919523D01*
X176793904Y-117824285D01*
X176746285Y-117633809D01*
X176746285Y-117490952D01*
X176793904Y-117300476D01*
X176841523Y-117205238D01*
X176936761Y-117110000D01*
X177079619Y-117062380D01*
X177174857Y-117062380D01*
X177317714Y-117110000D01*
X177365333Y-117157619D01*
X170686285Y-117967142D02*
X170638666Y-118014761D01*
X170495809Y-118062380D01*
X170400571Y-118062380D01*
X170257714Y-118014761D01*
X170162476Y-117919523D01*
X170114857Y-117824285D01*
X170067238Y-117633809D01*
X170067238Y-117490952D01*
X170114857Y-117300476D01*
X170162476Y-117205238D01*
X170257714Y-117110000D01*
X170400571Y-117062380D01*
X170495809Y-117062380D01*
X170638666Y-117110000D01*
X170686285Y-117157619D01*
X171305333Y-117062380D02*
X171495809Y-117062380D01*
X171591047Y-117110000D01*
X171686285Y-117205238D01*
X171733904Y-117395714D01*
X171733904Y-117729047D01*
X171686285Y-117919523D01*
X171591047Y-118014761D01*
X171495809Y-118062380D01*
X171305333Y-118062380D01*
X171210095Y-118014761D01*
X171114857Y-117919523D01*
X171067238Y-117729047D01*
X171067238Y-117395714D01*
X171114857Y-117205238D01*
X171210095Y-117110000D01*
X171305333Y-117062380D01*
X172162476Y-118062380D02*
X172162476Y-117062380D01*
X172495809Y-117776666D01*
X172829142Y-117062380D01*
X172829142Y-118062380D01*
D11*
X145669000Y-116408200D02*
X145669000Y-118948200D01*
X151384000Y-116408200D02*
X151384000Y-118948200D01*
X140970000Y-116408200D02*
X140970000Y-118922800D01*
X140970000Y-118922800D02*
X156210000Y-118922800D01*
D10*
X142843676Y-118042380D02*
X142843676Y-117042380D01*
X143415104Y-118042380D01*
X143415104Y-117042380D01*
X144081771Y-117042380D02*
X144272247Y-117042380D01*
X144367485Y-117090000D01*
X144462723Y-117185238D01*
X144510342Y-117375714D01*
X144510342Y-117709047D01*
X144462723Y-117899523D01*
X144367485Y-117994761D01*
X144272247Y-118042380D01*
X144081771Y-118042380D01*
X143986533Y-117994761D01*
X143891295Y-117899523D01*
X143843676Y-117709047D01*
X143843676Y-117375714D01*
X143891295Y-117185238D01*
X143986533Y-117090000D01*
X144081771Y-117042380D01*
X152962485Y-118062380D02*
X152962485Y-117062380D01*
X153533914Y-118062380D01*
X153533914Y-117062380D01*
X154581533Y-117967142D02*
X154533914Y-118014761D01*
X154391057Y-118062380D01*
X154295819Y-118062380D01*
X154152961Y-118014761D01*
X154057723Y-117919523D01*
X154010104Y-117824285D01*
X153962485Y-117633809D01*
X153962485Y-117490952D01*
X154010104Y-117300476D01*
X154057723Y-117205238D01*
X154152961Y-117110000D01*
X154295819Y-117062380D01*
X154391057Y-117062380D01*
X154533914Y-117110000D01*
X154581533Y-117157619D01*
X147902485Y-117967142D02*
X147854866Y-118014761D01*
X147712009Y-118062380D01*
X147616771Y-118062380D01*
X147473914Y-118014761D01*
X147378676Y-117919523D01*
X147331057Y-117824285D01*
X147283438Y-117633809D01*
X147283438Y-117490952D01*
X147331057Y-117300476D01*
X147378676Y-117205238D01*
X147473914Y-117110000D01*
X147616771Y-117062380D01*
X147712009Y-117062380D01*
X147854866Y-117110000D01*
X147902485Y-117157619D01*
X148521533Y-117062380D02*
X148712009Y-117062380D01*
X148807247Y-117110000D01*
X148902485Y-117205238D01*
X148950104Y-117395714D01*
X148950104Y-117729047D01*
X148902485Y-117919523D01*
X148807247Y-118014761D01*
X148712009Y-118062380D01*
X148521533Y-118062380D01*
X148426295Y-118014761D01*
X148331057Y-117919523D01*
X148283438Y-117729047D01*
X148283438Y-117395714D01*
X148331057Y-117205238D01*
X148426295Y-117110000D01*
X148521533Y-117062380D01*
X149378676Y-118062380D02*
X149378676Y-117062380D01*
X149712009Y-117776666D01*
X150045342Y-117062380D01*
X150045342Y-118062380D01*
D11*
X128092200Y-116357400D02*
X128092200Y-118897400D01*
X133807200Y-116357400D02*
X133807200Y-118897400D01*
X123393200Y-116357400D02*
X123393200Y-118872000D01*
X123393200Y-118872000D02*
X138633200Y-118872000D01*
D10*
X125266876Y-117991580D02*
X125266876Y-116991580D01*
X125838304Y-117991580D01*
X125838304Y-116991580D01*
X126504971Y-116991580D02*
X126695447Y-116991580D01*
X126790685Y-117039200D01*
X126885923Y-117134438D01*
X126933542Y-117324914D01*
X126933542Y-117658247D01*
X126885923Y-117848723D01*
X126790685Y-117943961D01*
X126695447Y-117991580D01*
X126504971Y-117991580D01*
X126409733Y-117943961D01*
X126314495Y-117848723D01*
X126266876Y-117658247D01*
X126266876Y-117324914D01*
X126314495Y-117134438D01*
X126409733Y-117039200D01*
X126504971Y-116991580D01*
X135385685Y-118011580D02*
X135385685Y-117011580D01*
X135957114Y-118011580D01*
X135957114Y-117011580D01*
X137004733Y-117916342D02*
X136957114Y-117963961D01*
X136814257Y-118011580D01*
X136719019Y-118011580D01*
X136576161Y-117963961D01*
X136480923Y-117868723D01*
X136433304Y-117773485D01*
X136385685Y-117583009D01*
X136385685Y-117440152D01*
X136433304Y-117249676D01*
X136480923Y-117154438D01*
X136576161Y-117059200D01*
X136719019Y-117011580D01*
X136814257Y-117011580D01*
X136957114Y-117059200D01*
X137004733Y-117106819D01*
X130325685Y-117916342D02*
X130278066Y-117963961D01*
X130135209Y-118011580D01*
X130039971Y-118011580D01*
X129897114Y-117963961D01*
X129801876Y-117868723D01*
X129754257Y-117773485D01*
X129706638Y-117583009D01*
X129706638Y-117440152D01*
X129754257Y-117249676D01*
X129801876Y-117154438D01*
X129897114Y-117059200D01*
X130039971Y-117011580D01*
X130135209Y-117011580D01*
X130278066Y-117059200D01*
X130325685Y-117106819D01*
X130944733Y-117011580D02*
X131135209Y-117011580D01*
X131230447Y-117059200D01*
X131325685Y-117154438D01*
X131373304Y-117344914D01*
X131373304Y-117678247D01*
X131325685Y-117868723D01*
X131230447Y-117963961D01*
X131135209Y-118011580D01*
X130944733Y-118011580D01*
X130849495Y-117963961D01*
X130754257Y-117868723D01*
X130706638Y-117678247D01*
X130706638Y-117344914D01*
X130754257Y-117154438D01*
X130849495Y-117059200D01*
X130944733Y-117011580D01*
X131801876Y-118011580D02*
X131801876Y-117011580D01*
X132135209Y-117725866D01*
X132468542Y-117011580D01*
X132468542Y-118011580D01*
D11*
X116255800Y-116357400D02*
X116255800Y-118948200D01*
X110540800Y-116357400D02*
X110540800Y-118948200D01*
X105841800Y-118922800D02*
X121081800Y-118922800D01*
X105841800Y-116408200D02*
X105841800Y-118922800D01*
D10*
X107715476Y-118042380D02*
X107715476Y-117042380D01*
X108286904Y-118042380D01*
X108286904Y-117042380D01*
X108953571Y-117042380D02*
X109144047Y-117042380D01*
X109239285Y-117090000D01*
X109334523Y-117185238D01*
X109382142Y-117375714D01*
X109382142Y-117709047D01*
X109334523Y-117899523D01*
X109239285Y-117994761D01*
X109144047Y-118042380D01*
X108953571Y-118042380D01*
X108858333Y-117994761D01*
X108763095Y-117899523D01*
X108715476Y-117709047D01*
X108715476Y-117375714D01*
X108763095Y-117185238D01*
X108858333Y-117090000D01*
X108953571Y-117042380D01*
X112774285Y-117967142D02*
X112726666Y-118014761D01*
X112583809Y-118062380D01*
X112488571Y-118062380D01*
X112345714Y-118014761D01*
X112250476Y-117919523D01*
X112202857Y-117824285D01*
X112155238Y-117633809D01*
X112155238Y-117490952D01*
X112202857Y-117300476D01*
X112250476Y-117205238D01*
X112345714Y-117110000D01*
X112488571Y-117062380D01*
X112583809Y-117062380D01*
X112726666Y-117110000D01*
X112774285Y-117157619D01*
X113393333Y-117062380D02*
X113583809Y-117062380D01*
X113679047Y-117110000D01*
X113774285Y-117205238D01*
X113821904Y-117395714D01*
X113821904Y-117729047D01*
X113774285Y-117919523D01*
X113679047Y-118014761D01*
X113583809Y-118062380D01*
X113393333Y-118062380D01*
X113298095Y-118014761D01*
X113202857Y-117919523D01*
X113155238Y-117729047D01*
X113155238Y-117395714D01*
X113202857Y-117205238D01*
X113298095Y-117110000D01*
X113393333Y-117062380D01*
X114250476Y-118062380D02*
X114250476Y-117062380D01*
X114583809Y-117776666D01*
X114917142Y-117062380D01*
X114917142Y-118062380D01*
X117834285Y-118062380D02*
X117834285Y-117062380D01*
X118405714Y-118062380D01*
X118405714Y-117062380D01*
X119453333Y-117967142D02*
X119405714Y-118014761D01*
X119262857Y-118062380D01*
X119167619Y-118062380D01*
X119024761Y-118014761D01*
X118929523Y-117919523D01*
X118881904Y-117824285D01*
X118834285Y-117633809D01*
X118834285Y-117490952D01*
X118881904Y-117300476D01*
X118929523Y-117205238D01*
X119024761Y-117110000D01*
X119167619Y-117062380D01*
X119262857Y-117062380D01*
X119405714Y-117110000D01*
X119453333Y-117157619D01*
D12*
X189457142Y-55621428D02*
X189457142Y-54478571D01*
X188618571Y-60887142D02*
X189761428Y-60887142D01*
X189190000Y-61458571D02*
X189190000Y-60315714D01*
X100737142Y-68891428D02*
X100737142Y-67748571D01*
X100188571Y-63057142D02*
X101331428Y-63057142D01*
X100760000Y-63628571D02*
X100760000Y-62485714D01*
D10*
X149916666Y-52111190D02*
X149750000Y-51873095D01*
X149630952Y-52111190D02*
X149630952Y-51611190D01*
X149821428Y-51611190D01*
X149869047Y-51635000D01*
X149892857Y-51658809D01*
X149916666Y-51706428D01*
X149916666Y-51777857D01*
X149892857Y-51825476D01*
X149869047Y-51849285D01*
X149821428Y-51873095D01*
X149630952Y-51873095D01*
X150107142Y-52087380D02*
X150178571Y-52111190D01*
X150297619Y-52111190D01*
X150345238Y-52087380D01*
X150369047Y-52063571D01*
X150392857Y-52015952D01*
X150392857Y-51968333D01*
X150369047Y-51920714D01*
X150345238Y-51896904D01*
X150297619Y-51873095D01*
X150202380Y-51849285D01*
X150154761Y-51825476D01*
X150130952Y-51801666D01*
X150107142Y-51754047D01*
X150107142Y-51706428D01*
X150130952Y-51658809D01*
X150154761Y-51635000D01*
X150202380Y-51611190D01*
X150321428Y-51611190D01*
X150392857Y-51635000D01*
X150773809Y-51849285D02*
X150845238Y-51873095D01*
X150869047Y-51896904D01*
X150892857Y-51944523D01*
X150892857Y-52015952D01*
X150869047Y-52063571D01*
X150845238Y-52087380D01*
X150797619Y-52111190D01*
X150607142Y-52111190D01*
X150607142Y-51611190D01*
X150773809Y-51611190D01*
X150821428Y-51635000D01*
X150845238Y-51658809D01*
X150869047Y-51706428D01*
X150869047Y-51754047D01*
X150845238Y-51801666D01*
X150821428Y-51825476D01*
X150773809Y-51849285D01*
X150607142Y-51849285D01*
X139289285Y-52136190D02*
X139289285Y-51636190D01*
X139455952Y-51993333D01*
X139622619Y-51636190D01*
X139622619Y-52136190D01*
X139860714Y-52136190D02*
X139860714Y-51636190D01*
X140075000Y-52112380D02*
X140146428Y-52136190D01*
X140265476Y-52136190D01*
X140313095Y-52112380D01*
X140336904Y-52088571D01*
X140360714Y-52040952D01*
X140360714Y-51993333D01*
X140336904Y-51945714D01*
X140313095Y-51921904D01*
X140265476Y-51898095D01*
X140170238Y-51874285D01*
X140122619Y-51850476D01*
X140098809Y-51826666D01*
X140075000Y-51779047D01*
X140075000Y-51731428D01*
X140098809Y-51683809D01*
X140122619Y-51660000D01*
X140170238Y-51636190D01*
X140289285Y-51636190D01*
X140360714Y-51660000D01*
X140670238Y-51636190D02*
X140765476Y-51636190D01*
X140813095Y-51660000D01*
X140860714Y-51707619D01*
X140884523Y-51802857D01*
X140884523Y-51969523D01*
X140860714Y-52064761D01*
X140813095Y-52112380D01*
X140765476Y-52136190D01*
X140670238Y-52136190D01*
X140622619Y-52112380D01*
X140575000Y-52064761D01*
X140551190Y-51969523D01*
X140551190Y-51802857D01*
X140575000Y-51707619D01*
X140622619Y-51660000D01*
X140670238Y-51636190D01*
X141911904Y-51611190D02*
X142221428Y-51611190D01*
X142054761Y-51801666D01*
X142126190Y-51801666D01*
X142173809Y-51825476D01*
X142197619Y-51849285D01*
X142221428Y-51896904D01*
X142221428Y-52015952D01*
X142197619Y-52063571D01*
X142173809Y-52087380D01*
X142126190Y-52111190D01*
X141983333Y-52111190D01*
X141935714Y-52087380D01*
X141911904Y-52063571D01*
X142435714Y-52063571D02*
X142459523Y-52087380D01*
X142435714Y-52111190D01*
X142411904Y-52087380D01*
X142435714Y-52063571D01*
X142435714Y-52111190D01*
X142626190Y-51611190D02*
X142935714Y-51611190D01*
X142769047Y-51801666D01*
X142840476Y-51801666D01*
X142888095Y-51825476D01*
X142911904Y-51849285D01*
X142935714Y-51896904D01*
X142935714Y-52015952D01*
X142911904Y-52063571D01*
X142888095Y-52087380D01*
X142840476Y-52111190D01*
X142697619Y-52111190D01*
X142650000Y-52087380D01*
X142626190Y-52063571D01*
X143078571Y-51611190D02*
X143245238Y-52111190D01*
X143411904Y-51611190D01*
X152469047Y-51610000D02*
X152421428Y-51586190D01*
X152350000Y-51586190D01*
X152278571Y-51610000D01*
X152230952Y-51657619D01*
X152207142Y-51705238D01*
X152183333Y-51800476D01*
X152183333Y-51871904D01*
X152207142Y-51967142D01*
X152230952Y-52014761D01*
X152278571Y-52062380D01*
X152350000Y-52086190D01*
X152397619Y-52086190D01*
X152469047Y-52062380D01*
X152492857Y-52038571D01*
X152492857Y-51871904D01*
X152397619Y-51871904D01*
X152707142Y-52086190D02*
X152707142Y-51586190D01*
X152992857Y-52086190D01*
X152992857Y-51586190D01*
X153230952Y-52086190D02*
X153230952Y-51586190D01*
X153350000Y-51586190D01*
X153421428Y-51610000D01*
X153469047Y-51657619D01*
X153492857Y-51705238D01*
X153516666Y-51800476D01*
X153516666Y-51871904D01*
X153492857Y-51967142D01*
X153469047Y-52014761D01*
X153421428Y-52062380D01*
X153350000Y-52086190D01*
X153230952Y-52086190D01*
X147014285Y-52111190D02*
X147014285Y-51611190D01*
X147180952Y-51968333D01*
X147347619Y-51611190D01*
X147347619Y-52111190D01*
X147680952Y-51611190D02*
X147776190Y-51611190D01*
X147823809Y-51635000D01*
X147871428Y-51682619D01*
X147895238Y-51777857D01*
X147895238Y-51944523D01*
X147871428Y-52039761D01*
X147823809Y-52087380D01*
X147776190Y-52111190D01*
X147680952Y-52111190D01*
X147633333Y-52087380D01*
X147585714Y-52039761D01*
X147561904Y-51944523D01*
X147561904Y-51777857D01*
X147585714Y-51682619D01*
X147633333Y-51635000D01*
X147680952Y-51611190D01*
X148085714Y-52087380D02*
X148157142Y-52111190D01*
X148276190Y-52111190D01*
X148323809Y-52087380D01*
X148347619Y-52063571D01*
X148371428Y-52015952D01*
X148371428Y-51968333D01*
X148347619Y-51920714D01*
X148323809Y-51896904D01*
X148276190Y-51873095D01*
X148180952Y-51849285D01*
X148133333Y-51825476D01*
X148109523Y-51801666D01*
X148085714Y-51754047D01*
X148085714Y-51706428D01*
X148109523Y-51658809D01*
X148133333Y-51635000D01*
X148180952Y-51611190D01*
X148300000Y-51611190D01*
X148371428Y-51635000D01*
X148585714Y-52111190D02*
X148585714Y-51611190D01*
X144507142Y-52087380D02*
X144578571Y-52111190D01*
X144697619Y-52111190D01*
X144745238Y-52087380D01*
X144769047Y-52063571D01*
X144792857Y-52015952D01*
X144792857Y-51968333D01*
X144769047Y-51920714D01*
X144745238Y-51896904D01*
X144697619Y-51873095D01*
X144602380Y-51849285D01*
X144554761Y-51825476D01*
X144530952Y-51801666D01*
X144507142Y-51754047D01*
X144507142Y-51706428D01*
X144530952Y-51658809D01*
X144554761Y-51635000D01*
X144602380Y-51611190D01*
X144721428Y-51611190D01*
X144792857Y-51635000D01*
X145292857Y-52063571D02*
X145269047Y-52087380D01*
X145197619Y-52111190D01*
X145150000Y-52111190D01*
X145078571Y-52087380D01*
X145030952Y-52039761D01*
X145007142Y-51992142D01*
X144983333Y-51896904D01*
X144983333Y-51825476D01*
X145007142Y-51730238D01*
X145030952Y-51682619D01*
X145078571Y-51635000D01*
X145150000Y-51611190D01*
X145197619Y-51611190D01*
X145269047Y-51635000D01*
X145292857Y-51658809D01*
X145507142Y-52111190D02*
X145507142Y-51611190D01*
X145792857Y-52111190D02*
X145578571Y-51825476D01*
X145792857Y-51611190D02*
X145507142Y-51896904D01*
D11*
%TO.C,D22*%
X177041300Y-66562800D02*
X179041300Y-66562800D01*
X179041300Y-66562800D02*
X179041300Y-62662800D01*
X177041300Y-66562800D02*
X177041300Y-62662800D01*
%TO.C,C17*%
X103138500Y-79615000D02*
X107348500Y-79615000D01*
X107348500Y-79615000D02*
X107348500Y-76595000D01*
X107348500Y-76595000D02*
X103138500Y-76595000D01*
%TO.C,D8*%
X129264700Y-83014700D02*
X131949700Y-83014700D01*
X129264700Y-81094700D02*
X129264700Y-83014700D01*
X131949700Y-81094700D02*
X129264700Y-81094700D01*
%TO.C,R13*%
X175232800Y-77512142D02*
X175232800Y-77986658D01*
X176277800Y-77512142D02*
X176277800Y-77986658D01*
D13*
%TO.C,G\u002A\u002A\u002A*%
G36*
X123106000Y-70211333D02*
G01*
X118618667Y-70211333D01*
X118618667Y-69686350D01*
X118703333Y-69686350D01*
X118734681Y-69874197D01*
X118844424Y-70002366D01*
X119056107Y-70080598D01*
X119393278Y-70118633D01*
X119767714Y-70126667D01*
X120566000Y-70126667D01*
X120566000Y-69449333D01*
X120097676Y-69449333D01*
X119784592Y-69431186D01*
X119617752Y-69373694D01*
X119582963Y-69328445D01*
X119587009Y-69200763D01*
X119637577Y-68963292D01*
X119722562Y-68652644D01*
X119829859Y-68305428D01*
X119947367Y-67958255D01*
X120062979Y-67647737D01*
X120164594Y-67410482D01*
X120240106Y-67283102D01*
X120262992Y-67271558D01*
X120317699Y-67357453D01*
X120412874Y-67578384D01*
X120538340Y-67907805D01*
X120683917Y-68319168D01*
X120815764Y-68713116D01*
X121277195Y-70126667D01*
X121650322Y-70126667D01*
X121893168Y-70110219D01*
X121985858Y-70057422D01*
X121983077Y-70020833D01*
X121946365Y-69913040D01*
X121865307Y-69668137D01*
X121747763Y-69310096D01*
X121601591Y-68862892D01*
X121434649Y-68350499D01*
X121329820Y-68028016D01*
X121150461Y-67486455D01*
X120981101Y-66994927D01*
X120830670Y-66577800D01*
X120708094Y-66259441D01*
X120622301Y-66064217D01*
X120593087Y-66017183D01*
X120377237Y-65908181D01*
X120117911Y-65918011D01*
X119949793Y-65999167D01*
X119886932Y-66105348D01*
X119784603Y-66344550D01*
X119652603Y-66687785D01*
X119500733Y-67106065D01*
X119338791Y-67570404D01*
X119176576Y-68051815D01*
X119023888Y-68521310D01*
X118890526Y-68949901D01*
X118786288Y-69308603D01*
X118720975Y-69568427D01*
X118703333Y-69686350D01*
X118618667Y-69686350D01*
X118618667Y-65893333D01*
X121497333Y-65893333D01*
X121497333Y-66232000D01*
X121505790Y-66448782D01*
X121562113Y-66545111D01*
X121712732Y-66569860D01*
X121819066Y-66570666D01*
X122056120Y-66595941D01*
X122225192Y-66658168D01*
X122242400Y-66672266D01*
X122281383Y-66773852D01*
X122310350Y-66998124D01*
X122329980Y-67357011D01*
X122340957Y-67862441D01*
X122344000Y-68450266D01*
X122344000Y-70126667D01*
X123021333Y-70126667D01*
X123021333Y-68179333D01*
X123020860Y-67498663D01*
X123014336Y-66968521D01*
X122994102Y-66570109D01*
X122952500Y-66284628D01*
X122881872Y-66093281D01*
X122774558Y-65977270D01*
X122622901Y-65917797D01*
X122419242Y-65896064D01*
X122155922Y-65893272D01*
X122090000Y-65893333D01*
X121497333Y-65893333D01*
X118618667Y-65893333D01*
X118618667Y-65808667D01*
X123106000Y-65808667D01*
X123106000Y-70211333D01*
G37*
X123106000Y-70211333D02*
X118618667Y-70211333D01*
X118618667Y-69686350D01*
X118703333Y-69686350D01*
X118734681Y-69874197D01*
X118844424Y-70002366D01*
X119056107Y-70080598D01*
X119393278Y-70118633D01*
X119767714Y-70126667D01*
X120566000Y-70126667D01*
X120566000Y-69449333D01*
X120097676Y-69449333D01*
X119784592Y-69431186D01*
X119617752Y-69373694D01*
X119582963Y-69328445D01*
X119587009Y-69200763D01*
X119637577Y-68963292D01*
X119722562Y-68652644D01*
X119829859Y-68305428D01*
X119947367Y-67958255D01*
X120062979Y-67647737D01*
X120164594Y-67410482D01*
X120240106Y-67283102D01*
X120262992Y-67271558D01*
X120317699Y-67357453D01*
X120412874Y-67578384D01*
X120538340Y-67907805D01*
X120683917Y-68319168D01*
X120815764Y-68713116D01*
X121277195Y-70126667D01*
X121650322Y-70126667D01*
X121893168Y-70110219D01*
X121985858Y-70057422D01*
X121983077Y-70020833D01*
X121946365Y-69913040D01*
X121865307Y-69668137D01*
X121747763Y-69310096D01*
X121601591Y-68862892D01*
X121434649Y-68350499D01*
X121329820Y-68028016D01*
X121150461Y-67486455D01*
X120981101Y-66994927D01*
X120830670Y-66577800D01*
X120708094Y-66259441D01*
X120622301Y-66064217D01*
X120593087Y-66017183D01*
X120377237Y-65908181D01*
X120117911Y-65918011D01*
X119949793Y-65999167D01*
X119886932Y-66105348D01*
X119784603Y-66344550D01*
X119652603Y-66687785D01*
X119500733Y-67106065D01*
X119338791Y-67570404D01*
X119176576Y-68051815D01*
X119023888Y-68521310D01*
X118890526Y-68949901D01*
X118786288Y-69308603D01*
X118720975Y-69568427D01*
X118703333Y-69686350D01*
X118618667Y-69686350D01*
X118618667Y-65893333D01*
X121497333Y-65893333D01*
X121497333Y-66232000D01*
X121505790Y-66448782D01*
X121562113Y-66545111D01*
X121712732Y-66569860D01*
X121819066Y-66570666D01*
X122056120Y-66595941D01*
X122225192Y-66658168D01*
X122242400Y-66672266D01*
X122281383Y-66773852D01*
X122310350Y-66998124D01*
X122329980Y-67357011D01*
X122340957Y-67862441D01*
X122344000Y-68450266D01*
X122344000Y-70126667D01*
X123021333Y-70126667D01*
X123021333Y-68179333D01*
X123020860Y-67498663D01*
X123014336Y-66968521D01*
X122994102Y-66570109D01*
X122952500Y-66284628D01*
X122881872Y-66093281D01*
X122774558Y-65977270D01*
X122622901Y-65917797D01*
X122419242Y-65896064D01*
X122155922Y-65893272D01*
X122090000Y-65893333D01*
X121497333Y-65893333D01*
X118618667Y-65893333D01*
X118618667Y-65808667D01*
X123106000Y-65808667D01*
X123106000Y-70211333D01*
D11*
%TO.C,C12*%
X170831252Y-73745000D02*
X170308748Y-73745000D01*
X170831252Y-72275000D02*
X170308748Y-72275000D01*
%TO.C,C8*%
X175356152Y-66724200D02*
X174833648Y-66724200D01*
X175356152Y-65254200D02*
X174833648Y-65254200D01*
%TO.C,C7*%
X175368852Y-68756200D02*
X174846348Y-68756200D01*
X175368852Y-67286200D02*
X174846348Y-67286200D01*
D12*
%TO.C,K3*%
X135579000Y-86700000D02*
G75*
G03*
X135579000Y-86700000I-100000J0D01*
G01*
D14*
X121610000Y-106450000D02*
X121610000Y-87350000D01*
X137110000Y-106450000D02*
X121610000Y-106450000D01*
X137110000Y-87350000D02*
X137110000Y-106450000D01*
X121610000Y-87350000D02*
X137110000Y-87350000D01*
D11*
%TO.C,J11*%
X173100000Y-48220000D02*
X173600000Y-49220000D01*
X174100000Y-48220000D02*
X173100000Y-48220000D01*
X173600000Y-49220000D02*
X174100000Y-48220000D01*
X166470000Y-50920000D02*
X166470000Y-49610000D01*
X166470000Y-50920000D02*
X166470000Y-50920000D01*
X159530000Y-50920000D02*
X166470000Y-50920000D01*
X159530000Y-57420000D02*
X159530000Y-50920000D01*
X177510000Y-57420000D02*
X159530000Y-57420000D01*
X177510000Y-50920000D02*
X177510000Y-57420000D01*
X170570000Y-50920000D02*
X177510000Y-50920000D01*
X170570000Y-49610000D02*
X170570000Y-50920000D01*
X158230000Y-49610000D02*
X178810000Y-49610000D01*
X158230000Y-58730000D02*
X158230000Y-49610000D01*
X178810000Y-58730000D02*
X158230000Y-58730000D01*
X178810000Y-49610000D02*
X178810000Y-58730000D01*
%TO.C,C14*%
X140129420Y-73070000D02*
X140410580Y-73070000D01*
X140129420Y-72050000D02*
X140410580Y-72050000D01*
D15*
%TO.C,J5*%
X105200000Y-112600000D02*
X105300000Y-112600000D01*
X105300000Y-112600000D02*
X105300000Y-112600000D01*
X105200000Y-112600000D02*
X105200000Y-112600000D01*
X105860000Y-116400000D02*
X105860000Y-107900000D01*
X121100000Y-116400000D02*
X105860000Y-116400000D01*
X121100000Y-107900000D02*
X121100000Y-116400000D01*
X105860000Y-107900000D02*
X121100000Y-107900000D01*
X105200000Y-112600000D02*
G75*
G02*
X105300000Y-112600000I50000J0D01*
G01*
X105300000Y-112600000D02*
G75*
G02*
X105200000Y-112600000I-50000J0D01*
G01*
%TO.C,J4*%
X122750000Y-112600000D02*
X122850000Y-112600000D01*
X122850000Y-112600000D02*
X122850000Y-112600000D01*
X122750000Y-112600000D02*
X122750000Y-112600000D01*
X123410000Y-116400000D02*
X123410000Y-107900000D01*
X138650000Y-116400000D02*
X123410000Y-116400000D01*
X138650000Y-107900000D02*
X138650000Y-116400000D01*
X123410000Y-107900000D02*
X138650000Y-107900000D01*
X122750000Y-112600000D02*
G75*
G02*
X122850000Y-112600000I50000J0D01*
G01*
X122850000Y-112600000D02*
G75*
G02*
X122750000Y-112600000I-50000J0D01*
G01*
%TO.C,Y1*%
X153170000Y-72280000D02*
X153170000Y-72280000D01*
X153170000Y-72180000D02*
X153170000Y-72180000D01*
X153170000Y-72280000D02*
X153170000Y-72280000D01*
D10*
X154920000Y-68780000D02*
X155520000Y-68780000D01*
X154920000Y-68780000D02*
X154920000Y-68780000D01*
X155520000Y-68780000D02*
X154920000Y-68780000D01*
X155520000Y-68780000D02*
X155520000Y-68780000D01*
X155520000Y-57380000D02*
X155520000Y-57380000D01*
X155520000Y-68780000D02*
X155520000Y-57380000D01*
X155520000Y-68780000D02*
X155520000Y-68780000D01*
X155520000Y-57380000D02*
X155520000Y-68780000D01*
X155520000Y-57380000D02*
X154920000Y-57380000D01*
X155520000Y-57380000D02*
X155520000Y-57380000D01*
X154920000Y-57380000D02*
X155520000Y-57380000D01*
X154920000Y-57380000D02*
X154920000Y-57380000D01*
X151420000Y-57380000D02*
X150820000Y-57380000D01*
X151420000Y-57380000D02*
X151420000Y-57380000D01*
X150820000Y-57380000D02*
X151420000Y-57380000D01*
X150820000Y-57380000D02*
X150820000Y-57380000D01*
X150820000Y-68780000D02*
X150820000Y-68780000D01*
X150820000Y-57380000D02*
X150820000Y-68780000D01*
X150820000Y-57380000D02*
X150820000Y-57380000D01*
X150820000Y-68780000D02*
X150820000Y-57380000D01*
X150820000Y-68780000D02*
X151420000Y-68780000D01*
X150820000Y-68780000D02*
X150820000Y-68780000D01*
X151420000Y-68780000D02*
X150820000Y-68780000D01*
X151420000Y-68780000D02*
X151420000Y-68780000D01*
D15*
X153170000Y-72180000D02*
G75*
G02*
X153170000Y-72280000I0J-50000D01*
G01*
X153170000Y-72280000D02*
G75*
G02*
X153170000Y-72180000I0J50000D01*
G01*
X153170000Y-72180000D02*
G75*
G02*
X153170000Y-72280000I0J-50000D01*
G01*
%TO.C,U3*%
X188265000Y-77130000D02*
X186715000Y-77130000D01*
X186365000Y-72960000D02*
X186365000Y-77360000D01*
X182115000Y-72960000D02*
X186365000Y-72960000D01*
X182115000Y-77360000D02*
X182115000Y-72960000D01*
X186365000Y-77360000D02*
X182115000Y-77360000D01*
%TO.C,U2*%
X115890000Y-72925000D02*
X115890000Y-74475000D01*
X111720000Y-74825000D02*
X116120000Y-74825000D01*
X111720000Y-79075000D02*
X111720000Y-74825000D01*
X116120000Y-79075000D02*
X111720000Y-79075000D01*
X116120000Y-74825000D02*
X116120000Y-79075000D01*
%TO.C,U1*%
X132790000Y-72746500D02*
X132790000Y-74296500D01*
X128620000Y-74646500D02*
X133020000Y-74646500D01*
X128620000Y-78896500D02*
X128620000Y-74646500D01*
X133020000Y-78896500D02*
X128620000Y-78896500D01*
X133020000Y-74646500D02*
X133020000Y-78896500D01*
D11*
%TO.C,R16*%
X136032742Y-73082500D02*
X136507258Y-73082500D01*
X136032742Y-72037500D02*
X136507258Y-72037500D01*
%TO.C,R15*%
X148852742Y-76692500D02*
X149327258Y-76692500D01*
X148852742Y-75647500D02*
X149327258Y-75647500D01*
%TO.C,R14*%
X149317258Y-74027500D02*
X148842742Y-74027500D01*
X149317258Y-75072500D02*
X148842742Y-75072500D01*
%TO.C,R12*%
X118792742Y-83032500D02*
X119267258Y-83032500D01*
X118792742Y-81987500D02*
X119267258Y-81987500D01*
%TO.C,R11*%
X133950942Y-82564500D02*
X134425458Y-82564500D01*
X133950942Y-81519500D02*
X134425458Y-81519500D01*
%TO.C,R10*%
X110832500Y-81491858D02*
X110832500Y-81017342D01*
X109787500Y-81491858D02*
X109787500Y-81017342D01*
%TO.C,R9*%
X127902500Y-81357258D02*
X127902500Y-80882742D01*
X126857500Y-81357258D02*
X126857500Y-80882742D01*
%TO.C,R8*%
X182977258Y-64317500D02*
X182502742Y-64317500D01*
X182977258Y-65362500D02*
X182502742Y-65362500D01*
%TO.C,R7*%
X186832742Y-65372500D02*
X187307258Y-65372500D01*
X186832742Y-64327500D02*
X187307258Y-64327500D01*
%TO.C,R6*%
X184532742Y-82482500D02*
X185007258Y-82482500D01*
X184532742Y-81437500D02*
X185007258Y-81437500D01*
%TO.C,R5*%
X159722742Y-82482500D02*
X160197258Y-82482500D01*
X159722742Y-81437500D02*
X160197258Y-81437500D01*
%TO.C,R4*%
X171762742Y-81462500D02*
X172237258Y-81462500D01*
X171762742Y-80417500D02*
X172237258Y-80417500D01*
%TO.C,R3*%
X147842742Y-81372500D02*
X148317258Y-81372500D01*
X147842742Y-80327500D02*
X148317258Y-80327500D01*
%TO.C,R2*%
X109592342Y-74779400D02*
X110066858Y-74779400D01*
X109592342Y-73734400D02*
X110066858Y-73734400D01*
%TO.C,R1*%
X126470642Y-74525400D02*
X126945158Y-74525400D01*
X126470642Y-73480400D02*
X126945158Y-73480400D01*
%TO.C,Q4*%
X107050000Y-83114000D02*
X105590000Y-83114000D01*
X107050000Y-79954000D02*
X104890000Y-79954000D01*
X107050000Y-79954000D02*
X107050000Y-80884000D01*
X107050000Y-83114000D02*
X107050000Y-82184000D01*
%TO.C,Q3*%
X123960000Y-82890000D02*
X122500000Y-82890000D01*
X123960000Y-79730000D02*
X121800000Y-79730000D01*
X123960000Y-79730000D02*
X123960000Y-80660000D01*
X123960000Y-82890000D02*
X123960000Y-81960000D01*
%TO.C,Q2*%
X176470000Y-83040000D02*
X175010000Y-83040000D01*
X176470000Y-79880000D02*
X174310000Y-79880000D01*
X176470000Y-79880000D02*
X176470000Y-80810000D01*
X176470000Y-83040000D02*
X176470000Y-82110000D01*
%TO.C,Q1*%
X152430000Y-82970000D02*
X150970000Y-82970000D01*
X152430000Y-79810000D02*
X150270000Y-79810000D01*
X152430000Y-79810000D02*
X152430000Y-80740000D01*
X152430000Y-82970000D02*
X152430000Y-82040000D01*
D15*
%TO.C,PS1*%
X167890000Y-70815000D02*
X167890000Y-70815000D01*
X168090000Y-70815000D02*
X168090000Y-70815000D01*
D10*
X171290000Y-61765000D02*
X171290000Y-70265000D01*
X159690000Y-61765000D02*
X171290000Y-61765000D01*
X159690000Y-70265000D02*
X159690000Y-61765000D01*
X171290000Y-70265000D02*
X159690000Y-70265000D01*
D15*
X168090000Y-70815000D02*
G75*
G03*
X167890000Y-70815000I-100000J0D01*
G01*
X167890000Y-70815000D02*
G75*
G03*
X168090000Y-70815000I100000J0D01*
G01*
D11*
%TO.C,L2*%
X129695358Y-61670000D02*
X131365842Y-61670000D01*
X129695358Y-59850000D02*
X131365842Y-59850000D01*
D14*
%TO.C,L1*%
X173447300Y-69788800D02*
X179156600Y-69788800D01*
X179156600Y-75511300D02*
X173447300Y-75511300D01*
D12*
%TO.C,K4*%
X118819000Y-86720000D02*
G75*
G03*
X118819000Y-86720000I-100000J0D01*
G01*
D14*
X104850000Y-106470000D02*
X104850000Y-87370000D01*
X120350000Y-106470000D02*
X104850000Y-106470000D01*
X120350000Y-87370000D02*
X120350000Y-106470000D01*
X104850000Y-87370000D02*
X120350000Y-87370000D01*
D12*
%TO.C,K2*%
X184819000Y-86610000D02*
G75*
G03*
X184819000Y-86610000I-100000J0D01*
G01*
D14*
X170850000Y-106360000D02*
X170850000Y-87260000D01*
X186350000Y-106360000D02*
X170850000Y-106360000D01*
X186350000Y-87260000D02*
X186350000Y-106360000D01*
X170850000Y-87260000D02*
X186350000Y-87260000D01*
D12*
%TO.C,K1*%
X160419000Y-86800000D02*
G75*
G03*
X160419000Y-86800000I-100000J0D01*
G01*
D14*
X146450000Y-106550000D02*
X146450000Y-87450000D01*
X161950000Y-106550000D02*
X146450000Y-106550000D01*
X161950000Y-87450000D02*
X161950000Y-106550000D01*
X146450000Y-87450000D02*
X161950000Y-87450000D01*
D11*
%TO.C,J9*%
X170030000Y-102830000D02*
X168700000Y-102830000D01*
X170030000Y-101500000D02*
X170030000Y-102830000D01*
X170030000Y-100230000D02*
X167370000Y-100230000D01*
X167370000Y-100230000D02*
X167370000Y-87470000D01*
X170030000Y-100230000D02*
X170030000Y-87470000D01*
X170030000Y-87470000D02*
X167370000Y-87470000D01*
%TO.C,J8*%
X145630000Y-102830000D02*
X144300000Y-102830000D01*
X145630000Y-101500000D02*
X145630000Y-102830000D01*
X145630000Y-100230000D02*
X142970000Y-100230000D01*
X142970000Y-100230000D02*
X142970000Y-87470000D01*
X145630000Y-100230000D02*
X145630000Y-87470000D01*
X145630000Y-87470000D02*
X142970000Y-87470000D01*
%TO.C,J7*%
X127900000Y-48220000D02*
X128400000Y-49220000D01*
X128900000Y-48220000D02*
X127900000Y-48220000D01*
X128400000Y-49220000D02*
X128900000Y-48220000D01*
X117460000Y-50920000D02*
X117460000Y-49610000D01*
X117460000Y-50920000D02*
X117460000Y-50920000D01*
X106710000Y-50920000D02*
X117460000Y-50920000D01*
X106710000Y-57420000D02*
X106710000Y-50920000D01*
X132310000Y-57420000D02*
X106710000Y-57420000D01*
X132310000Y-50920000D02*
X132310000Y-57420000D01*
X121560000Y-50920000D02*
X132310000Y-50920000D01*
X121560000Y-49610000D02*
X121560000Y-50920000D01*
X105410000Y-49610000D02*
X133610000Y-49610000D01*
X105410000Y-58730000D02*
X105410000Y-49610000D01*
X133610000Y-58730000D02*
X105410000Y-58730000D01*
X133610000Y-49610000D02*
X133610000Y-58730000D01*
D10*
%TO.C,J6*%
X101580000Y-60248800D02*
X110080000Y-60248800D01*
X101580000Y-70408800D02*
X101580000Y-60248800D01*
X110080000Y-70408800D02*
X101580000Y-70408800D01*
X110080000Y-60248800D02*
X110080000Y-70408800D01*
%TO.C,J3*%
X163760000Y-116420000D02*
X163760000Y-107920000D01*
X184080000Y-116420000D02*
X163760000Y-116420000D01*
X184080000Y-107920000D02*
X184080000Y-116420000D01*
X163760000Y-107920000D02*
X184080000Y-107920000D01*
%TO.C,J2*%
X140960000Y-116400000D02*
X140960000Y-107900000D01*
X161280000Y-116400000D02*
X140960000Y-116400000D01*
X161280000Y-107900000D02*
X161280000Y-116400000D01*
X140960000Y-107900000D02*
X161280000Y-107900000D01*
%TO.C,J1*%
X180410000Y-52870000D02*
X188910000Y-52870000D01*
X180410000Y-63030000D02*
X180410000Y-52870000D01*
X188910000Y-63030000D02*
X180410000Y-63030000D01*
X188910000Y-52870000D02*
X188910000Y-63030000D01*
D16*
%TO.C,IC1*%
X145500000Y-69100000D02*
G75*
G03*
X145500000Y-69100000I-200000J0D01*
G01*
D15*
X143850000Y-61950000D02*
X143850000Y-68250000D01*
X137550000Y-61950000D02*
X143850000Y-61950000D01*
X137550000Y-68250000D02*
X137550000Y-61950000D01*
X143850000Y-68250000D02*
X137550000Y-68250000D01*
%TO.C,D21*%
X140458200Y-79642000D02*
X143158200Y-79642000D01*
X139508200Y-78092000D02*
X143158200Y-78092000D01*
%TO.C,D20*%
X135900000Y-75300000D02*
X135900000Y-75300000D01*
X135900000Y-75100000D02*
X135900000Y-75100000D01*
D10*
X137600000Y-75900000D02*
X139400000Y-75900000D01*
X137600000Y-74500000D02*
X139400000Y-74500000D01*
D15*
X135900000Y-75100000D02*
G75*
G03*
X135900000Y-75300000I0J-100000D01*
G01*
X135900000Y-75300000D02*
G75*
G03*
X135900000Y-75100000I0J100000D01*
G01*
%TO.C,D19*%
X174880000Y-63122800D02*
X174880000Y-60422800D01*
X173280000Y-64097800D02*
X173280000Y-60422800D01*
%TO.C,D18*%
X105718600Y-72352000D02*
X103018600Y-72352000D01*
X106693600Y-73952000D02*
X103018600Y-73952000D01*
%TO.C,D17*%
X168330000Y-104300000D02*
X165630000Y-104300000D01*
X169305000Y-105900000D02*
X165630000Y-105900000D01*
%TO.C,D16*%
X143940000Y-104280000D02*
X141240000Y-104280000D01*
X144915000Y-105880000D02*
X141240000Y-105880000D01*
D11*
%TO.C,D15*%
X179878700Y-77322800D02*
X177193700Y-77322800D01*
X179878700Y-79242800D02*
X179878700Y-77322800D01*
X177193700Y-79242800D02*
X179878700Y-79242800D01*
D15*
%TO.C,D14*%
X110448400Y-85091600D02*
X110448400Y-85091600D01*
X110448400Y-85291600D02*
X110448400Y-85291600D01*
D10*
X108748400Y-84491600D02*
X106948400Y-84491600D01*
X108748400Y-85891600D02*
X106948400Y-85891600D01*
D15*
X110448400Y-85291600D02*
G75*
G03*
X110448400Y-85091600I0J100000D01*
G01*
X110448400Y-85091600D02*
G75*
G03*
X110448400Y-85291600I0J-100000D01*
G01*
%TO.C,D13*%
X119440000Y-85050000D02*
X119440000Y-85050000D01*
X119440000Y-85250000D02*
X119440000Y-85250000D01*
D10*
X117740000Y-84450000D02*
X115940000Y-84450000D01*
X117740000Y-85850000D02*
X115940000Y-85850000D01*
D15*
X119440000Y-85250000D02*
G75*
G03*
X119440000Y-85050000I0J100000D01*
G01*
X119440000Y-85050000D02*
G75*
G03*
X119440000Y-85250000I0J-100000D01*
G01*
%TO.C,D12*%
X127300000Y-84880000D02*
X127300000Y-84880000D01*
X127300000Y-85080000D02*
X127300000Y-85080000D01*
D10*
X125600000Y-84280000D02*
X123800000Y-84280000D01*
X125600000Y-85680000D02*
X123800000Y-85680000D01*
D15*
X127300000Y-85080000D02*
G75*
G03*
X127300000Y-84880000I0J100000D01*
G01*
X127300000Y-84880000D02*
G75*
G03*
X127300000Y-85080000I0J-100000D01*
G01*
%TO.C,D11*%
X136360000Y-84870000D02*
X136360000Y-84870000D01*
X136360000Y-85070000D02*
X136360000Y-85070000D01*
D10*
X134660000Y-84270000D02*
X132860000Y-84270000D01*
X134660000Y-85670000D02*
X132860000Y-85670000D01*
D15*
X136360000Y-85070000D02*
G75*
G03*
X136360000Y-84870000I0J100000D01*
G01*
X136360000Y-84870000D02*
G75*
G03*
X136360000Y-85070000I0J-100000D01*
G01*
D11*
%TO.C,D10*%
X187785000Y-69400000D02*
X185100000Y-69400000D01*
X187785000Y-71320000D02*
X187785000Y-69400000D01*
X185100000Y-71320000D02*
X187785000Y-71320000D01*
%TO.C,D9*%
X113595000Y-83210000D02*
X116280000Y-83210000D01*
X113595000Y-81290000D02*
X113595000Y-83210000D01*
X116280000Y-81290000D02*
X113595000Y-81290000D01*
D15*
%TO.C,D7*%
X176330000Y-85030000D02*
X176330000Y-85030000D01*
X176330000Y-85230000D02*
X176330000Y-85230000D01*
D10*
X174630000Y-84430000D02*
X172830000Y-84430000D01*
X174630000Y-85830000D02*
X172830000Y-85830000D01*
D15*
X176330000Y-85230000D02*
G75*
G03*
X176330000Y-85030000I0J100000D01*
G01*
X176330000Y-85030000D02*
G75*
G03*
X176330000Y-85230000I0J-100000D01*
G01*
%TO.C,D6*%
X185290000Y-84970000D02*
X185290000Y-84970000D01*
X185290000Y-85170000D02*
X185290000Y-85170000D01*
D10*
X183590000Y-84370000D02*
X181790000Y-84370000D01*
X183590000Y-85770000D02*
X181790000Y-85770000D01*
D15*
X185290000Y-85170000D02*
G75*
G03*
X185290000Y-84970000I0J100000D01*
G01*
X185290000Y-84970000D02*
G75*
G03*
X185290000Y-85170000I0J-100000D01*
G01*
%TO.C,D5*%
X152480000Y-84960000D02*
X152480000Y-84960000D01*
X152480000Y-85160000D02*
X152480000Y-85160000D01*
D10*
X150780000Y-84360000D02*
X148980000Y-84360000D01*
X150780000Y-85760000D02*
X148980000Y-85760000D01*
D15*
X152480000Y-85160000D02*
G75*
G03*
X152480000Y-84960000I0J100000D01*
G01*
X152480000Y-84960000D02*
G75*
G03*
X152480000Y-85160000I0J-100000D01*
G01*
%TO.C,D4*%
X160590000Y-84750000D02*
X160590000Y-84750000D01*
X160590000Y-84950000D02*
X160590000Y-84950000D01*
D10*
X158890000Y-84150000D02*
X157090000Y-84150000D01*
X158890000Y-85550000D02*
X157090000Y-85550000D01*
D15*
X160590000Y-84950000D02*
G75*
G03*
X160590000Y-84750000I0J100000D01*
G01*
X160590000Y-84750000D02*
G75*
G03*
X160590000Y-84950000I0J-100000D01*
G01*
%TO.C,D3*%
X186650000Y-67400000D02*
X186650000Y-67400000D01*
X186650000Y-67600000D02*
X186650000Y-67600000D01*
D10*
X184950000Y-66800000D02*
X183150000Y-66800000D01*
X184950000Y-68200000D02*
X183150000Y-68200000D01*
D15*
X186650000Y-67600000D02*
G75*
G03*
X186650000Y-67400000I0J100000D01*
G01*
X186650000Y-67400000D02*
G75*
G03*
X186650000Y-67600000I0J-100000D01*
G01*
D11*
%TO.C,D2*%
X179565000Y-82940000D02*
X182250000Y-82940000D01*
X179565000Y-81020000D02*
X179565000Y-82940000D01*
X182250000Y-81020000D02*
X179565000Y-81020000D01*
%TO.C,D1*%
X154715000Y-82860000D02*
X157400000Y-82860000D01*
X154715000Y-80940000D02*
X154715000Y-82860000D01*
X157400000Y-80940000D02*
X154715000Y-80940000D01*
%TO.C,C16*%
X133005580Y-62520000D02*
X132724420Y-62520000D01*
X133005580Y-63540000D02*
X132724420Y-63540000D01*
%TO.C,C15*%
X132724420Y-65110000D02*
X133005580Y-65110000D01*
X132724420Y-64090000D02*
X133005580Y-64090000D01*
%TO.C,C13*%
X147520000Y-66268748D02*
X147520000Y-67691252D01*
X149340000Y-66268748D02*
X149340000Y-67691252D01*
%TO.C,C11*%
X147969420Y-70620000D02*
X148250580Y-70620000D01*
X147969420Y-69600000D02*
X148250580Y-69600000D01*
%TO.C,C10*%
X156780000Y-60599420D02*
X156780000Y-60880580D01*
X157800000Y-60599420D02*
X157800000Y-60880580D01*
%TO.C,C9*%
X157790000Y-66760580D02*
X157790000Y-66479420D01*
X156770000Y-66760580D02*
X156770000Y-66479420D01*
%TO.C,C6*%
X105575980Y-75156600D02*
X105294820Y-75156600D01*
X105575980Y-76176600D02*
X105294820Y-76176600D01*
%TO.C,C5*%
X182440580Y-69650000D02*
X182159420Y-69650000D01*
X182440580Y-70670000D02*
X182159420Y-70670000D01*
%TO.C,C4*%
X108278200Y-81114020D02*
X108278200Y-81395180D01*
X109298200Y-81114020D02*
X109298200Y-81395180D01*
%TO.C,C3*%
X125310000Y-80979420D02*
X125310000Y-81260580D01*
X126330000Y-80979420D02*
X126330000Y-81260580D01*
%TO.C,C2*%
X171868220Y-82983800D02*
X172149380Y-82983800D01*
X171868220Y-81963800D02*
X172149380Y-81963800D01*
%TO.C,C1*%
X148230580Y-81910000D02*
X147949420Y-81910000D01*
X148230580Y-82930000D02*
X147949420Y-82930000D01*
%TO.C,D22*%
D10*
X177019071Y-67608404D02*
X177019071Y-66808404D01*
X177209547Y-66808404D01*
X177323833Y-66846500D01*
X177400023Y-66922690D01*
X177438119Y-66998880D01*
X177476214Y-67151261D01*
X177476214Y-67265547D01*
X177438119Y-67417928D01*
X177400023Y-67494119D01*
X177323833Y-67570309D01*
X177209547Y-67608404D01*
X177019071Y-67608404D01*
X177780976Y-66884595D02*
X177819071Y-66846500D01*
X177895261Y-66808404D01*
X178085738Y-66808404D01*
X178161928Y-66846500D01*
X178200023Y-66884595D01*
X178238119Y-66960785D01*
X178238119Y-67036976D01*
X178200023Y-67151261D01*
X177742880Y-67608404D01*
X178238119Y-67608404D01*
X178542880Y-66884595D02*
X178580976Y-66846500D01*
X178657166Y-66808404D01*
X178847642Y-66808404D01*
X178923833Y-66846500D01*
X178961928Y-66884595D01*
X179000023Y-66960785D01*
X179000023Y-67036976D01*
X178961928Y-67151261D01*
X178504785Y-67608404D01*
X179000023Y-67608404D01*
%TO.C,C17*%
X108019914Y-77552514D02*
X107981819Y-77590609D01*
X107867533Y-77628704D01*
X107791342Y-77628704D01*
X107677057Y-77590609D01*
X107600866Y-77514419D01*
X107562771Y-77438228D01*
X107524676Y-77285847D01*
X107524676Y-77171561D01*
X107562771Y-77019180D01*
X107600866Y-76942990D01*
X107677057Y-76866800D01*
X107791342Y-76828704D01*
X107867533Y-76828704D01*
X107981819Y-76866800D01*
X108019914Y-76904895D01*
X108781819Y-77628704D02*
X108324676Y-77628704D01*
X108553247Y-77628704D02*
X108553247Y-76828704D01*
X108477057Y-76942990D01*
X108400866Y-77019180D01*
X108324676Y-77057276D01*
X109048485Y-76828704D02*
X109581819Y-76828704D01*
X109238961Y-77628704D01*
%TO.C,D8*%
X128987623Y-84016804D02*
X128987623Y-83216804D01*
X129178100Y-83216804D01*
X129292385Y-83254900D01*
X129368576Y-83331090D01*
X129406671Y-83407280D01*
X129444766Y-83559661D01*
X129444766Y-83673947D01*
X129406671Y-83826328D01*
X129368576Y-83902519D01*
X129292385Y-83978709D01*
X129178100Y-84016804D01*
X128987623Y-84016804D01*
X129901909Y-83559661D02*
X129825719Y-83521566D01*
X129787623Y-83483471D01*
X129749528Y-83407280D01*
X129749528Y-83369185D01*
X129787623Y-83292995D01*
X129825719Y-83254900D01*
X129901909Y-83216804D01*
X130054290Y-83216804D01*
X130130480Y-83254900D01*
X130168576Y-83292995D01*
X130206671Y-83369185D01*
X130206671Y-83407280D01*
X130168576Y-83483471D01*
X130130480Y-83521566D01*
X130054290Y-83559661D01*
X129901909Y-83559661D01*
X129825719Y-83597757D01*
X129787623Y-83635852D01*
X129749528Y-83712042D01*
X129749528Y-83864423D01*
X129787623Y-83940614D01*
X129825719Y-83978709D01*
X129901909Y-84016804D01*
X130054290Y-84016804D01*
X130130480Y-83978709D01*
X130168576Y-83940614D01*
X130206671Y-83864423D01*
X130206671Y-83712042D01*
X130168576Y-83635852D01*
X130130480Y-83597757D01*
X130054290Y-83559661D01*
%TO.C,R13*%
X173285214Y-79216204D02*
X173018547Y-78835252D01*
X172828071Y-79216204D02*
X172828071Y-78416204D01*
X173132833Y-78416204D01*
X173209023Y-78454300D01*
X173247119Y-78492395D01*
X173285214Y-78568585D01*
X173285214Y-78682871D01*
X173247119Y-78759061D01*
X173209023Y-78797157D01*
X173132833Y-78835252D01*
X172828071Y-78835252D01*
X174047119Y-79216204D02*
X173589976Y-79216204D01*
X173818547Y-79216204D02*
X173818547Y-78416204D01*
X173742357Y-78530490D01*
X173666166Y-78606680D01*
X173589976Y-78644776D01*
X174313785Y-78416204D02*
X174809023Y-78416204D01*
X174542357Y-78720966D01*
X174656642Y-78720966D01*
X174732833Y-78759061D01*
X174770928Y-78797157D01*
X174809023Y-78873347D01*
X174809023Y-79063823D01*
X174770928Y-79140014D01*
X174732833Y-79178109D01*
X174656642Y-79216204D01*
X174428071Y-79216204D01*
X174351880Y-79178109D01*
X174313785Y-79140014D01*
%TO.C,C12*%
X167189214Y-73475814D02*
X167151119Y-73513909D01*
X167036833Y-73552004D01*
X166960642Y-73552004D01*
X166846357Y-73513909D01*
X166770166Y-73437719D01*
X166732071Y-73361528D01*
X166693976Y-73209147D01*
X166693976Y-73094861D01*
X166732071Y-72942480D01*
X166770166Y-72866290D01*
X166846357Y-72790100D01*
X166960642Y-72752004D01*
X167036833Y-72752004D01*
X167151119Y-72790100D01*
X167189214Y-72828195D01*
X167951119Y-73552004D02*
X167493976Y-73552004D01*
X167722547Y-73552004D02*
X167722547Y-72752004D01*
X167646357Y-72866290D01*
X167570166Y-72942480D01*
X167493976Y-72980576D01*
X168255880Y-72828195D02*
X168293976Y-72790100D01*
X168370166Y-72752004D01*
X168560642Y-72752004D01*
X168636833Y-72790100D01*
X168674928Y-72828195D01*
X168713023Y-72904385D01*
X168713023Y-72980576D01*
X168674928Y-73094861D01*
X168217785Y-73552004D01*
X168713023Y-73552004D01*
%TO.C,C8*%
X173247014Y-66160633D02*
X173285109Y-66198728D01*
X173323204Y-66313014D01*
X173323204Y-66389204D01*
X173285109Y-66503490D01*
X173208919Y-66579680D01*
X173132728Y-66617776D01*
X172980347Y-66655871D01*
X172866061Y-66655871D01*
X172713680Y-66617776D01*
X172637490Y-66579680D01*
X172561300Y-66503490D01*
X172523204Y-66389204D01*
X172523204Y-66313014D01*
X172561300Y-66198728D01*
X172599395Y-66160633D01*
X172866061Y-65703490D02*
X172827966Y-65779680D01*
X172789871Y-65817776D01*
X172713680Y-65855871D01*
X172675585Y-65855871D01*
X172599395Y-65817776D01*
X172561300Y-65779680D01*
X172523204Y-65703490D01*
X172523204Y-65551109D01*
X172561300Y-65474919D01*
X172599395Y-65436823D01*
X172675585Y-65398728D01*
X172713680Y-65398728D01*
X172789871Y-65436823D01*
X172827966Y-65474919D01*
X172866061Y-65551109D01*
X172866061Y-65703490D01*
X172904157Y-65779680D01*
X172942252Y-65817776D01*
X173018442Y-65855871D01*
X173170823Y-65855871D01*
X173247014Y-65817776D01*
X173285109Y-65779680D01*
X173323204Y-65703490D01*
X173323204Y-65551109D01*
X173285109Y-65474919D01*
X173247014Y-65436823D01*
X173170823Y-65398728D01*
X173018442Y-65398728D01*
X172942252Y-65436823D01*
X172904157Y-65474919D01*
X172866061Y-65551109D01*
%TO.C,C7*%
X177450766Y-68916514D02*
X177412671Y-68954609D01*
X177298385Y-68992704D01*
X177222195Y-68992704D01*
X177107909Y-68954609D01*
X177031719Y-68878419D01*
X176993623Y-68802228D01*
X176955528Y-68649847D01*
X176955528Y-68535561D01*
X176993623Y-68383180D01*
X177031719Y-68306990D01*
X177107909Y-68230800D01*
X177222195Y-68192704D01*
X177298385Y-68192704D01*
X177412671Y-68230800D01*
X177450766Y-68268895D01*
X177717433Y-68192704D02*
X178250766Y-68192704D01*
X177907909Y-68992704D01*
%TO.C,K3*%
X138201904Y-95630476D02*
X137401904Y-95630476D01*
X138201904Y-95173333D02*
X137744761Y-95516190D01*
X137401904Y-95173333D02*
X137859047Y-95630476D01*
X137401904Y-94906666D02*
X137401904Y-94411428D01*
X137706666Y-94678095D01*
X137706666Y-94563809D01*
X137744761Y-94487619D01*
X137782857Y-94449523D01*
X137859047Y-94411428D01*
X138049523Y-94411428D01*
X138125714Y-94449523D01*
X138163809Y-94487619D01*
X138201904Y-94563809D01*
X138201904Y-94792380D01*
X138163809Y-94868571D01*
X138125714Y-94906666D01*
%TO.C,J11*%
X167872380Y-49931904D02*
X167872380Y-50503333D01*
X167834285Y-50617619D01*
X167758095Y-50693809D01*
X167643809Y-50731904D01*
X167567619Y-50731904D01*
X168672380Y-50731904D02*
X168215238Y-50731904D01*
X168443809Y-50731904D02*
X168443809Y-49931904D01*
X168367619Y-50046190D01*
X168291428Y-50122380D01*
X168215238Y-50160476D01*
X169434285Y-50731904D02*
X168977142Y-50731904D01*
X169205714Y-50731904D02*
X169205714Y-49931904D01*
X169129523Y-50046190D01*
X169053333Y-50122380D01*
X168977142Y-50160476D01*
%TO.C,C14*%
X142284514Y-72650314D02*
X142246419Y-72688409D01*
X142132133Y-72726504D01*
X142055942Y-72726504D01*
X141941657Y-72688409D01*
X141865466Y-72612219D01*
X141827371Y-72536028D01*
X141789276Y-72383647D01*
X141789276Y-72269361D01*
X141827371Y-72116980D01*
X141865466Y-72040790D01*
X141941657Y-71964600D01*
X142055942Y-71926504D01*
X142132133Y-71926504D01*
X142246419Y-71964600D01*
X142284514Y-72002695D01*
X143046419Y-72726504D02*
X142589276Y-72726504D01*
X142817847Y-72726504D02*
X142817847Y-71926504D01*
X142741657Y-72040790D01*
X142665466Y-72116980D01*
X142589276Y-72155076D01*
X143732133Y-72193171D02*
X143732133Y-72726504D01*
X143541657Y-71888409D02*
X143351180Y-72459838D01*
X143846419Y-72459838D01*
%TO.C,J5*%
X112553333Y-108161904D02*
X112553333Y-108733333D01*
X112515238Y-108847619D01*
X112439047Y-108923809D01*
X112324761Y-108961904D01*
X112248571Y-108961904D01*
X113315238Y-108161904D02*
X112934285Y-108161904D01*
X112896190Y-108542857D01*
X112934285Y-108504761D01*
X113010476Y-108466666D01*
X113200952Y-108466666D01*
X113277142Y-108504761D01*
X113315238Y-108542857D01*
X113353333Y-108619047D01*
X113353333Y-108809523D01*
X113315238Y-108885714D01*
X113277142Y-108923809D01*
X113200952Y-108961904D01*
X113010476Y-108961904D01*
X112934285Y-108923809D01*
X112896190Y-108885714D01*
%TO.C,J4*%
X130723333Y-108231904D02*
X130723333Y-108803333D01*
X130685238Y-108917619D01*
X130609047Y-108993809D01*
X130494761Y-109031904D01*
X130418571Y-109031904D01*
X131447142Y-108498571D02*
X131447142Y-109031904D01*
X131256666Y-108193809D02*
X131066190Y-108765238D01*
X131561428Y-108765238D01*
%TO.C,Y1*%
X150393447Y-55327552D02*
X150393447Y-55708504D01*
X150126780Y-54908504D02*
X150393447Y-55327552D01*
X150660114Y-54908504D01*
X151345828Y-55708504D02*
X150888685Y-55708504D01*
X151117257Y-55708504D02*
X151117257Y-54908504D01*
X151041066Y-55022790D01*
X150964876Y-55098980D01*
X150888685Y-55137076D01*
%TO.C,U3*%
X186210476Y-77991904D02*
X186210476Y-78639523D01*
X186248571Y-78715714D01*
X186286666Y-78753809D01*
X186362857Y-78791904D01*
X186515238Y-78791904D01*
X186591428Y-78753809D01*
X186629523Y-78715714D01*
X186667619Y-78639523D01*
X186667619Y-77991904D01*
X186972380Y-77991904D02*
X187467619Y-77991904D01*
X187200952Y-78296666D01*
X187315238Y-78296666D01*
X187391428Y-78334761D01*
X187429523Y-78372857D01*
X187467619Y-78449047D01*
X187467619Y-78639523D01*
X187429523Y-78715714D01*
X187391428Y-78753809D01*
X187315238Y-78791904D01*
X187086666Y-78791904D01*
X187010476Y-78753809D01*
X186972380Y-78715714D01*
%TO.C,U2*%
X116687676Y-74441104D02*
X116687676Y-75088723D01*
X116725771Y-75164914D01*
X116763866Y-75203009D01*
X116840057Y-75241104D01*
X116992438Y-75241104D01*
X117068628Y-75203009D01*
X117106723Y-75164914D01*
X117144819Y-75088723D01*
X117144819Y-74441104D01*
X117487676Y-74517295D02*
X117525771Y-74479200D01*
X117601961Y-74441104D01*
X117792438Y-74441104D01*
X117868628Y-74479200D01*
X117906723Y-74517295D01*
X117944819Y-74593485D01*
X117944819Y-74669676D01*
X117906723Y-74783961D01*
X117449580Y-75241104D01*
X117944819Y-75241104D01*
%TO.C,U1*%
X129970476Y-71353404D02*
X129970476Y-72001023D01*
X130008571Y-72077214D01*
X130046666Y-72115309D01*
X130122857Y-72153404D01*
X130275238Y-72153404D01*
X130351428Y-72115309D01*
X130389523Y-72077214D01*
X130427619Y-72001023D01*
X130427619Y-71353404D01*
X131227619Y-72153404D02*
X130770476Y-72153404D01*
X130999047Y-72153404D02*
X130999047Y-71353404D01*
X130922857Y-71467690D01*
X130846666Y-71543880D01*
X130770476Y-71581976D01*
%TO.C,RT1*%
X177692104Y-62020404D02*
X177425438Y-61639452D01*
X177234961Y-62020404D02*
X177234961Y-61220404D01*
X177539723Y-61220404D01*
X177615914Y-61258500D01*
X177654009Y-61296595D01*
X177692104Y-61372785D01*
X177692104Y-61487071D01*
X177654009Y-61563261D01*
X177615914Y-61601357D01*
X177539723Y-61639452D01*
X177234961Y-61639452D01*
X177920676Y-61220404D02*
X178377819Y-61220404D01*
X178149247Y-62020404D02*
X178149247Y-61220404D01*
X179063533Y-62020404D02*
X178606390Y-62020404D01*
X178834961Y-62020404D02*
X178834961Y-61220404D01*
X178758771Y-61334690D01*
X178682580Y-61410880D01*
X178606390Y-61448976D01*
%TO.C,R16*%
X135755714Y-71491904D02*
X135489047Y-71110952D01*
X135298571Y-71491904D02*
X135298571Y-70691904D01*
X135603333Y-70691904D01*
X135679523Y-70730000D01*
X135717619Y-70768095D01*
X135755714Y-70844285D01*
X135755714Y-70958571D01*
X135717619Y-71034761D01*
X135679523Y-71072857D01*
X135603333Y-71110952D01*
X135298571Y-71110952D01*
X136517619Y-71491904D02*
X136060476Y-71491904D01*
X136289047Y-71491904D02*
X136289047Y-70691904D01*
X136212857Y-70806190D01*
X136136666Y-70882380D01*
X136060476Y-70920476D01*
X137203333Y-70691904D02*
X137050952Y-70691904D01*
X136974761Y-70730000D01*
X136936666Y-70768095D01*
X136860476Y-70882380D01*
X136822380Y-71034761D01*
X136822380Y-71339523D01*
X136860476Y-71415714D01*
X136898571Y-71453809D01*
X136974761Y-71491904D01*
X137127142Y-71491904D01*
X137203333Y-71453809D01*
X137241428Y-71415714D01*
X137279523Y-71339523D01*
X137279523Y-71149047D01*
X137241428Y-71072857D01*
X137203333Y-71034761D01*
X137127142Y-70996666D01*
X136974761Y-70996666D01*
X136898571Y-71034761D01*
X136860476Y-71072857D01*
X136822380Y-71149047D01*
%TO.C,R15*%
X151335714Y-74921904D02*
X151069047Y-74540952D01*
X150878571Y-74921904D02*
X150878571Y-74121904D01*
X151183333Y-74121904D01*
X151259523Y-74160000D01*
X151297619Y-74198095D01*
X151335714Y-74274285D01*
X151335714Y-74388571D01*
X151297619Y-74464761D01*
X151259523Y-74502857D01*
X151183333Y-74540952D01*
X150878571Y-74540952D01*
X152097619Y-74921904D02*
X151640476Y-74921904D01*
X151869047Y-74921904D02*
X151869047Y-74121904D01*
X151792857Y-74236190D01*
X151716666Y-74312380D01*
X151640476Y-74350476D01*
X152821428Y-74121904D02*
X152440476Y-74121904D01*
X152402380Y-74502857D01*
X152440476Y-74464761D01*
X152516666Y-74426666D01*
X152707142Y-74426666D01*
X152783333Y-74464761D01*
X152821428Y-74502857D01*
X152859523Y-74579047D01*
X152859523Y-74769523D01*
X152821428Y-74845714D01*
X152783333Y-74883809D01*
X152707142Y-74921904D01*
X152516666Y-74921904D01*
X152440476Y-74883809D01*
X152402380Y-74845714D01*
%TO.C,R14*%
X145840514Y-76612704D02*
X145573847Y-76231752D01*
X145383371Y-76612704D02*
X145383371Y-75812704D01*
X145688133Y-75812704D01*
X145764323Y-75850800D01*
X145802419Y-75888895D01*
X145840514Y-75965085D01*
X145840514Y-76079371D01*
X145802419Y-76155561D01*
X145764323Y-76193657D01*
X145688133Y-76231752D01*
X145383371Y-76231752D01*
X146602419Y-76612704D02*
X146145276Y-76612704D01*
X146373847Y-76612704D02*
X146373847Y-75812704D01*
X146297657Y-75926990D01*
X146221466Y-76003180D01*
X146145276Y-76041276D01*
X147288133Y-76079371D02*
X147288133Y-76612704D01*
X147097657Y-75774609D02*
X146907180Y-76346038D01*
X147402419Y-76346038D01*
%TO.C,R12*%
X118515714Y-81441904D02*
X118249047Y-81060952D01*
X118058571Y-81441904D02*
X118058571Y-80641904D01*
X118363333Y-80641904D01*
X118439523Y-80680000D01*
X118477619Y-80718095D01*
X118515714Y-80794285D01*
X118515714Y-80908571D01*
X118477619Y-80984761D01*
X118439523Y-81022857D01*
X118363333Y-81060952D01*
X118058571Y-81060952D01*
X119277619Y-81441904D02*
X118820476Y-81441904D01*
X119049047Y-81441904D02*
X119049047Y-80641904D01*
X118972857Y-80756190D01*
X118896666Y-80832380D01*
X118820476Y-80870476D01*
X119582380Y-80718095D02*
X119620476Y-80680000D01*
X119696666Y-80641904D01*
X119887142Y-80641904D01*
X119963333Y-80680000D01*
X120001428Y-80718095D01*
X120039523Y-80794285D01*
X120039523Y-80870476D01*
X120001428Y-80984761D01*
X119544285Y-81441904D01*
X120039523Y-81441904D01*
%TO.C,R11*%
X136239314Y-82505504D02*
X135972647Y-82124552D01*
X135782171Y-82505504D02*
X135782171Y-81705504D01*
X136086933Y-81705504D01*
X136163123Y-81743600D01*
X136201219Y-81781695D01*
X136239314Y-81857885D01*
X136239314Y-81972171D01*
X136201219Y-82048361D01*
X136163123Y-82086457D01*
X136086933Y-82124552D01*
X135782171Y-82124552D01*
X137001219Y-82505504D02*
X136544076Y-82505504D01*
X136772647Y-82505504D02*
X136772647Y-81705504D01*
X136696457Y-81819790D01*
X136620266Y-81895980D01*
X136544076Y-81934076D01*
X137763123Y-82505504D02*
X137305980Y-82505504D01*
X137534552Y-82505504D02*
X137534552Y-81705504D01*
X137458361Y-81819790D01*
X137382171Y-81895980D01*
X137305980Y-81934076D01*
%TO.C,R10*%
X108146914Y-79533704D02*
X107880247Y-79152752D01*
X107689771Y-79533704D02*
X107689771Y-78733704D01*
X107994533Y-78733704D01*
X108070723Y-78771800D01*
X108108819Y-78809895D01*
X108146914Y-78886085D01*
X108146914Y-79000371D01*
X108108819Y-79076561D01*
X108070723Y-79114657D01*
X107994533Y-79152752D01*
X107689771Y-79152752D01*
X108908819Y-79533704D02*
X108451676Y-79533704D01*
X108680247Y-79533704D02*
X108680247Y-78733704D01*
X108604057Y-78847990D01*
X108527866Y-78924180D01*
X108451676Y-78962276D01*
X109404057Y-78733704D02*
X109480247Y-78733704D01*
X109556438Y-78771800D01*
X109594533Y-78809895D01*
X109632628Y-78886085D01*
X109670723Y-79038466D01*
X109670723Y-79228942D01*
X109632628Y-79381323D01*
X109594533Y-79457514D01*
X109556438Y-79495609D01*
X109480247Y-79533704D01*
X109404057Y-79533704D01*
X109327866Y-79495609D01*
X109289771Y-79457514D01*
X109251676Y-79381323D01*
X109213580Y-79228942D01*
X109213580Y-79038466D01*
X109251676Y-78886085D01*
X109289771Y-78809895D01*
X109327866Y-78771800D01*
X109404057Y-78733704D01*
%TO.C,R9*%
X127436666Y-79391904D02*
X127170000Y-79010952D01*
X126979523Y-79391904D02*
X126979523Y-78591904D01*
X127284285Y-78591904D01*
X127360476Y-78630000D01*
X127398571Y-78668095D01*
X127436666Y-78744285D01*
X127436666Y-78858571D01*
X127398571Y-78934761D01*
X127360476Y-78972857D01*
X127284285Y-79010952D01*
X126979523Y-79010952D01*
X127817619Y-79391904D02*
X127970000Y-79391904D01*
X128046190Y-79353809D01*
X128084285Y-79315714D01*
X128160476Y-79201428D01*
X128198571Y-79049047D01*
X128198571Y-78744285D01*
X128160476Y-78668095D01*
X128122380Y-78630000D01*
X128046190Y-78591904D01*
X127893809Y-78591904D01*
X127817619Y-78630000D01*
X127779523Y-78668095D01*
X127741428Y-78744285D01*
X127741428Y-78934761D01*
X127779523Y-79010952D01*
X127817619Y-79049047D01*
X127893809Y-79087142D01*
X128046190Y-79087142D01*
X128122380Y-79049047D01*
X128160476Y-79010952D01*
X128198571Y-78934761D01*
%TO.C,R8*%
X184756666Y-65171904D02*
X184490000Y-64790952D01*
X184299523Y-65171904D02*
X184299523Y-64371904D01*
X184604285Y-64371904D01*
X184680476Y-64410000D01*
X184718571Y-64448095D01*
X184756666Y-64524285D01*
X184756666Y-64638571D01*
X184718571Y-64714761D01*
X184680476Y-64752857D01*
X184604285Y-64790952D01*
X184299523Y-64790952D01*
X185213809Y-64714761D02*
X185137619Y-64676666D01*
X185099523Y-64638571D01*
X185061428Y-64562380D01*
X185061428Y-64524285D01*
X185099523Y-64448095D01*
X185137619Y-64410000D01*
X185213809Y-64371904D01*
X185366190Y-64371904D01*
X185442380Y-64410000D01*
X185480476Y-64448095D01*
X185518571Y-64524285D01*
X185518571Y-64562380D01*
X185480476Y-64638571D01*
X185442380Y-64676666D01*
X185366190Y-64714761D01*
X185213809Y-64714761D01*
X185137619Y-64752857D01*
X185099523Y-64790952D01*
X185061428Y-64867142D01*
X185061428Y-65019523D01*
X185099523Y-65095714D01*
X185137619Y-65133809D01*
X185213809Y-65171904D01*
X185366190Y-65171904D01*
X185442380Y-65133809D01*
X185480476Y-65095714D01*
X185518571Y-65019523D01*
X185518571Y-64867142D01*
X185480476Y-64790952D01*
X185442380Y-64752857D01*
X185366190Y-64714761D01*
%TO.C,R7*%
X189056666Y-65221904D02*
X188790000Y-64840952D01*
X188599523Y-65221904D02*
X188599523Y-64421904D01*
X188904285Y-64421904D01*
X188980476Y-64460000D01*
X189018571Y-64498095D01*
X189056666Y-64574285D01*
X189056666Y-64688571D01*
X189018571Y-64764761D01*
X188980476Y-64802857D01*
X188904285Y-64840952D01*
X188599523Y-64840952D01*
X189323333Y-64421904D02*
X189856666Y-64421904D01*
X189513809Y-65221904D01*
%TO.C,R6*%
X184636666Y-80891904D02*
X184370000Y-80510952D01*
X184179523Y-80891904D02*
X184179523Y-80091904D01*
X184484285Y-80091904D01*
X184560476Y-80130000D01*
X184598571Y-80168095D01*
X184636666Y-80244285D01*
X184636666Y-80358571D01*
X184598571Y-80434761D01*
X184560476Y-80472857D01*
X184484285Y-80510952D01*
X184179523Y-80510952D01*
X185322380Y-80091904D02*
X185170000Y-80091904D01*
X185093809Y-80130000D01*
X185055714Y-80168095D01*
X184979523Y-80282380D01*
X184941428Y-80434761D01*
X184941428Y-80739523D01*
X184979523Y-80815714D01*
X185017619Y-80853809D01*
X185093809Y-80891904D01*
X185246190Y-80891904D01*
X185322380Y-80853809D01*
X185360476Y-80815714D01*
X185398571Y-80739523D01*
X185398571Y-80549047D01*
X185360476Y-80472857D01*
X185322380Y-80434761D01*
X185246190Y-80396666D01*
X185093809Y-80396666D01*
X185017619Y-80434761D01*
X184979523Y-80472857D01*
X184941428Y-80549047D01*
%TO.C,R5*%
X159826666Y-80891904D02*
X159560000Y-80510952D01*
X159369523Y-80891904D02*
X159369523Y-80091904D01*
X159674285Y-80091904D01*
X159750476Y-80130000D01*
X159788571Y-80168095D01*
X159826666Y-80244285D01*
X159826666Y-80358571D01*
X159788571Y-80434761D01*
X159750476Y-80472857D01*
X159674285Y-80510952D01*
X159369523Y-80510952D01*
X160550476Y-80091904D02*
X160169523Y-80091904D01*
X160131428Y-80472857D01*
X160169523Y-80434761D01*
X160245714Y-80396666D01*
X160436190Y-80396666D01*
X160512380Y-80434761D01*
X160550476Y-80472857D01*
X160588571Y-80549047D01*
X160588571Y-80739523D01*
X160550476Y-80815714D01*
X160512380Y-80853809D01*
X160436190Y-80891904D01*
X160245714Y-80891904D01*
X160169523Y-80853809D01*
X160131428Y-80815714D01*
%TO.C,R4*%
X168916666Y-81371904D02*
X168650000Y-80990952D01*
X168459523Y-81371904D02*
X168459523Y-80571904D01*
X168764285Y-80571904D01*
X168840476Y-80610000D01*
X168878571Y-80648095D01*
X168916666Y-80724285D01*
X168916666Y-80838571D01*
X168878571Y-80914761D01*
X168840476Y-80952857D01*
X168764285Y-80990952D01*
X168459523Y-80990952D01*
X169602380Y-80838571D02*
X169602380Y-81371904D01*
X169411904Y-80533809D02*
X169221428Y-81105238D01*
X169716666Y-81105238D01*
%TO.C,R3*%
X144836666Y-81251904D02*
X144570000Y-80870952D01*
X144379523Y-81251904D02*
X144379523Y-80451904D01*
X144684285Y-80451904D01*
X144760476Y-80490000D01*
X144798571Y-80528095D01*
X144836666Y-80604285D01*
X144836666Y-80718571D01*
X144798571Y-80794761D01*
X144760476Y-80832857D01*
X144684285Y-80870952D01*
X144379523Y-80870952D01*
X145103333Y-80451904D02*
X145598571Y-80451904D01*
X145331904Y-80756666D01*
X145446190Y-80756666D01*
X145522380Y-80794761D01*
X145560476Y-80832857D01*
X145598571Y-80909047D01*
X145598571Y-81099523D01*
X145560476Y-81175714D01*
X145522380Y-81213809D01*
X145446190Y-81251904D01*
X145217619Y-81251904D01*
X145141428Y-81213809D01*
X145103333Y-81175714D01*
%TO.C,R2*%
X109696266Y-75952304D02*
X109429600Y-75571352D01*
X109239123Y-75952304D02*
X109239123Y-75152304D01*
X109543885Y-75152304D01*
X109620076Y-75190400D01*
X109658171Y-75228495D01*
X109696266Y-75304685D01*
X109696266Y-75418971D01*
X109658171Y-75495161D01*
X109620076Y-75533257D01*
X109543885Y-75571352D01*
X109239123Y-75571352D01*
X110001028Y-75228495D02*
X110039123Y-75190400D01*
X110115314Y-75152304D01*
X110305790Y-75152304D01*
X110381980Y-75190400D01*
X110420076Y-75228495D01*
X110458171Y-75304685D01*
X110458171Y-75380876D01*
X110420076Y-75495161D01*
X109962933Y-75952304D01*
X110458171Y-75952304D01*
%TO.C,R1*%
X126536466Y-73158304D02*
X126269800Y-72777352D01*
X126079323Y-73158304D02*
X126079323Y-72358304D01*
X126384085Y-72358304D01*
X126460276Y-72396400D01*
X126498371Y-72434495D01*
X126536466Y-72510685D01*
X126536466Y-72624971D01*
X126498371Y-72701161D01*
X126460276Y-72739257D01*
X126384085Y-72777352D01*
X126079323Y-72777352D01*
X127298371Y-73158304D02*
X126841228Y-73158304D01*
X127069800Y-73158304D02*
X127069800Y-72358304D01*
X126993609Y-72472590D01*
X126917419Y-72548780D01*
X126841228Y-72586876D01*
%TO.C,Q4*%
X103493809Y-82012095D02*
X103417619Y-81974000D01*
X103341428Y-81897809D01*
X103227142Y-81783523D01*
X103150952Y-81745428D01*
X103074761Y-81745428D01*
X103112857Y-81935904D02*
X103036666Y-81897809D01*
X102960476Y-81821619D01*
X102922380Y-81669238D01*
X102922380Y-81402571D01*
X102960476Y-81250190D01*
X103036666Y-81174000D01*
X103112857Y-81135904D01*
X103265238Y-81135904D01*
X103341428Y-81174000D01*
X103417619Y-81250190D01*
X103455714Y-81402571D01*
X103455714Y-81669238D01*
X103417619Y-81821619D01*
X103341428Y-81897809D01*
X103265238Y-81935904D01*
X103112857Y-81935904D01*
X104141428Y-81402571D02*
X104141428Y-81935904D01*
X103950952Y-81097809D02*
X103760476Y-81669238D01*
X104255714Y-81669238D01*
%TO.C,Q3*%
X123123809Y-79248095D02*
X123047619Y-79210000D01*
X122971428Y-79133809D01*
X122857142Y-79019523D01*
X122780952Y-78981428D01*
X122704761Y-78981428D01*
X122742857Y-79171904D02*
X122666666Y-79133809D01*
X122590476Y-79057619D01*
X122552380Y-78905238D01*
X122552380Y-78638571D01*
X122590476Y-78486190D01*
X122666666Y-78410000D01*
X122742857Y-78371904D01*
X122895238Y-78371904D01*
X122971428Y-78410000D01*
X123047619Y-78486190D01*
X123085714Y-78638571D01*
X123085714Y-78905238D01*
X123047619Y-79057619D01*
X122971428Y-79133809D01*
X122895238Y-79171904D01*
X122742857Y-79171904D01*
X123352380Y-78371904D02*
X123847619Y-78371904D01*
X123580952Y-78676666D01*
X123695238Y-78676666D01*
X123771428Y-78714761D01*
X123809523Y-78752857D01*
X123847619Y-78829047D01*
X123847619Y-79019523D01*
X123809523Y-79095714D01*
X123771428Y-79133809D01*
X123695238Y-79171904D01*
X123466666Y-79171904D01*
X123390476Y-79133809D01*
X123352380Y-79095714D01*
%TO.C,Q2*%
X178079409Y-80752895D02*
X178003219Y-80714800D01*
X177927028Y-80638609D01*
X177812742Y-80524323D01*
X177736552Y-80486228D01*
X177660361Y-80486228D01*
X177698457Y-80676704D02*
X177622266Y-80638609D01*
X177546076Y-80562419D01*
X177507980Y-80410038D01*
X177507980Y-80143371D01*
X177546076Y-79990990D01*
X177622266Y-79914800D01*
X177698457Y-79876704D01*
X177850838Y-79876704D01*
X177927028Y-79914800D01*
X178003219Y-79990990D01*
X178041314Y-80143371D01*
X178041314Y-80410038D01*
X178003219Y-80562419D01*
X177927028Y-80638609D01*
X177850838Y-80676704D01*
X177698457Y-80676704D01*
X178346076Y-79952895D02*
X178384171Y-79914800D01*
X178460361Y-79876704D01*
X178650838Y-79876704D01*
X178727028Y-79914800D01*
X178765123Y-79952895D01*
X178803219Y-80029085D01*
X178803219Y-80105276D01*
X178765123Y-80219561D01*
X178307980Y-80676704D01*
X178803219Y-80676704D01*
%TO.C,Q1*%
X151593809Y-79328095D02*
X151517619Y-79290000D01*
X151441428Y-79213809D01*
X151327142Y-79099523D01*
X151250952Y-79061428D01*
X151174761Y-79061428D01*
X151212857Y-79251904D02*
X151136666Y-79213809D01*
X151060476Y-79137619D01*
X151022380Y-78985238D01*
X151022380Y-78718571D01*
X151060476Y-78566190D01*
X151136666Y-78490000D01*
X151212857Y-78451904D01*
X151365238Y-78451904D01*
X151441428Y-78490000D01*
X151517619Y-78566190D01*
X151555714Y-78718571D01*
X151555714Y-78985238D01*
X151517619Y-79137619D01*
X151441428Y-79213809D01*
X151365238Y-79251904D01*
X151212857Y-79251904D01*
X152317619Y-79251904D02*
X151860476Y-79251904D01*
X152089047Y-79251904D02*
X152089047Y-78451904D01*
X152012857Y-78566190D01*
X151936666Y-78642380D01*
X151860476Y-78680476D01*
%TO.C,PS1*%
X161232971Y-73032704D02*
X161232971Y-72232704D01*
X161537733Y-72232704D01*
X161613923Y-72270800D01*
X161652019Y-72308895D01*
X161690114Y-72385085D01*
X161690114Y-72499371D01*
X161652019Y-72575561D01*
X161613923Y-72613657D01*
X161537733Y-72651752D01*
X161232971Y-72651752D01*
X161994876Y-72994609D02*
X162109161Y-73032704D01*
X162299638Y-73032704D01*
X162375828Y-72994609D01*
X162413923Y-72956514D01*
X162452019Y-72880323D01*
X162452019Y-72804133D01*
X162413923Y-72727942D01*
X162375828Y-72689847D01*
X162299638Y-72651752D01*
X162147257Y-72613657D01*
X162071066Y-72575561D01*
X162032971Y-72537466D01*
X161994876Y-72461276D01*
X161994876Y-72385085D01*
X162032971Y-72308895D01*
X162071066Y-72270800D01*
X162147257Y-72232704D01*
X162337733Y-72232704D01*
X162452019Y-72270800D01*
X163213923Y-73032704D02*
X162756780Y-73032704D01*
X162985352Y-73032704D02*
X162985352Y-72232704D01*
X162909161Y-72346990D01*
X162832971Y-72423180D01*
X162756780Y-72461276D01*
%TO.C,L2*%
X128035066Y-62972904D02*
X127654114Y-62972904D01*
X127654114Y-62172904D01*
X128263638Y-62249095D02*
X128301733Y-62211000D01*
X128377923Y-62172904D01*
X128568400Y-62172904D01*
X128644590Y-62211000D01*
X128682685Y-62249095D01*
X128720780Y-62325285D01*
X128720780Y-62401476D01*
X128682685Y-62515761D01*
X128225542Y-62972904D01*
X128720780Y-62972904D01*
%TO.C,L1*%
X171964366Y-75634804D02*
X171583414Y-75634804D01*
X171583414Y-74834804D01*
X172650080Y-75634804D02*
X172192938Y-75634804D01*
X172421509Y-75634804D02*
X172421509Y-74834804D01*
X172345319Y-74949090D01*
X172269128Y-75025280D01*
X172192938Y-75063376D01*
%TO.C,K4*%
X103079523Y-97501904D02*
X103079523Y-96701904D01*
X103536666Y-97501904D02*
X103193809Y-97044761D01*
X103536666Y-96701904D02*
X103079523Y-97159047D01*
X104222380Y-96968571D02*
X104222380Y-97501904D01*
X104031904Y-96663809D02*
X103841428Y-97235238D01*
X104336666Y-97235238D01*
%TO.C,K2*%
X186869523Y-96931904D02*
X186869523Y-96131904D01*
X187326666Y-96931904D02*
X186983809Y-96474761D01*
X187326666Y-96131904D02*
X186869523Y-96589047D01*
X187631428Y-96208095D02*
X187669523Y-96170000D01*
X187745714Y-96131904D01*
X187936190Y-96131904D01*
X188012380Y-96170000D01*
X188050476Y-96208095D01*
X188088571Y-96284285D01*
X188088571Y-96360476D01*
X188050476Y-96474761D01*
X187593333Y-96931904D01*
X188088571Y-96931904D01*
%TO.C,K1*%
X162445363Y-96891904D02*
X162445363Y-96091904D01*
X162902506Y-96891904D02*
X162559649Y-96434761D01*
X162902506Y-96091904D02*
X162445363Y-96549047D01*
X163664411Y-96891904D02*
X163207268Y-96891904D01*
X163435840Y-96891904D02*
X163435840Y-96091904D01*
X163359649Y-96206190D01*
X163283459Y-96282380D01*
X163207268Y-96320476D01*
%TO.C,J9*%
X168452833Y-86010804D02*
X168452833Y-86582233D01*
X168414738Y-86696519D01*
X168338547Y-86772709D01*
X168224261Y-86810804D01*
X168148071Y-86810804D01*
X168871880Y-86810804D02*
X169024261Y-86810804D01*
X169100452Y-86772709D01*
X169138547Y-86734614D01*
X169214738Y-86620328D01*
X169252833Y-86467947D01*
X169252833Y-86163185D01*
X169214738Y-86086995D01*
X169176642Y-86048900D01*
X169100452Y-86010804D01*
X168948071Y-86010804D01*
X168871880Y-86048900D01*
X168833785Y-86086995D01*
X168795690Y-86163185D01*
X168795690Y-86353661D01*
X168833785Y-86429852D01*
X168871880Y-86467947D01*
X168948071Y-86506042D01*
X169100452Y-86506042D01*
X169176642Y-86467947D01*
X169214738Y-86429852D01*
X169252833Y-86353661D01*
%TO.C,J8*%
X144157733Y-85845704D02*
X144157733Y-86417133D01*
X144119638Y-86531419D01*
X144043447Y-86607609D01*
X143929161Y-86645704D01*
X143852971Y-86645704D01*
X144652971Y-86188561D02*
X144576780Y-86150466D01*
X144538685Y-86112371D01*
X144500590Y-86036180D01*
X144500590Y-85998085D01*
X144538685Y-85921895D01*
X144576780Y-85883800D01*
X144652971Y-85845704D01*
X144805352Y-85845704D01*
X144881542Y-85883800D01*
X144919638Y-85921895D01*
X144957733Y-85998085D01*
X144957733Y-86036180D01*
X144919638Y-86112371D01*
X144881542Y-86150466D01*
X144805352Y-86188561D01*
X144652971Y-86188561D01*
X144576780Y-86226657D01*
X144538685Y-86264752D01*
X144500590Y-86340942D01*
X144500590Y-86493323D01*
X144538685Y-86569514D01*
X144576780Y-86607609D01*
X144652971Y-86645704D01*
X144805352Y-86645704D01*
X144881542Y-86607609D01*
X144919638Y-86569514D01*
X144957733Y-86493323D01*
X144957733Y-86340942D01*
X144919638Y-86264752D01*
X144881542Y-86226657D01*
X144805352Y-86188561D01*
%TO.C,J7*%
X119183333Y-49941904D02*
X119183333Y-50513333D01*
X119145238Y-50627619D01*
X119069047Y-50703809D01*
X118954761Y-50741904D01*
X118878571Y-50741904D01*
X119488095Y-49941904D02*
X120021428Y-49941904D01*
X119678571Y-50741904D01*
%TO.C,J6*%
X111703333Y-64760704D02*
X111703333Y-65332133D01*
X111665238Y-65446419D01*
X111589047Y-65522609D01*
X111474761Y-65560704D01*
X111398571Y-65560704D01*
X112427142Y-64760704D02*
X112274761Y-64760704D01*
X112198571Y-64798800D01*
X112160476Y-64836895D01*
X112084285Y-64951180D01*
X112046190Y-65103561D01*
X112046190Y-65408323D01*
X112084285Y-65484514D01*
X112122380Y-65522609D01*
X112198571Y-65560704D01*
X112350952Y-65560704D01*
X112427142Y-65522609D01*
X112465238Y-65484514D01*
X112503333Y-65408323D01*
X112503333Y-65217847D01*
X112465238Y-65141657D01*
X112427142Y-65103561D01*
X112350952Y-65065466D01*
X112198571Y-65065466D01*
X112122380Y-65103561D01*
X112084285Y-65141657D01*
X112046190Y-65217847D01*
%TO.C,J3*%
X173973333Y-108121904D02*
X173973333Y-108693333D01*
X173935238Y-108807619D01*
X173859047Y-108883809D01*
X173744761Y-108921904D01*
X173668571Y-108921904D01*
X174278095Y-108121904D02*
X174773333Y-108121904D01*
X174506666Y-108426666D01*
X174620952Y-108426666D01*
X174697142Y-108464761D01*
X174735238Y-108502857D01*
X174773333Y-108579047D01*
X174773333Y-108769523D01*
X174735238Y-108845714D01*
X174697142Y-108883809D01*
X174620952Y-108921904D01*
X174392380Y-108921904D01*
X174316190Y-108883809D01*
X174278095Y-108845714D01*
%TO.C,J2*%
X150953333Y-108331904D02*
X150953333Y-108903333D01*
X150915238Y-109017619D01*
X150839047Y-109093809D01*
X150724761Y-109131904D01*
X150648571Y-109131904D01*
X151296190Y-108408095D02*
X151334285Y-108370000D01*
X151410476Y-108331904D01*
X151600952Y-108331904D01*
X151677142Y-108370000D01*
X151715238Y-108408095D01*
X151753333Y-108484285D01*
X151753333Y-108560476D01*
X151715238Y-108674761D01*
X151258095Y-109131904D01*
X151753333Y-109131904D01*
%TO.C,J1*%
X183993333Y-50681904D02*
X183993333Y-51253333D01*
X183955238Y-51367619D01*
X183879047Y-51443809D01*
X183764761Y-51481904D01*
X183688571Y-51481904D01*
X184793333Y-51481904D02*
X184336190Y-51481904D01*
X184564761Y-51481904D02*
X184564761Y-50681904D01*
X184488571Y-50796190D01*
X184412380Y-50872380D01*
X184336190Y-50910476D01*
%TO.C,IC1*%
X140259047Y-59481904D02*
X140259047Y-58681904D01*
X141097142Y-59405714D02*
X141059047Y-59443809D01*
X140944761Y-59481904D01*
X140868571Y-59481904D01*
X140754285Y-59443809D01*
X140678095Y-59367619D01*
X140640000Y-59291428D01*
X140601904Y-59139047D01*
X140601904Y-59024761D01*
X140640000Y-58872380D01*
X140678095Y-58796190D01*
X140754285Y-58720000D01*
X140868571Y-58681904D01*
X140944761Y-58681904D01*
X141059047Y-58720000D01*
X141097142Y-58758095D01*
X141859047Y-59481904D02*
X141401904Y-59481904D01*
X141630476Y-59481904D02*
X141630476Y-58681904D01*
X141554285Y-58796190D01*
X141478095Y-58872380D01*
X141401904Y-58910476D01*
%TO.C,D21*%
X137046771Y-79398904D02*
X137046771Y-78598904D01*
X137237247Y-78598904D01*
X137351533Y-78637000D01*
X137427723Y-78713190D01*
X137465819Y-78789380D01*
X137503914Y-78941761D01*
X137503914Y-79056047D01*
X137465819Y-79208428D01*
X137427723Y-79284619D01*
X137351533Y-79360809D01*
X137237247Y-79398904D01*
X137046771Y-79398904D01*
X137808676Y-78675095D02*
X137846771Y-78637000D01*
X137922961Y-78598904D01*
X138113438Y-78598904D01*
X138189628Y-78637000D01*
X138227723Y-78675095D01*
X138265819Y-78751285D01*
X138265819Y-78827476D01*
X138227723Y-78941761D01*
X137770580Y-79398904D01*
X138265819Y-79398904D01*
X139027723Y-79398904D02*
X138570580Y-79398904D01*
X138799152Y-79398904D02*
X138799152Y-78598904D01*
X138722961Y-78713190D01*
X138646771Y-78789380D01*
X138570580Y-78827476D01*
%TO.C,D20*%
X141918571Y-75541904D02*
X141918571Y-74741904D01*
X142109047Y-74741904D01*
X142223333Y-74780000D01*
X142299523Y-74856190D01*
X142337619Y-74932380D01*
X142375714Y-75084761D01*
X142375714Y-75199047D01*
X142337619Y-75351428D01*
X142299523Y-75427619D01*
X142223333Y-75503809D01*
X142109047Y-75541904D01*
X141918571Y-75541904D01*
X142680476Y-74818095D02*
X142718571Y-74780000D01*
X142794761Y-74741904D01*
X142985238Y-74741904D01*
X143061428Y-74780000D01*
X143099523Y-74818095D01*
X143137619Y-74894285D01*
X143137619Y-74970476D01*
X143099523Y-75084761D01*
X142642380Y-75541904D01*
X143137619Y-75541904D01*
X143632857Y-74741904D02*
X143709047Y-74741904D01*
X143785238Y-74780000D01*
X143823333Y-74818095D01*
X143861428Y-74894285D01*
X143899523Y-75046666D01*
X143899523Y-75237142D01*
X143861428Y-75389523D01*
X143823333Y-75465714D01*
X143785238Y-75503809D01*
X143709047Y-75541904D01*
X143632857Y-75541904D01*
X143556666Y-75503809D01*
X143518571Y-75465714D01*
X143480476Y-75389523D01*
X143442380Y-75237142D01*
X143442380Y-75046666D01*
X143480476Y-74894285D01*
X143518571Y-74818095D01*
X143556666Y-74780000D01*
X143632857Y-74741904D01*
%TO.C,D19*%
X176714104Y-63671328D02*
X175914104Y-63671328D01*
X175914104Y-63480852D01*
X175952200Y-63366566D01*
X176028390Y-63290376D01*
X176104580Y-63252280D01*
X176256961Y-63214185D01*
X176371247Y-63214185D01*
X176523628Y-63252280D01*
X176599819Y-63290376D01*
X176676009Y-63366566D01*
X176714104Y-63480852D01*
X176714104Y-63671328D01*
X176714104Y-62452280D02*
X176714104Y-62909423D01*
X176714104Y-62680852D02*
X175914104Y-62680852D01*
X176028390Y-62757042D01*
X176104580Y-62833233D01*
X176142676Y-62909423D01*
X176714104Y-62071328D02*
X176714104Y-61918947D01*
X176676009Y-61842757D01*
X176637914Y-61804661D01*
X176523628Y-61728471D01*
X176371247Y-61690376D01*
X176066485Y-61690376D01*
X175990295Y-61728471D01*
X175952200Y-61766566D01*
X175914104Y-61842757D01*
X175914104Y-61995138D01*
X175952200Y-62071328D01*
X175990295Y-62109423D01*
X176066485Y-62147519D01*
X176256961Y-62147519D01*
X176333152Y-62109423D01*
X176371247Y-62071328D01*
X176409342Y-61995138D01*
X176409342Y-61842757D01*
X176371247Y-61766566D01*
X176333152Y-61728471D01*
X176256961Y-61690376D01*
%TO.C,D18*%
X107054771Y-72739204D02*
X107054771Y-71939204D01*
X107245247Y-71939204D01*
X107359533Y-71977300D01*
X107435723Y-72053490D01*
X107473819Y-72129680D01*
X107511914Y-72282061D01*
X107511914Y-72396347D01*
X107473819Y-72548728D01*
X107435723Y-72624919D01*
X107359533Y-72701109D01*
X107245247Y-72739204D01*
X107054771Y-72739204D01*
X108273819Y-72739204D02*
X107816676Y-72739204D01*
X108045247Y-72739204D02*
X108045247Y-71939204D01*
X107969057Y-72053490D01*
X107892866Y-72129680D01*
X107816676Y-72167776D01*
X108730961Y-72282061D02*
X108654771Y-72243966D01*
X108616676Y-72205871D01*
X108578580Y-72129680D01*
X108578580Y-72091585D01*
X108616676Y-72015395D01*
X108654771Y-71977300D01*
X108730961Y-71939204D01*
X108883342Y-71939204D01*
X108959533Y-71977300D01*
X108997628Y-72015395D01*
X109035723Y-72091585D01*
X109035723Y-72129680D01*
X108997628Y-72205871D01*
X108959533Y-72243966D01*
X108883342Y-72282061D01*
X108730961Y-72282061D01*
X108654771Y-72320157D01*
X108616676Y-72358252D01*
X108578580Y-72434442D01*
X108578580Y-72586823D01*
X108616676Y-72663014D01*
X108654771Y-72701109D01*
X108730961Y-72739204D01*
X108883342Y-72739204D01*
X108959533Y-72701109D01*
X108997628Y-72663014D01*
X109035723Y-72586823D01*
X109035723Y-72434442D01*
X108997628Y-72358252D01*
X108959533Y-72320157D01*
X108883342Y-72282061D01*
%TO.C,D17*%
X164522271Y-103562104D02*
X164522271Y-102762104D01*
X164712747Y-102762104D01*
X164827033Y-102800200D01*
X164903223Y-102876390D01*
X164941319Y-102952580D01*
X164979414Y-103104961D01*
X164979414Y-103219247D01*
X164941319Y-103371628D01*
X164903223Y-103447819D01*
X164827033Y-103524009D01*
X164712747Y-103562104D01*
X164522271Y-103562104D01*
X165741319Y-103562104D02*
X165284176Y-103562104D01*
X165512747Y-103562104D02*
X165512747Y-102762104D01*
X165436557Y-102876390D01*
X165360366Y-102952580D01*
X165284176Y-102990676D01*
X166007985Y-102762104D02*
X166541319Y-102762104D01*
X166198461Y-103562104D01*
%TO.C,D16*%
X140138271Y-103549404D02*
X140138271Y-102749404D01*
X140328747Y-102749404D01*
X140443033Y-102787500D01*
X140519223Y-102863690D01*
X140557319Y-102939880D01*
X140595414Y-103092261D01*
X140595414Y-103206547D01*
X140557319Y-103358928D01*
X140519223Y-103435119D01*
X140443033Y-103511309D01*
X140328747Y-103549404D01*
X140138271Y-103549404D01*
X141357319Y-103549404D02*
X140900176Y-103549404D01*
X141128747Y-103549404D02*
X141128747Y-102749404D01*
X141052557Y-102863690D01*
X140976366Y-102939880D01*
X140900176Y-102977976D01*
X142043033Y-102749404D02*
X141890652Y-102749404D01*
X141814461Y-102787500D01*
X141776366Y-102825595D01*
X141700176Y-102939880D01*
X141662080Y-103092261D01*
X141662080Y-103397023D01*
X141700176Y-103473214D01*
X141738271Y-103511309D01*
X141814461Y-103549404D01*
X141966842Y-103549404D01*
X142043033Y-103511309D01*
X142081128Y-103473214D01*
X142119223Y-103397023D01*
X142119223Y-103206547D01*
X142081128Y-103130357D01*
X142043033Y-103092261D01*
X141966842Y-103054166D01*
X141814461Y-103054166D01*
X141738271Y-103092261D01*
X141700176Y-103130357D01*
X141662080Y-103206547D01*
%TO.C,D15*%
X180143271Y-78733604D02*
X180143271Y-77933604D01*
X180333747Y-77933604D01*
X180448033Y-77971700D01*
X180524223Y-78047890D01*
X180562319Y-78124080D01*
X180600414Y-78276461D01*
X180600414Y-78390747D01*
X180562319Y-78543128D01*
X180524223Y-78619319D01*
X180448033Y-78695509D01*
X180333747Y-78733604D01*
X180143271Y-78733604D01*
X181362319Y-78733604D02*
X180905176Y-78733604D01*
X181133747Y-78733604D02*
X181133747Y-77933604D01*
X181057557Y-78047890D01*
X180981366Y-78124080D01*
X180905176Y-78162176D01*
X182086128Y-77933604D02*
X181705176Y-77933604D01*
X181667080Y-78314557D01*
X181705176Y-78276461D01*
X181781366Y-78238366D01*
X181971842Y-78238366D01*
X182048033Y-78276461D01*
X182086128Y-78314557D01*
X182124223Y-78390747D01*
X182124223Y-78581223D01*
X182086128Y-78657414D01*
X182048033Y-78695509D01*
X181971842Y-78733604D01*
X181781366Y-78733604D01*
X181705176Y-78695509D01*
X181667080Y-78657414D01*
%TO.C,D14*%
X101176971Y-85703504D02*
X101176971Y-84903504D01*
X101367447Y-84903504D01*
X101481733Y-84941600D01*
X101557923Y-85017790D01*
X101596019Y-85093980D01*
X101634114Y-85246361D01*
X101634114Y-85360647D01*
X101596019Y-85513028D01*
X101557923Y-85589219D01*
X101481733Y-85665409D01*
X101367447Y-85703504D01*
X101176971Y-85703504D01*
X102396019Y-85703504D02*
X101938876Y-85703504D01*
X102167447Y-85703504D02*
X102167447Y-84903504D01*
X102091257Y-85017790D01*
X102015066Y-85093980D01*
X101938876Y-85132076D01*
X103081733Y-85170171D02*
X103081733Y-85703504D01*
X102891257Y-84865409D02*
X102700780Y-85436838D01*
X103196019Y-85436838D01*
%TO.C,D13*%
X111658571Y-85451904D02*
X111658571Y-84651904D01*
X111849047Y-84651904D01*
X111963333Y-84690000D01*
X112039523Y-84766190D01*
X112077619Y-84842380D01*
X112115714Y-84994761D01*
X112115714Y-85109047D01*
X112077619Y-85261428D01*
X112039523Y-85337619D01*
X111963333Y-85413809D01*
X111849047Y-85451904D01*
X111658571Y-85451904D01*
X112877619Y-85451904D02*
X112420476Y-85451904D01*
X112649047Y-85451904D02*
X112649047Y-84651904D01*
X112572857Y-84766190D01*
X112496666Y-84842380D01*
X112420476Y-84880476D01*
X113144285Y-84651904D02*
X113639523Y-84651904D01*
X113372857Y-84956666D01*
X113487142Y-84956666D01*
X113563333Y-84994761D01*
X113601428Y-85032857D01*
X113639523Y-85109047D01*
X113639523Y-85299523D01*
X113601428Y-85375714D01*
X113563333Y-85413809D01*
X113487142Y-85451904D01*
X113258571Y-85451904D01*
X113182380Y-85413809D01*
X113144285Y-85375714D01*
%TO.C,D12*%
X121443704Y-85756628D02*
X120643704Y-85756628D01*
X120643704Y-85566152D01*
X120681800Y-85451866D01*
X120757990Y-85375676D01*
X120834180Y-85337580D01*
X120986561Y-85299485D01*
X121100847Y-85299485D01*
X121253228Y-85337580D01*
X121329419Y-85375676D01*
X121405609Y-85451866D01*
X121443704Y-85566152D01*
X121443704Y-85756628D01*
X121443704Y-84537580D02*
X121443704Y-84994723D01*
X121443704Y-84766152D02*
X120643704Y-84766152D01*
X120757990Y-84842342D01*
X120834180Y-84918533D01*
X120872276Y-84994723D01*
X120719895Y-84232819D02*
X120681800Y-84194723D01*
X120643704Y-84118533D01*
X120643704Y-83928057D01*
X120681800Y-83851866D01*
X120719895Y-83813771D01*
X120796085Y-83775676D01*
X120872276Y-83775676D01*
X120986561Y-83813771D01*
X121443704Y-84270914D01*
X121443704Y-83775676D01*
%TO.C,D11*%
X128528571Y-85481904D02*
X128528571Y-84681904D01*
X128719047Y-84681904D01*
X128833333Y-84720000D01*
X128909523Y-84796190D01*
X128947619Y-84872380D01*
X128985714Y-85024761D01*
X128985714Y-85139047D01*
X128947619Y-85291428D01*
X128909523Y-85367619D01*
X128833333Y-85443809D01*
X128719047Y-85481904D01*
X128528571Y-85481904D01*
X129747619Y-85481904D02*
X129290476Y-85481904D01*
X129519047Y-85481904D02*
X129519047Y-84681904D01*
X129442857Y-84796190D01*
X129366666Y-84872380D01*
X129290476Y-84910476D01*
X130509523Y-85481904D02*
X130052380Y-85481904D01*
X130280952Y-85481904D02*
X130280952Y-84681904D01*
X130204761Y-84796190D01*
X130128571Y-84872380D01*
X130052380Y-84910476D01*
%TO.C,D10*%
X185108971Y-72345504D02*
X185108971Y-71545504D01*
X185299447Y-71545504D01*
X185413733Y-71583600D01*
X185489923Y-71659790D01*
X185528019Y-71735980D01*
X185566114Y-71888361D01*
X185566114Y-72002647D01*
X185528019Y-72155028D01*
X185489923Y-72231219D01*
X185413733Y-72307409D01*
X185299447Y-72345504D01*
X185108971Y-72345504D01*
X186328019Y-72345504D02*
X185870876Y-72345504D01*
X186099447Y-72345504D02*
X186099447Y-71545504D01*
X186023257Y-71659790D01*
X185947066Y-71735980D01*
X185870876Y-71774076D01*
X186823257Y-71545504D02*
X186899447Y-71545504D01*
X186975638Y-71583600D01*
X187013733Y-71621695D01*
X187051828Y-71697885D01*
X187089923Y-71850266D01*
X187089923Y-72040742D01*
X187051828Y-72193123D01*
X187013733Y-72269314D01*
X186975638Y-72307409D01*
X186899447Y-72345504D01*
X186823257Y-72345504D01*
X186747066Y-72307409D01*
X186708971Y-72269314D01*
X186670876Y-72193123D01*
X186632780Y-72040742D01*
X186632780Y-71850266D01*
X186670876Y-71697885D01*
X186708971Y-71621695D01*
X186747066Y-71583600D01*
X186823257Y-71545504D01*
%TO.C,D9*%
X112149523Y-82651904D02*
X112149523Y-81851904D01*
X112340000Y-81851904D01*
X112454285Y-81890000D01*
X112530476Y-81966190D01*
X112568571Y-82042380D01*
X112606666Y-82194761D01*
X112606666Y-82309047D01*
X112568571Y-82461428D01*
X112530476Y-82537619D01*
X112454285Y-82613809D01*
X112340000Y-82651904D01*
X112149523Y-82651904D01*
X112987619Y-82651904D02*
X113140000Y-82651904D01*
X113216190Y-82613809D01*
X113254285Y-82575714D01*
X113330476Y-82461428D01*
X113368571Y-82309047D01*
X113368571Y-82004285D01*
X113330476Y-81928095D01*
X113292380Y-81890000D01*
X113216190Y-81851904D01*
X113063809Y-81851904D01*
X112987619Y-81890000D01*
X112949523Y-81928095D01*
X112911428Y-82004285D01*
X112911428Y-82194761D01*
X112949523Y-82270952D01*
X112987619Y-82309047D01*
X113063809Y-82347142D01*
X113216190Y-82347142D01*
X113292380Y-82309047D01*
X113330476Y-82270952D01*
X113368571Y-82194761D01*
%TO.C,D7*%
X169106923Y-84994704D02*
X169106923Y-84194704D01*
X169297400Y-84194704D01*
X169411685Y-84232800D01*
X169487876Y-84308990D01*
X169525971Y-84385180D01*
X169564066Y-84537561D01*
X169564066Y-84651847D01*
X169525971Y-84804228D01*
X169487876Y-84880419D01*
X169411685Y-84956609D01*
X169297400Y-84994704D01*
X169106923Y-84994704D01*
X169830733Y-84194704D02*
X170364066Y-84194704D01*
X170021209Y-84994704D01*
%TO.C,D6*%
X186607523Y-84385104D02*
X186607523Y-83585104D01*
X186798000Y-83585104D01*
X186912285Y-83623200D01*
X186988476Y-83699390D01*
X187026571Y-83775580D01*
X187064666Y-83927961D01*
X187064666Y-84042247D01*
X187026571Y-84194628D01*
X186988476Y-84270819D01*
X186912285Y-84347009D01*
X186798000Y-84385104D01*
X186607523Y-84385104D01*
X187750380Y-83585104D02*
X187598000Y-83585104D01*
X187521809Y-83623200D01*
X187483714Y-83661295D01*
X187407523Y-83775580D01*
X187369428Y-83927961D01*
X187369428Y-84232723D01*
X187407523Y-84308914D01*
X187445619Y-84347009D01*
X187521809Y-84385104D01*
X187674190Y-84385104D01*
X187750380Y-84347009D01*
X187788476Y-84308914D01*
X187826571Y-84232723D01*
X187826571Y-84042247D01*
X187788476Y-83966057D01*
X187750380Y-83927961D01*
X187674190Y-83889866D01*
X187521809Y-83889866D01*
X187445619Y-83927961D01*
X187407523Y-83966057D01*
X187369428Y-84042247D01*
%TO.C,D5*%
X145256323Y-84308904D02*
X145256323Y-83508904D01*
X145446800Y-83508904D01*
X145561085Y-83547000D01*
X145637276Y-83623190D01*
X145675371Y-83699380D01*
X145713466Y-83851761D01*
X145713466Y-83966047D01*
X145675371Y-84118428D01*
X145637276Y-84194619D01*
X145561085Y-84270809D01*
X145446800Y-84308904D01*
X145256323Y-84308904D01*
X146437276Y-83508904D02*
X146056323Y-83508904D01*
X146018228Y-83889857D01*
X146056323Y-83851761D01*
X146132514Y-83813666D01*
X146322990Y-83813666D01*
X146399180Y-83851761D01*
X146437276Y-83889857D01*
X146475371Y-83966047D01*
X146475371Y-84156523D01*
X146437276Y-84232714D01*
X146399180Y-84270809D01*
X146322990Y-84308904D01*
X146132514Y-84308904D01*
X146056323Y-84270809D01*
X146018228Y-84232714D01*
%TO.C,D4*%
X161939523Y-85531904D02*
X161939523Y-84731904D01*
X162130000Y-84731904D01*
X162244285Y-84770000D01*
X162320476Y-84846190D01*
X162358571Y-84922380D01*
X162396666Y-85074761D01*
X162396666Y-85189047D01*
X162358571Y-85341428D01*
X162320476Y-85417619D01*
X162244285Y-85493809D01*
X162130000Y-85531904D01*
X161939523Y-85531904D01*
X163082380Y-84998571D02*
X163082380Y-85531904D01*
X162891904Y-84693809D02*
X162701428Y-85265238D01*
X163196666Y-85265238D01*
%TO.C,D3*%
X187939523Y-67761904D02*
X187939523Y-66961904D01*
X188130000Y-66961904D01*
X188244285Y-67000000D01*
X188320476Y-67076190D01*
X188358571Y-67152380D01*
X188396666Y-67304761D01*
X188396666Y-67419047D01*
X188358571Y-67571428D01*
X188320476Y-67647619D01*
X188244285Y-67723809D01*
X188130000Y-67761904D01*
X187939523Y-67761904D01*
X188663333Y-66961904D02*
X189158571Y-66961904D01*
X188891904Y-67266666D01*
X189006190Y-67266666D01*
X189082380Y-67304761D01*
X189120476Y-67342857D01*
X189158571Y-67419047D01*
X189158571Y-67609523D01*
X189120476Y-67685714D01*
X189082380Y-67723809D01*
X189006190Y-67761904D01*
X188777619Y-67761904D01*
X188701428Y-67723809D01*
X188663333Y-67685714D01*
%TO.C,D2*%
X180659523Y-80691904D02*
X180659523Y-79891904D01*
X180850000Y-79891904D01*
X180964285Y-79930000D01*
X181040476Y-80006190D01*
X181078571Y-80082380D01*
X181116666Y-80234761D01*
X181116666Y-80349047D01*
X181078571Y-80501428D01*
X181040476Y-80577619D01*
X180964285Y-80653809D01*
X180850000Y-80691904D01*
X180659523Y-80691904D01*
X181421428Y-79968095D02*
X181459523Y-79930000D01*
X181535714Y-79891904D01*
X181726190Y-79891904D01*
X181802380Y-79930000D01*
X181840476Y-79968095D01*
X181878571Y-80044285D01*
X181878571Y-80120476D01*
X181840476Y-80234761D01*
X181383333Y-80691904D01*
X181878571Y-80691904D01*
%TO.C,D1*%
X155809523Y-80611904D02*
X155809523Y-79811904D01*
X156000000Y-79811904D01*
X156114285Y-79850000D01*
X156190476Y-79926190D01*
X156228571Y-80002380D01*
X156266666Y-80154761D01*
X156266666Y-80269047D01*
X156228571Y-80421428D01*
X156190476Y-80497619D01*
X156114285Y-80573809D01*
X156000000Y-80611904D01*
X155809523Y-80611904D01*
X157028571Y-80611904D02*
X156571428Y-80611904D01*
X156800000Y-80611904D02*
X156800000Y-79811904D01*
X156723809Y-79926190D01*
X156647619Y-80002380D01*
X156571428Y-80040476D01*
%TO.C,C16*%
X129482914Y-63328514D02*
X129444819Y-63366609D01*
X129330533Y-63404704D01*
X129254342Y-63404704D01*
X129140057Y-63366609D01*
X129063866Y-63290419D01*
X129025771Y-63214228D01*
X128987676Y-63061847D01*
X128987676Y-62947561D01*
X129025771Y-62795180D01*
X129063866Y-62718990D01*
X129140057Y-62642800D01*
X129254342Y-62604704D01*
X129330533Y-62604704D01*
X129444819Y-62642800D01*
X129482914Y-62680895D01*
X130244819Y-63404704D02*
X129787676Y-63404704D01*
X130016247Y-63404704D02*
X130016247Y-62604704D01*
X129940057Y-62718990D01*
X129863866Y-62795180D01*
X129787676Y-62833276D01*
X130930533Y-62604704D02*
X130778152Y-62604704D01*
X130701961Y-62642800D01*
X130663866Y-62680895D01*
X130587676Y-62795180D01*
X130549580Y-62947561D01*
X130549580Y-63252323D01*
X130587676Y-63328514D01*
X130625771Y-63366609D01*
X130701961Y-63404704D01*
X130854342Y-63404704D01*
X130930533Y-63366609D01*
X130968628Y-63328514D01*
X131006723Y-63252323D01*
X131006723Y-63061847D01*
X130968628Y-62985657D01*
X130930533Y-62947561D01*
X130854342Y-62909466D01*
X130701961Y-62909466D01*
X130625771Y-62947561D01*
X130587676Y-62985657D01*
X130549580Y-63061847D01*
%TO.C,C15*%
X129584514Y-64877914D02*
X129546419Y-64916009D01*
X129432133Y-64954104D01*
X129355942Y-64954104D01*
X129241657Y-64916009D01*
X129165466Y-64839819D01*
X129127371Y-64763628D01*
X129089276Y-64611247D01*
X129089276Y-64496961D01*
X129127371Y-64344580D01*
X129165466Y-64268390D01*
X129241657Y-64192200D01*
X129355942Y-64154104D01*
X129432133Y-64154104D01*
X129546419Y-64192200D01*
X129584514Y-64230295D01*
X130346419Y-64954104D02*
X129889276Y-64954104D01*
X130117847Y-64954104D02*
X130117847Y-64154104D01*
X130041657Y-64268390D01*
X129965466Y-64344580D01*
X129889276Y-64382676D01*
X131070228Y-64154104D02*
X130689276Y-64154104D01*
X130651180Y-64535057D01*
X130689276Y-64496961D01*
X130765466Y-64458866D01*
X130955942Y-64458866D01*
X131032133Y-64496961D01*
X131070228Y-64535057D01*
X131108323Y-64611247D01*
X131108323Y-64801723D01*
X131070228Y-64877914D01*
X131032133Y-64916009D01*
X130955942Y-64954104D01*
X130765466Y-64954104D01*
X130689276Y-64916009D01*
X130651180Y-64877914D01*
%TO.C,C13*%
X147821714Y-63938114D02*
X147783619Y-63976209D01*
X147669333Y-64014304D01*
X147593142Y-64014304D01*
X147478857Y-63976209D01*
X147402666Y-63900019D01*
X147364571Y-63823828D01*
X147326476Y-63671447D01*
X147326476Y-63557161D01*
X147364571Y-63404780D01*
X147402666Y-63328590D01*
X147478857Y-63252400D01*
X147593142Y-63214304D01*
X147669333Y-63214304D01*
X147783619Y-63252400D01*
X147821714Y-63290495D01*
X148583619Y-64014304D02*
X148126476Y-64014304D01*
X148355047Y-64014304D02*
X148355047Y-63214304D01*
X148278857Y-63328590D01*
X148202666Y-63404780D01*
X148126476Y-63442876D01*
X148850285Y-63214304D02*
X149345523Y-63214304D01*
X149078857Y-63519066D01*
X149193142Y-63519066D01*
X149269333Y-63557161D01*
X149307428Y-63595257D01*
X149345523Y-63671447D01*
X149345523Y-63861923D01*
X149307428Y-63938114D01*
X149269333Y-63976209D01*
X149193142Y-64014304D01*
X148964571Y-64014304D01*
X148888380Y-63976209D01*
X148850285Y-63938114D01*
%TO.C,C11*%
X147694714Y-72396314D02*
X147656619Y-72434409D01*
X147542333Y-72472504D01*
X147466142Y-72472504D01*
X147351857Y-72434409D01*
X147275666Y-72358219D01*
X147237571Y-72282028D01*
X147199476Y-72129647D01*
X147199476Y-72015361D01*
X147237571Y-71862980D01*
X147275666Y-71786790D01*
X147351857Y-71710600D01*
X147466142Y-71672504D01*
X147542333Y-71672504D01*
X147656619Y-71710600D01*
X147694714Y-71748695D01*
X148456619Y-72472504D02*
X147999476Y-72472504D01*
X148228047Y-72472504D02*
X148228047Y-71672504D01*
X148151857Y-71786790D01*
X148075666Y-71862980D01*
X147999476Y-71901076D01*
X149218523Y-72472504D02*
X148761380Y-72472504D01*
X148989952Y-72472504D02*
X148989952Y-71672504D01*
X148913761Y-71786790D01*
X148837571Y-71862980D01*
X148761380Y-71901076D01*
%TO.C,C10*%
X157045714Y-63085714D02*
X157007619Y-63123809D01*
X156893333Y-63161904D01*
X156817142Y-63161904D01*
X156702857Y-63123809D01*
X156626666Y-63047619D01*
X156588571Y-62971428D01*
X156550476Y-62819047D01*
X156550476Y-62704761D01*
X156588571Y-62552380D01*
X156626666Y-62476190D01*
X156702857Y-62400000D01*
X156817142Y-62361904D01*
X156893333Y-62361904D01*
X157007619Y-62400000D01*
X157045714Y-62438095D01*
X157807619Y-63161904D02*
X157350476Y-63161904D01*
X157579047Y-63161904D02*
X157579047Y-62361904D01*
X157502857Y-62476190D01*
X157426666Y-62552380D01*
X157350476Y-62590476D01*
X158302857Y-62361904D02*
X158379047Y-62361904D01*
X158455238Y-62400000D01*
X158493333Y-62438095D01*
X158531428Y-62514285D01*
X158569523Y-62666666D01*
X158569523Y-62857142D01*
X158531428Y-63009523D01*
X158493333Y-63085714D01*
X158455238Y-63123809D01*
X158379047Y-63161904D01*
X158302857Y-63161904D01*
X158226666Y-63123809D01*
X158188571Y-63085714D01*
X158150476Y-63009523D01*
X158112380Y-62857142D01*
X158112380Y-62666666D01*
X158150476Y-62514285D01*
X158188571Y-62438095D01*
X158226666Y-62400000D01*
X158302857Y-62361904D01*
%TO.C,C9*%
X157206666Y-69035714D02*
X157168571Y-69073809D01*
X157054285Y-69111904D01*
X156978095Y-69111904D01*
X156863809Y-69073809D01*
X156787619Y-68997619D01*
X156749523Y-68921428D01*
X156711428Y-68769047D01*
X156711428Y-68654761D01*
X156749523Y-68502380D01*
X156787619Y-68426190D01*
X156863809Y-68350000D01*
X156978095Y-68311904D01*
X157054285Y-68311904D01*
X157168571Y-68350000D01*
X157206666Y-68388095D01*
X157587619Y-69111904D02*
X157740000Y-69111904D01*
X157816190Y-69073809D01*
X157854285Y-69035714D01*
X157930476Y-68921428D01*
X157968571Y-68769047D01*
X157968571Y-68464285D01*
X157930476Y-68388095D01*
X157892380Y-68350000D01*
X157816190Y-68311904D01*
X157663809Y-68311904D01*
X157587619Y-68350000D01*
X157549523Y-68388095D01*
X157511428Y-68464285D01*
X157511428Y-68654761D01*
X157549523Y-68730952D01*
X157587619Y-68769047D01*
X157663809Y-68807142D01*
X157816190Y-68807142D01*
X157892380Y-68769047D01*
X157930476Y-68730952D01*
X157968571Y-68654761D01*
%TO.C,C6*%
X101872066Y-75982314D02*
X101833971Y-76020409D01*
X101719685Y-76058504D01*
X101643495Y-76058504D01*
X101529209Y-76020409D01*
X101453019Y-75944219D01*
X101414923Y-75868028D01*
X101376828Y-75715647D01*
X101376828Y-75601361D01*
X101414923Y-75448980D01*
X101453019Y-75372790D01*
X101529209Y-75296600D01*
X101643495Y-75258504D01*
X101719685Y-75258504D01*
X101833971Y-75296600D01*
X101872066Y-75334695D01*
X102557780Y-75258504D02*
X102405400Y-75258504D01*
X102329209Y-75296600D01*
X102291114Y-75334695D01*
X102214923Y-75448980D01*
X102176828Y-75601361D01*
X102176828Y-75906123D01*
X102214923Y-75982314D01*
X102253019Y-76020409D01*
X102329209Y-76058504D01*
X102481590Y-76058504D01*
X102557780Y-76020409D01*
X102595876Y-75982314D01*
X102633971Y-75906123D01*
X102633971Y-75715647D01*
X102595876Y-75639457D01*
X102557780Y-75601361D01*
X102481590Y-75563266D01*
X102329209Y-75563266D01*
X102253019Y-75601361D01*
X102214923Y-75639457D01*
X102176828Y-75715647D01*
%TO.C,C5*%
X182056666Y-71855714D02*
X182018571Y-71893809D01*
X181904285Y-71931904D01*
X181828095Y-71931904D01*
X181713809Y-71893809D01*
X181637619Y-71817619D01*
X181599523Y-71741428D01*
X181561428Y-71589047D01*
X181561428Y-71474761D01*
X181599523Y-71322380D01*
X181637619Y-71246190D01*
X181713809Y-71170000D01*
X181828095Y-71131904D01*
X181904285Y-71131904D01*
X182018571Y-71170000D01*
X182056666Y-71208095D01*
X182780476Y-71131904D02*
X182399523Y-71131904D01*
X182361428Y-71512857D01*
X182399523Y-71474761D01*
X182475714Y-71436666D01*
X182666190Y-71436666D01*
X182742380Y-71474761D01*
X182780476Y-71512857D01*
X182818571Y-71589047D01*
X182818571Y-71779523D01*
X182780476Y-71855714D01*
X182742380Y-71893809D01*
X182666190Y-71931904D01*
X182475714Y-71931904D01*
X182399523Y-71893809D01*
X182361428Y-71855714D01*
%TO.C,C4*%
X110585266Y-79559114D02*
X110547171Y-79597209D01*
X110432885Y-79635304D01*
X110356695Y-79635304D01*
X110242409Y-79597209D01*
X110166219Y-79521019D01*
X110128123Y-79444828D01*
X110090028Y-79292447D01*
X110090028Y-79178161D01*
X110128123Y-79025780D01*
X110166219Y-78949590D01*
X110242409Y-78873400D01*
X110356695Y-78835304D01*
X110432885Y-78835304D01*
X110547171Y-78873400D01*
X110585266Y-78911495D01*
X111270980Y-79101971D02*
X111270980Y-79635304D01*
X111080504Y-78797209D02*
X110890028Y-79368638D01*
X111385266Y-79368638D01*
%TO.C,C3*%
X125666666Y-79375714D02*
X125628571Y-79413809D01*
X125514285Y-79451904D01*
X125438095Y-79451904D01*
X125323809Y-79413809D01*
X125247619Y-79337619D01*
X125209523Y-79261428D01*
X125171428Y-79109047D01*
X125171428Y-78994761D01*
X125209523Y-78842380D01*
X125247619Y-78766190D01*
X125323809Y-78690000D01*
X125438095Y-78651904D01*
X125514285Y-78651904D01*
X125628571Y-78690000D01*
X125666666Y-78728095D01*
X125933333Y-78651904D02*
X126428571Y-78651904D01*
X126161904Y-78956666D01*
X126276190Y-78956666D01*
X126352380Y-78994761D01*
X126390476Y-79032857D01*
X126428571Y-79109047D01*
X126428571Y-79299523D01*
X126390476Y-79375714D01*
X126352380Y-79413809D01*
X126276190Y-79451904D01*
X126047619Y-79451904D01*
X125971428Y-79413809D01*
X125933333Y-79375714D01*
%TO.C,C2*%
X174775466Y-82689514D02*
X174737371Y-82727609D01*
X174623085Y-82765704D01*
X174546895Y-82765704D01*
X174432609Y-82727609D01*
X174356419Y-82651419D01*
X174318323Y-82575228D01*
X174280228Y-82422847D01*
X174280228Y-82308561D01*
X174318323Y-82156180D01*
X174356419Y-82079990D01*
X174432609Y-82003800D01*
X174546895Y-81965704D01*
X174623085Y-81965704D01*
X174737371Y-82003800D01*
X174775466Y-82041895D01*
X175080228Y-82041895D02*
X175118323Y-82003800D01*
X175194514Y-81965704D01*
X175384990Y-81965704D01*
X175461180Y-82003800D01*
X175499276Y-82041895D01*
X175537371Y-82118085D01*
X175537371Y-82194276D01*
X175499276Y-82308561D01*
X175042133Y-82765704D01*
X175537371Y-82765704D01*
%TO.C,C1*%
X144966666Y-82715714D02*
X144928571Y-82753809D01*
X144814285Y-82791904D01*
X144738095Y-82791904D01*
X144623809Y-82753809D01*
X144547619Y-82677619D01*
X144509523Y-82601428D01*
X144471428Y-82449047D01*
X144471428Y-82334761D01*
X144509523Y-82182380D01*
X144547619Y-82106190D01*
X144623809Y-82030000D01*
X144738095Y-81991904D01*
X144814285Y-81991904D01*
X144928571Y-82030000D01*
X144966666Y-82068095D01*
X145728571Y-82791904D02*
X145271428Y-82791904D01*
X145500000Y-82791904D02*
X145500000Y-81991904D01*
X145423809Y-82106190D01*
X145347619Y-82182380D01*
X145271428Y-82220476D01*
%TD*%
M02*
