%TF.GenerationSoftware,KiCad,Pcbnew,(5.1.10)-1*%
%TF.CreationDate,2021-12-03T15:52:50+05:30*%
%TF.ProjectId,Relay Board 2.0,52656c61-7920-4426-9f61-726420322e30,rev?*%
%TF.SameCoordinates,Original*%
%TF.FileFunction,Legend,Bot*%
%TF.FilePolarity,Positive*%
%FSLAX46Y46*%
G04 Gerber Fmt 4.6, Leading zero omitted, Abs format (unit mm)*
G04 Created by KiCad (PCBNEW (5.1.10)-1) date 2021-12-03 15:52:50*
%MOMM*%
%LPD*%
G01*
G04 APERTURE LIST*
%ADD10C,0.100000*%
%ADD11C,0.300000*%
%ADD12C,0.150000*%
G04 APERTURE END LIST*
D10*
X140815714Y-52151190D02*
X140815714Y-51651190D01*
X140649047Y-52008333D01*
X140482380Y-51651190D01*
X140482380Y-52151190D01*
X140244285Y-52151190D02*
X140244285Y-51651190D01*
X140030000Y-52127380D02*
X139958571Y-52151190D01*
X139839523Y-52151190D01*
X139791904Y-52127380D01*
X139768095Y-52103571D01*
X139744285Y-52055952D01*
X139744285Y-52008333D01*
X139768095Y-51960714D01*
X139791904Y-51936904D01*
X139839523Y-51913095D01*
X139934761Y-51889285D01*
X139982380Y-51865476D01*
X140006190Y-51841666D01*
X140030000Y-51794047D01*
X140030000Y-51746428D01*
X140006190Y-51698809D01*
X139982380Y-51675000D01*
X139934761Y-51651190D01*
X139815714Y-51651190D01*
X139744285Y-51675000D01*
X139434761Y-51651190D02*
X139339523Y-51651190D01*
X139291904Y-51675000D01*
X139244285Y-51722619D01*
X139220476Y-51817857D01*
X139220476Y-51984523D01*
X139244285Y-52079761D01*
X139291904Y-52127380D01*
X139339523Y-52151190D01*
X139434761Y-52151190D01*
X139482380Y-52127380D01*
X139530000Y-52079761D01*
X139553809Y-51984523D01*
X139553809Y-51817857D01*
X139530000Y-51722619D01*
X139482380Y-51675000D01*
X139434761Y-51651190D01*
X153180952Y-51600000D02*
X153228571Y-51576190D01*
X153300000Y-51576190D01*
X153371428Y-51600000D01*
X153419047Y-51647619D01*
X153442857Y-51695238D01*
X153466666Y-51790476D01*
X153466666Y-51861904D01*
X153442857Y-51957142D01*
X153419047Y-52004761D01*
X153371428Y-52052380D01*
X153300000Y-52076190D01*
X153252380Y-52076190D01*
X153180952Y-52052380D01*
X153157142Y-52028571D01*
X153157142Y-51861904D01*
X153252380Y-51861904D01*
X152942857Y-52076190D02*
X152942857Y-51576190D01*
X152657142Y-52076190D01*
X152657142Y-51576190D01*
X152419047Y-52076190D02*
X152419047Y-51576190D01*
X152300000Y-51576190D01*
X152228571Y-51600000D01*
X152180952Y-51647619D01*
X152157142Y-51695238D01*
X152133333Y-51790476D01*
X152133333Y-51861904D01*
X152157142Y-51957142D01*
X152180952Y-52004761D01*
X152228571Y-52052380D01*
X152300000Y-52076190D01*
X152419047Y-52076190D01*
X145742857Y-52077380D02*
X145671428Y-52101190D01*
X145552380Y-52101190D01*
X145504761Y-52077380D01*
X145480952Y-52053571D01*
X145457142Y-52005952D01*
X145457142Y-51958333D01*
X145480952Y-51910714D01*
X145504761Y-51886904D01*
X145552380Y-51863095D01*
X145647619Y-51839285D01*
X145695238Y-51815476D01*
X145719047Y-51791666D01*
X145742857Y-51744047D01*
X145742857Y-51696428D01*
X145719047Y-51648809D01*
X145695238Y-51625000D01*
X145647619Y-51601190D01*
X145528571Y-51601190D01*
X145457142Y-51625000D01*
X144957142Y-52053571D02*
X144980952Y-52077380D01*
X145052380Y-52101190D01*
X145100000Y-52101190D01*
X145171428Y-52077380D01*
X145219047Y-52029761D01*
X145242857Y-51982142D01*
X145266666Y-51886904D01*
X145266666Y-51815476D01*
X145242857Y-51720238D01*
X145219047Y-51672619D01*
X145171428Y-51625000D01*
X145100000Y-51601190D01*
X145052380Y-51601190D01*
X144980952Y-51625000D01*
X144957142Y-51648809D01*
X144742857Y-52101190D02*
X144742857Y-51601190D01*
X144457142Y-52101190D02*
X144671428Y-51815476D01*
X144457142Y-51601190D02*
X144742857Y-51886904D01*
X143338095Y-51601190D02*
X143028571Y-51601190D01*
X143195238Y-51791666D01*
X143123809Y-51791666D01*
X143076190Y-51815476D01*
X143052380Y-51839285D01*
X143028571Y-51886904D01*
X143028571Y-52005952D01*
X143052380Y-52053571D01*
X143076190Y-52077380D01*
X143123809Y-52101190D01*
X143266666Y-52101190D01*
X143314285Y-52077380D01*
X143338095Y-52053571D01*
X142814285Y-52053571D02*
X142790476Y-52077380D01*
X142814285Y-52101190D01*
X142838095Y-52077380D01*
X142814285Y-52053571D01*
X142814285Y-52101190D01*
X142623809Y-51601190D02*
X142314285Y-51601190D01*
X142480952Y-51791666D01*
X142409523Y-51791666D01*
X142361904Y-51815476D01*
X142338095Y-51839285D01*
X142314285Y-51886904D01*
X142314285Y-52005952D01*
X142338095Y-52053571D01*
X142361904Y-52077380D01*
X142409523Y-52101190D01*
X142552380Y-52101190D01*
X142600000Y-52077380D01*
X142623809Y-52053571D01*
X142171428Y-51601190D02*
X142004761Y-52101190D01*
X141838095Y-51601190D01*
X150533333Y-52101190D02*
X150700000Y-51863095D01*
X150819047Y-52101190D02*
X150819047Y-51601190D01*
X150628571Y-51601190D01*
X150580952Y-51625000D01*
X150557142Y-51648809D01*
X150533333Y-51696428D01*
X150533333Y-51767857D01*
X150557142Y-51815476D01*
X150580952Y-51839285D01*
X150628571Y-51863095D01*
X150819047Y-51863095D01*
X150342857Y-52077380D02*
X150271428Y-52101190D01*
X150152380Y-52101190D01*
X150104761Y-52077380D01*
X150080952Y-52053571D01*
X150057142Y-52005952D01*
X150057142Y-51958333D01*
X150080952Y-51910714D01*
X150104761Y-51886904D01*
X150152380Y-51863095D01*
X150247619Y-51839285D01*
X150295238Y-51815476D01*
X150319047Y-51791666D01*
X150342857Y-51744047D01*
X150342857Y-51696428D01*
X150319047Y-51648809D01*
X150295238Y-51625000D01*
X150247619Y-51601190D01*
X150128571Y-51601190D01*
X150057142Y-51625000D01*
X149676190Y-51839285D02*
X149604761Y-51863095D01*
X149580952Y-51886904D01*
X149557142Y-51934523D01*
X149557142Y-52005952D01*
X149580952Y-52053571D01*
X149604761Y-52077380D01*
X149652380Y-52101190D01*
X149842857Y-52101190D01*
X149842857Y-51601190D01*
X149676190Y-51601190D01*
X149628571Y-51625000D01*
X149604761Y-51648809D01*
X149580952Y-51696428D01*
X149580952Y-51744047D01*
X149604761Y-51791666D01*
X149628571Y-51815476D01*
X149676190Y-51839285D01*
X149842857Y-51839285D01*
X148535714Y-52101190D02*
X148535714Y-51601190D01*
X148369047Y-51958333D01*
X148202380Y-51601190D01*
X148202380Y-52101190D01*
X147869047Y-51601190D02*
X147773809Y-51601190D01*
X147726190Y-51625000D01*
X147678571Y-51672619D01*
X147654761Y-51767857D01*
X147654761Y-51934523D01*
X147678571Y-52029761D01*
X147726190Y-52077380D01*
X147773809Y-52101190D01*
X147869047Y-52101190D01*
X147916666Y-52077380D01*
X147964285Y-52029761D01*
X147988095Y-51934523D01*
X147988095Y-51767857D01*
X147964285Y-51672619D01*
X147916666Y-51625000D01*
X147869047Y-51601190D01*
X147464285Y-52077380D02*
X147392857Y-52101190D01*
X147273809Y-52101190D01*
X147226190Y-52077380D01*
X147202380Y-52053571D01*
X147178571Y-52005952D01*
X147178571Y-51958333D01*
X147202380Y-51910714D01*
X147226190Y-51886904D01*
X147273809Y-51863095D01*
X147369047Y-51839285D01*
X147416666Y-51815476D01*
X147440476Y-51791666D01*
X147464285Y-51744047D01*
X147464285Y-51696428D01*
X147440476Y-51648809D01*
X147416666Y-51625000D01*
X147369047Y-51601190D01*
X147250000Y-51601190D01*
X147178571Y-51625000D01*
X146964285Y-52101190D02*
X146964285Y-51601190D01*
D11*
X167840000Y-76648571D02*
X167840000Y-75148571D01*
X167340000Y-76220000D01*
X166840000Y-75148571D01*
X166840000Y-76648571D01*
X166197142Y-76220000D02*
X165482857Y-76220000D01*
X166340000Y-76648571D02*
X165840000Y-75148571D01*
X165340000Y-76648571D01*
X164840000Y-76648571D02*
X164840000Y-75148571D01*
X164482857Y-75148571D01*
X164268571Y-75220000D01*
X164125714Y-75362857D01*
X164054285Y-75505714D01*
X163982857Y-75791428D01*
X163982857Y-76005714D01*
X164054285Y-76291428D01*
X164125714Y-76434285D01*
X164268571Y-76577142D01*
X164482857Y-76648571D01*
X164840000Y-76648571D01*
X163340000Y-75862857D02*
X162840000Y-75862857D01*
X162625714Y-76648571D02*
X163340000Y-76648571D01*
X163340000Y-75148571D01*
X162625714Y-75148571D01*
X160840000Y-76648571D02*
X160840000Y-75148571D01*
X160125714Y-76648571D02*
X160125714Y-75148571D01*
X159268571Y-76648571D01*
X159268571Y-75148571D01*
X157411428Y-76648571D02*
X157411428Y-75148571D01*
X156697142Y-76648571D02*
X156697142Y-75148571D01*
X155840000Y-76648571D01*
X155840000Y-75148571D01*
X155125714Y-76648571D02*
X155125714Y-75148571D01*
X154768571Y-75148571D01*
X154554285Y-75220000D01*
X154411428Y-75362857D01*
X154340000Y-75505714D01*
X154268571Y-75791428D01*
X154268571Y-76005714D01*
X154340000Y-76291428D01*
X154411428Y-76434285D01*
X154554285Y-76577142D01*
X154768571Y-76648571D01*
X155125714Y-76648571D01*
X153625714Y-76648571D02*
X153625714Y-75148571D01*
X152982857Y-76220000D02*
X152268571Y-76220000D01*
X153125714Y-76648571D02*
X152625714Y-75148571D01*
X152125714Y-76648571D01*
D12*
X130565714Y-79451666D02*
X130089523Y-79451666D01*
X130660952Y-79737380D02*
X130327619Y-78737380D01*
X129994285Y-79737380D01*
X129660952Y-79356428D02*
X128899047Y-79356428D01*
X127899047Y-79737380D02*
X128470476Y-79737380D01*
X128184761Y-79737380D02*
X128184761Y-78737380D01*
X128280000Y-78880238D01*
X128375238Y-78975476D01*
X128470476Y-79023095D01*
X126375238Y-79213571D02*
X126708571Y-79213571D01*
X126708571Y-79737380D02*
X126708571Y-78737380D01*
X126232380Y-78737380D01*
X125470476Y-79689761D02*
X125565714Y-79737380D01*
X125756190Y-79737380D01*
X125851428Y-79689761D01*
X125899047Y-79594523D01*
X125899047Y-79213571D01*
X125851428Y-79118333D01*
X125756190Y-79070714D01*
X125565714Y-79070714D01*
X125470476Y-79118333D01*
X125422857Y-79213571D01*
X125422857Y-79308809D01*
X125899047Y-79404047D01*
X124994285Y-79070714D02*
X124994285Y-79737380D01*
X124994285Y-79165952D02*
X124946666Y-79118333D01*
X124851428Y-79070714D01*
X124708571Y-79070714D01*
X124613333Y-79118333D01*
X124565714Y-79213571D01*
X124565714Y-79737380D01*
X123660952Y-79689761D02*
X123756190Y-79737380D01*
X123946666Y-79737380D01*
X124041904Y-79689761D01*
X124089523Y-79642142D01*
X124137142Y-79546904D01*
X124137142Y-79261190D01*
X124089523Y-79165952D01*
X124041904Y-79118333D01*
X123946666Y-79070714D01*
X123756190Y-79070714D01*
X123660952Y-79118333D01*
X122851428Y-79689761D02*
X122946666Y-79737380D01*
X123137142Y-79737380D01*
X123232380Y-79689761D01*
X123280000Y-79594523D01*
X123280000Y-79213571D01*
X123232380Y-79118333D01*
X123137142Y-79070714D01*
X122946666Y-79070714D01*
X122851428Y-79118333D01*
X122803809Y-79213571D01*
X122803809Y-79308809D01*
X123280000Y-79404047D01*
X121613333Y-79737380D02*
X121613333Y-78737380D01*
X121232380Y-78737380D01*
X121137142Y-78785000D01*
X121089523Y-78832619D01*
X121041904Y-78927857D01*
X121041904Y-79070714D01*
X121089523Y-79165952D01*
X121137142Y-79213571D01*
X121232380Y-79261190D01*
X121613333Y-79261190D01*
X120613333Y-79737380D02*
X120613333Y-79070714D01*
X120613333Y-79261190D02*
X120565714Y-79165952D01*
X120518095Y-79118333D01*
X120422857Y-79070714D01*
X120327619Y-79070714D01*
X119851428Y-79737380D02*
X119946666Y-79689761D01*
X119994285Y-79642142D01*
X120041904Y-79546904D01*
X120041904Y-79261190D01*
X119994285Y-79165952D01*
X119946666Y-79118333D01*
X119851428Y-79070714D01*
X119708571Y-79070714D01*
X119613333Y-79118333D01*
X119565714Y-79165952D01*
X119518095Y-79261190D01*
X119518095Y-79546904D01*
X119565714Y-79642142D01*
X119613333Y-79689761D01*
X119708571Y-79737380D01*
X119851428Y-79737380D01*
X118660952Y-79737380D02*
X118660952Y-78737380D01*
X118660952Y-79689761D02*
X118756190Y-79737380D01*
X118946666Y-79737380D01*
X119041904Y-79689761D01*
X119089523Y-79642142D01*
X119137142Y-79546904D01*
X119137142Y-79261190D01*
X119089523Y-79165952D01*
X119041904Y-79118333D01*
X118946666Y-79070714D01*
X118756190Y-79070714D01*
X118660952Y-79118333D01*
X117756190Y-79070714D02*
X117756190Y-79737380D01*
X118184761Y-79070714D02*
X118184761Y-79594523D01*
X118137142Y-79689761D01*
X118041904Y-79737380D01*
X117899047Y-79737380D01*
X117803809Y-79689761D01*
X117756190Y-79642142D01*
X116851428Y-79689761D02*
X116946666Y-79737380D01*
X117137142Y-79737380D01*
X117232380Y-79689761D01*
X117280000Y-79642142D01*
X117327619Y-79546904D01*
X117327619Y-79261190D01*
X117280000Y-79165952D01*
X117232380Y-79118333D01*
X117137142Y-79070714D01*
X116946666Y-79070714D01*
X116851428Y-79118333D01*
X116565714Y-79070714D02*
X116184761Y-79070714D01*
X116422857Y-78737380D02*
X116422857Y-79594523D01*
X116375238Y-79689761D01*
X116280000Y-79737380D01*
X116184761Y-79737380D01*
X115899047Y-79689761D02*
X115803809Y-79737380D01*
X115613333Y-79737380D01*
X115518095Y-79689761D01*
X115470476Y-79594523D01*
X115470476Y-79546904D01*
X115518095Y-79451666D01*
X115613333Y-79404047D01*
X115756190Y-79404047D01*
X115851428Y-79356428D01*
X115899047Y-79261190D01*
X115899047Y-79213571D01*
X115851428Y-79118333D01*
X115756190Y-79070714D01*
X115613333Y-79070714D01*
X115518095Y-79118333D01*
X113708571Y-79642142D02*
X113756190Y-79689761D01*
X113899047Y-79737380D01*
X113994285Y-79737380D01*
X114137142Y-79689761D01*
X114232380Y-79594523D01*
X114280000Y-79499285D01*
X114327619Y-79308809D01*
X114327619Y-79165952D01*
X114280000Y-78975476D01*
X114232380Y-78880238D01*
X114137142Y-78785000D01*
X113994285Y-78737380D01*
X113899047Y-78737380D01*
X113756190Y-78785000D01*
X113708571Y-78832619D01*
X113137142Y-79737380D02*
X113232380Y-79689761D01*
X113280000Y-79642142D01*
X113327619Y-79546904D01*
X113327619Y-79261190D01*
X113280000Y-79165952D01*
X113232380Y-79118333D01*
X113137142Y-79070714D01*
X112994285Y-79070714D01*
X112899047Y-79118333D01*
X112851428Y-79165952D01*
X112803809Y-79261190D01*
X112803809Y-79546904D01*
X112851428Y-79642142D01*
X112899047Y-79689761D01*
X112994285Y-79737380D01*
X113137142Y-79737380D01*
X112375238Y-79737380D02*
X112375238Y-79070714D01*
X112375238Y-79165952D02*
X112327619Y-79118333D01*
X112232380Y-79070714D01*
X112089523Y-79070714D01*
X111994285Y-79118333D01*
X111946666Y-79213571D01*
X111946666Y-79737380D01*
X111946666Y-79213571D02*
X111899047Y-79118333D01*
X111803809Y-79070714D01*
X111660952Y-79070714D01*
X111565714Y-79118333D01*
X111518095Y-79213571D01*
X111518095Y-79737380D01*
X111041904Y-79070714D02*
X111041904Y-80070714D01*
X111041904Y-79118333D02*
X110946666Y-79070714D01*
X110756190Y-79070714D01*
X110660952Y-79118333D01*
X110613333Y-79165952D01*
X110565714Y-79261190D01*
X110565714Y-79546904D01*
X110613333Y-79642142D01*
X110660952Y-79689761D01*
X110756190Y-79737380D01*
X110946666Y-79737380D01*
X111041904Y-79689761D01*
X109708571Y-79737380D02*
X109708571Y-79213571D01*
X109756190Y-79118333D01*
X109851428Y-79070714D01*
X110041904Y-79070714D01*
X110137142Y-79118333D01*
X109708571Y-79689761D02*
X109803809Y-79737380D01*
X110041904Y-79737380D01*
X110137142Y-79689761D01*
X110184761Y-79594523D01*
X110184761Y-79499285D01*
X110137142Y-79404047D01*
X110041904Y-79356428D01*
X109803809Y-79356428D01*
X109708571Y-79308809D01*
X109232380Y-79070714D02*
X109232380Y-79737380D01*
X109232380Y-79165952D02*
X109184761Y-79118333D01*
X109089523Y-79070714D01*
X108946666Y-79070714D01*
X108851428Y-79118333D01*
X108803809Y-79213571D01*
X108803809Y-79737380D01*
X108422857Y-79070714D02*
X108184761Y-79737380D01*
X107946666Y-79070714D02*
X108184761Y-79737380D01*
X108280000Y-79975476D01*
X108327619Y-80023095D01*
X108422857Y-80070714D01*
X120422857Y-81387380D02*
X120756190Y-80911190D01*
X120994285Y-81387380D02*
X120994285Y-80387380D01*
X120613333Y-80387380D01*
X120518095Y-80435000D01*
X120470476Y-80482619D01*
X120422857Y-80577857D01*
X120422857Y-80720714D01*
X120470476Y-80815952D01*
X120518095Y-80863571D01*
X120613333Y-80911190D01*
X120994285Y-80911190D01*
X119613333Y-81339761D02*
X119708571Y-81387380D01*
X119899047Y-81387380D01*
X119994285Y-81339761D01*
X120041904Y-81244523D01*
X120041904Y-80863571D01*
X119994285Y-80768333D01*
X119899047Y-80720714D01*
X119708571Y-80720714D01*
X119613333Y-80768333D01*
X119565714Y-80863571D01*
X119565714Y-80958809D01*
X120041904Y-81054047D01*
X118994285Y-81387380D02*
X119089523Y-81339761D01*
X119137142Y-81244523D01*
X119137142Y-80387380D01*
X118184761Y-81387380D02*
X118184761Y-80863571D01*
X118232380Y-80768333D01*
X118327619Y-80720714D01*
X118518095Y-80720714D01*
X118613333Y-80768333D01*
X118184761Y-81339761D02*
X118280000Y-81387380D01*
X118518095Y-81387380D01*
X118613333Y-81339761D01*
X118660952Y-81244523D01*
X118660952Y-81149285D01*
X118613333Y-81054047D01*
X118518095Y-81006428D01*
X118280000Y-81006428D01*
X118184761Y-80958809D01*
X117803809Y-80720714D02*
X117565714Y-81387380D01*
X117327619Y-80720714D02*
X117565714Y-81387380D01*
X117660952Y-81625476D01*
X117708571Y-81673095D01*
X117803809Y-81720714D01*
X115851428Y-80863571D02*
X115708571Y-80911190D01*
X115660952Y-80958809D01*
X115613333Y-81054047D01*
X115613333Y-81196904D01*
X115660952Y-81292142D01*
X115708571Y-81339761D01*
X115803809Y-81387380D01*
X116184761Y-81387380D01*
X116184761Y-80387380D01*
X115851428Y-80387380D01*
X115756190Y-80435000D01*
X115708571Y-80482619D01*
X115660952Y-80577857D01*
X115660952Y-80673095D01*
X115708571Y-80768333D01*
X115756190Y-80815952D01*
X115851428Y-80863571D01*
X116184761Y-80863571D01*
X115041904Y-81387380D02*
X115137142Y-81339761D01*
X115184761Y-81292142D01*
X115232380Y-81196904D01*
X115232380Y-80911190D01*
X115184761Y-80815952D01*
X115137142Y-80768333D01*
X115041904Y-80720714D01*
X114899047Y-80720714D01*
X114803809Y-80768333D01*
X114756190Y-80815952D01*
X114708571Y-80911190D01*
X114708571Y-81196904D01*
X114756190Y-81292142D01*
X114803809Y-81339761D01*
X114899047Y-81387380D01*
X115041904Y-81387380D01*
X113851428Y-81387380D02*
X113851428Y-80863571D01*
X113899047Y-80768333D01*
X113994285Y-80720714D01*
X114184761Y-80720714D01*
X114280000Y-80768333D01*
X113851428Y-81339761D02*
X113946666Y-81387380D01*
X114184761Y-81387380D01*
X114280000Y-81339761D01*
X114327619Y-81244523D01*
X114327619Y-81149285D01*
X114280000Y-81054047D01*
X114184761Y-81006428D01*
X113946666Y-81006428D01*
X113851428Y-80958809D01*
X113375238Y-81387380D02*
X113375238Y-80720714D01*
X113375238Y-80911190D02*
X113327619Y-80815952D01*
X113280000Y-80768333D01*
X113184761Y-80720714D01*
X113089523Y-80720714D01*
X112327619Y-81387380D02*
X112327619Y-80387380D01*
X112327619Y-81339761D02*
X112422857Y-81387380D01*
X112613333Y-81387380D01*
X112708571Y-81339761D01*
X112756190Y-81292142D01*
X112803809Y-81196904D01*
X112803809Y-80911190D01*
X112756190Y-80815952D01*
X112708571Y-80768333D01*
X112613333Y-80720714D01*
X112422857Y-80720714D01*
X112327619Y-80768333D01*
X111137142Y-80482619D02*
X111089523Y-80435000D01*
X110994285Y-80387380D01*
X110756190Y-80387380D01*
X110660952Y-80435000D01*
X110613333Y-80482619D01*
X110565714Y-80577857D01*
X110565714Y-80673095D01*
X110613333Y-80815952D01*
X111184761Y-81387380D01*
X110565714Y-81387380D01*
X110137142Y-81292142D02*
X110089523Y-81339761D01*
X110137142Y-81387380D01*
X110184761Y-81339761D01*
X110137142Y-81292142D01*
X110137142Y-81387380D01*
X109470476Y-80387380D02*
X109375238Y-80387380D01*
X109280000Y-80435000D01*
X109232380Y-80482619D01*
X109184761Y-80577857D01*
X109137142Y-80768333D01*
X109137142Y-81006428D01*
X109184761Y-81196904D01*
X109232380Y-81292142D01*
X109280000Y-81339761D01*
X109375238Y-81387380D01*
X109470476Y-81387380D01*
X109565714Y-81339761D01*
X109613333Y-81292142D01*
X109660952Y-81196904D01*
X109708571Y-81006428D01*
X109708571Y-80768333D01*
X109660952Y-80577857D01*
X109613333Y-80482619D01*
X109565714Y-80435000D01*
X109470476Y-80387380D01*
D11*
X102108571Y-99790000D02*
X100608571Y-99790000D01*
X100608571Y-100147142D01*
X100680000Y-100361428D01*
X100822857Y-100504285D01*
X100965714Y-100575714D01*
X101251428Y-100647142D01*
X101465714Y-100647142D01*
X101751428Y-100575714D01*
X101894285Y-100504285D01*
X102037142Y-100361428D01*
X102108571Y-100147142D01*
X102108571Y-99790000D01*
X102037142Y-101861428D02*
X102108571Y-101718571D01*
X102108571Y-101432857D01*
X102037142Y-101290000D01*
X101894285Y-101218571D01*
X101322857Y-101218571D01*
X101180000Y-101290000D01*
X101108571Y-101432857D01*
X101108571Y-101718571D01*
X101180000Y-101861428D01*
X101322857Y-101932857D01*
X101465714Y-101932857D01*
X101608571Y-101218571D01*
X102037142Y-102504285D02*
X102108571Y-102647142D01*
X102108571Y-102932857D01*
X102037142Y-103075714D01*
X101894285Y-103147142D01*
X101822857Y-103147142D01*
X101680000Y-103075714D01*
X101608571Y-102932857D01*
X101608571Y-102718571D01*
X101537142Y-102575714D01*
X101394285Y-102504285D01*
X101322857Y-102504285D01*
X101180000Y-102575714D01*
X101108571Y-102718571D01*
X101108571Y-102932857D01*
X101180000Y-103075714D01*
X102108571Y-103790000D02*
X101108571Y-103790000D01*
X100608571Y-103790000D02*
X100680000Y-103718571D01*
X100751428Y-103790000D01*
X100680000Y-103861428D01*
X100608571Y-103790000D01*
X100751428Y-103790000D01*
X101108571Y-105147142D02*
X102322857Y-105147142D01*
X102465714Y-105075714D01*
X102537142Y-105004285D01*
X102608571Y-104861428D01*
X102608571Y-104647142D01*
X102537142Y-104504285D01*
X102037142Y-105147142D02*
X102108571Y-105004285D01*
X102108571Y-104718571D01*
X102037142Y-104575714D01*
X101965714Y-104504285D01*
X101822857Y-104432857D01*
X101394285Y-104432857D01*
X101251428Y-104504285D01*
X101180000Y-104575714D01*
X101108571Y-104718571D01*
X101108571Y-105004285D01*
X101180000Y-105147142D01*
X101108571Y-105861428D02*
X102108571Y-105861428D01*
X101251428Y-105861428D02*
X101180000Y-105932857D01*
X101108571Y-106075714D01*
X101108571Y-106290000D01*
X101180000Y-106432857D01*
X101322857Y-106504285D01*
X102108571Y-106504285D01*
X101537142Y-107218571D02*
X101537142Y-108361428D01*
X101680000Y-110147142D02*
X101680000Y-110861428D01*
X102108571Y-110004285D02*
X100608571Y-110504285D01*
X102108571Y-111004285D01*
X102037142Y-111432857D02*
X102108571Y-111647142D01*
X102108571Y-112004285D01*
X102037142Y-112147142D01*
X101965714Y-112218571D01*
X101822857Y-112290000D01*
X101680000Y-112290000D01*
X101537142Y-112218571D01*
X101465714Y-112147142D01*
X101394285Y-112004285D01*
X101322857Y-111718571D01*
X101251428Y-111575714D01*
X101180000Y-111504285D01*
X101037142Y-111432857D01*
X100894285Y-111432857D01*
X100751428Y-111504285D01*
X100680000Y-111575714D01*
X100608571Y-111718571D01*
X100608571Y-112075714D01*
X100680000Y-112290000D01*
X102108571Y-112932857D02*
X100608571Y-112932857D01*
X101322857Y-112932857D02*
X101322857Y-113790000D01*
X102108571Y-113790000D02*
X100608571Y-113790000D01*
M02*
