%FSLAX45Y45*%
G04 Gerber Fmt 4.5, Leading zero omitted, Abs format (unit mm)*
G04 Created by KiCad (PCBNEW (5.1.10)-1) date 2021-12-03 15:52:54*
%MOMM*%
%LPD*%
G01*
G04 APERTURE LIST*
%TA.AperFunction,Profile*%
%ADD10C,0.050000*%
%TD*%
%ADD11C,0.200000*%
%ADD12C,0.300000*%
G04 APERTURE END LIST*
D10*
X15750960Y-4701000D02*
X19000000Y-4700000D01*
X10000000Y-4700000D02*
X13500960Y-4701000D01*
X12694000Y-7772000D02*
X11794000Y-7772000D01*
X12694000Y-7672000D02*
X12694000Y-7772000D01*
X11794000Y-7672000D02*
X12694000Y-7672000D01*
X11794000Y-7772000D02*
X11794000Y-7672000D01*
X13832000Y-8230000D02*
X13932000Y-8230000D01*
X13832000Y-10750000D02*
X13832000Y-10550000D01*
X13932000Y-10750000D02*
X13832000Y-10750000D01*
X13932000Y-8230000D02*
X13932000Y-10750000D01*
X13832000Y-10550000D02*
X13832000Y-8230000D01*
X12781000Y-7577000D02*
X13381000Y-7577000D01*
X13381000Y-7777000D02*
X12781000Y-7777000D01*
X13381000Y-7577000D02*
X13381000Y-7777000D01*
X12781000Y-7777000D02*
X12781000Y-7577000D01*
X11103000Y-7575000D02*
X11703000Y-7575000D01*
X11703000Y-7775000D02*
X11103000Y-7775000D01*
X11703000Y-7575000D02*
X11703000Y-7775000D01*
X11103000Y-7775000D02*
X11103000Y-7575000D01*
X18525000Y-7801000D02*
X18325000Y-7801000D01*
X18526000Y-7243000D02*
X18525000Y-7801000D01*
X18326000Y-7243000D02*
X18526000Y-7243000D01*
X18325000Y-7801000D02*
X18326000Y-7243000D01*
X15497000Y-5381000D02*
X15496960Y-4700060D01*
X15750960Y-4701000D02*
X15750960Y-5381000D01*
X13754960Y-4700060D02*
X13754960Y-5380060D01*
X13754960Y-5380060D02*
X13500960Y-5380060D01*
X15750960Y-5381000D02*
X15497000Y-5381000D01*
X15496960Y-4700060D02*
X13754960Y-4700060D01*
X13500960Y-5380060D02*
X13500960Y-4701000D01*
X10000000Y-11900000D02*
X19000000Y-11900000D01*
X19000000Y-11900000D02*
X19000000Y-4700000D01*
X10000000Y-11900000D02*
X10000000Y-4700000D01*
D11*
D12*
X10283928Y-12368214D02*
X10283928Y-12068214D01*
X10355357Y-12068214D01*
X10398214Y-12082500D01*
X10426786Y-12111071D01*
X10441071Y-12139643D01*
X10455357Y-12196786D01*
X10455357Y-12239643D01*
X10441071Y-12296786D01*
X10426786Y-12325357D01*
X10398214Y-12353929D01*
X10355357Y-12368214D01*
X10283928Y-12368214D01*
X10583928Y-12368214D02*
X10583928Y-12168214D01*
X10583928Y-12225357D02*
X10598214Y-12196786D01*
X10612500Y-12182500D01*
X10641071Y-12168214D01*
X10669643Y-12168214D01*
X10769643Y-12368214D02*
X10769643Y-12168214D01*
X10769643Y-12068214D02*
X10755357Y-12082500D01*
X10769643Y-12096786D01*
X10783928Y-12082500D01*
X10769643Y-12068214D01*
X10769643Y-12096786D01*
X10955357Y-12368214D02*
X10926786Y-12353929D01*
X10912500Y-12325357D01*
X10912500Y-12068214D01*
X11112500Y-12368214D02*
X11083928Y-12353929D01*
X11069643Y-12325357D01*
X11069643Y-12068214D01*
X11455357Y-12368214D02*
X11455357Y-12068214D01*
X11555357Y-12282500D01*
X11655357Y-12068214D01*
X11655357Y-12368214D01*
X11926786Y-12368214D02*
X11926786Y-12211071D01*
X11912500Y-12182500D01*
X11883928Y-12168214D01*
X11826786Y-12168214D01*
X11798214Y-12182500D01*
X11926786Y-12353929D02*
X11898214Y-12368214D01*
X11826786Y-12368214D01*
X11798214Y-12353929D01*
X11783928Y-12325357D01*
X11783928Y-12296786D01*
X11798214Y-12268214D01*
X11826786Y-12253929D01*
X11898214Y-12253929D01*
X11926786Y-12239643D01*
X12069643Y-12168214D02*
X12069643Y-12468214D01*
X12069643Y-12182500D02*
X12098214Y-12168214D01*
X12155357Y-12168214D01*
X12183928Y-12182500D01*
X12198214Y-12196786D01*
X12212500Y-12225357D01*
X12212500Y-12311071D01*
X12198214Y-12339643D01*
X12183928Y-12353929D01*
X12155357Y-12368214D01*
X12098214Y-12368214D01*
X12069643Y-12353929D01*
X12341071Y-12339643D02*
X12355357Y-12353929D01*
X12341071Y-12368214D01*
X12326786Y-12353929D01*
X12341071Y-12339643D01*
X12341071Y-12368214D01*
X12341071Y-12182500D02*
X12355357Y-12196786D01*
X12341071Y-12211071D01*
X12326786Y-12196786D01*
X12341071Y-12182500D01*
X12341071Y-12211071D01*
M02*
